<svg xmlns="http://www.w3.org/2000/svg" width="89" height="74" viewBox="0 0 89 74">
  <g id="Group_1913" data-name="Group 1913" transform="translate(-1380.5 -1854)">
    <g id="We_Find_The_Perfect_Match" transform="translate(1381 1854)">
      <g id="Post-A-Job" transform="translate(0 0)">
        <path id="Path_425" data-name="Path 425" d="M91,55.884A40.522,40.522,0,1,0,13.6,72.649H87.4A40.613,40.613,0,0,0,91,55.884Z" transform="translate(-6.5 -15.243)" fill="#dbf1fa"/>
        <path id="Path_467" data-name="Path 467" d="M0,0H79" transform="translate(4.5 57.407)" fill="none" stroke="#0da4de" stroke-linecap="round" stroke-width="1"/>
        <line id="Line_2" data-name="Line 2" x2="2.5" transform="translate(0 57.407)" fill="none" stroke="#0da4de" stroke-linecap="round" stroke-linejoin="round" stroke-width="1"/>
        <line id="Line_3" data-name="Line 3" x2="2.5" transform="translate(85.5 57.407)" fill="none" stroke="#0da4de" stroke-linecap="round" stroke-linejoin="round" stroke-width="1"/>
      </g>
    </g>
    <g id="personal-information" transform="translate(1402.499 1876.909)">
      <g id="Group_1911" data-name="Group 1911" transform="translate(0.748 0.748)">
        <path id="Path_773" data-name="Path 773" d="M286.982,392.383h-3.953l-4.529-9.1,14.968,3.115v2.994Z" transform="translate(-254.551 -345.782)" fill="#a8d2f0"/>
        <path id="Path_774" data-name="Path 774" d="M363.5,447.494h4.989a1.5,1.5,0,0,0,1.5-1.5v-1.5H363.5Z" transform="translate(-331.069 -400.893)" fill="#c8d2dc"/>
        <path id="Path_775" data-name="Path 775" d="M209.455,54.2h5.987a1.5,1.5,0,0,1,1.5,1.5V88.656a1.5,1.5,0,0,1-1.5,1.5H190a1.5,1.5,0,0,1-1.5-1.5V77.979Z" transform="translate(-173.532 -49.54)" fill="#fff"/>
        <path id="Path_776" data-name="Path 776" d="M190,54.2h19.458V81.888a1.5,1.5,0,0,1-1.5,1.5h-3.991v6.769h-2.994L188.5,55.7A1.5,1.5,0,0,1,190,54.2Z" transform="translate(-173.532 -49.54)" fill="#c8d2dc"/>
        <path id="Path_777" data-name="Path 777" d="M40,99.2a1.5,1.5,0,0,0-1.5,1.5v38.162a.787.787,0,0,0,.784.784H66.155a.787.787,0,0,0,.784-.784v-1.211Z" transform="translate(-38.5 -90.05)" fill="#fff"/>
        <path id="Path_778" data-name="Path 778" d="M58.988,99.2H53.5v37.735a.715.715,0,0,0,.712.712h26.23V121.981Z" transform="translate(-52.003 -90.05)" fill="#a8d2f0"/>
        <path id="Path_779" data-name="Path 779" d="M128.457,99.2H108.5v21.284a1.5,1.5,0,0,0,1.5,1.5h19.957V100.7A1.5,1.5,0,0,0,128.457,99.2Z" transform="translate(-101.515 -90.05)" fill="#fff"/>
        <path id="Path_780" data-name="Path 780" d="M152.449,37.436H130a1.5,1.5,0,0,1-1.5-1.5V9A1.5,1.5,0,0,1,130,7.5h22.452a1.5,1.5,0,0,1,1.5,1.5V35.939A1.5,1.5,0,0,1,152.449,37.436Z" transform="translate(-119.519 -7.5)" fill="#fff"/>
        <path id="Path_781" data-name="Path 781" d="M171.47,190.044c-.91.662-5.571.662-6.48,0-1.587,2.139-6.489.974-6.489,6.127v2.6h19.458v-2.6C177.959,191.019,173.058,192.183,171.47,190.044Z" transform="translate(-146.527 -171.829)" fill="#a8d2f0"/>
        <path id="Path_782" data-name="Path 782" d="M230.009,174.911a2.71,2.71,0,0,1-.49-1.678h-5.5a2.709,2.709,0,0,1-.49,1.678,5.508,5.508,0,0,0,6.481,0Z" transform="translate(-205.065 -156.695)" fill="#4980ac"/>
        <path id="Path_783" data-name="Path 783" d="M211.784,44.712a5.512,5.512,0,0,0-11.025,0V47.8a5.512,5.512,0,0,0,11.025,0Z" transform="translate(-184.568 -36.037)" fill="#fff"/>
      </g>
      <g id="Group_1912" data-name="Group 1912">
        <path id="Path_784" data-name="Path 784" d="M58.691,51.091H33.245A2.248,2.248,0,0,1,31,48.846V11.4A2.248,2.248,0,0,1,33.245,9.15h4.3a.748.748,0,0,1,0,1.5h-4.3a.749.749,0,0,0-.748.748v37.45a.749.749,0,0,0,.748.748H58.691a.749.749,0,0,0,.748-.748V31.433H42.226a2.248,2.248,0,0,1-2.245-2.245V2.245A2.248,2.248,0,0,1,42.226,0H64.678a2.248,2.248,0,0,1,2.245,2.245V9.729a.748.748,0,1,1-1.5,0V2.245a.749.749,0,0,0-.748-.748H42.226a.749.749,0,0,0-.748.748V29.188a.749.749,0,0,0,.748.748H64.678a.749.749,0,0,0,.748-.748V12.723a.748.748,0,0,1,.748-.748h4.49a.748.748,0,0,1,0,1.5H66.923v2.994h3.742a.748.748,0,0,1,0,1.5H66.923v2.994h3.742a.748.748,0,0,1,0,1.5H66.923v2.994h3.742a.748.748,0,0,1,0,1.5H66.923v2.245a2.236,2.236,0,0,1-.128.748h3.87a.748.748,0,0,1,0,1.5H60.936v2.994h9.729a.748.748,0,0,1,0,1.5H60.936v4.69H73.659a.749.749,0,0,0,.748-.748V6.905a.749.749,0,0,0-.748-.748h-4.49a.748.748,0,0,1,0-1.5h4.49A2.248,2.248,0,0,1,75.9,6.905V39.865a2.248,2.248,0,0,1-2.245,2.245H60.936V46.6h8.232a.749.749,0,0,0,.748-.748v-1.5a.748.748,0,0,1,1.5,0v1.5A2.248,2.248,0,0,1,69.168,48.1H60.936v.748A2.248,2.248,0,0,1,58.691,51.091Zm4.49-22.652H43.723a.748.748,0,0,1-.748-.748v-2.6c0-3.846,2.543-4.726,4.4-5.368,1.532-.53,2.4-.888,2.556-2.04a6.259,6.259,0,0,1-2.738-5.173V9.424a6.261,6.261,0,0,1,12.521,0V12.51a6.259,6.259,0,0,1-2.738,5.173c.153,1.153,1.023,1.51,2.556,2.04,1.857.643,4.4,1.522,4.4,5.368v2.6a.748.748,0,0,1-.748.748Zm-18.71-1.5H62.433V25.091c0-2.78-1.572-3.324-3.392-3.954-1.344-.465-2.965-1.026-3.446-2.745a6.266,6.266,0,0,1-4.286,0c-.481,1.719-2.1,2.28-3.446,2.745-1.82.63-3.392,1.174-3.392,3.954ZM53.452,4.66a4.769,4.769,0,0,0-4.764,4.764V12.51a4.764,4.764,0,0,0,9.528,0V9.424A4.769,4.769,0,0,0,53.452,4.66Z" transform="translate(-31)" fill="#2b5183"/>
      </g>
    </g>
  </g>
</svg>
