<svg xmlns="http://www.w3.org/2000/svg" width="88" height="76" viewBox="0 0 88 76">
  <g id="Get_Work_Done" transform="translate(-1493.5 -1630)">
    <g id="Post-A-Job" transform="translate(1487.5 1614.757)">
      <path id="Path_425" data-name="Path 425" d="M90,55.24a40,40,0,1,0-76.44,16.5H86.44A39.85,39.85,0,0,0,90,55.24Z" fill="#F3F9FB"/>
      <path id="Path_467" data-name="Path 467" d="M0,0H78" transform="translate(11 71.74)" fill="none" stroke="#0da4de" stroke-linecap="round" stroke-width="1"/>
      <line id="Line_2" data-name="Line 2" x2="2.5" transform="translate(6.5 71.74)" fill="none" stroke="#0da4de" stroke-linecap="round" stroke-linejoin="round" stroke-width="1"/>
      <line id="Line_3" data-name="Line 3" x2="2.5" transform="translate(91 71.74)" fill="none" stroke="#0da4de" stroke-linecap="round" stroke-linejoin="round" stroke-width="1"/>
    </g>
    <g id="get-work-done" transform="translate(578 1535)">
      <rect id="Rectangle_259" data-name="Rectangle 259" width="13" height="13" transform="translate(940 121)" fill="#fff"/>
      <rect id="Rectangle_260" data-name="Rectangle 260" width="13" height="13" transform="translate(940 139)" fill="#fff"/>
      <rect id="Rectangle_261" data-name="Rectangle 261" width="13" height="14" transform="translate(940 156)" fill="#fff"/>
      <path id="Path_583" data-name="Path 583" d="M973.263,138c-3.154,0-9.263,1.72-9.263,5.053v11.016a3.191,3.191,0,0,0,3.368,3.3h.842v16h10.105v-16h.842a3.191,3.191,0,0,0,3.368-3.3V143.053C982.526,139.72,976.417,138,973.263,138Z" transform="translate(-3.79 -2.684)" fill="#a8d2f0"/>
      <path id="Path_584" data-name="Path 584" d="M974.211,133.107a4.238,4.238,0,0,0,4.21-4.3v-1.433a4.211,4.211,0,1,0-8.421,0v1.433A4.238,4.238,0,0,0,974.211,133.107Z" transform="translate(-4.737 -0.329)" fill="#fff" stroke="#2b5183" stroke-miterlimit="10" stroke-width="2"/>
      <line id="Line_38" data-name="Line 38" y1="28" transform="translate(975 143)" fill="none" stroke="#2b5183" stroke-miterlimit="10" stroke-width="2"/>
      <line id="Line_39" data-name="Line 39" y2="28" transform="translate(964 143)" fill="none" stroke="#2b5183" stroke-miterlimit="10" stroke-width="2"/>
      <line id="Line_40" data-name="Line 40" y2="17" transform="translate(969 154)" fill="none" stroke="#2b5183" stroke-miterlimit="10" stroke-width="2"/>
      <path id="Path_585" data-name="Path 585" d="M968.211,157.368h-.842A3.246,3.246,0,0,1,964,154V143.053c0-3.332,6.109-5.053,9.263-5.053s9.263,1.72,9.263,5.053V154a3.246,3.246,0,0,1-3.368,3.368h-.842" transform="translate(-3.79 -2.684)" fill="none" stroke="#2b5183" stroke-miterlimit="10" stroke-width="2"/>
      <path id="Path_586" data-name="Path 586" d="M953.474,128.579v5.895H940V121h10.105" fill="none" stroke="#2b5183" stroke-linecap="round" stroke-linejoin="round" stroke-miterlimit="10" stroke-width="2"/>
      <path id="Path_587" data-name="Path 587" d="M944,127.737l3.368,3.368L955.789,121" transform="translate(-0.632)" fill="none" stroke="#2b5183" stroke-linecap="round" stroke-linejoin="round" stroke-miterlimit="10" stroke-width="2"/>
      <path id="Path_588" data-name="Path 588" d="M953.474,149.579v5.895H940V142h10.105" transform="translate(0 -3.316)" fill="none" stroke="#2b5183" stroke-linecap="round" stroke-linejoin="round" stroke-miterlimit="10" stroke-width="2"/>
      <path id="Path_589" data-name="Path 589" d="M944,148.737l3.368,3.368L955.789,142" transform="translate(-0.632 -3.316)" fill="none" stroke="#2b5183" stroke-linecap="round" stroke-linejoin="round" stroke-miterlimit="10" stroke-width="2"/>
      <path id="Path_590" data-name="Path 590" d="M953.474,170.579v5.895H940V163h10.105" transform="translate(0 -6.632)" fill="none" stroke="#2b5183" stroke-linecap="round" stroke-linejoin="round" stroke-miterlimit="10" stroke-width="2"/>
      <path id="Path_591" data-name="Path 591" d="M944,169.737l3.368,3.368L955.789,163" transform="translate(-0.632 -6.632)" fill="none" stroke="#2b5183" stroke-linecap="round" stroke-linejoin="round" stroke-miterlimit="10" stroke-width="2"/>
    </g>
  </g>
</svg>
