<svg xmlns="http://www.w3.org/2000/svg" width="88" height="73.495" viewBox="0 0 88 73.495">
  <g id="Pay_Securely" transform="translate(-1606.5 -1630)">
    <g id="Post-A-Job" transform="translate(1600.5 1614.757)">
      <path id="Path_425" data-name="Path 425" d="M90,55.24a40,40,0,1,0-76.44,16.5H86.44A39.85,39.85,0,0,0,90,55.24Z" fill="#F3F9FB"/>
      <path id="Path_467" data-name="Path 467" d="M0,0H78" transform="translate(11 71.74)" fill="none" stroke="#0da4de" stroke-linecap="round" stroke-width="1"/>
      <line id="Line_2" data-name="Line 2" x2="2.5" transform="translate(6.5 71.74)" fill="none" stroke="#0da4de" stroke-linecap="round" stroke-linejoin="round" stroke-width="1"/>
      <line id="Line_3" data-name="Line 3" x2="2.5" transform="translate(91 71.74)" fill="none" stroke="#0da4de" stroke-linecap="round" stroke-linejoin="round" stroke-width="1"/>
    </g>
    <g id="financail-money-payment-pay-hand" transform="translate(1582.231 1482.652)">
      <g id="Group_1862" data-name="Group 1862" transform="translate(53.798 183.514)">
        <path id="Path_592" data-name="Path 592" d="M153.213,302.2h39.025v22.058H153.213Z" transform="translate(-153.213 -302.198)" fill="#a8d2f0"/>
        <path id="Path_593" data-name="Path 593" d="M153.213,302.2h39.025v22.058H153.213Z" transform="translate(-153.213 -302.198)" fill="#a8d2f0"/>
        <path id="Path_594" data-name="Path 594" d="M153.213,302.2h39.025v22.058H153.213Z" transform="translate(-153.213 -302.198)" fill="#a8d2f0"/>
        <path id="Path_595" data-name="Path 595" d="M153.213,302.2h39.025v22.058H153.213Z" transform="translate(-153.213 -302.198)" fill="#a8d2f0"/>
      </g>
      <path id="Path_596" data-name="Path 596" d="M236.426,259.72v4.242H204.188l30.567-4.021Z" transform="translate(-145.3 -80.447)" fill="#a8d2f0"/>
      <path id="Path_597" data-name="Path 597" d="M211.864,221.484l.026.221-30.567,4.021h-2.537l33.078-8.484Z" transform="translate(-122.434 -42.211)" fill="#a8d2f0"/>
      <path id="Path_598" data-name="Path 598" d="M280.706,336.181a7.635,7.635,0,1,1-6.846,11.012,3.45,3.45,0,0,0,.619-1.943c-.009-.2-.025-.4-.051-.594a3.459,3.459,0,0,0-.942-1.807,3.127,3.127,0,0,0-.314-.272A7.636,7.636,0,0,1,280.706,336.181Z" transform="translate(-207.395 -149.273)" fill="#fff"/>
      <path id="Path_599" data-name="Path 599" d="M341.033,343.817a7.635,7.635,0,0,1-7.635,7.635,7.861,7.861,0,0,1-1.688-.187,7.635,7.635,0,0,0,.008-14.889,7.291,7.291,0,0,1,1.68-.2A7.636,7.636,0,0,1,341.033,343.817Z" transform="translate(-260.087 -149.273)" fill="#fff"/>
      <path id="Path_600" data-name="Path 600" d="M74.681,203.018c.025.2.042.39.051.594a3.45,3.45,0,0,1-.619,1.943,3.088,3.088,0,0,1-.373.45l-7.2,7.2,2.749,2.749a5.084,5.084,0,0,1,1.493,3.606v2.978H54.413l-3.02-10.571a3.485,3.485,0,0,1-.127-.933V200.541a3.33,3.33,0,0,1,.458-1.7l10.571-18.316a3.394,3.394,0,1,1,5.879,3.394L64,191.149H61.446v17.816l7.491-7.754a3.393,3.393,0,0,1,4.488-.272,3.125,3.125,0,0,1,.314.272,3.459,3.459,0,0,1,.942,1.807Z" transform="translate(-7.648 -7.635)" fill="#fff"/>
      <path id="Path_601" data-name="Path 601" d="M181.795,396.442a3.45,3.45,0,0,1-.619,1.943,3.09,3.09,0,0,1-.373.45l-7.2,7.2,2.749,2.749a5.084,5.084,0,0,1,1.493,3.606v2.978h-3.394v-2.978a5.084,5.084,0,0,0-1.493-3.606l-2.749-2.749,7.2-7.2a3.082,3.082,0,0,0,.373-.45,3.45,3.45,0,0,0,.619-1.943c-.008-.2-.025-.4-.051-.594a3.458,3.458,0,0,0-.942-1.807,3.128,3.128,0,0,0-.314-.272,2.86,2.86,0,0,0-.39-.263,3.394,3.394,0,0,1,3.784.263,3.122,3.122,0,0,1,.314.272,3.459,3.459,0,0,1,.942,1.807C181.769,396.044,181.786,396.239,181.795,396.442Z" transform="translate(-114.711 -200.465)" fill="#fff"/>
      <path id="Path_602" data-name="Path 602" d="M86.921,616.539v5.09H68.257v-5.09H86.921Z" transform="translate(-22.943 -401.634)" fill="#a8d2f0"/>
      <path id="Path_603" data-name="Path 603" d="M129.8,182.269a3.406,3.406,0,0,1-.45,1.688l-4.36,7.228-1.611.582-.756,3.66V212.4h-3.393V195.428l6.728-11.47a3.4,3.4,0,0,0-1.247-4.632,3.393,3.393,0,0,1,5.09,2.944Z" transform="translate(-68.828 -7.671)" fill="#fff"/>
      <path id="Path_604" data-name="Path 604" d="M510.032,302.2h3.394v22.058h-3.394Z" transform="translate(-420.602 -118.684)" fill="#a8d2f0"/>
      <path id="Path_605" data-name="Path 605" d="M92.823,182.666h-.848v-3.394a.848.848,0,0,0-.85-.847.832.832,0,0,0-.109.007l-.738.093v-3.5a.835.835,0,0,0-.331-.67.861.861,0,0,0-.729-.153L58.1,182.191l3.164-5.481a4.3,4.3,0,0,0,.56-2.112,4.242,4.242,0,0,0-7.915-2.13L43.346,190.777a4.219,4.219,0,0,0-.577,2.129V203.4a4.179,4.179,0,0,0,.161,1.162l2.706,9.493h-.322a.848.848,0,0,0-.848.848v5.09a.848.848,0,0,0,.848.848H63.978a.848.848,0,0,0,.848-.848V214.9a.848.848,0,0,0-.848-.848v-2.129a5.939,5.939,0,0,0-1.739-4.208l-1.306-1.3H92.823a.848.848,0,0,0,.848-.848V183.514a.848.848,0,0,0-.848-.848Zm-2.545-2.426v2.426H71.843Zm-1.7-4.115v2.63l-21.048,2.766ZM63.13,219.146H46.162v-3.394H63.13Zm-5.022-13.252a.776.776,0,0,0,.187.272l-.008.008,2.749,2.749a4.2,4.2,0,0,1,1.247,3v2.129H47.4L44.559,204.1a2.817,2.817,0,0,1-.093-.7V192.906a2.474,2.474,0,0,1,.348-1.273l10.571-18.316a2.524,2.524,0,0,1,3.443-.94l.027.015a2.5,2.5,0,0,1,1.273,2.206,2.546,2.546,0,0,1-.339,1.264l-3.928,6.8H53.8a.848.848,0,0,0-.848.848v17.816a.862.862,0,0,0,.526.789.849.849,0,0,0,.933-.2l7.483-7.737a2.551,2.551,0,0,1,4.3,1.315c.017.17.034.339.042.475a2.6,2.6,0,0,1-.747,1.8l-7.2,7.2A.848.848,0,0,0,58.108,205.895Zm33.867-1.171H60.933l5.387-5.379a8.4,8.4,0,0,0,6.991,3.682,8.484,8.484,0,1,0-8.094-11,4.27,4.27,0,0,0-4.539.967l-6.032,6.244V184.363H91.975Zm-24.111-9.5A4.264,4.264,0,0,0,66.71,193a6.807,6.807,0,1,1,.73,4.912,4.562,4.562,0,0,0,.492-1.968C67.923,195.714,67.9,195.494,67.864,195.222Z" transform="translate(0 0)" fill="#2b5183"/>
      <path id="Path_606" data-name="Path 606" d="M325.673,369.305a.848.848,0,0,1-.848-.848h-1.7a2.545,2.545,0,0,0,1.7,2.389v1h1.7v-1a2.539,2.539,0,0,0-.849-4.934.848.848,0,1,1,.849-.848h1.7a2.545,2.545,0,0,0-1.7-2.389v-1h-1.7v1a2.539,2.539,0,0,0,.848,4.934.848.848,0,1,1,0,1.7Z" transform="translate(-252.363 -172.217)" fill="#2b5183"/>
      <path id="Path_607" data-name="Path 607" d="M180.4,323.324a3.405,3.405,0,0,0,2.437-2.437h1.8v-1.7h-2.545a.848.848,0,0,0-.848.848,1.7,1.7,0,0,1-1.7,1.7.848.848,0,0,0-.848.848v2.545h1.7v-1.8Z" transform="translate(-122.356 -133.979)" fill="#2b5183"/>
      <path id="Path_608" data-name="Path 608" d="M463.3,331.82v1.8H465V331.08a.848.848,0,0,0-.848-.848,1.7,1.7,0,0,1-1.7-1.7.848.848,0,0,0-.849-.848H459.06v1.7h1.8A3.4,3.4,0,0,0,463.3,331.82Z" transform="translate(-374.72 -141.626)" fill="#2b5183"/>
      <path id="Path_609" data-name="Path 609" d="M462.453,443.22a1.7,1.7,0,0,1,1.7-1.7.848.848,0,0,0,.848-.848V438.13h-1.7v1.8a3.4,3.4,0,0,0-2.437,2.437h-1.8v1.7H461.6A.849.849,0,0,0,462.453,443.22Z" transform="translate(-374.72 -241.041)" fill="#2b5183"/>
    </g>
  </g>
</svg>
