<svg xmlns="http://www.w3.org/2000/svg" width="88" height="74.475" viewBox="0 0 88 74.475">
  <g id="We_Find_The_Perfect_Match" transform="translate(-1380.5 -1630)">
    <g id="Post-A-Job" transform="translate(1374.5 1614.757)">
      <path id="Path_425" data-name="Path 425" d="M90,55.24a40,40,0,1,0-76.44,16.5H86.44A39.85,39.85,0,0,0,90,55.24Z" fill="#F3F9FB"/>
      <path id="Path_467" data-name="Path 467" d="M0,0H78" transform="translate(11 71.74)" fill="none" stroke="#0da4de" stroke-linecap="round" stroke-width="1"/>
      <line id="Line_2" data-name="Line 2" x2="2.5" transform="translate(6.5 71.74)" fill="none" stroke="#0da4de" stroke-linecap="round" stroke-linejoin="round" stroke-width="1"/>
      <line id="Line_3" data-name="Line 3" x2="2.5" transform="translate(91 71.74)" fill="none" stroke="#0da4de" stroke-linecap="round" stroke-linejoin="round" stroke-width="1"/>
    </g>
    <g id="find" transform="translate(470 1530)">
      <path id="Path_567" data-name="Path 567" d="M935.045,157c-2.716,0-6.044,2.171-6.045,3.453v4.316c0,1.281,3.328,3.453,6.045,3.453s6.044-2.172,6.044-3.453v-4.316C941.089,159.171,937.761,157,935.045,157Z" transform="translate(0 -4.242)" fill="#fff"/>
      <path id="Path_568" data-name="Path 568" d="M947.045,136c-2.716,0-6.044,2.171-6.045,3.453v5.179c0,1.282,3.327,3.453,6.045,3.453s6.044-2.171,6.044-3.453v-5.179C953.089,138.171,949.761,136,947.045,136Z" transform="translate(-1.642 -1.368)" fill="#fff"/>
      <path id="Path_569" data-name="Path 569" d="M967.045,136c-2.716,0-6.045,2.171-6.045,3.453v5.179c0,1.282,3.327,3.453,6.045,3.453s6.045-2.171,6.045-3.453v-5.179C973.089,138.171,969.761,136,967.045,136Z" transform="translate(-4.379 -1.368)" fill="#fff"/>
      <path id="Path_570" data-name="Path 570" d="M979.045,156c-2.716,0-6.045,2.171-6.045,3.453v5.179c0,1.281,3.327,3.453,6.045,3.453s6.045-2.172,6.045-3.453v-5.179C985.089,158.171,981.761,156,979.045,156Z" transform="translate(-6.021 -4.105)" fill="#fff"/>
      <path id="Path_571" data-name="Path 571" d="M978.974,174.1l-9.714-9.713-3.985,3.948,9.73,9.732a2.244,2.244,0,0,0,3.175,0l.794-.793A2.243,2.243,0,0,0,978.974,174.1Z" transform="translate(-4.964 -5.253)" fill="#a8d2f0"/>
      <circle id="Ellipse_36" data-name="Ellipse 36" cx="12" cy="12" r="12" transform="translate(942 141)" fill="#fff" stroke="#2b5183" stroke-linejoin="round" stroke-miterlimit="10" stroke-width="2"/>
      <path id="Path_572" data-name="Path 572" d="M953.084,139.453c0-1.282-3.323-3.453-6.04-3.453S941,138.171,941,139.453v3.453" transform="translate(-1.642 -1.368)" fill="none" stroke="#2b5183" stroke-linecap="round" stroke-linejoin="round" stroke-miterlimit="10" stroke-width="2"/>
      <path id="Path_573" data-name="Path 573" d="M947.453,134.632a3.476,3.476,0,0,1-3.453-3.7V129.7a3.461,3.461,0,1,1,6.905,0v1.234A3.477,3.477,0,0,1,947.453,134.632Z" transform="translate(-2.053)" fill="#fff" stroke="#2b5183" stroke-linejoin="round" stroke-miterlimit="10" stroke-width="2"/>
      <path id="Path_574" data-name="Path 574" d="M938.986,158.189A8.271,8.271,0,0,0,935.045,157c-2.716,0-6.044,2.171-6.045,3.453v3.453" transform="translate(0 -4.242)" fill="none" stroke="#2b5183" stroke-linecap="round" stroke-linejoin="round" stroke-miterlimit="10" stroke-width="2"/>
      <path id="Path_575" data-name="Path 575" d="M935.453,155.632a3.476,3.476,0,0,1-3.453-3.7V150.7a3.461,3.461,0,1,1,6.905,0v1.234A3.477,3.477,0,0,1,935.453,155.632Z" transform="translate(-0.411 -2.874)" fill="#fff" stroke="#2b5183" stroke-linejoin="round" stroke-miterlimit="10" stroke-width="2"/>
      <path id="Path_576" data-name="Path 576" d="M963.089,163.179v-1.726c0-1.282-3.328-3.453-6.045-3.453S951,160.171,951,161.453v1.726" transform="translate(-3.01 -4.379)" fill="none" stroke="#2b5183" stroke-linecap="round" stroke-linejoin="round" stroke-miterlimit="10" stroke-width="2"/>
      <path id="Path_577" data-name="Path 577" d="M957.453,156.632a3.477,3.477,0,0,1-3.453-3.7V151.7a3.461,3.461,0,1,1,6.905,0v1.234A3.477,3.477,0,0,1,957.453,156.632Z" transform="translate(-3.421 -3.01)" fill="#fff" stroke="#2b5183" stroke-linejoin="round" stroke-miterlimit="10" stroke-width="2"/>
      <path id="Path_578" data-name="Path 578" d="M961,139.453c0-1.282,3.323-3.453,6.04-3.453s6.045,2.171,6.045,3.453v3.453" transform="translate(-4.379 -1.368)" fill="none" stroke="#2b5183" stroke-linecap="round" stroke-linejoin="round" stroke-miterlimit="10" stroke-width="2"/>
      <path id="Path_579" data-name="Path 579" d="M967.453,134.632a3.477,3.477,0,0,0,3.453-3.7V129.7a3.461,3.461,0,1,0-6.905,0v1.234A3.476,3.476,0,0,0,967.453,134.632Z" transform="translate(-4.789)" fill="#fff" stroke="#2b5183" stroke-linejoin="round" stroke-miterlimit="10" stroke-width="2"/>
      <path id="Path_580" data-name="Path 580" d="M969.261,164.389l9.714,9.714a2.245,2.245,0,0,1,0,3.174l-.794.793a2.244,2.244,0,0,1-3.175,0l-9.73-9.732" transform="translate(-4.964 -5.253)" fill="none" stroke="#2b5183" stroke-linejoin="round" stroke-miterlimit="10" stroke-width="2"/>
      <path id="Path_581" data-name="Path 581" d="M985.417,162.905v-3.453c0-1.282-3.327-3.453-6.045-3.453a8.264,8.264,0,0,0-3.94,1.189" transform="translate(-6.354 -4.105)" fill="none" stroke="#2b5183" stroke-linecap="round" stroke-linejoin="round" stroke-miterlimit="10" stroke-width="2"/>
      <path id="Path_582" data-name="Path 582" d="M979.453,154.632a3.477,3.477,0,0,0,3.453-3.7V149.7a3.461,3.461,0,1,0-6.905,0v1.234A3.477,3.477,0,0,0,979.453,154.632Z" transform="translate(-6.431 -2.737)" fill="#fff" stroke="#2b5183" stroke-linejoin="round" stroke-miterlimit="10" stroke-width="2"/>
    </g>
  </g>
</svg>
