<svg xmlns="http://www.w3.org/2000/svg" width="88" height="74" viewBox="0 0 88 74">
  <g id="flexibility" transform="translate(-1267.5 -1709)">
    <g id="Post-A-Job" transform="translate(1261.5 1693.757)">
      <path id="Path_425" data-name="Path 425" d="M90,55.24a40,40,0,1,0-76.44,16.5H86.44A39.85,39.85,0,0,0,90,55.24Z" fill="#dbf1fa"/>
      <path id="Path_467" data-name="Path 467" d="M0,0H78" transform="translate(11 71.74)" fill="none" stroke="#0da4de" stroke-linecap="round" stroke-width="1"/>
      <line id="Line_2" data-name="Line 2" x2="2.5" transform="translate(6.5 71.74)" fill="none" stroke="#0da4de" stroke-linecap="round" stroke-linejoin="round" stroke-width="1"/>
      <line id="Line_3" data-name="Line 3" x2="2.5" transform="translate(91 71.74)" fill="none" stroke="#0da4de" stroke-linecap="round" stroke-linejoin="round" stroke-width="1"/>
    </g>
    <g id="_7-Working-hours" data-name="7-Working-hours" transform="translate(349 1601)">
      <circle id="Ellipse_31" data-name="Ellipse 31" cx="25" cy="25" r="25" transform="translate(941 126)" fill="#fff"/>
      <path id="Path_545" data-name="Path 545" d="M943,167c-4.047,0-9,2.971-9,5v5c0,2.029,4.953,5,9,5s9-2.971,9-5v-5C952,169.971,947.047,167,943,167Z" fill="#a8d2f0"/>
      <path id="Path_546" data-name="Path 546" d="M976,143l-10,10-6-6" fill="none" stroke="#2b5183" stroke-linecap="round" stroke-linejoin="round" stroke-miterlimit="10" stroke-width="2"/>
      <line id="Line_26" data-name="Line 26" y2="3" transform="translate(966 134)" fill="none" stroke="#2b5183" stroke-linecap="round" stroke-linejoin="round" stroke-miterlimit="10" stroke-width="2"/>
      <line id="Line_27" data-name="Line 27" x1="3" transform="translate(980 151)" fill="none" stroke="#2b5183" stroke-linecap="round" stroke-linejoin="round" stroke-miterlimit="10" stroke-width="2"/>
      <line id="Line_28" data-name="Line 28" y1="3" transform="translate(966 165)" fill="none" stroke="#2b5183" stroke-linecap="round" stroke-linejoin="round" stroke-miterlimit="10" stroke-width="2"/>
      <path id="Path_547" data-name="Path 547" d="M952,177v-5c0-2.029-4.953-5-9-5s-9,2.971-9,5v5" fill="none" stroke="#2b5183" stroke-linecap="round" stroke-miterlimit="10" stroke-width="2"/>
      <path id="Path_548" data-name="Path 548" d="M943,155c-2.585,0-5,1.935-5,4.32v3.359c0,2.386,2.415,4.32,5,4.32s5-1.935,5-4.32V159.32C948,156.935,945.585,155,943,155Z" fill="#fff" stroke="#2b5183" stroke-miterlimit="10" stroke-width="2"/>
      <path id="Path_549" data-name="Path 549" d="M941,151a24.981,24.981,0,1,1,15.059,22.945" fill="none" stroke="#2b5183" stroke-linecap="round" stroke-linejoin="round" stroke-miterlimit="10" stroke-width="2"/>
      <path id="Path_550" data-name="Path 550" d="M946,151a20,20,0,1,1,8,16" fill="none" stroke="#2b5183" stroke-linecap="round" stroke-linejoin="round" stroke-miterlimit="10" stroke-width="2"/>
    </g>
  </g>
</svg>
