<svg xmlns="http://www.w3.org/2000/svg" width="88" height="79.375" viewBox="0 0 88 79.375">
  <g id="quality_talent_on_demand" transform="translate(-1267.5 -1610)">
    <g id="Post-A-Job" transform="translate(1261.5 1594.757)">
      <path id="Path_425" data-name="Path 425" d="M90,55.24a40,40,0,1,0-76.44,16.5H86.44A39.85,39.85,0,0,0,90,55.24Z" fill="#dbf1fa"/>
      <path id="Path_467" data-name="Path 467" d="M0,0H78" transform="translate(11 71.74)" fill="none" stroke="#0da4de" stroke-linecap="round" stroke-width="1"/>
      <line id="Line_2" data-name="Line 2" x2="2.5" transform="translate(6.5 71.74)" fill="none" stroke="#0da4de" stroke-linecap="round" stroke-linejoin="round" stroke-width="1"/>
      <line id="Line_3" data-name="Line 3" x2="2.5" transform="translate(91 71.74)" fill="none" stroke="#0da4de" stroke-linecap="round" stroke-linejoin="round" stroke-width="1"/>
    </g>
    <g id="_12-target-candidate" data-name="12-target-candidate" transform="translate(350.302 1507)">
      <path id="Path_539" data-name="Path 539" d="M963,162h-4l-1-6h6Z" fill="#a8d2f0" stroke="#2b5183" stroke-linecap="round" stroke-miterlimit="10" stroke-width="2"/>
      <path id="Path_540" data-name="Path 540" d="M963,162h-4l-2,15,4,4.375L965,177Z" fill="#a8d2f0" stroke="#2b5183" stroke-linecap="round" stroke-linejoin="round" stroke-miterlimit="10" stroke-width="2"/>
      <path id="Path_541" data-name="Path 541" d="M964,156l5-5,3,3-4,7Z" fill="#fff" stroke="#2b5183" stroke-linejoin="round" stroke-miterlimit="10" stroke-width="2"/>
      <path id="Path_542" data-name="Path 542" d="M950,154l-6.5,1.625c-3.208.875-4.375,2.438-5.125,5.375l-1.677,7.761" fill="none" stroke="#2b5183" stroke-linecap="round" stroke-linejoin="round" stroke-miterlimit="10" stroke-width="2"/>
      <path id="Path_543" data-name="Path 543" d="M971.7,154l6.5,1.625c3.208.875,4.375,2.438,5.125,5.375L985,168.761" fill="none" stroke="#2b5183" stroke-linecap="round" stroke-linejoin="round" stroke-miterlimit="10" stroke-width="2"/>
      <path id="Path_544" data-name="Path 544" d="M958,156l-5-5-3,3,4,7Z" fill="#fff" stroke="#2b5183" stroke-linejoin="round" stroke-miterlimit="10" stroke-width="2"/>
      <circle id="Ellipse_29" data-name="Ellipse 29" cx="11" cy="11" r="11" transform="translate(950 124)" fill="#fff" stroke="#2b5183" stroke-linecap="round" stroke-linejoin="round" stroke-miterlimit="10" stroke-width="2"/>
      <line id="Line_20" data-name="Line 20" y2="8" transform="translate(961 120)" fill="none" stroke="#2b5183" stroke-linecap="round" stroke-linejoin="round" stroke-miterlimit="10" stroke-width="2"/>
      <line id="Line_21" data-name="Line 21" y2="7" transform="translate(961 143)" fill="none" stroke="#2b5183" stroke-linecap="round" stroke-linejoin="round" stroke-miterlimit="10" stroke-width="2"/>
      <line id="Line_22" data-name="Line 22" x1="7" transform="translate(946 135)" fill="none" stroke="#2b5183" stroke-linecap="round" stroke-linejoin="round" stroke-miterlimit="10" stroke-width="2"/>
      <line id="Line_23" data-name="Line 23" x1="7" transform="translate(969 135)" fill="none" stroke="#2b5183" stroke-linecap="round" stroke-linejoin="round" stroke-miterlimit="10" stroke-width="2"/>
      <line id="Line_24" data-name="Line 24" y1="2.292" transform="translate(953 148.708)" fill="none" stroke="#2b5183" stroke-linecap="round" stroke-linejoin="round" stroke-miterlimit="10" stroke-width="2"/>
      <line id="Line_25" data-name="Line 25" y1="2.292" transform="translate(969 148.708)" fill="none" stroke="#2b5183" stroke-linecap="round" stroke-linejoin="round" stroke-miterlimit="10" stroke-width="2"/>
    </g>
  </g>
</svg>
