<svg xmlns="http://www.w3.org/2000/svg" width="15.21" height="14.097" viewBox="0 0 15.21 14.097"><defs><style>.a{fill:#0da4de;}</style></defs><g transform="translate(0 0)"><g transform="translate(0 0)"><path class="a" d="M14.775,228.215a.434.434,0,0,0-.436.436v3.964a1.956,1.956,0,0,1-1.953,1.953H2.825a1.956,1.956,0,0,1-1.953-1.953v-4.029a.436.436,0,0,0-.872,0v4.029a2.828,2.828,0,0,0,2.825,2.824h9.561a2.828,2.828,0,0,0,2.825-2.824V228.65A.436.436,0,0,0,14.775,228.215Z" transform="translate(0 -221.342)"/><path class="a" d="M139.126,27.886a.439.439,0,0,0,.307.129.425.425,0,0,0,.307-.129l2.77-2.77a.436.436,0,1,0-.617-.617l-2.024,2.027V17.686a.436.436,0,0,0-.872,0v8.842L136.97,24.5a.436.436,0,1,0-.617.617Z" transform="translate(-131.828 -17.25)"/></g></g></svg>