<svg xmlns="http://www.w3.org/2000/svg" width="58.455" height="58.456" viewBox="0 0 58.455 58.456"><defs><style>.a,.d{fill:#0da4de;}.b{fill:#fff;}.c,.d{stroke:none;}</style></defs><g transform="translate(0 0)"><g class="a"><path class="c" d="M 29.22772598266602 57.9554557800293 C 25.34928512573242 57.9554557800293 21.58712577819824 57.19596481323242 18.04575538635254 55.69809722900391 C 14.6249361038208 54.25120544433594 11.55262565612793 52.17976760864258 8.914155960083008 49.54129409790039 C 6.27569580078125 46.90283584594727 4.204246044158936 43.83051681518555 2.757365942001343 40.40970611572266 C 1.259495973587036 36.86832427978516 0.5000059604644775 33.10616683959961 0.5000059604644775 29.22772598266602 C 0.5000059604644775 25.34928512573242 1.259495973587036 21.58712577819824 2.757365942001343 18.04575538635254 C 4.204246044158936 14.6249361038208 6.27569580078125 11.55262565612793 8.914155960083008 8.914155960083008 C 11.55262565612793 6.27569580078125 14.6249361038208 4.204246044158936 18.04575538635254 2.757365942001343 C 21.58712577819824 1.259495973587036 25.34928512573242 0.5000059604644775 29.22772598266602 0.5000059604644775 C 33.10616683959961 0.5000059604644775 36.86832427978516 1.259495973587036 40.40970611572266 2.757365942001343 C 43.83051681518555 4.204246044158936 46.90283584594727 6.27569580078125 49.54129409790039 8.914155960083008 C 52.17976760864258 11.55262565612793 54.25120544433594 14.6249361038208 55.69809722900391 18.04575538635254 C 57.19596481323242 21.58712577819824 57.9554557800293 25.34928512573242 57.9554557800293 29.22772598266602 C 57.9554557800293 33.10616683959961 57.19596481323242 36.86832427978516 55.69809722900391 40.40970611572266 C 54.25120544433594 43.83051681518555 52.17976760864258 46.90283584594727 49.54129409790039 49.54129409790039 C 46.90283584594727 52.17976760864258 43.83051681518555 54.25120544433594 40.40970611572266 55.69809722900391 C 36.86832427978516 57.19596481323242 33.10616683959961 57.9554557800293 29.22772598266602 57.9554557800293 Z"/><path class="d" d="M 29.22772598266602 0.9999961853027344 C 25.41656494140625 0.9999961853027344 21.71993637084961 1.746196746826172 18.24052429199219 3.217857360839844 C 14.87930679321289 4.639537811279297 11.86041641235352 6.674995422363281 9.267707824707031 9.267707824707031 C 6.674995422363281 11.86041641235352 4.639537811279297 14.87930679321289 3.217857360839844 18.24052429199219 C 1.746196746826172 21.71993637084961 0.9999961853027344 25.41656494140625 0.9999961853027344 29.22772598266602 C 0.9999961853027344 33.03888702392578 1.746196746826172 36.73550415039063 3.217857360839844 40.21491622924805 C 4.639537811279297 43.57613372802734 6.674995422363281 46.59502410888672 9.267707824707031 49.18773651123047 C 11.86041641235352 51.78044509887695 14.87930679321289 53.8159065246582 18.24052429199219 55.23758697509766 C 21.71993637084961 56.70924758911133 25.41656494140625 57.4554443359375 29.22772598266602 57.4554443359375 C 33.03888702392578 57.4554443359375 36.73550415039063 56.70924758911133 40.21491622924805 55.23758697509766 C 43.57613372802734 53.8159065246582 46.59502410888672 51.78044509887695 49.18773651123047 49.18773651123047 C 51.78044509887695 46.59502410888672 53.8159065246582 43.57613372802734 55.23758697509766 40.21491622924805 C 56.70924758911133 36.73550415039063 57.4554443359375 33.03888702392578 57.4554443359375 29.22772598266602 C 57.4554443359375 25.41656494140625 56.70924758911133 21.71993637084961 55.23758697509766 18.24052429199219 C 53.8159065246582 14.87930679321289 51.78044509887695 11.86041641235352 49.18773651123047 9.267707824707031 C 46.59502410888672 6.674995422363281 43.57613372802734 4.639537811279297 40.21491622924805 3.217857360839844 C 36.73550415039063 1.746196746826172 33.03888702392578 0.9999961853027344 29.22772598266602 0.9999961853027344 M 29.22772598266602 -3.814697265625e-06 C 45.36974716186523 -3.814697265625e-06 58.4554443359375 13.08569717407227 58.4554443359375 29.22772598266602 C 58.4554443359375 45.36974716186523 45.36974716186523 58.4554443359375 29.22772598266602 58.4554443359375 C 13.08569717407227 58.4554443359375 -3.814697265625e-06 45.36974716186523 -3.814697265625e-06 29.22772598266602 C -3.814697265625e-06 13.08569717407227 13.08569717407227 -3.814697265625e-06 29.22772598266602 -3.814697265625e-06 Z"/></g><g transform="translate(17.381 17.379)"><g transform="translate(0 0)"><path class="b" d="M23.99,228.255a.7.7,0,0,0-.708.708V235.4a3.175,3.175,0,0,1-3.171,3.171H4.586A3.175,3.175,0,0,1,1.415,235.4v-6.541a.708.708,0,1,0-1.415,0V235.4a4.591,4.591,0,0,0,4.586,4.586H20.112A4.591,4.591,0,0,0,24.7,235.4v-6.437A.708.708,0,0,0,23.99,228.255Z" transform="translate(0 -217.096)"/><path class="b" d="M140.936,34.521a.712.712,0,0,0,.5.21.69.69,0,0,0,.5-.21l4.5-4.5a.708.708,0,0,0-1-1l-3.286,3.292V17.958a.708.708,0,0,0-1.415,0V32.314l-3.292-3.292a.708.708,0,0,0-1,1Z" transform="translate(-129.085 -17.25)"/></g></g></g></svg>