<svg xmlns="http://www.w3.org/2000/svg" width="97.234" height="15.562" viewBox="0 0 97.234 15.562"><defs><style>.a{fill:#0da4de;}</style></defs><g transform="translate(-778.269 -603)"><path class="a" d="M30.143,20.532h-5.9l-1.877-5.95-1.877,5.95h-5.9l5.035,3.661-2.289,5.95,5.035-3.662L27.4,30.143l-2.289-5.95Z" transform="translate(763.688 588.418)"/><path class="a" d="M30.143,20.532h-5.9l-1.877-5.95-1.877,5.95h-5.9l5.035,3.661-2.289,5.95,5.035-3.662L27.4,30.143l-2.289-5.95Z" transform="translate(784.14 588.418)"/><path class="a" d="M30.143,20.532h-5.9l-1.877-5.95-1.877,5.95h-5.9l5.035,3.661-2.289,5.95,5.035-3.662L27.4,30.143l-2.289-5.95Z" transform="translate(804.593 588.418)"/><path class="a" d="M30.143,20.532h-5.9l-1.877-5.95-1.877,5.95h-5.9l5.035,3.661-2.289,5.95,5.035-3.662L27.4,30.143l-2.289-5.95Z" transform="translate(824.561 588.418)"/><path class="a" d="M30.143,20.532h-5.9l-1.877-5.95-1.877,5.95h-5.9l5.035,3.661-2.289,5.95,5.035-3.662L27.4,30.143l-2.289-5.95Z" transform="translate(845.36 588.418)"/></g></svg>