<svg xmlns="http://www.w3.org/2000/svg" width="81" height="12.963" viewBox="0 0 81 12.963"><defs><style>.a{fill:#0da4de;}</style></defs><g transform="translate(-778.27 -603)"><path class="a" d="M27.545,19.539H22.627l-1.563-4.957L19.5,19.539H14.582l4.194,3.05L16.87,27.545l4.194-3.05,4.194,3.05-1.907-4.957Z" transform="translate(763.688 588.418)"/><path class="a" d="M27.545,19.539H22.627l-1.563-4.957L19.5,19.539H14.582l4.194,3.05L16.87,27.545l4.194-3.05,4.194,3.05-1.907-4.957Z" transform="translate(780.726 588.418)"/><path class="a" d="M27.545,19.539H22.627l-1.563-4.957L19.5,19.539H14.582l4.194,3.05L16.87,27.545l4.194-3.05,4.194,3.05-1.907-4.957Z" transform="translate(797.764 588.418)"/><path class="a" d="M27.545,19.539H22.627l-1.563-4.957L19.5,19.539H14.582l4.194,3.05L16.87,27.545l4.194-3.05,4.194,3.05-1.907-4.957Z" transform="translate(814.398 588.418)"/><path class="a" d="M27.545,19.539H22.627l-1.563-4.957L19.5,19.539H14.582l4.194,3.05L16.87,27.545l4.194-3.05,4.194,3.05-1.907-4.957Z" transform="translate(831.724 588.418)"/></g></svg>