<svg xmlns="http://www.w3.org/2000/svg" width="90" height="90" viewBox="0 0 90 90"><defs><style>.a{fill:#d75923;}.b{fill:#fff;}</style></defs><g transform="translate(-56 -208)"><path class="a" d="M131.365,298H70.635a14.633,14.633,0,0,1-13.09-21.178l30.365-60.73a14.634,14.634,0,0,1,26.179,0l30.365,60.728A14.637,14.637,0,0,1,131.365,298Zm0,0"/><path class="b" d="M183.5,431a7.5,7.5,0,1,1,7.5-7.5A7.51,7.51,0,0,1,183.5,431Zm0-10a2.5,2.5,0,1,0,2.5,2.5A2.5,2.5,0,0,0,183.5,421Zm0,0" transform="translate(-82.5 -143)"/><path class="b" d="M183.5,301a5.2,5.2,0,0,1-5.172-4.814l-2.311-32.335c-.012-.171-.017-.345-.017-.522A7.336,7.336,0,0,1,183.328,256h.344A7.336,7.336,0,0,1,191,263.328c0,.177,0,.352-.02.53l-2.308,32.328A5.2,5.2,0,0,1,183.5,301Zm-.172-40A2.328,2.328,0,0,0,181,263.328l2.314,32.5c.013.192.358.192.369,0l2.31-32.335A2.359,2.359,0,0,0,183.672,261Zm0,0" transform="translate(-82.5 -33)"/></g></svg>