<?xml version="1.0" encoding="utf-8"?>
<!-- Generator: Adobe Illustrator 16.0.0, SVG Export Plug-In . SVG Version: 6.00 Build 0)  -->
<!DOCTYPE svg PUBLIC "-//W3C//DTD SVG 1.1//EN" "http://www.w3.org/Graphics/SVG/1.1/DTD/svg11.dtd">
<svg version="1.1" id="Layer_1" xmlns="http://www.w3.org/2000/svg" xmlns:xlink="http://www.w3.org/1999/xlink" x="0px" y="0px"
	 width="24px" height="24px" viewBox="0 0 24 24" enable-background="new 0 0 24 24" xml:space="preserve">
<g transform="translate(-284 -1820)">
	<path fill="#FFFFFF" d="M293.4,1834c-2.485,0-4.5-2.015-4.5-4.5s2.015-4.5,4.5-4.5c2.485,0,4.5,2.015,4.5,4.5
		c0.01,2.475-1.987,4.489-4.462,4.5C293.425,1834,293.413,1834,293.4,1834z M299.4,1834H298.6l-0.3-0.3
		c1.249-1.463,1.798-3.399,1.5-5.3c-0.495-2.807-2.77-4.959-5.6-5.3c-3.579-0.445-6.841,2.095-7.287,5.673
		c-0.426,3.428,1.89,6.596,5.287,7.227c1.9,0.297,3.837-0.25,5.3-1.5l0.3,0.3v0.8l4.2,4.2c0.425,0.403,1.096,0.387,1.5-0.038
		c0.39-0.409,0.39-1.053,0-1.462L299.4,1834z"/>
</g>
</svg>
