<svg xmlns="http://www.w3.org/2000/svg" width="805.303" height="593.721" viewBox="0 0 805.303 593.721">
  <g id="Page-1" transform="translate(-0.181)">
    <g id="Group" transform="translate(3)">
      <path id="Fill-1" d="M763.047,359.47C763.047,160.935,603.083,0,405.766,0S48.485,160.935,48.485,359.47A359.784,359.784,0,0,0,80.319,507.752H731.213A359.782,359.782,0,0,0,763.047,359.47" fill="rgba(243,249,251,1)" fill-rule="evenodd"/>
      <g id="coding-screen" transform="translate(175.335 147.655)">
        <path id="Fill-7" d="M0,236.135H387.315V0H0Z" fill="#434b58" fill-rule="evenodd"/>
        <path id="Fill-11" d="M47.408,28.709H88.123v-5.5H47.408Z" fill="#92c2fc" fill-rule="evenodd"/>
        <path id="Fill-12" d="M68.045,47.131H95.932v-5.5H68.045Z" fill="#ed9c95" fill-rule="evenodd"/>
        <path id="Fill-13" d="M158.957,47.131H313.282v-5.5H158.957Z" fill="#7ad389" fill-rule="evenodd"/>
        <path id="Fill-14" d="M116.568,47.131H148.36v-5.5H116.568Z" fill="#92c2fc" fill-rule="evenodd"/>
        <path id="Fill-15" d="M77.526,62.2H133.3V56.7H77.526Z" fill="#bc7dc6" fill-rule="evenodd"/>
        <path id="Fill-16" d="M100.951,83.416h71.392v-5.5H100.951Z" fill="#ffd07e" fill-rule="evenodd"/>
        <path id="Fill-17" d="M47.966,103.513H126.05v-5.5H47.966Z" fill="#c27acd" fill-rule="evenodd"/>
        <path id="Fill-18" d="M134.974,103.513h55.774v-5.5H134.974Z" fill="#92c2fc" fill-rule="evenodd"/>
        <path id="Fill-19" d="M68.045,124.168h104.3v-5.5H68.045Z" fill="#ed9c95" fill-rule="evenodd"/>
        <path id="Fill-20" d="M215.289,124.168h69.16v-5.5h-69.16Z" fill="#92c2fc" fill-rule="evenodd"/>
        <path id="Fill-21" d="M177.362,124.168h32.907v-5.5H177.362Z" fill="#d1d1d1" fill-rule="evenodd"/>
        <path id="Fill-22" d="M102.067,144.264H194.1v-5.5H102.067Z" fill="#7ad389" fill-rule="evenodd"/>
        <path id="Fill-23" d="M77.526,144.264H97.047v-5.5H77.526Z" fill="#a1a1a1" fill-rule="evenodd"/>
        <path id="Fill-24" d="M47.966,159.337h62.467v-5.5H47.966Z" fill="#92c2fc" fill-rule="evenodd"/>
        <path id="Fill-25" d="M115.453,159.337h21.194v-5.5H115.453Z" fill="#ffd07e" fill-rule="evenodd"/>
        <path id="Fill-26" d="M142.224,159.337H244.849v-5.5H142.224Z" fill="#ed9c95" fill-rule="evenodd"/>
        <path id="Fill-27" d="M251.542,159.337h92.585v-5.5H251.542Z" fill="#67d2cf" fill-rule="evenodd"/>
        <path id="Fill-28" d="M68.045,179.433h32.906v-5.5H68.045Z" fill="#ffd07e" fill-rule="evenodd"/>
        <path id="Fill-29" d="M110.433,179.433H187.4v-5.5H110.433Z" fill="#4a90e2" fill-rule="evenodd"/>
        <path id="Fill-30" d="M85.335,199.53H147.8v-5.5H85.335Z" fill="#c27acd" fill-rule="evenodd"/>
        <path id="Fill-31" d="M160.63,199.53H223.1v-5.5H160.63Z" fill="#ed9c95" fill-rule="evenodd"/>
        <path id="Fill-32" d="M233.137,199.53H291.7v-5.5H233.137Z" fill="#7ad389" fill-rule="evenodd"/>
        <path id="Fill-33" d="M332.415,83.416H349.7v-5.5h-17.29Z" fill="#f5a623" fill-rule="evenodd"/>
        <path id="Fill-34" d="M178.478,83.416H303.049v-5.5H178.478Z" fill="#d9d9d9" fill-rule="evenodd"/>
        <path id="Fill-35" d="M100.951,28.709H266.6v-5.5H100.951Z" fill="#ffd07e" fill-rule="evenodd"/>
        <path id="Fill-36" d="M20.079,24H29V15.072H20.079Z" fill="#fff" fill-rule="evenodd"/>
        <path id="Fill-37" d="M20.079,45.776H29V36.844H20.079Z" fill="#fff" fill-rule="evenodd"/>
        <path id="Fill-38" d="M20.079,69.78H29V60.848H20.079Z" fill="#fff" fill-rule="evenodd"/>
        <path id="Fill-39" d="M20.079,91.551H29V82.619H20.079Z" fill="#fff" fill-rule="evenodd"/>
        <path id="Fill-40" d="M20.079,114.439H29v-8.932H20.079Z" fill="#fff" fill-rule="evenodd"/>
        <path id="Fill-41" d="M20.079,137.327H29V128.4H20.079Z" fill="#fff" fill-rule="evenodd"/>
        <path id="Fill-42" d="M20.079,159.656H29v-8.932H20.079Z" fill="#fff" fill-rule="evenodd"/>
        <path id="Fill-43" d="M20.079,182.544H29v-8.932H20.079Z" fill="#fff" fill-rule="evenodd"/>
        <path id="Fill-44" d="M20.079,204.873H29v-8.931H20.079Z" fill="#fff" fill-rule="evenodd"/>
        <path id="Fill-45" d="M20.079,227.761H29v-8.932H20.079Z" fill="#fff" fill-rule="evenodd"/>
      </g>
      <g id="browser-window" transform="translate(175.335 76.645)">
        <path id="Fill-1-2" data-name="Fill-1" d="M0,73.3H388.946V0H0Z" fill="#fff" fill-rule="evenodd"/>
        <g id="Group-11">
          <path id="Stroke-2" d="M0,73.3H388.946V0H0Z" fill="none" stroke="#0da4de" stroke-linecap="round" stroke-linejoin="round" stroke-width="5.638" fill-rule="evenodd"/>
          <path id="Stroke-4" d="M0,307.144H388.946V73.3H0Z" fill="none" stroke="#0da4de" stroke-linecap="round" stroke-linejoin="round" stroke-width="5.638" fill-rule="evenodd"/>
          <path id="Stroke-5" d="M48.359,36.648a9.825,9.825,0,1,1-9.825-9.8A9.81,9.81,0,0,1,48.359,36.648Z" fill="#f2877e" stroke="#f2877e" stroke-linecap="round" stroke-linejoin="round" stroke-width="5.638" fill-rule="evenodd"/>
          <path id="Stroke-6" d="M90.4,36.648a9.825,9.825,0,1,1-9.825-9.8A9.81,9.81,0,0,1,90.4,36.648Z" fill="#f9ba53" stroke="#f9ba53" stroke-linecap="round" stroke-linejoin="round" stroke-width="5.638" fill-rule="evenodd"/>
          <path id="Stroke-7" d="M132.433,36.648a9.825,9.825,0,1,1-9.825-9.8A9.81,9.81,0,0,1,132.433,36.648Z" fill="#7fce8c" stroke="#7fce8c" stroke-linecap="round" stroke-linejoin="round" stroke-width="5.638" fill-rule="evenodd"/>
        </g>
      </g>
      <g id="dev-desk" transform="translate(236.223 173.579)">
        <g id="customer-service-man">
          <path id="Stroke-3" d="M29.647,335.724H534.13" fill="none" stroke="#0da4de" stroke-linecap="round" stroke-linejoin="round" stroke-width="6.055" fill-rule="evenodd"/>
          <path id="Stroke-5-2" data-name="Stroke-5" d="M.543,335.724H16.712" fill="none" stroke="#4550e6" stroke-linecap="round" stroke-linejoin="round" stroke-width="6.055" fill-rule="evenodd"/>
          <path id="Stroke-7-2" data-name="Stroke-7" d="M547.065,335.724h16.169" fill="none" stroke="#0da4de" stroke-linecap="round" stroke-linejoin="round" stroke-width="6.055" fill-rule="evenodd"/>
          <path id="Fill-9" d="M116.558,410.4c0,5.38,52.123,9.745,116.419,9.745s116.418-4.365,116.418-9.745-52.129-9.745-116.418-9.745-116.419,4.366-116.419,9.745" fill="#f0f2ff" fill-rule="evenodd"/>
          <path id="Fill-11-2" data-name="Fill-11" d="M329.746,183.661c-55.72,0-100.9,45.374-100.9,101.351v27.3c0,51.383-18.161,58.458-38.314,58.458H174.521v35.083h16.014c28.192,0,77.121-23.59,77.121-70.166H391.842c0,29.658-21.763,35.083-38.321,35.083H337.507v35.083h16.014c31.86,0,77.128-6.828,77.128-70.172V285.012c0-55.977-45.177-101.351-100.9-101.351" fill="#fff" fill-rule="evenodd"/>
          <path id="Stroke-13" d="M329.746,183.661c-55.72,0-100.9,45.374-100.9,101.351v27.3c0,51.383-18.161,58.458-38.314,58.458H174.521v35.083h16.014c28.192,0,77.121-23.59,77.121-70.166H391.842c0,29.658-21.763,35.083-38.321,35.083H337.507v35.083h16.014c31.86,0,77.128-6.828,77.128-70.172V285.012C430.649,229.035,385.472,183.661,329.746,183.661Z" fill="none" stroke="#0da4de" stroke-linecap="round" stroke-linejoin="round" stroke-width="6.055" fill-rule="evenodd"/>
          <path id="Fill-15-2" data-name="Fill-15" d="M353.034,187.56l-23.291,15.592L306.466,187.56V168.069h46.568Z" fill="#fff" fill-rule="evenodd"/>
          <path id="Stroke-17" d="M353.034,187.56l-23.291,15.592L306.466,187.56V168.069h46.568Z" fill="none" stroke="#0da4de" stroke-linecap="round" stroke-linejoin="round" stroke-width="6.055" fill-rule="evenodd"/>
          <path id="Fill-23-2" data-name="Fill-23" d="M360.727,221.138,378.339,196.2a99.685,99.685,0,0,0-24.144-9.414l-24.448,16.365L351.9,222.23a6,6,0,0,0,8.822-1.092" fill="#fff" fill-rule="evenodd"/>
          <path id="Stroke-25" d="M360.727,221.138,378.339,196.2a99.685,99.685,0,0,0-24.144-9.414l-24.448,16.365L351.9,222.23A6,6,0,0,0,360.727,221.138Z" fill="none" stroke="#0da4de" stroke-linecap="round" stroke-linejoin="round" stroke-width="6.055" fill-rule="evenodd"/>
          <path id="Fill-27-2" data-name="Fill-27" d="M298.772,221.138,281.16,196.2a99.686,99.686,0,0,1,24.144-9.414l24.448,16.365L307.594,222.23a6,6,0,0,1-8.822-1.092" fill="#fff" fill-rule="evenodd"/>
          <path id="Stroke-29" d="M298.772,221.138,281.16,196.2a99.686,99.686,0,0,1,24.144-9.414l24.448,16.365L307.594,222.23A6,6,0,0,1,298.772,221.138Z" fill="none" stroke="#0da4de" stroke-linecap="round" stroke-linejoin="round" stroke-width="6.055" fill-rule="evenodd"/>
          <path id="Stroke-31" d="M267.658,288.911v46.778" fill="none" stroke="#0da4de" stroke-linecap="round" stroke-linejoin="round" stroke-width="6.055" fill-rule="evenodd"/>
          <path id="Stroke-33" d="M391.84,288.911v46.778" fill="none" stroke="#0da4de" stroke-linecap="round" stroke-linejoin="round" stroke-width="6.055" fill-rule="evenodd"/>
          <path id="Fill-35-2" data-name="Fill-35" d="M337.508,401.959H325.867a15.593,15.593,0,0,1,0-31.185h11.641Z" fill="#fff" fill-rule="evenodd"/>
          <path id="Stroke-37" d="M337.508,401.959H325.867a15.593,15.593,0,0,1,0-31.185h11.641Z" fill="none" stroke="#0da4de" stroke-linecap="round" stroke-linejoin="round" stroke-width="6.055" fill-rule="evenodd"/>
          <path id="Fill-39-2" data-name="Fill-39" d="M174.521,401.959H162.879a15.593,15.593,0,0,1,0-31.185h11.642Z" fill="#fff" fill-rule="evenodd"/>
          <path id="Stroke-41" d="M174.521,401.959H162.879a15.593,15.593,0,0,1,0-31.185h11.642Z" fill="none" stroke="#4550e6" stroke-linecap="round" stroke-linejoin="round" stroke-width="6.055" fill-rule="evenodd"/>
          <path id="Fill-43-2" data-name="Fill-43" d="M395.731,97.9V82.309a65.972,65.972,0,1,0-131.942,0V97.9A11.669,11.669,0,0,0,252.147,109.6v3.9a11.669,11.669,0,0,0,11.642,11.694c.369,0,.712-.078,1.074-.1a65.852,65.852,0,0,0,129.794,0c.362.026.7.1,1.074.1a11.669,11.669,0,0,0,11.642-11.694v-3.9A11.669,11.669,0,0,0,395.731,97.9" fill="#fff" fill-rule="evenodd"/>
          <path id="Stroke-45" d="M395.731,97.9V82.309a65.972,65.972,0,1,0-131.942,0V97.9A11.669,11.669,0,0,0,252.147,109.6v3.9a11.669,11.669,0,0,0,11.642,11.694c.369,0,.712-.078,1.074-.1a65.852,65.852,0,0,0,129.794,0c.362.026.7.1,1.074.1a11.669,11.669,0,0,0,11.642-11.694v-3.9A11.669,11.669,0,0,0,395.731,97.9Z" fill="none" stroke="#0da4de" stroke-linecap="round" stroke-linejoin="round" stroke-width="6.055" fill-rule="evenodd"/>
          <path id="Fill-47" d="M298.715,125.19a7.761,7.761,0,1,1-7.761-7.8,7.777,7.777,0,0,1,7.761,7.8" fill="#dbf1fa" fill-rule="evenodd"/>
          <path id="Fill-49" d="M376.328,125.19a7.762,7.762,0,1,1-7.762-7.8,7.777,7.777,0,0,1,7.762,7.8" fill="#dbf1fa" fill-rule="evenodd"/>
          <path id="Stroke-51" d="M310.356,140.781c11.745,10.395,27.061,10.395,38.806,0" fill="none" stroke="#0da4de" stroke-linecap="round" stroke-linejoin="round" stroke-width="6.055" fill-rule="evenodd"/>
          <path id="Stroke-53" d="M364.687,105.7c-2-3.814-5.51-6.5-9.7-6.5s-7.7,2.683-9.7,6.5" fill="none" stroke="#0da4de" stroke-linecap="round" stroke-linejoin="round" stroke-width="6.055" fill-rule="evenodd"/>
          <path id="Stroke-55" d="M314.234,104.4c-2-3.813-5.5-6.5-9.7-6.5s-7.7,2.684-9.7,6.5" fill="none" stroke="#0da4de" stroke-linecap="round" stroke-linejoin="round" stroke-width="6.055" fill-rule="evenodd"/>
          <path id="Fill-57" d="M275.427,109.6A66.3,66.3,0,0,0,276.8,81.986c6.823,2.287,18.026-7.471,18.026-7.471V58.922s22.934,7.8,34.925,7.8,34.932-7.8,34.932-7.8V74.515s11.209,9.758,18.026,7.471a66.3,66.3,0,0,0,1.378,27.612c0-7.6,7.172-12.981,15.108-10.817.052-.071.091-.162.149-.247a11.549,11.549,0,0,0-3.616-.63V82.311a65.975,65.975,0,1,0-131.948,0V97.9a11.439,11.439,0,0,0-3.608.63,2.167,2.167,0,0,0,.148.247c7.93-2.163,15.1,3.215,15.1,10.817" fill="#fff" fill-rule="evenodd"/>
          <path id="Stroke-59" d="M275.427,109.6A66.3,66.3,0,0,0,276.8,81.986c6.823,2.287,18.026-7.471,18.026-7.471V58.922s22.934,7.8,34.925,7.8,34.932-7.8,34.932-7.8V74.515s11.209,9.758,18.026,7.471a66.3,66.3,0,0,0,1.378,27.612c0-7.6,7.172-12.981,15.108-10.817.052-.071.091-.162.149-.247a11.549,11.549,0,0,0-3.616-.63V82.311a65.975,65.975,0,1,0-131.948,0V97.9a11.439,11.439,0,0,0-3.608.63,2.167,2.167,0,0,0,.148.247C268.255,96.617,275.427,102,275.427,109.6Z" fill="none" stroke="#0da4de" stroke-linecap="round" stroke-linejoin="round" stroke-width="6.055" fill-rule="evenodd"/>
          <path id="Stroke-63" d="M244.377,105.7V86.209C244.377,38.847,282.6.45,329.745.45s85.374,38.4,85.374,85.758V101.8" fill="none" stroke="#0da4de" stroke-linecap="round" stroke-linejoin="round" stroke-width="6.055" fill-rule="evenodd"/>
          <path id="Fill-65" d="M259.9,132.987H244.38a7.778,7.778,0,0,1-7.768-7.8V101.8a7.778,7.778,0,0,1,7.768-7.8H259.9Z" fill="#fff" fill-rule="evenodd"/>
          <path id="Stroke-67" d="M259.9,132.987H244.38a7.778,7.778,0,0,1-7.768-7.8V101.8a7.778,7.778,0,0,1,7.768-7.8H259.9Z" fill="none" stroke="#0da4de" stroke-linecap="round" stroke-linejoin="round" stroke-width="6.055" fill-rule="evenodd"/>
          <path id="Fill-69" d="M252.133,125.19a7.762,7.762,0,1,0,15.523,0V101.8a7.762,7.762,0,1,0-15.523,0Z" fill="#dbf1fa" fill-rule="evenodd"/>
          <path id="Stroke-71" d="M252.133,125.19a7.762,7.762,0,1,0,15.523,0V101.8a7.762,7.762,0,1,0-15.523,0Z" fill="none" stroke="#0da4de" stroke-linecap="round" stroke-linejoin="round" stroke-width="6.055" fill-rule="evenodd"/>
          <path id="Fill-73" d="M399.6,132.987h15.517a7.778,7.778,0,0,0,7.767-7.8V101.8a7.778,7.778,0,0,0-7.767-7.8H399.6Z" fill="#fff" fill-rule="evenodd"/>
          <path id="Stroke-75" d="M399.6,132.987h15.517a7.778,7.778,0,0,0,7.767-7.8V101.8a7.778,7.778,0,0,0-7.767-7.8H399.6Z" fill="none" stroke="#0da4de" stroke-linecap="round" stroke-linejoin="round" stroke-width="6.055" fill-rule="evenodd"/>
          <path id="Fill-77" d="M407.359,125.19a7.759,7.759,0,1,1-15.517,0V101.8a7.759,7.759,0,1,1,15.517,0Z" fill="#dbf1fa" fill-rule="evenodd"/>
          <path id="Stroke-79" d="M407.359,125.19a7.759,7.759,0,1,1-15.517,0V101.8a7.759,7.759,0,1,1,15.517,0Z" fill="none" stroke="#0da4de" stroke-linecap="round" stroke-linejoin="round" stroke-width="6.055" fill-rule="evenodd"/>
          <path id="Fill-85" d="M256.833,390.907H271.3l-30.89-96.2a6.471,6.471,0,0,0-6.151-4.5h-9.76Z" fill="#dbf1fa" fill-rule="evenodd"/>
          <path id="Stroke-87" d="M256.833,390.907H271.3l-30.89-96.2a6.471,6.471,0,0,0-6.151-4.5h-9.76Z" fill="none" stroke="#0da4de" stroke-linejoin="round" stroke-width="6.055" fill-rule="evenodd"/>
          <path id="Fill-89" d="M130.712,390.907H256.833l-32.339-100.7H107.26A6.488,6.488,0,0,0,101.1,298.7Z" fill="#dbf1fa" fill-rule="evenodd"/>
          <path id="Fill-91" d="M130.712,390.907H263.3v16.242H143.648a12.969,12.969,0,0,1-12.936-12.994Z" fill="#dbf1fa" fill-rule="evenodd"/>
          <path id="Stroke-93" d="M130.712,390.907H263.3v16.242H143.648a12.969,12.969,0,0,1-12.936-12.994Z" fill="none" stroke="#0da4de" stroke-linejoin="round" stroke-width="6.055" fill-rule="evenodd"/>
          <path id="Fill-95" d="M263.3,390.907h58.527a3.242,3.242,0,0,1,3.234,3.248,12.966,12.966,0,0,1-12.936,12.994H263.3Z" fill="#dbf1fa" fill-rule="evenodd"/>
          <path id="Stroke-97" d="M263.3,390.907h58.527a3.242,3.242,0,0,1,3.234,3.248,12.966,12.966,0,0,1-12.936,12.994H263.3Z" fill="none" stroke="#0da4de" stroke-linejoin="round" stroke-width="6.055" fill-rule="evenodd"/>
          <path id="Fill-99" d="M184.665,336.971a7.238,7.238,0,0,1,3.427-6.081,7.431,7.431,0,0,0-5.808-3.157c-2.477-.254-4.824,1.461-6.086,1.461s-3.188-1.429-5.239-1.39a7.8,7.8,0,0,0-6.577,4c-2.8,4.886-.712,12.117,2.018,16.08,1.332,1.942,2.923,4.119,5.012,4.041,2.018-.085,2.775-1.306,5.207-1.306s3.111,1.306,5.239,1.26c2.166-.032,3.537-1.968,4.863-3.917a17.228,17.228,0,0,0,2.2-4.542,7.027,7.027,0,0,1-4.255-6.451" fill="#fff" fill-rule="evenodd"/>
          <path id="Stroke-101" d="M184.665,336.971a7.238,7.238,0,0,1,3.427-6.081,7.431,7.431,0,0,0-5.808-3.157c-2.477-.254-4.824,1.461-6.086,1.461s-3.188-1.429-5.239-1.39a7.8,7.8,0,0,0-6.577,4c-2.8,4.886-.712,12.117,2.018,16.08,1.332,1.942,2.923,4.119,5.012,4.041,2.018-.085,2.775-1.306,5.207-1.306s3.111,1.306,5.239,1.26c2.166-.032,3.537-1.968,4.863-3.917a17.228,17.228,0,0,0,2.2-4.542A7.027,7.027,0,0,1,184.665,336.971Z" fill="none" stroke="#0da4de" stroke-linejoin="round" stroke-width="6.055" fill-rule="evenodd"/>
          <path id="Stroke-103" d="M179.22,319.441l2.917-2.93" fill="none" stroke="#0da4de" stroke-linecap="round" stroke-linejoin="round" stroke-width="6.055" fill-rule="evenodd"/>
          <path id="Stroke-105" d="M130.712,390.907H256.833l-32.339-100.7H107.26A6.488,6.488,0,0,0,101.1,298.7Z" fill="none" stroke="#0da4de" stroke-linejoin="round" stroke-width="6.055" fill-rule="evenodd"/>
        </g>
        <g id="Group-16" transform="translate(458.351 278.966)">
          <path id="Fill-1-3" data-name="Fill-1" d="M58.127,15.107h-47.9V7.561a5.312,5.312,0,0,1,5.216-5.4H52.913a5.312,5.312,0,0,1,5.214,5.4Z" fill="#fff" fill-rule="evenodd"/>
          <g id="Group-5" transform="translate(8.073)">
            <path id="Fill-3" d="M4.276,12.808H48.56V7.484A3.272,3.272,0,0,0,45.28,4.226H7.557A3.273,3.273,0,0,0,4.276,7.484ZM52.5,16.721H.337V7.484A7.205,7.205,0,0,1,7.557.314H45.28A7.2,7.2,0,0,1,52.5,7.484Z" fill="#0da4de" fill-rule="evenodd"/>
          </g>
          <path id="Fill-6" d="M56.632,101.973h-43.3L6.459,19.963h57.05Z" fill="#dbf1fa" fill-rule="evenodd"/>
          <path id="Fill-8" d="M7.559,32.372H62.407l1.1-12.949H6.459Z" fill="#0da4de" fill-rule="evenodd"/>
          <path id="Fill-10" d="M15.133,99.674h39.7l6.553-77.951H8.58Zm43.319,3.918H11.515L4.306,17.8H65.662Z" fill="#0da4de" fill-rule="evenodd"/>
          <path id="Fill-12-2" data-name="Fill-12" d="M67.724,25.9H2.784a.635.635,0,0,1-.631-.64V11.429a.634.634,0,0,1,.631-.638h64.94a.632.632,0,0,1,.629.638V25.258a.634.634,0,0,1-.629.64" fill="#fff" fill-rule="evenodd"/>
          <path id="Fill-14-2" data-name="Fill-14" d="M3.933,23.552h62.1V12.6H3.933Zm63.442,3.964H2.593A2.607,2.607,0,0,1,0,24.9V11.245A2.607,2.607,0,0,1,2.593,8.633H67.374a2.607,2.607,0,0,1,2.593,2.612V24.9A2.607,2.607,0,0,1,67.374,27.517Z" fill="#0da4de" fill-rule="evenodd"/>
        </g>
      </g>
      <g id="books" transform="translate(175.335 494.249)">
        <path id="Stroke-143" d="M137.216,60.38H7.74a7.534,7.534,0,0,1,0-15.068H137.216a7.534,7.534,0,0,1,0,15.068Z" fill="none" stroke="#0da4de" stroke-linecap="round" stroke-linejoin="round" stroke-width="5.638" fill-rule="evenodd"/>
        <path id="Stroke-147" d="M143.238,45.312H13.762a7.534,7.534,0,0,1,0-15.068H143.238a7.534,7.534,0,0,1,0,15.068Z" fill="none" stroke="#0da4de" stroke-linecap="round" stroke-linejoin="round" stroke-width="5.638" fill-rule="evenodd"/>
        <path id="Stroke-151" d="M137.216,30.244H7.74a7.534,7.534,0,0,1,0-15.068H137.216a7.534,7.534,0,0,1,0,15.068Z" fill="#fff" stroke="#0da4de" stroke-linecap="round" stroke-linejoin="round" stroke-width="5.638" fill-rule="evenodd"/>
        <path id="Stroke-155" d="M143.238,15.177H13.762a7.534,7.534,0,0,1,0-15.068H143.238a7.534,7.534,0,0,1,0,15.068Z" fill="#fff" stroke="#0da4de" stroke-linecap="round" stroke-linejoin="round" stroke-width="5.638" fill-rule="evenodd"/>
      </g>
      <path id="Stroke-11" d="M126.85,127.138A21.391,21.391,0,0,0,105.713,105.5,20.664,20.664,0,0,0,98.1,107C95.413,89.814,80.977,76.645,63.425,76.645S31.444,89.814,28.755,107a20.662,20.662,0,0,0-7.611-1.5,21.646,21.646,0,0,0,0,43.281h84.569A21.393,21.393,0,0,0,126.85,127.138Z" fill="none" stroke="#0da4de" stroke-linejoin="round" stroke-width="5.638" fill-rule="evenodd"/>
      <path id="Stroke-11-2" data-name="Stroke-11" d="M762.791,55a21.391,21.391,0,0,0-21.137-21.637,20.667,20.667,0,0,0-7.611,1.5c-2.689-17.184-17.126-30.353-34.677-30.353S667.385,17.677,664.7,34.861a20.667,20.667,0,0,0-7.611-1.5,21.646,21.646,0,0,0,0,43.281h84.569A21.392,21.392,0,0,0,762.791,55Z" fill="none" stroke="#0da4de" stroke-linejoin="round" stroke-width="5.638" fill-rule="evenodd"/>
    </g>
  </g>
</svg>
