<svg xmlns="http://www.w3.org/2000/svg" xmlns:xlink="http://www.w3.org/1999/xlink" width="200" height="50" viewBox="0 0 200 50">
  <defs>
    <clipPath id="clip-path">
      <rect id="Rectangle_264" data-name="Rectangle 264" width="200" height="50" transform="translate(0 1)"/>
    </clipPath>
  </defs>
  <g id="logo" transform="translate(0 -1)" clip-path="url(#clip-path)">
    <g id="Layer_1" transform="translate(-83.722 -73.787)">
      <g id="Group_1899" data-name="Group 1899" transform="translate(83.722 79.787)">
        <path id="Path_661" data-name="Path 661" d="M88.488,79.788h11.941a4.726,4.726,0,0,1,4.719,4.718V95.821l-4.045-6.6H88.488A4.768,4.768,0,0,1,83.722,84.5h0a4.767,4.767,0,0,1,4.766-4.718Z" transform="translate(-83.722 -79.788)" fill="#fff" fill-rule="evenodd"/>
        <g id="Group_1898" data-name="Group 1898" transform="translate(11.941)">
          <path id="Path_662" data-name="Path 662" d="M146.536,89.224h7.221a4.718,4.718,0,1,0,0-9.437h-11.94a4.726,4.726,0,0,1,4.719,4.718v4.718Z" transform="translate(-137.051 -79.787)" fill="#fff" fill-rule="evenodd"/>
          <path id="Path_663" data-name="Path 663" d="M134.729,119.2l-4.045-6.6h-5.44v21.473a4.743,4.743,0,1,0,9.486,0Z" transform="translate(-125.244 -103.163)" fill="#fff" fill-rule="evenodd"/>
        </g>
      </g>
    </g>
    <text id="Talfoundry" transform="translate(25 39)" fill="#fff" font-size="36" font-family="OpenSans-ExtraBold, Open Sans" font-weight="800" letter-spacing="-0.03em"><tspan x="0" y="0">alfoundry</tspan></text>
  </g>
</svg>
