<svg xmlns="http://www.w3.org/2000/svg" viewBox="0 0 21.46 109"><defs><style>.cls-1{fill:#b2b8e6;}</style></defs><title>Asset 2</title><g id="Layer_2" data-name="Layer 2"><g id="Layer_1-2" data-name="Layer 1"><g id="Layer_1-2-2" data-name="Layer 1-2"><path class="cls-1" d="M19.27,91l-17.07,0A2.19,2.19,0,0,0,0,93.12a2.26,2.26,0,0,0,.39,1.26l9.53,13.68a2.19,2.19,0,0,0,3.05.55,2.1,2.1,0,0,0,.67-.75l7.55-13.64a2.19,2.19,0,0,0-.87-3A2.13,2.13,0,0,0,19.27,91Z"/></g><rect class="cls-1" x="4.59" y="77.48" width="12.24" height="4.71" transform="translate(90.56 69.32) rotate(90.14)"/><rect class="cls-1" x="4.58" y="58.77" width="12.24" height="4.71" transform="translate(71.84 50.58) rotate(90.14)"/><rect class="cls-1" x="4.62" y="39.77" width="12.24" height="4.71" transform="translate(52.89 31.49) rotate(90.14)"/><rect class="cls-1" x="4.67" y="21.77" width="12.24" height="4.71" transform="translate(34.94 13.4) rotate(90.14)"/><rect class="cls-1" x="4.71" y="3.77" width="12.24" height="4.71" transform="translate(16.98 -4.69) rotate(90.14)"/></g></g></svg>