<svg xmlns="http://www.w3.org/2000/svg" viewBox="0 0 423 348" width="423" height="348">
	<defs>
		<linearGradient id="grd1" gradientUnits="userSpaceOnUse"  x1="1619.637" y1="2958.422" x2="1619.637" y2="127.558">
			<stop offset="0" stop-color="#808080" stop-opacity="0.25" />
			<stop offset="54" stop-color="#808080" stop-opacity="0.12" />
			<stop offset="100" stop-color="#808080" stop-opacity="0.1" />
		</linearGradient>
		<linearGradient id="grd2" gradientUnits="userSpaceOnUse"  x1="8199.207" y1="34719.734" x2="8199.207" y2="2.528">
			<stop offset="0" stop-color="#808080" stop-opacity="0.25" />
			<stop offset="54" stop-color="#808080" stop-opacity="0.12" />
			<stop offset="100" stop-color="#808080" stop-opacity="0.1" />
		</linearGradient>
		<linearGradient id="grd3" gradientUnits="userSpaceOnUse"  x1="340.472" y1="7472.298" x2="8466.124" y2="7472.298">
			<stop offset="0" stop-color="#808080" stop-opacity="0.25" />
			<stop offset="54" stop-color="#808080" stop-opacity="0.12" />
			<stop offset="100" stop-color="#808080" stop-opacity="0.1" />
		</linearGradient>
		<linearGradient id="grd4" gradientUnits="userSpaceOnUse"  x1="221.913" y1="329.065" x2="221.913" y2="189.864">
			<stop offset="0" stop-color="#808080" stop-opacity="0.25" />
			<stop offset="54" stop-color="#808080" stop-opacity="0.12" />
			<stop offset="100" stop-color="#808080" stop-opacity="0.1" />
		</linearGradient>
		<linearGradient id="grd5" gradientUnits="userSpaceOnUse"  x1="5373.5" y1="7421.213" x2="5373.5" y2="85.413">
			<stop offset="0" stop-color="#808080" stop-opacity="0.25" />
			<stop offset="54" stop-color="#808080" stop-opacity="0.12" />
			<stop offset="100" stop-color="#808080" stop-opacity="0.1" />
		</linearGradient>
	</defs>
	<style>
		tspan { white-space:pre }
		.shp0 { opacity: 0.702;fill: url(#grd1) } 
		.shp1 { fill: #008dea } 
		.shp2 { opacity: 0.102;fill: #000000 } 
		.shp3 { fill: #eeeeee } 
		.shp4 { fill: none;stroke: #ffffff;stroke-width: 3.84 } 
		.shp5 { opacity: 0.702;fill: url(#grd2) } 
		.shp6 { fill: #000000 } 
		.shp7 { fill: none;stroke: #dbdbdb;stroke-width: 2.4 } 
		.shp8 { fill: #b84733 } 
		.shp9 { fill: #f55f44 } 
		.shp10 { fill: #39447a } 
		.shp11 { opacity: 0.051;fill: #000000 } 
		.shp12 { fill: #fda57d } 
		.shp13 { fill: #333333 } 
		.shp14 { opacity: 0.702;fill: url(#grd3) } 
		.shp15 { fill: #4db6ac } 
		.shp16 { opacity: 0.6;fill: none;stroke: #535461;stroke-width: 0.5 } 
		.shp17 { fill: url(#grd4) } 
		.shp18 { fill: #ffffff } 
		.shp19 { fill: #535461 } 
		.shp20 { opacity: 0.702;fill: url(#grd5) } 
		.shp21 { fill: #3e3f49 } 
		.shp22 { fill: #e0e0e0 } 
	</style>
	<g id="Layer">
		<g id="Layer" style="opacity: 0.102">
		</g>
		<g id="Layer">
			<path id="Layer" fill-rule="evenodd" class="shp0" d="M33.18 127.56L58.46 127.56L58.46 150.94C58.46 153.66 56.25 155.87 53.53 155.87L38.11 155.87C35.38 155.87 33.18 153.66 33.18 150.94L33.18 145.75C29.55 145.75 26.6 142.8 26.6 139.17C26.6 135.54 29.55 132.6 33.18 132.6L33.18 127.56ZM33.18 135.14C31.7 135.09 30.31 135.85 29.56 137.12C28.8 138.39 28.8 139.97 29.56 141.25C30.31 142.52 31.7 143.28 33.18 143.23L33.18 135.14Z" />
			<path id="Layer" fill-rule="evenodd" class="shp1" d="M33.97 133.4C37.29 133.4 39.97 136.09 39.97 139.4C39.97 142.72 37.29 145.4 33.97 145.4C30.66 145.4 27.97 142.72 27.97 139.4C27.97 136.09 30.66 133.4 33.97 133.4ZM33.97 143.1C36.02 143.1 37.69 141.44 37.69 139.39C37.69 137.34 36.02 135.67 33.97 135.67C31.92 135.67 30.26 137.34 30.26 139.39C30.26 141.44 31.92 143.1 33.97 143.1Z" />
			<path id="Layer" fill-rule="evenodd" class="shp2" d="M33.97 133.4C37.29 133.4 39.97 136.09 39.97 139.4C39.97 142.72 37.29 145.4 33.97 145.4C30.66 145.4 27.97 142.72 27.97 139.4C27.97 136.09 30.66 133.4 33.97 133.4ZM33.97 143.1C36.02 143.1 37.69 141.44 37.69 139.39C37.69 137.34 36.02 135.67 33.97 135.67C31.92 135.67 30.26 137.34 30.26 139.39C30.26 141.44 31.92 143.1 33.97 143.1Z" />
			<path id="Layer" class="shp1" d="M57.08 128.79L33.99 128.79L33.99 150.13C33.99 152.63 36.02 154.66 38.52 154.66L52.55 154.66C55.05 154.66 57.08 152.63 57.08 150.13L57.08 128.79Z" />
			<path id="Layer" class="shp2" d="M38.15 128.79L38.15 150.13C38.15 151.33 38.62 152.47 39.47 153.31C40.31 154.16 41.46 154.63 42.65 154.63L40.33 154.63C37.84 154.63 35.83 152.62 35.83 150.13L35.83 128.79L38.15 128.79Z" />
			<path id="Layer" class="shp3" d="M52.54 111.58C52.94 111.6 53.31 111.79 53.56 112.1C53.86 112.65 53.31 113.27 52.81 113.65C51.88 114.34 50.91 115.04 50.28 116C49.65 116.96 49.46 118.32 50.14 119.25C51.04 120.46 53.18 120.73 53.39 122.22C53.53 123.18 52.7 124 51.85 124.49C49.77 125.68 47.09 125.99 45.59 127.86C44.96 126.58 43.57 125.84 42.18 125.54C40.79 125.24 39.35 125.25 37.94 125.03C37.46 125.03 37.03 124.79 36.76 124.4C36.36 123.6 37.49 122.64 37.1 121.85C36.8 121.23 35.94 121.28 35.3 121.04C34.27 120.64 33.85 119.32 34.14 118.26C34.44 117.19 35.26 116.36 36.13 115.68C38.45 113.82 41.28 112.76 44.13 111.96C45.45 111.6 47.01 111.04 48.38 110.98C49.75 110.92 51.21 111.36 52.54 111.58Z" />
			<path id="Layer" class="shp4" d="M214.56 160.09L262.83 310.43" />
			<path id="Layer" fill-rule="evenodd" class="shp5" d="M177.16 327.36C183.09 327.7 188.39 332.67 188.39 332.67L190.94 326.33L191.15 326.4C189.9 320.93 164.48 208.21 189.93 198.49C209.49 191.03 230.23 181.79 246.49 182.13L246.49 155.49L223.7 155.49L223.7 154.56L205.66 154.56C202.2 152.09 207.23 150.39 212.84 149.33C212.61 149.07 212.41 148.79 212.24 148.48L183.35 96.67C183.35 96.67 176.7 85.76 180.98 80.54C185.25 75.32 191.42 93.83 191.42 93.83L215.16 127.99C215.16 127.99 239.13 103.02 254.35 90.61C256.04 88.93 257.95 87.49 260.02 86.32C262.81 84.44 264.91 83.46 265.95 83.85L265.98 83.85C268.29 83.21 270.67 82.89 273.07 82.88L274.97 82.88L274.97 78.99C266.36 76.15 259.46 69.62 256.15 61.17C250.73 52.19 249.73 41.21 253.44 31.4C253.16 31.36 252.89 31.27 252.65 31.12C251.79 30.57 251.72 29.36 251.78 28.34C252.42 21.4 256.43 15.21 262.51 11.81C264.92 10.5 267.68 9.59 269.45 7.5C270.97 5.7 271.61 3.19 273.46 1.73C275.65 -0.01 278.82 0.28 281.5 1.06C284.5 1.93 287.33 3.27 289.9 5.03C292.81 7.02 295.43 9.57 298.78 10.68C301.16 11.46 303.74 11.44 306.13 12.18C309.86 13.36 312.8 16.23 314.08 19.92C314.68 21.87 314.91 23.92 314.76 25.96C316.21 28.39 317.36 30.99 318.17 33.71L318.71 34L318.19 33.77C321.89 46.27 318.16 59.79 308.56 68.61C304.84 73.45 299.76 77.06 293.96 78.97L293.96 83.68C298.1 84.57 302.04 86.18 305.61 88.45C305.61 88.45 305.91 88.63 306.43 88.99L306.59 89.09C310.11 91.48 321.88 100.18 321.48 109.59C321.48 109.95 321.48 110.32 321.48 110.68C322.12 113.4 322.45 116.19 322.45 118.98L322.45 187.29C322.46 194.84 319.93 202.17 315.26 208.09C325.16 210.31 331.48 213.66 331.48 217.43C331.43 217.73 331.43 218.05 331.48 218.35C331.48 225.04 311.52 230.45 286.86 230.45C283.88 230.45 280.96 230.38 278.15 230.22L250.3 252.75L294.9 324.43C294.9 324.43 309.62 335.82 298.23 339.62C286.84 343.42 263.57 346.26 263.57 346.26C263.57 346.26 259.78 339.62 265 336.78C270.22 333.93 277.34 335.35 277.34 335.35L276.41 329.66C276.41 329.66 199.03 263.22 215.17 240.45C218.26 236.09 221.35 231.6 224.46 227.17L212.28 228.28L209.49 332.57L209.14 332.46C209.84 334.51 214.76 349.97 203.85 347.35C192.17 344.57 170.93 334.67 170.93 334.67C170.93 334.67 171.22 327.01 177.16 327.36ZM223.7 147.91L246.49 141.3L246.49 121.81L221.72 148.07C222.94 147.97 223.7 147.91 223.7 147.91Z" />
			<path id="Layer" class="shp6" d="M284.65 79.82C303.13 79.82 318.07 64.88 318.07 46.41C318.07 27.93 303.13 13 284.65 13C266.17 13 251.23 27.93 251.23 46.41C251.23 64.88 266.17 79.82 284.65 79.82Z" />
			<path id="Layer" class="shp1" d="M246.59 122.97L221.08 150.03C219.99 151.19 218.42 151.76 216.84 151.56C215.27 151.37 213.88 150.43 213.1 149.05L184.85 98.38L192.75 95.6L215.95 129.01C215.95 129.01 259.52 83.61 265.62 85.85C271.71 88.1 246.59 122.97 246.59 122.97Z" />
			<path id="Layer" class="shp7" d="M295.33 216.7L332.92 314.14" />
			<path id="Layer" class="shp7" d="M276.76 216.7L239.16 314.14" />
			<path id="Layer" class="shp8" d="M286.04 229.23C310.17 229.23 329.68 223.94 329.68 217.39C329.68 210.85 310.17 205.56 286.04 205.56C261.91 205.56 242.41 210.85 242.41 217.39C242.41 223.94 261.91 229.23 286.04 229.23Z" />
			<path id="Layer" class="shp9" d="M286.04 228.3C310.17 228.3 329.68 223.01 329.68 216.47C329.68 209.92 310.17 204.63 286.04 204.63C261.91 204.63 242.41 209.92 242.41 216.47C242.41 223.01 261.91 228.3 286.04 228.3Z" />
			<path id="Layer" class="shp7" d="M304.41 238.1L263.24 250.78" />
			<path id="Layer" class="shp7" d="M267.68 238.1L308.85 250.78" />
			<path id="Layer" class="shp1" d="M285.54 84.91L272.58 84.91C258.23 84.91 246.59 96.55 246.59 110.9L246.59 179.57L320.86 179.57L320.86 120.23C320.86 110.86 317.14 101.88 310.51 95.26C303.89 88.63 294.91 84.91 285.54 84.91Z" />
			<path id="Layer" class="shp10" d="M320.86 179.57L246.59 179.57L246.59 219.94L287.9 219.94C306.1 219.94 320.86 205.19 320.86 186.99L320.86 179.57Z" />
			<path id="Layer" class="shp11" d="M319.85 112.78L274.44 155.93L224.31 155.93L224.31 149.44L267.48 136.91L304.4 91.32C304.4 91.32 321.17 101.67 319.85 112.78Z" />
			<path id="Layer" class="shp1" d="M319.85 111.85L274.44 155L224.31 155L224.31 148.51L267.48 135.98L304.4 90.4C304.4 90.4 321.17 100.74 319.85 111.85Z" />
			<path id="Layer" class="shp12" d="M224.31 148.49C224.31 148.49 200.17 150.35 206.67 154.99L224.31 154.99L224.31 148.49ZM192.75 95.59C192.75 95.59 186.71 77.5 182.53 82.6C178.36 87.71 184.85 98.38 184.85 98.38L192.75 95.59Z" />
			<path id="Layer" class="shp11" d="M320.86 179.58L320.86 181.74L246.59 181.9L246.59 179.58L320.86 179.58Z" />
			<path id="Layer" class="shp10" d="M263.08 222.52L213.14 227.07L210.42 329.03L192.54 323.21C192.54 323.21 165.79 207.67 191.29 197.93C216.8 188.18 244.37 175.36 260.83 185.82C277.29 196.27 263.08 222.52 263.08 222.52Z" />
			<path id="Layer" class="shp2" d="M260.05 191.18C260.05 191.18 232.66 205.1 228.95 220.87" />
			<path id="Layer" class="shp10" d="M289.29 219.48L250.3 251.03L293.93 321.1L275.83 326.2C275.83 326.2 200.17 261.24 215.95 238.97C231.74 216.7 247.52 190.71 267.01 190.25C286.51 189.79 289.29 219.48 289.29 219.48Z" />
			<path id="Layer" class="shp11" d="M228.02 116.94L218.27 133.64L215.95 129L228.02 116.94Z" />
			<path id="Layer" class="shp13" d="M293.93 321.1C293.93 321.1 308.32 332.23 297.18 335.95C286.04 339.66 263.3 342.44 263.3 342.44C263.3 342.44 259.59 335.95 264.69 333.16C269.8 330.38 276.76 331.77 276.76 331.77L275.83 326.2L293.93 321.1ZM210 328.71C210 328.71 216.32 346.23 204.9 343.49C193.47 340.76 172.7 331.09 172.7 331.09C172.7 331.09 172.99 323.62 178.79 323.95C184.6 324.28 189.77 329.15 189.77 329.15L192.27 322.94L210 328.71Z" />
			<path id="Layer" class="shp12" d="M283.72 68.68L283.72 68.68C278.59 68.68 274.44 72.83 274.44 77.96L274.44 87.24C274.44 92.37 278.59 96.52 283.72 96.52L283.72 96.52C288.86 96.52 293 92.37 293 87.24L293 77.96C293 72.83 288.86 68.68 283.72 68.68Z" />
			<path id="Layer" class="shp11" d="M283.72 69.61C288.85 69.61 293.01 73.76 293.01 78.89L293.01 82.04C286.98 84.03 280.47 84.03 274.44 82.04L274.44 78.89C274.44 76.43 275.42 74.07 277.16 72.33C278.9 70.59 281.26 69.61 283.72 69.61Z" />
			<path id="Layer" class="shp12" d="M283.72 82.6C300.15 82.6 313.43 69.33 313.43 52.91C313.43 36.48 300.15 23.21 283.72 23.21C267.29 23.21 254.01 36.48 254.01 52.91C254.01 69.33 267.29 82.6 283.72 82.6Z" />
			<path id="Layer" class="shp11" d="M313.43 51.56C313.43 51.56 306 53.47 301.82 45.03C297.65 36.6 294.4 31.99 277.22 36.98C260.05 41.96 256.6 42.57 255.77 37.86C255.2 34.64 261.31 26.81 265.24 22.18C267.15 19.92 270.27 18.57 273.59 18.57L293.01 18.57L304.61 23.94L313.43 31.61L315.29 41.96L313.43 51.56Z" />
			<path id="Layer" class="shp6" d="M313.43 50.63C313.43 50.63 306 52.54 301.82 44.1C297.65 35.67 294.4 31.06 277.22 36.05C260.05 41.03 256.6 41.64 255.77 36.93C255.2 33.71 261.31 25.88 265.24 21.25C267.15 18.99 270.27 17.64 273.59 17.64L293.01 17.64L304.61 23.01L313.43 30.68L315.29 41.04L313.43 50.63Z" />
			<path id="Layer" class="shp12" d="M310.41 56.62C312.08 56.62 313.43 53.92 313.43 50.58C313.43 47.25 312.08 44.55 310.41 44.55C308.74 44.55 307.39 47.25 307.39 50.58C307.39 53.92 308.74 56.62 310.41 56.62Z" />
			<path id="Layer" class="shp6" d="M312.57 35.06C313.26 31.18 313.93 27.1 312.68 23.36C311.44 19.75 308.55 16.94 304.91 15.79C302.59 15.07 300.05 15.08 297.72 14.32C294.45 13.24 291.88 10.74 289.04 8.79C286.52 7.07 283.75 5.76 280.83 4.92C278.2 4.16 275.1 3.87 272.96 5.57C271.16 7 270.53 9.46 269.04 11.21C267.3 13.25 264.61 14.14 262.26 15.42C256.31 18.76 252.38 24.81 251.77 31.6C251.69 32.6 251.77 33.78 252.62 34.32C253.14 34.59 253.73 34.7 254.31 34.63C266.19 34.46 278.07 34.29 289.9 33.2C293.57 32.87 297.25 32.44 300.94 32.58C306.64 32.8 312.21 34.38 317.19 37.17" />
			<path id="Layer" class="shp14" d="M342.23 240.94C340.67 234.61 343.15 227.98 348.49 224.23C349.88 223.3 351.4 222.59 352.66 221.52C354.78 219.74 355.99 217.11 356.87 214.48C358.96 208.18 359.63 201.11 363.31 195.42C366.66 190.24 373.18 188.72 378.97 188.2C381.08 188.01 383.29 187.92 385.22 188.79C388.44 190.24 389.98 194.05 390.12 197.6C390.27 201.15 389.35 204.63 389.12 208.16C388.88 211.68 389.51 215.58 392.12 217.96C394.73 220.35 398.46 220.64 401.92 221.12C406.44 221.75 410.89 222.85 415.19 224.41C418.79 225.73 422.81 228.09 422.98 231.93C423.12 235.06 420.59 237.56 418.69 240.05C415.14 244.69 413.37 250.86 414.57 256.59C415.8 262.42 419.89 267.43 420.64 273.34C420.83 274.85 420.78 276.44 420.05 277.77C419.47 278.7 418.71 279.51 417.81 280.14C415.58 281.86 413.09 283.24 410.98 285.11C406.59 289 404.21 294.65 402.37 300.23C402.2 300.76 402.04 301.31 401.87 301.85L406.19 301.85C415.01 301.87 422.15 309.01 422.17 317.82C422.15 326.63 415.01 333.77 406.19 333.8L363.02 333.8C354.21 333.77 347.07 326.63 347.04 317.82C347.05 308.98 354.22 301.82 363.07 301.82L374.88 301.82C372.1 298.07 369.17 294.56 364.85 293.11C360.53 291.67 355.31 292.52 351.92 289.51C350.27 288.04 349.39 285.87 348.99 283.7C348.27 279.77 348.94 275.71 350.88 272.21C352.24 269.78 354.23 267.57 354.66 264.83C355.03 262.48 354.2 260.1 353.03 258.02C349.77 252.09 343.99 247.48 342.23 240.94Z" />
			<path id="Layer" class="shp15" d="M379.14 191.66C381.15 191.48 383.25 191.39 385.09 192.22C388.16 193.61 389.63 197.23 389.77 200.6C389.9 203.96 389.03 207.28 388.81 210.65C388.59 214.01 389.19 217.71 391.67 219.99C394.16 222.27 397.71 222.53 401 222.99C405.31 223.59 409.55 224.64 413.64 226.13C417.07 227.37 420.9 229.63 421.06 233.28C421.19 236.26 418.79 238.64 416.98 241.02C413.6 245.46 411.91 251.31 413.06 256.76C414.23 262.33 418.13 267.09 418.84 272.72C419.02 274.15 418.97 275.67 418.27 276.93C417.72 277.82 416.99 278.59 416.13 279.19C414.01 280.83 411.65 282.15 409.64 283.93C405.46 287.64 403.18 293.01 401.44 298.31C399.72 303.54 398.38 308.88 397.42 314.29C393.81 311.97 389.15 312.01 385.3 310.11C377.11 306.1 374.35 294.46 365.7 291.55C361.6 290.19 356.61 290.99 353.39 288.12C351.82 286.73 350.98 284.66 350.6 282.59C349.92 278.85 350.55 275 352.39 271.67C353.69 269.35 355.58 267.26 355.99 264.65C356.35 262.41 355.53 260.15 354.44 258.15C351.33 252.5 345.83 248.11 344.16 241.88C342.66 235.85 345.02 229.52 350.11 225.96C351.43 225.07 352.9 224.4 354.1 223.38C356.12 221.68 357.27 219.18 358.1 216.67C360.11 210.67 360.74 203.94 364.24 198.52C367.42 193.59 373.63 192.15 379.14 191.66Z" />
			<path id="Layer" class="shp16" d="M379.2 191.86C379.2 191.86 371.59 293.76 391.38 311.28" />
			<path id="Layer" class="shp1" d="M405.07 299.87L363.97 299.87C355.56 299.87 348.76 306.67 348.76 315.08L348.76 315.08C348.76 323.49 355.56 330.29 363.97 330.29L405.07 330.29C413.49 330.29 420.29 323.49 420.29 315.08L420.29 315.08C420.29 306.67 413.49 299.87 405.07 299.87Z" />
			<path id="Layer" class="shp16" d="M421.05 231.42C421.05 231.42 401.59 229.15 377.84 243.59" />
			<path id="Layer" class="shp16" d="M378.22 255.75C378.22 255.75 367.41 237.88 344.2 234.46" />
			<path id="Layer" class="shp16" d="M419.14 272.88C419.14 272.88 392.18 268.31 379.79 275.92" />
			<path id="Layer" class="shp16" d="M381.33 286.36C381.33 286.36 367.21 279.96 351.33 285.16" />
			<path id="Layer" class="shp17" d="M152.98 191.26C152.6 191.26 152.29 190.94 152.29 190.56C152.29 190.18 152.6 189.86 152.98 189.86C153.37 189.86 153.68 190.18 153.68 190.56C153.68 190.94 153.37 191.26 152.98 191.26Z" />
			<path id="Layer" class="shp4" d="M50.82 160.09L2.55 331.81" />
			<path id="Layer" class="shp18" d="M263.03 155.06L2.35 155.06L2.35 165.21L263.03 165.21L263.03 155.06Z" />
			<path id="Layer" class="shp19" d="M195.76 152.66L159.09 152.66C157.42 152.66 156.08 154.01 156.08 155.68L156.08 155.68C156.08 157.35 157.42 158.7 159.09 158.7L195.76 158.7C197.43 158.7 198.78 157.35 198.78 155.68L198.78 155.68C198.78 154.01 197.43 152.66 195.76 152.66Z" />
			<path id="Layer" class="shp20" d="M159.24 85.41L80.19 85.41C72.7 85.41 66.65 91.47 66.65 98.96L66.65 145.23C66.65 152.72 72.7 158.77 80.19 158.77L159.24 158.77C166.73 158.77 172.79 152.72 172.79 145.23L172.79 98.96C172.79 91.47 166.73 85.41 159.24 85.41Z" />
			<path id="Layer" class="shp21" d="M158.01 86.76L83.24 86.76C76.11 86.76 70.35 92.52 70.35 99.65L70.35 145.88C70.35 153.01 76.11 158.77 83.24 158.77L158.01 158.77C165.14 158.77 170.9 153.01 170.9 145.88L170.9 99.65C170.9 92.52 165.14 86.76 158.01 86.76Z" />
			<path id="Layer" class="shp19" d="M156.62 86.76L81.84 86.76C74.72 86.76 68.96 92.52 68.96 99.65L68.96 145.88C68.96 153.01 74.72 158.77 81.84 158.77L156.62 158.77C163.75 158.77 169.5 153.01 169.5 145.88L169.5 99.65C169.5 92.52 163.75 86.76 156.62 86.76Z" />
			<path id="Layer" class="shp22" d="M114.53 125.52C116.33 125.52 117.78 124.07 117.78 122.27C117.78 120.48 116.33 119.03 114.53 119.03C112.74 119.03 111.28 120.48 111.28 122.27C111.28 124.07 112.74 125.52 114.53 125.52Z" />
		</g>
	</g>
</svg>