<svg xmlns="http://www.w3.org/2000/svg" xmlns:xlink="http://www.w3.org/1999/xlink" viewBox="0 0 2002.11 2074.24"><defs><linearGradient id="Áåçûìÿííûé_ãðàäèåíò_43-6" x1="1394.62" y1="838.05" x2="1414.06" y2="838.05" xlink:href="#Áåçûìÿííûé_ãðàäèåíò_43"/><linearGradient id="Áåçûìÿííûé_ãðàäèåíò_60-13" x1="657.8" y1="1452.25" x2="689.69" y2="1639.96" xlink:href="#Áåçûìÿííûé_ãðàäèåíò_60"/><linearGradient id="Áåçûìÿííûé_ãðàäèåíò_75-12" x1="4804.36" y1="1832.82" x2="5032.67" y2="1832.82" gradientTransform="matrix(-1 0 0 1 6612.08 0)" xlink:href="#Áåçûìÿííûé_ãðàäèåíò_75"/><linearGradient id="Áåçûìÿííûé_ãðàäèåíò_21-5" x1="4915.22" y1="1595.48" x2="5031.58" y2="1595.48" gradientTransform="matrix(-1 0 0 1 6612.08 0)" xlink:href="#Áåçûìÿííûé_ãðàäèåíò_21"/><linearGradient id="Áåçûìÿííûé_ãðàäèåíò_21-4" x1="4706.11" y1="1618.74" x2="4941.46" y2="1618.74" gradientTransform="matrix(-1 0 0 1 6612.08 0)" xlink:href="#Áåçûìÿííûé_ãðàäèåíò_21"/><linearGradient id="Áåçûìÿííûé_ãðàäèåíò_30-17" x1="1491.6" y1="1399.41" x2="1378.54" y2="947.17" xlink:href="#Áåçûìÿííûé_ãðàäèåíò_30"/><linearGradient id="Áåçûìÿííûé_ãðàäèåíò_30-16" x1="3331.59" y1="944.39" x2="3373.51" y2="944.39" gradientTransform="matrix(-1 0 0 1 4775.8 0)" xlink:href="#Áåçûìÿííûé_ãðàäèåíò_30"/><linearGradient id="Áåçûìÿííûé_ãðàäèåíò_30-15" x1="3033.11" y1="1167.88" x2="3204.09" y2="1167.88" gradientTransform="matrix(-1 0 0 1 4775.8 0)" xlink:href="#Áåçûìÿííûé_ãðàäèåíò_30"/><linearGradient id="Áåçûìÿííûé_ãðàäèåíò_30-14" x1="1501.25" y1="1397" x2="1388.19" y2="944.76" xlink:href="#Áåçûìÿííûé_ãðàäèåíò_30"/><linearGradient id="Áåçûìÿííûé_ãðàäèåíò_60-12" x1="740.87" y1="1566.15" x2="892.74" y2="1566.15" xlink:href="#Áåçûìÿííûé_ãðàäèåíò_60"/><linearGradient id="Áåçûìÿííûé_ãðàäèåíò_60-11" x1="174.03" y1="1434.94" x2="600.74" y2="1434.94" xlink:href="#Áåçûìÿííûé_ãðàäèåíò_60"/><linearGradient id="Áåçûìÿííûé_ãðàäèåíò_60-10" x1="527.95" y1="1857.55" x2="549.82" y2="1857.55" xlink:href="#Áåçûìÿííûé_ãðàäèåíò_60"/><linearGradient id="Áåçûìÿííûé_ãðàäèåíò_75-11" x1="457.32" y1="1221.55" x2="696.43" y2="1221.55" xlink:href="#Áåçûìÿííûé_ãðàäèåíò_75"/><linearGradient id="Áåçûìÿííûé_ãðàäèåíò_75-10" x1="277.27" y1="1355.29" x2="753.88" y2="1355.29" xlink:href="#Áåçûìÿííûé_ãðàäèåíò_75"/><linearGradient id="Áåçûìÿííûé_ãðàäèåíò_43-13" x1="429.41" y1="1568.38" x2="1044.61" y2="1568.38" xlink:href="#Áåçûìÿííûé_ãðàäèåíò_43"/><linearGradient id="Áåçûìÿííûé_ãðàäèåíò_43-12" x1="735.1" y1="1781.06" x2="1044.44" y2="1781.06" xlink:href="#Áåçûìÿííûé_ãðàäèåíò_43"/><linearGradient id="Áåçûìÿííûé_ãðàäèåíò_60-9" x1="613.16" y1="1955.45" x2="721.51" y2="1955.45" xlink:href="#Áåçûìÿííûé_ãðàäèåíò_60"/><linearGradient id="Áåçûìÿííûé_ãðàäèåíò_75-9" x1="623.07" y1="1942.55" x2="803.1" y2="1942.55" xlink:href="#Áåçûìÿííûé_ãðàäèåíò_75"/><linearGradient id="Áåçûìÿííûé_ãðàäèåíò_43-11" x1="477.71" y1="1781.06" x2="787.05" y2="1781.06" xlink:href="#Áåçûìÿííûé_ãðàäèåíò_43"/><linearGradient id="Áåçûìÿííûé_ãðàäèåíò_60-8" x1="355.77" y1="1955.45" x2="464.11" y2="1955.45" xlink:href="#Áåçûìÿííûé_ãðàäèåíò_60"/><linearGradient id="Áåçûìÿííûé_ãðàäèåíò_21" x1="1557.77" y1="566.58" x2="1658.85" y2="566.58" gradientUnits="userSpaceOnUse"><stop offset="0" stop-color="#fea235"/><stop offset="1" stop-color="#ffb44f"/></linearGradient><linearGradient id="Áåçûìÿííûé_ãðàäèåíò_30" x1="339.73" y1="189.76" x2="446.5" y2="189.76" gradientTransform="rotate(45 393.12 189.756)" gradientUnits="userSpaceOnUse"><stop offset="0" stop-color="#f6462e"/><stop offset="1" stop-color="#fb7d42"/></linearGradient><linearGradient id="Áåçûìÿííûé_ãðàäèåíò_43" x1="2028.64" y1="-1453.49" x2="2063.78" y2="-1453.49" gradientTransform="rotate(-62.6 2883.514 332.727)" gradientUnits="userSpaceOnUse"><stop offset="0" stop-color="#0e218a"/><stop offset="1" stop-color="#1f72d2"/></linearGradient><linearGradient id="Áåçûìÿííûé_ãðàäèåíò_43-2" x1="1659.71" y1="-166.5" x2="1694.85" y2="-166.5" xlink:href="#Áåçûìÿííûé_ãðàäèåíò_43"/><linearGradient id="Áåçûìÿííûé_ãðàäèåíò_30-2" x1="1001.32" y1="840.94" x2="1036.45" y2="840.94" gradientTransform="rotate(64.07 575.676 69.665)" xlink:href="#Áåçûìÿííûé_ãðàäèåíò_30"/><linearGradient id="Áåçûìÿííûé_ãðàäèåíò_2" x1="1184.06" y1="1605.5" x2="1193.47" y2="1605.5" gradientUnits="userSpaceOnUse"><stop offset="0" stop-color="#2abdd1"/><stop offset="1" stop-color="#237c8f"/></linearGradient><linearGradient id="Áåçûìÿííûé_ãðàäèåíò_2-2" x1="139.86" y1="393.96" x2="144.57" y2="393.96" xlink:href="#Áåçûìÿííûé_ãðàäèåíò_2"/><linearGradient id="Áåçûìÿííûé_ãðàäèåíò_2-3" x1="1103.09" y1="569.08" x2="1107.79" y2="569.08" xlink:href="#Áåçûìÿííûé_ãðàäèåíò_2"/><linearGradient id="Áåçûìÿííûé_ãðàäèåíò_2-4" x1="1409.85" y1="298.84" x2="1419.26" y2="298.84" xlink:href="#Áåçûìÿííûé_ãðàäèåíò_2"/><linearGradient id="Áåçûìÿííûé_ãðàäèåíò_75" x1="1174.65" y1="14.34" x2="1193.47" y2="14.34" gradientUnits="userSpaceOnUse"><stop offset="0" stop-color="#237c8f"/><stop offset="1" stop-color="#2abdd1"/></linearGradient><linearGradient id="Áåçûìÿííûé_ãðàäèåíò_75-2" x1="503.96" y1="578.49" x2="522.78" y2="578.49" xlink:href="#Áåçûìÿííûé_ãðàäèåíò_75"/><linearGradient id="Áåçûìÿííûé_ãðàäèåíò_21-2" x1="1674.32" y1="837.51" x2="1693.14" y2="837.51" xlink:href="#Áåçûìÿííûé_ãðàäèåíò_21"/><linearGradient id="Áåçûìÿííûé_ãðàäèåíò_75-3" x1="1717.15" y1="254.15" x2="1739.74" y2="254.15" xlink:href="#Áåçûìÿííûé_ãðàäèåíò_75"/><linearGradient id="Áåçûìÿííûé_ãðàäèåíò_21-3" x1="102.3" y1="1484.62" x2="124.9" y2="1484.62" xlink:href="#Áåçûìÿííûé_ãðàäèåíò_21"/><linearGradient id="Áåçûìÿííûé_ãðàäèåíò_75-8" x1="365.68" y1="1942.55" x2="545.71" y2="1942.55" xlink:href="#Áåçûìÿííûé_ãðàäèåíò_75"/><linearGradient id="Áåçûìÿííûé_ãðàäèåíò_30-3" x1="339.73" y1="1427.39" x2="525.32" y2="1427.39" xlink:href="#Áåçûìÿííûé_ãðàäèåíò_30"/><linearGradient id="Áåçûìÿííûé_ãðàäèåíò_60" x1="1390.08" y1="1427.39" x2="1575.67" y2="1427.39" gradientUnits="userSpaceOnUse"><stop offset="0" stop-color="#d2d1cd"/><stop offset="1" stop-color="#abafb8"/></linearGradient><linearGradient id="Áåçûìÿííûé_ãðàäèåíò_43-3" x1="1122" y1="794.99" x2="1258.3" y2="794.99" xlink:href="#Áåçûìÿííûé_ãðàäèåíò_43"/><linearGradient id="Áåçûìÿííûé_ãðàäèåíò_43-4" x1="1127.19" y1="859.85" x2="1258.29" y2="859.85" xlink:href="#Áåçûìÿííûé_ãðàäèåíò_43"/><linearGradient id="Áåçûìÿííûé_ãðàäèåíò_60-2" x1="1256.78" y1="660.41" x2="1290.7" y2="660.41" xlink:href="#Áåçûìÿííûé_ãðàäèåíò_60"/><linearGradient id="Áåçûìÿííûé_ãðàäèåíò_43-5" x1="1264.02" y1="660.42" x2="1283.46" y2="660.42" xlink:href="#Áåçûìÿííûé_ãðàäèåíò_43"/><linearGradient id="Áåçûìÿííûé_ãðàäèåíò_60-3" x1="1387.38" y1="838.05" x2="1421.3" y2="838.05" xlink:href="#Áåçûìÿííûé_ãðàäèåíò_60"/><linearGradient id="Áåçûìÿííûé_ãðàäèåíò_60-7" x1="232.18" y1="1566.15" x2="534.41" y2="1566.15" xlink:href="#Áåçûìÿííûé_ãðàäèåíò_60"/><linearGradient id="Áåçûìÿííûé_ãðàäèåíò_43-7" x1="728.4" y1="717.43" x2="869.27" y2="717.43" xlink:href="#Áåçûìÿííûé_ãðàäèåíò_43"/><linearGradient id="Áåçûìÿííûé_ãðàäèåíò_43-8" x1="740.05" y1="776.11" x2="869.27" y2="776.11" xlink:href="#Áåçûìÿííûé_ãðàäèåíò_43"/><linearGradient id="Áåçûìÿííûé_ãðàäèåíò_60-4" x1="872.21" y1="607.3" x2="906.14" y2="607.3" xlink:href="#Áåçûìÿííûé_ãðàäèåíò_60"/><linearGradient id="Áåçûìÿííûé_ãðàäèåíò_43-9" x1="879.45" y1="607.3" x2="898.9" y2="607.3" xlink:href="#Áåçûìÿííûé_ãðàäèåíò_43"/><linearGradient id="Áåçûìÿííûé_ãðàäèåíò_60-5" x1="947.25" y1="814.16" x2="981.18" y2="814.16" xlink:href="#Áåçûìÿííûé_ãðàäèåíò_60"/><linearGradient id="Áåçûìÿííûé_ãðàäèåíò_43-10" x1="954.5" y1="814.16" x2="973.94" y2="814.16" xlink:href="#Áåçûìÿííûé_ãðàäèåíò_43"/><linearGradient id="Áåçûìÿííûé_ãðàäèåíò_30-4" x1="608.83" y1="1068.88" x2="1261.78" y2="1068.88" xlink:href="#Áåçûìÿííûé_ãðàäèåíò_30"/><linearGradient id="Áåçûìÿííûé_ãðàäèåíò_75-4" x1="608.34" y1="1091.34" x2="1194.87" y2="1091.34" xlink:href="#Áåçûìÿííûé_ãðàäèåíò_75"/><linearGradient id="Áåçûìÿííûé_ãðàäèåíò_30-5" x1="1099.51" y1="1023.47" x2="1102.75" y2="1023.47" xlink:href="#Áåçûìÿííûé_ãðàäèåíò_30"/><linearGradient id="Áåçûìÿííûé_ãðàäèåíò_30-6" x1="1113.05" y1="1023.47" x2="1116.28" y2="1023.47" xlink:href="#Áåçûìÿííûé_ãðàäèåíò_30"/><linearGradient id="Áåçûìÿííûé_ãðàäèåíò_30-7" x1="1126.58" y1="1023.47" x2="1129.82" y2="1023.47" xlink:href="#Áåçûìÿííûé_ãðàäèåíò_30"/><linearGradient id="Áåçûìÿííûé_ãðàäèåíò_30-8" x1="1221.24" y1="1018.76" x2="1228.76" y2="1018.76" xlink:href="#Áåçûìÿííûé_ãðàäèåíò_30"/><linearGradient id="Áåçûìÿííûé_ãðàäèåíò_30-9" x1="1225.26" y1="1021.91" x2="1228.13" y2="1021.91" xlink:href="#Áåçûìÿííûé_ãðàäèåíò_30"/><linearGradient id="Áåçûìÿííûé_ãðàäèåíò_30-10" x1="480.95" y1="1255.42" x2="724.05" y2="1255.42" xlink:href="#Áåçûìÿííûé_ãðàäèåíò_30"/><linearGradient id="Áåçûìÿííûé_ãðàäèåíò_30-11" x1="708.29" y1="1236.08" x2="894.11" y2="1236.08" xlink:href="#Áåçûìÿííûé_ãðàäèåíò_30"/><linearGradient id="Áåçûìÿííûé_ãðàäèåíò_75-5" x1="723.01" y1="1253.15" x2="823.39" y2="1253.15" xlink:href="#Áåçûìÿííûé_ãðàäèåíò_75"/><linearGradient id="Áåçûìÿííûé_ãðàäèåíò_30-12" x1="863.83" y1="1236.08" x2="1049.65" y2="1236.08" xlink:href="#Áåçûìÿííûé_ãðàäèåíò_30"/><linearGradient id="Áåçûìÿííûé_ãðàäèåíò_75-6" x1="878.55" y1="1253.15" x2="978.94" y2="1253.15" xlink:href="#Áåçûìÿííûé_ãðàäèåíò_75"/><linearGradient id="Áåçûìÿííûé_ãðàäèåíò_30-13" x1="1015.3" y1="1234.69" x2="1201.11" y2="1234.69" xlink:href="#Áåçûìÿííûé_ãðàäèåíò_30"/><linearGradient id="Áåçûìÿííûé_ãðàäèåíò_75-7" x1="1030.02" y1="1253.79" x2="1132.63" y2="1253.79" xlink:href="#Áåçûìÿííûé_ãðàäèåíò_75"/><linearGradient id="Áåçûìÿííûé_ãðàäèåíò_60-6" x1="1133.74" y1="1170.83" x2="1570.36" y2="1170.83" xlink:href="#Áåçûìÿííûé_ãðàäèåíò_60"/><radialGradient id="Áåçûìÿííûé_ãðàäèåíò_40" cx="1451.87" cy="1525.5" r="234.67" gradientUnits="userSpaceOnUse"><stop offset="0" stop-color="#fff"/><stop offset="1" stop-color="gray"/></radialGradient><radialGradient id="Áåçûìÿííûé_ãðàäèåíò_86-2" cx="1005.68" cy="947.54" r="862.84" xlink:href="#Áåçûìÿííûé_ãðàäèåíò_86"/><radialGradient id="Áåçûìÿííûé_ãðàäèåíò_86" cx="1451.87" cy="1525.5" r="234.67" gradientUnits="userSpaceOnUse"><stop offset="0" stop-color="#b3d6ff"/><stop offset="1" stop-color="#e6f2fe"/></radialGradient><radialGradient id="Áåçûìÿííûé_ãðàäèåíò_86-3" cx="542.81" cy="584.41" r="494.55" xlink:href="#Áåçûìÿííûé_ãðàäèåíò_86"/><radialGradient id="Áåçûìÿííûé_ãðàäèåíò_40-3" cx="542.81" cy="584.41" r="494.55" xlink:href="#Áåçûìÿííûé_ãðàäèåíò_40"/><radialGradient id="Áåçûìÿííûé_ãðàäèåíò_40-2" cx="1005.68" cy="947.54" r="862.84" xlink:href="#Áåçûìÿííûé_ãðàäèåíò_40"/><filter id="luminosity-noclip" x="1220.01" y="-9080.55" width="463.73" height="32766" filterUnits="userSpaceOnUse" color-interpolation-filters="sRGB"><feFlood flood-color="#fff" result="bg"/><feBlend in="SourceGraphic" in2="bg"/></filter><filter id="luminosity-noclip-4" x="1220.01" y="1288.06" width="463.73" height="474.89" filterUnits="userSpaceOnUse" color-interpolation-filters="sRGB"><feFlood flood-color="#fff" result="bg"/><feBlend in="SourceGraphic" in2="bg"/></filter><filter id="luminosity-noclip-5" x="114.48" y="114.03" width="1782.42" height="1667.02" filterUnits="userSpaceOnUse" color-interpolation-filters="sRGB"><feFlood flood-color="#fff" result="bg"/><feBlend in="SourceGraphic" in2="bg"/></filter><filter id="luminosity-noclip-3" x="52.5" y="-9080.55" width="980.61" height="32766" filterUnits="userSpaceOnUse" color-interpolation-filters="sRGB"><feFlood flood-color="#fff" result="bg"/><feBlend in="SourceGraphic" in2="bg"/></filter><filter id="luminosity-noclip-6" x="52.5" y="85.65" width="980.61" height="997.52" filterUnits="userSpaceOnUse" color-interpolation-filters="sRGB"><feFlood flood-color="#fff" result="bg"/><feBlend in="SourceGraphic" in2="bg"/></filter><filter id="luminosity-noclip-2" x="114.48" y="-9080.55" width="1782.42" height="32766" filterUnits="userSpaceOnUse" color-interpolation-filters="sRGB"><feFlood flood-color="#fff" result="bg"/><feBlend in="SourceGraphic" in2="bg"/></filter><mask id="mask-4" x="1220.01" y="1288.06" width="463.73" height="474.89" maskUnits="userSpaceOnUse"><g style="mask:url(#mask);filter:url(#luminosity-noclip-4)"><path d="M1518.57 1301.44c-143 39.62-413 315.76-245.55 445.28s667.55-562.25 245.55-445.28Z" style="fill:url(#Áåçûìÿííûé_ãðàäèåíò_40);mix-blend-mode:multiply"/></g></mask><mask id="mask-3" x="52.5" y="-9080.55" width="980.61" height="32766" maskUnits="userSpaceOnUse"/><mask id="mask" x="1220.01" y="-9080.55" width="463.73" height="32766" maskUnits="userSpaceOnUse"/><mask id="mask-6" x="52.5" y="85.65" width="980.61" height="997.52" maskUnits="userSpaceOnUse"><g style="mask:url(#mask-3);filter:url(#luminosity-noclip-6)"><path style="fill:url(#Áåçûìÿííûé_ãðàäèåíò_40-3);mix-blend-mode:multiply" d="M52.5 85.65h980.61v997.52H52.5z"/></g></mask><mask id="mask-2" x="114.48" y="-9080.55" width="1782.42" height="32766" maskUnits="userSpaceOnUse"/><mask id="mask-5" x="114.48" y="114.03" width="1782.42" height="1667.02" maskUnits="userSpaceOnUse"><g style="mask:url(#mask-2);filter:url(#luminosity-noclip-5)"><path d="M1557.23 1259.55c-606 123.51-424.19 438.82-828.52 513.09-545.53 100.19-801.35-717.88-459.34-1222.76C542.67 146.43 1014.15 19 1431.89 184.65c590.04 234.05 603.66 977.42 125.34 1074.9Z" style="fill:url(#Áåçûìÿííûé_ãðàäèåíò_40-2);mix-blend-mode:multiply"/></g></mask><clipPath id="clip-path-2"><path class="cls-7" d="M144.57 556.77h1791.49V1780.2H144.57z"/></clipPath><clipPath id="clip-path"><path class="cls-7" d="M1557.23 1259.55c-606 123.51-424.19 438.82-828.52 513.09-545.53 100.19-801.35-717.88-459.34-1222.76C542.67 146.43 1014.15 19 1431.89 184.65c590.04 234.05 603.66 977.42 125.34 1074.9Z"/></clipPath><style>.cls-7{fill:none}.cls-8{opacity:.7}.cls-14,.cls-38{fill:#fff}.cls-17{fill:#b1ccdd}.cls-19{fill:#1e1916}.cls-38{opacity:.38}.cls-56{fill:#2c2b2a}.cls-74{fill:#faaf9a}</style></defs><g id="Layer_2" data-name="Layer 2"><g id="Layer_1-2" data-name="Layer 1"><g style="mask:url(#mask-4)" class="cls-8"><path d="M1518.57 1301.44c-143 39.62-413 315.76-245.55 445.28s667.55-562.25 245.55-445.28Z" style="fill:url(#Áåçûìÿííûé_ãðàäèåíò_86)"/></g><g style="mask:url(#mask-5)" class="cls-8"><path d="M1557.23 1259.55c-606 123.51-424.19 438.82-828.52 513.09-545.53 100.19-801.35-717.88-459.34-1222.76C542.67 146.43 1014.15 19 1431.89 184.65c590.04 234.05 603.66 977.42 125.34 1074.9Z" style="fill:url(#Áåçûìÿííûé_ãðàäèåíò_86-2)"/></g><g style="clip-path:url(#clip-path)"><path class="cls-14" d="M1041.26 161.44h960.84v3.46h-960.84zM1041.26 52.8h960.84v3.49h-960.84z"/><path class="cls-14" d="M1801.78 57.05h2.85v106.11h-2.85zM1561.04 57.05h2.85v106.11h-2.85zM1320.3 57.05h2.85v106.11h-2.85zM1079.56 57.05h2.85v106.11h-2.85zM1015.18 269.01h2.87v1.73h-2.87zM1041.26 269.01h960.84v3.46h-960.84z"/><path class="cls-14" d="M1737.4 164.62h2.85v106.11h-2.85zM1496.66 164.62h2.85v106.11h-2.85zM1255.92 164.62h2.85v106.11h-2.85zM1015.18 269.01h2.87v1.73h-2.87zM1041.26 376.54h960.84v3.5h-960.84z"/><path class="cls-14" d="M1801.78 272.19h2.85V378.3h-2.85zM1561.04 272.19h2.85V378.3h-2.85zM1320.3 272.19h2.85V378.3h-2.85zM1079.56 272.19h2.85V378.3h-2.85zM1015.18 484.11h2.87v1.77h-2.87zM1041.26 484.11h960.84v3.49h-960.84z"/><path class="cls-14" d="M1737.4 379.75h2.85v106.11h-2.85zM1496.66 379.75h2.85v106.11h-2.85zM1255.92 379.75h2.85v106.11h-2.85zM1015.18 484.11h2.87v1.77h-2.87zM1041.26 591.68h960.84v3.49h-960.84z"/><path class="cls-14" d="M1801.78 487.32h2.85v106.11h-2.85zM1561.04 487.32h2.85v106.11h-2.85zM1320.3 487.32h2.85v106.11h-2.85zM1079.56 487.32h2.85v106.11h-2.85zM1015.18 699.25h2.87v1.73h-2.87zM1041.26 699.25h960.84v3.5h-960.84z"/><path class="cls-14" d="M1737.4 594.89h2.85V701h-2.85zM1496.66 594.89h2.85V701h-2.85zM1255.92 594.89h2.85V701h-2.85zM1015.18 699.25h2.87v1.73h-2.87zM1015.18 810.02h2.87v.29h-2.87zM1041.26 806.82h960.84v3.49h-960.84z"/><path class="cls-14" d="M1801.78 702.45h2.85v106.11h-2.85zM1561.04 702.45h2.85v106.11h-2.85zM1320.3 702.45h2.85v106.11h-2.85zM1079.56 702.45h2.85v106.11h-2.85zM1015.18 914.39h2.87v1.73h-2.87zM1041.26 914.39h960.84v3.5h-960.84z"/><path class="cls-14" d="M1737.4 810.02h2.85v106.11h-2.85zM1496.66 810.02h2.85v106.11h-2.85zM1255.92 810.02h2.85v106.11h-2.85zM1015.18 810.02h2.87v.29h-2.87zM1015.18 914.39h2.87v1.73h-2.87zM1015.18 1023.25h2.87v.26h-2.87zM1041.26 1020.05h960.84v3.46h-960.84z"/><path class="cls-14" d="M1801.78 915.66h2.85v106.11h-2.85zM1561.04 915.66h2.85v106.11h-2.85zM1320.3 915.66h2.85v106.11h-2.85zM1079.56 915.66h2.85v106.11h-2.85zM31.12 1127.62H2002.1v3.46H31.12z"/><path class="cls-14" d="M1737.4 1023.23h2.85v106.11h-2.85zM1496.66 1023.23h2.85v106.11h-2.85zM1255.92 1023.23h2.85v106.11h-2.85zM1015.18 1023.25h2.87v.26h-2.87zM1015.18 1089.54h2.87v39.8h-2.87zM774.44 1089.54h2.87v39.8h-2.87zM533.69 1127.62h2.87v1.73h-2.87zM292.95 1089.54h2.87v39.8h-2.87zM31.11 1235.17h1971v3.47h-1971z"/><path class="cls-14" d="M1801.78 1130.8h2.85v106.11h-2.85zM1561.04 1130.8h2.85v106.11h-2.85zM1320.3 1130.8h2.85v106.11h-2.85zM1079.56 1130.8h2.85v106.11h-2.85zM838.82 1130.8h2.85v106.11h-2.85zM598.08 1130.8h2.85v106.11h-2.85zM357.34 1130.8h2.85v106.11h-2.85zM116.6 1130.8h2.85v106.11h-2.85zM31.11 1342.74h1971v3.47h-1971z"/><path class="cls-14" d="M1737.4 1238.37h2.85v106.11h-2.85zM1496.66 1238.37h2.85v106.11h-2.85zM1255.92 1238.37h2.85v106.11h-2.85zM1015.18 1238.37h2.85v106.11h-2.85zM774.44 1238.37h2.85v106.11h-2.85zM533.7 1238.37h2.85v106.11h-2.85zM292.96 1238.37h2.85v106.11h-2.85zM31.11 1450.31h1971v3.47h-1971z"/><path class="cls-14" d="M1801.78 1345.93h2.85v106.11h-2.85zM1561.04 1345.93h2.85v106.11h-2.85zM1320.3 1345.93h2.85v106.11h-2.85zM1079.56 1345.93h2.85v106.11h-2.85zM838.82 1345.93h2.85v106.11h-2.85zM598.08 1345.93h2.85v106.11h-2.85zM357.34 1345.93h2.85v106.11h-2.85zM116.6 1345.93h2.85v106.11h-2.85zM31.11 1557.87h1971v3.47h-1971z"/><path class="cls-14" d="M1737.4 1453.5h2.85v106.11h-2.85zM1496.66 1453.5h2.85v106.11h-2.85zM1255.92 1453.5h2.85v106.11h-2.85zM1015.18 1453.5h2.85v106.11h-2.85zM774.44 1453.5h2.85v106.11h-2.85zM533.7 1453.5h2.85v106.11h-2.85zM292.96 1453.5h2.85v106.11h-2.85zM31.11 1665.44h1971v3.47h-1971z"/><path class="cls-14" d="M1801.78 1561.07h2.85v106.1h-2.85zM1561.04 1561.07h2.85v106.1h-2.85zM1320.3 1561.07h2.85v106.1h-2.85zM1079.56 1561.07h2.85v106.1h-2.85zM838.82 1561.07h2.85v106.1h-2.85zM598.08 1561.07h2.85v106.1h-2.85zM357.34 1561.07h2.85v106.1h-2.85zM116.6 1561.07h2.85v106.1h-2.85zM31.11 1773.01h1971v3.47h-1971z"/><path class="cls-14" d="M1737.4 1668.63h2.85v106.11h-2.85zM1496.66 1668.63h2.85v106.11h-2.85zM1255.92 1668.63h2.85v106.11h-2.85zM1015.18 1668.63h2.85v106.11h-2.85zM774.44 1668.63h2.85v106.11h-2.85zM533.7 1668.63h2.85v106.11h-2.85zM292.96 1668.63h2.85v106.11h-2.85z"/><g style="mask:url(#mask-6)" class="cls-8"><path style="fill:url(#Áåçûìÿííûé_ãðàäèåíò_86-3)" d="M52.5 85.65h980.61v997.52H52.5z"/></g><path class="cls-17" d="M0 1064.45a469.15 469.15 0 0 0 25.2 48.15h1032.46V46.93c-13.57-1.73-27.29-3.62-41.05-5.8V402.5H695.77V1.46a238.57 238.57 0 0 0-47.13-.55V402.5h-285V156.2h-46.48v246.3h-217q-7.71 18.38-14.19 38h231.19v300.34H21.32q.48 18.79 2 38h293.84v285.6Zm695.77-285.6h320.84v285.6H695.77Zm0-338.35h320.84v300.34H695.77Zm-47.13 300.34h-285V440.5h285Zm0 323.61h-285v-285.6h285ZM1395.48 512.9c-62.23-46.88-99.13-89.58-114.11-108.6V111.2h-15.7v293.09c-15 19-51.88 61.73-114.1 108.61h90.63a30.63 30.63 0 0 0 61.25 0h92Z"/></g><path style="fill-rule:evenodd;fill:url(#Áåçûìÿííûé_ãðàäèåíò_21)" d="m1634.42 617.88-76.65-72.46 101.08-30.15-24.43 102.61z"/><path class="cls-19" d="m1624.5 600.3-79.33-75 104.62-31.2Zm-75.19-74 74 69.93 23.58-99Z"/><circle cx="393.12" cy="189.76" r="53.38" transform="rotate(-45 393.11 189.758)" style="fill:url(#Áåçûìÿííûé_ãðàäèåíò_30)"/><path class="cls-19" d="M401.81 236.11A54.11 54.11 0 1 1 455.92 182a54.16 54.16 0 0 1-54.11 54.11Zm0-106.76A52.66 52.66 0 1 0 454.47 182a52.72 52.72 0 0 0-52.66-52.65Z"/><path d="m906 284.29.38.19L922 253.05l-34.37 2v1.81A33.32 33.32 0 0 0 906 284.29Z" style="fill:url(#Áåçûìÿííûé_ãðàäèåíò_43)"/><path d="m1882.94 1199.72.38.19 15.7-31.43-34.37 2v1.8a33.32 33.32 0 0 0 18.29 27.44Z" style="fill:url(#Áåçûìÿííûé_ãðàäèåíò_43-2)"/><path d="m55.1 796.09-.38.19 15.69 31.43 19-28.71-1.41-1.09a33.3 33.3 0 0 0-32.9-1.82Z" style="fill:url(#Áåçûìÿííûé_ãðàäèåíò_30-2)"/><path d="M1193.47 1605.5a4.71 4.71 0 1 1-4.71-4.71 4.7 4.7 0 0 1 4.71 4.71Z" style="fill:url(#Áåçûìÿííûé_ãðàäèåíò_2)"/><path d="M144.57 398.67a4.71 4.71 0 1 1 0-9.41Z" style="fill:url(#Áåçûìÿííûé_ãðàäèåíò_2-2)"/><path d="M1107.79 573.79a4.71 4.71 0 0 1 0-9.41Z" style="fill:url(#Áåçûìÿííûé_ãðàäèåíò_2-3)"/><path d="M1409.85 301.2a4.71 4.71 0 1 1 9.41 0Z" style="fill:url(#Áåçûìÿííûé_ãðàäèåíò_2-4)"/><path d="M1193.47 14.34a9.41 9.41 0 1 1-9.41-9.41 9.41 9.41 0 0 1 9.41 9.41Z" style="fill:url(#Áåçûìÿííûé_ãðàäèåíò_75)"/><path d="M522.78 578.49a9.41 9.41 0 1 1-9.41-9.41 9.41 9.41 0 0 1 9.41 9.41Z" style="fill:url(#Áåçûìÿííûé_ãðàäèåíò_75-2)"/><path d="M1693.14 837.51a9.41 9.41 0 1 1-9.41-9.41 9.41 9.41 0 0 1 9.41 9.41Z" style="fill:url(#Áåçûìÿííûé_ãðàäèåíò_21-2)"/><path d="M1739.74 254.15a11.3 11.3 0 1 1-11.3-11.3 11.3 11.3 0 0 1 11.3 11.3Z" style="fill:url(#Áåçûìÿííûé_ãðàäèåíò_75-3)"/><path d="M124.9 1484.62a11.3 11.3 0 1 1-11.3-11.3 11.3 11.3 0 0 1 11.3 11.3Z" style="fill:url(#Áåçûìÿííûé_ãðàäèåíò_21-3)"/><g style="clip-path:url(#clip-path-2)"><path style="fill:url(#Áåçûìÿííûé_ãðàäèåíò_30-3)" d="M339.73 1400.55h185.59l-30.42 53.68H339.73v-53.68z"/><path class="cls-19" d="M473.38 1454.23H287.79l22.51-53.68h163.08v53.68z"/><path class="cls-19" d="m592 2074.24-183.14-650.67 25.46-7.18 185.17 657.85H592zM144.57 2074.24l185.17-657.85 25.45 7.18-183.14 650.67h-27.48z"/><path style="fill:url(#Áåçûìÿííûé_ãðàäèåíò_60)" d="M1390.08 1400.55h185.59l-30.43 53.68h-155.16v-53.68z"/><path class="cls-19" d="M1523.72 1454.23h-185.59l22.52-53.68h163.07v53.68z"/><path class="cls-19" d="m1642.35 2074.24-183.14-650.67 25.46-7.18 185.16 657.85h-27.48zM1194.91 2074.24l185.17-657.85 25.46 7.18-183.14 650.67h-27.49zM281.35 1385.07h1332.59v20.91H281.35zM1310.69 1024.93a9.1 9.1 0 0 1-4.4-1.13 9.23 9.23 0 0 1-3.7-12.53l95.28-175.18L1272 673.27l-86.71 65.07a9.23 9.23 0 1 1-11.08-14.77l94-70.54a9.24 9.24 0 0 1 12.86 1.73l135.12 174.8a9.25 9.25 0 0 1 .81 10.07l-98.16 180.48a9.24 9.24 0 0 1-8.15 4.82Z"/><path class="cls-19" d="m1215.09 770.85-58.88 5.3-2.21-24.45a29.55 29.55 0 0 1 26.79-32.08 29.56 29.56 0 0 1 32.09 26.8Z"/><path d="m1127.17 858.09 131.13-11.84v-.32l-.18-2.18-4.71-51.92a65.9 65.9 0 0 0-59.21-59.66c-1.46-.16-2.93-.21-4.48-.25a63.22 63.22 0 0 0-7.75.21 65.9 65.9 0 0 0-59.68 71.45Z" style="fill:url(#Áåçûìÿííûé_ãðàäèåíò_43-3)"/><path d="M1258.29 846.25c-44.63 31-81.72 29.93-104.89 23.62a95.73 95.73 0 0 1-16.91-6.32 62.61 62.61 0 0 1-9.3-5.46l8.73-.78 16.22-1.45Z" style="fill:url(#Áåçûìÿííûé_ãðàäèåíò_43-4)"/><path class="cls-38" d="M1153.4 869.87a95.73 95.73 0 0 1-16.91-6.32l-.57-6.24-5-55.45a65.73 65.73 0 0 1 49.92-69.81c1.56.06 3 .13 4.48.26a66 66 0 0 0-38.46 65.92l5.25 57.63Z"/><path d="M1290.7 660.41a17 17 0 1 0-17 17 17 17 0 0 0 17-17Z" style="fill:url(#Áåçûìÿííûé_ãðàäèåíò_60-2)"/><path class="cls-19" d="M1275.6 668.87a10.77 10.77 0 1 1 10.76-10.77 10.79 10.79 0 0 1-10.76 10.77Zm0-19.44a8.68 8.68 0 1 0 8.67 8.67 8.68 8.68 0 0 0-8.67-8.67Z"/><path d="M1283.46 660.41a9.72 9.72 0 1 0-9.71 9.73 9.71 9.71 0 0 0 9.71-9.73Z" style="fill:url(#Áåçûìÿííûé_ãðàäèåíò_43-5)"/><path d="M1421.3 838.05a17 17 0 1 0-17 17 17 17 0 0 0 17-17Z" style="fill:url(#Áåçûìÿííûé_ãðàäèåíò_60-3)"/><path class="cls-19" d="M1407.35 847.06a10.76 10.76 0 1 1 10.77-10.77 10.78 10.78 0 0 1-10.77 10.77Zm0-19.44a8.68 8.68 0 1 0 8.68 8.67 8.68 8.68 0 0 0-8.68-8.67Z"/><path d="M1414.06 838.05a9.72 9.72 0 1 0-9.72 9.72 9.71 9.71 0 0 0 9.72-9.72Z" style="fill:url(#Áåçûìÿííûé_ãðàäèåíò_43-6)"/><path class="cls-19" d="m1126.44 834.74-2.69.69c-.7-2.74-16.81-67.44 20.93-89.19l1.39 2.4c-35.91 20.7-19.79 85.45-19.63 86.1ZM1149 781.15l-2.71-.61c8.54-37.88 38.28-49.4 38.59-49.5l1 2.59c-.32.11-28.68 11.17-36.88 47.52ZM870.57 1001a9.25 9.25 0 0 1-8.11-13.66l95.29-175.18L884 619.21l-101.1 39.14a9.24 9.24 0 0 1-6.67-17.23l109.59-42.44a9.25 9.25 0 0 1 11.91 5.16l78.3 201.82a9.23 9.23 0 0 1 .8 10.06l-98.14 180.49a9.21 9.21 0 0 1-8.12 4.79Z"/><path class="cls-19" d="m818.61 687.73-58 11.27-4.67-24.09a29.55 29.55 0 0 1 23.39-34.65 29.55 29.55 0 0 1 34.64 23.39Z"/><path d="m740 783.48 129.24-25.14v-.31l-.4-2.15-10-51.18a65.88 65.88 0 0 0-65-53.31c-1.48 0-2.94.08-4.49.2a60.56 60.56 0 0 0-7.68 1 65.9 65.9 0 0 0-52.11 77.15Z" style="fill:url(#Áåçûìÿííûé_ãðàäèåíò_43-7)"/><path d="M869.27 758.35C828 793.72 791 796.44 767.33 792.52a94.65 94.65 0 0 1-17.46-4.52 62.13 62.13 0 0 1-9.82-4.48l8.6-1.66 16-3.1Z" style="fill:url(#Áåçûìÿííûé_ãðàäèåíò_43-8)"/><path class="cls-38" d="M767.33 792.52a94.65 94.65 0 0 1-17.46-4.52l-1.22-6.14-10.59-54.66a65.75 65.75 0 0 1 42.56-74.53c1.56-.1 3-.18 4.48-.19a65.94 65.94 0 0 0-31.55 69.49l11.1 56.79Z"/><path d="M905.5 611.89a17 17 0 1 0-20.91 11.73 17 17 0 0 0 20.91-11.73Z" style="fill:url(#Áåçûìÿííûé_ãðàäèåíò_60-4)"/><path class="cls-19" d="M888.67 615.94a10.76 10.76 0 1 1 13.27-7.45 10.78 10.78 0 0 1-13.27 7.45Zm5.27-18.72a8.68 8.68 0 1 0 6 10.7 8.69 8.69 0 0 0-6-10.7Z"/><path d="M898.53 609.93a9.72 9.72 0 1 0-12 6.73 9.7 9.7 0 0 0 12-6.73Z" style="fill:url(#Áåçûìÿííûé_ãðàäèåíò_43-9)"/><path d="M981.18 814.15a17 17 0 1 0-17 17 17 17 0 0 0 17-17Z" style="fill:url(#Áåçûìÿííûé_ãðàäèåíò_60-5)"/><path class="cls-19" d="M967.23 823.16A10.76 10.76 0 1 1 978 812.39a10.77 10.77 0 0 1-10.77 10.77Zm0-19.44a8.68 8.68 0 1 0 8.68 8.67 8.68 8.68 0 0 0-8.68-8.67Z"/><path d="M973.94 814.15a9.72 9.72 0 1 0-9.73 9.72 9.71 9.71 0 0 0 9.73-9.72Z" style="fill:url(#Áåçûìÿííûé_ãðàäèåíò_43-10)"/><path class="cls-19" d="m736.93 760.32-2.6 1c-1-2.66-23.59-65.38 11.73-90.86l1.63 2.25c-33.61 24.21-10.99 86.98-10.76 87.61ZM753.92 704.71l-2.76-.33c4.63-38.55 33.05-53 33.34-53.18l1.23 2.49c-.27.14-27.36 14.02-31.81 51.02ZM1348.51 1393.74h-981.8L613.84 947.9h981.81l-247.14 445.84z"/><path class="cls-14" d="m1570.36 947.9-247.14 445.86H341.44L588.58 947.9h981.78z"/><path style="fill:url(#Áåçûìÿííûé_ãðàäèåíò_30-4)" d="M1261.78 998.58H684.29l-75.46 140.61h577.49l75.46-140.61z"/><path style="fill:url(#Áåçûìÿííûé_ãðàäèåíò_75-4)" d="m1194.87 1123.25-105.92-46.61-135.77 38.97-170.02-73.02-143.55 39.25-31.26 58.25h577.48l9.04-16.84z"/><path class="cls-14" d="M1233.12 1011.18H1104.4c-4.93 0-11.07 4-13.71 8.93s-.8 8.92 4.13 8.92h128.72c4.93 0 11.07-4 13.71-8.92s.8-8.93-4.13-8.93Z"/><path d="M1101.89 1022a2.83 2.83 0 0 0-2.19 1.42c-.42.79-.13 1.43.66 1.43a2.83 2.83 0 0 0 2.2-1.43c.44-.74.12-1.42-.67-1.42Z" style="fill:url(#Áåçûìÿííûé_ãðàäèåíò_30-5)"/><path d="M1115.43 1022a2.81 2.81 0 0 0-2.19 1.42c-.42.79-.13 1.43.66 1.43a2.8 2.8 0 0 0 2.19-1.43c.42-.74.13-1.42-.66-1.42Z" style="fill:url(#Áåçûìÿííûé_ãðàäèåíò_30-6)"/><path d="M1129 1022a2.83 2.83 0 0 0-2.2 1.42c-.42.79-.12 1.43.67 1.43a2.81 2.81 0 0 0 2.19-1.43c.39-.74.09-1.42-.66-1.42Z" style="fill:url(#Áåçûìÿííûé_ãðàäèåíò_30-7)"/><path d="M1226.78 1015.45a6.54 6.54 0 0 0-5.09 3.31c-1 1.83-.3 3.32 1.53 3.32a6.55 6.55 0 0 0 5.1-3.32c.98-1.82.29-3.31-1.54-3.31Zm-2.81 5.24c-1.06 0-1.46-.87-.89-1.93a3.79 3.79 0 0 1 3-1.92c1.06 0 1.46.86.89 1.92a3.8 3.8 0 0 1-2.97 1.93Z" style="fill:url(#Áåçûìÿííûé_ãðàäèåíò_30-8)"/><path style="fill:url(#Áåçûìÿííûé_ãðàäèåíò_30-9)" d="m1225.26 1020.93 1.36 2.95 1.51-.99-1.36-2.94-1.51.98z"/><path class="cls-56" d="m700.15 1311.69-2.01 3.75h56.59l2.08-3.75h-56.66zM694.1 1322.97l-2.01 3.75h120.08l2.08-3.75H694.1zM688.05 1334.25l-2.02 3.75h94.94l2.08-3.75h-95zM760.66 1315.44h17.47l2.08-3.75h-17.48l-2.07 3.75z"/><path class="cls-14" d="M1036.19 1053c-6.39 11.91-21.23 21.56-33.14 21.56s-16.38-9.65-10-21.56 21.23-21.57 33.14-21.57 16.39 9.69 10 21.57Z"/><path class="cls-56" d="m853.06 1311.69-2.01 3.75h56.59l2.08-3.75h-56.66zM847.01 1322.97l-2.01 3.75h120.08l2.07-3.75H847.01zM840.95 1334.25l-2.01 3.75h94.94l2.08-3.75h-95.01zM913.57 1315.44h17.47l2.07-3.75h-17.47l-2.07 3.75zM1001.89 1310.31l-2.01 3.75h56.59l2.08-3.75h-56.66zM995.84 1321.59l-2.02 3.74h120.09l2.07-3.74H995.84zM989.78 1332.87l-2.01 3.75h94.94l2.07-3.75h-95zM1062.39 1314.06h17.48l2.07-3.75h-17.47l-2.08 3.75z"/><path class="cls-14" d="m901.95 1100.21-5.3.01 2.83-5.28 5.29-.02-2.82 5.29zM697.66 1100.21l-5.29.01 2.83-5.28 5.29-.02-2.83 5.29zM939.44 1030.03l-5.29.01 2.82-5.29 5.29-.01-2.82 5.29zM837.39 1030.03l-5.3.01 2.83-5.29 5.29-.01-2.82 5.29zM799.72 1100.21l-5.3.01 2.83-5.28 5.29-.02-2.82 5.29zM716.73 1064.53l-5.3.01 2.83-5.29 5.29-.01-2.82 5.29zM921.28 1064.03l-5.3.01 2.83-5.28 5.29-.02-2.82 5.29zM735.16 1030.03l-5.3.01 2.83-5.29 5.29-.01-2.82 5.29zM779.4 1048.29h-11.64l2.94-5.51 29.83-.07-2.95 5.51h-11.65l-15.81 29.59h-6.52ZM814.52 1066.39h-21c-1.34 3.91.58 6.41 5.26 6.4a15.78 15.78 0 0 0 8.83-2.93l1.3 3.85a22.3 22.3 0 0 1-13.13 4.39c-9 0-11.73-5.73-7.47-13.7s13.19-13.71 21.17-13.72 10.64 5.43 6.16 13.8c-.29.52-.74 1.31-1.12 1.91Zm-18.86-4.11h15.21c1.56-3.86 0-6.51-4.1-6.5s-8.42 2.58-11.11 6.5ZM830.89 1077.72l-1.92-9.27-11.88 9.3h-6.93l17.7-13.62-2.94-13.13h7l1.88 8.76 11.27-8.79h6.78l-17 13.11 3.15 13.62ZM859.5 1076.19a14.77 14.77 0 0 1-7 1.82c-5.87 0-7.57-3.08-4.41-9l6.88-12.89h-4.41l2.67-5h4.42l3.27-6.12h6.28l-3.27 6.11h7.18l-2.68 5h-7.18l-6.8 12.74c-1.4 2.6-.84 4 1.57 4a8.58 8.58 0 0 0 4.1-1.11Z"/><path class="cls-14" d="M901.18 1098.58h-3c-.55 0-.76-.45-.46-1a2 2 0 0 1 1.55-1h1l.55-1a2 2 0 0 1 1.55-1c.55 0 .76.45.46 1ZM890.14 1098.58h-4c-.56 0-.77-.45-.47-1a2 2 0 0 1 1.55-1h4c.56 0 .76.45.47 1a2 2 0 0 1-1.55 1Zm-12 0h-4c-.55 0-.76-.45-.46-1a2 2 0 0 1 1.55-1h4c.56 0 .77.45.47 1a2 2 0 0 1-1.59 1Zm-12 0h-4c-.56 0-.77-.45-.47-1a2 2 0 0 1 1.55-1h4c.55 0 .76.45.46 1a2 2 0 0 1-1.59 1Zm-12 0h-4c-.55 0-.76-.45-.46-1a2 2 0 0 1 1.54-1h4c.56 0 .77.45.47 1a2 2 0 0 1-1.63 1Zm-12 0h-4c-.56 0-.77-.45-.47-1a2 2 0 0 1 1.55-1h4c.55 0 .76.45.46 1a2 2 0 0 1-1.68 1Zm-12 0h-4c-.56 0-.77-.45-.47-1a2 2 0 0 1 1.55-1h4c.56 0 .77.45.47 1a2 2 0 0 1-1.69 1Zm-12 0h-4c-.56 0-.77-.45-.47-1a2 2 0 0 1 1.55-1h4c.56 0 .76.45.46 1a2 2 0 0 1-1.68 1Zm-12 0h-4c-.56 0-.76-.45-.47-1a2 2 0 0 1 1.55-1h4c.56 0 .77.45.47 1a2 2 0 0 1-1.69 1Zm-12 0h-4c-.55 0-.76-.45-.46-1a2 2 0 0 1 1.55-1h4c.55 0 .76.45.46 1a2 2 0 0 1-1.76 1Zm-12 0h-4c-.56 0-.77-.45-.47-1a2 2 0 0 1 1.55-1h4c.56 0 .77.45.47 1a2 2 0 0 1-1.78 1Zm-12 0h-4c-.55 0-.76-.45-.46-1a2 2 0 0 1 1.55-1h4c.56 0 .77.45.47 1a2 2 0 0 1-1.82 1Zm-12 0h-4c-.56 0-.77-.45-.47-1a2 2 0 0 1 1.55-1h4c.56 0 .77.45.47 1a2 2 0 0 1-1.83 1Zm-12 0h-4c-.55 0-.76-.45-.46-1a2 2 0 0 1 1.55-1h4c.56 0 .77.45.47 1a2 2 0 0 1-1.87 1Zm-12 0h-4c-.56 0-.77-.45-.47-1a2 2 0 0 1 1.55-1h4c.56 0 .76.45.47 1a2 2 0 0 1-1.88 1Zm-12 0h-4c-.55 0-.76-.45-.46-1a2 2 0 0 1 1.54-1h4c.56 0 .77.45.47 1a2 2 0 0 1-1.91 1Zm-12 0h-4c-.56 0-.77-.45-.47-1a2 2 0 0 1 1.55-1h4c.55 0 .76.45.47 1a2 2 0 0 1-1.94 1ZM697.73 1098.58h-3l1.62-3a2 2 0 0 1 1.55-1c.56 0 .76.45.47 1l-.54 1h1c.56 0 .77.45.47 1a2 2 0 0 1-1.57 1ZM701 1088.78c-.55 0-.76-.45-.46-1l2.09-3.89a2 2 0 0 1 1.54-1c.56 0 .77.45.47 1l-2.09 3.89a2 2 0 0 1-1.55 1Zm6.27-11.67c-.56 0-.77-.45-.47-1l2.09-3.89a2 2 0 0 1 1.55-1c.56 0 .76.45.47 1l-2.09 3.89a2 2 0 0 1-1.58 1Zm6.26-11.68c-.55 0-.76-.45-.46-1l2.09-3.89a2 2 0 0 1 1.55-1c.55 0 .76.45.46 1l-2.09 3.89a2 2 0 0 1-1.58 1Zm6.27-11.67c-.56 0-.77-.45-.47-1l2.09-3.89a2 2 0 0 1 1.55-1c.56 0 .77.45.47 1l-2.09 3.89a2 2 0 0 1-1.58 1Zm6.27-11.67c-.56 0-.77-.45-.47-1l2.09-3.89a2 2 0 0 1 1.55-1c.55 0 .76.45.46 1l-2.08 3.89a2 2 0 0 1-1.62 1ZM732.3 1030.41c-.56 0-.77-.45-.47-1l1.63-3h3c.56 0 .77.45.47 1a2 2 0 0 1-1.55 1h-1l-.54 1a2 2 0 0 1-1.54 1ZM927.8 1028.4h-4c-.56 0-.77-.45-.47-1a2 2 0 0 1 1.55-1h4c.55 0 .76.45.46 1a2 2 0 0 1-1.54 1Zm-12 0h-4c-.56 0-.77-.45-.47-1a2 2 0 0 1 1.55-1h4c.56 0 .77.45.47 1a2 2 0 0 1-1.57 1Zm-12 0h-4c-.56 0-.77-.45-.47-1a2 2 0 0 1 1.55-1h4c.56 0 .76.45.46 1a2 2 0 0 1-1.59 1Zm-12 0h-4c-.55 0-.76-.45-.46-1a2 2 0 0 1 1.54-1h4c.56 0 .77.45.47 1a2 2 0 0 1-1.62 1Zm-12 0h-4c-.55 0-.76-.45-.46-1a2 2 0 0 1 1.55-1h4c.55 0 .76.45.46 1a2 2 0 0 1-1.65 1Zm-12 0h-4c-.56 0-.77-.45-.47-1a2 2 0 0 1 1.55-1h4c.56 0 .77.45.47 1a2 2 0 0 1-1.67 1Zm-12 0h-4c-.55 0-.76-.45-.46-1a2 2 0 0 1 1.55-1h4c.56 0 .77.45.47 1a2 2 0 0 1-1.71 1Zm-12 0h-4c-.56 0-.77-.45-.47-1a2 2 0 0 1 1.55-1h4c.56 0 .77.45.47 1a2 2 0 0 1-1.72 1Zm-12 0h-4c-.55 0-.76-.45-.46-1a2 2 0 0 1 1.55-1h4c.56 0 .77.45.47 1a2 2 0 0 1-1.76 1Zm-12 0h-4c-.56 0-.77-.45-.47-1a2 2 0 0 1 1.55-1h4c.56 0 .77.45.47 1a2 2 0 0 1-1.77 1Zm-12 0h-4c-.55 0-.76-.45-.46-1a2 2 0 0 1 1.55-1h4c.56 0 .77.45.47 1a2 2 0 0 1-1.81 1Zm-12 0h-4c-.56 0-.77-.45-.47-1a2 2 0 0 1 1.55-1h4c.56 0 .76.45.46 1a2 2 0 0 1-1.81 1Zm-12 0h-4c-.56 0-.76-.45-.47-1a2 2 0 0 1 1.55-1h4c.56 0 .77.45.47 1a2 2 0 0 1-1.85 1Zm-12 0h-4c-.56 0-.77-.45-.47-1a2 2 0 0 1 1.55-1h4c.56 0 .76.45.47 1a2 2 0 0 1-1.87 1Zm-12 0h-4c-.56 0-.76-.45-.47-1a2 2 0 0 1 1.55-1h4c.56 0 .77.45.47 1a2 2 0 0 1-1.9 1Zm-12 0h-4c-.56 0-.77-.45-.47-1a2 2 0 0 1 1.55-1h4c.55 0 .76.45.46 1a2 2 0 0 1-1.92 1ZM936.76 1030.41c-.56 0-.77-.45-.47-1l.54-1h-1c-.55 0-.76-.45-.46-1a2 2 0 0 1 1.54-1h3l-1.62 3a2 2 0 0 1-1.53 1ZM905.43 1088.78c-.56 0-.77-.45-.47-1l2.09-3.89a2 2 0 0 1 1.55-1c.56 0 .77.45.47 1l-2.09 3.89a2 2 0 0 1-1.55 1Zm6.27-11.67c-.56 0-.77-.45-.47-1l2.09-3.89a2 2 0 0 1 1.55-1c.55 0 .76.45.46 1l-2.09 3.89a2 2 0 0 1-1.54 1Zm6.26-11.68c-.56 0-.76-.45-.47-1l2.09-3.89a2 2 0 0 1 1.55-1c.56 0 .77.45.47 1l-2.09 3.89a2 2 0 0 1-1.51 1Zm6.27-11.67c-.56 0-.77-.45-.47-1l2.09-3.89a2 2 0 0 1 1.55-1c.55 0 .76.45.46 1l-2.08 3.89a2 2 0 0 1-1.55 1Zm6.26-11.67c-.56 0-.76-.45-.46-1l2.08-3.89a2 2 0 0 1 1.55-1c.56 0 .77.45.47 1l-2.09 3.89a2 2 0 0 1-1.55 1ZM766.36 1104.06l-5.34 15.74 4.92-4.39.35 2.89 3.69-1.77-.35-2.89 5.44-.74-8.71-8.84z"/><path style="fill:url(#Áåçûìÿííûé_ãðàäèåíò_30-10)" d="M639.15 1334.52h-158.2l84.9-158.2h158.2l-84.9 158.2z"/><path class="cls-14" d="m480.04 1336.22-.79-1.7 245.71-159.89.79 1.69-245.71 159.9z"/><path class="cls-14" d="m638.24 1336.22-74.08-159.9 2.6-1.69 74.08 159.89-2.6 1.7z"/><path class="cls-14" d="M635 1337.71c-3.93 0-4-.84-3.52-1.76s1.47-1.77 5.41-1.77 4 .89 3.53 1.77-1.48 1.76-5.42 1.76ZM621.92 1337.71c-3.93 0-4-.84-3.53-1.76s1.48-1.77 5.42-1.77 4 .89 3.52 1.77-1.49 1.76-5.41 1.76ZM608.82 1337.71c-3.92 0-4-.84-3.52-1.76s1.48-1.77 5.42-1.77 4 .89 3.52 1.77-1.49 1.76-5.42 1.76ZM595.73 1337.71c-3.92 0-4-.84-3.52-1.76s1.48-1.77 5.42-1.77 4 .89 3.52 1.77-1.49 1.76-5.42 1.76ZM582.64 1337.71c-3.93 0-4-.84-3.52-1.76s1.48-1.77 5.42-1.77 4 .89 3.51 1.77-1.48 1.76-5.41 1.76ZM569.55 1337.71c-3.93 0-4-.84-3.53-1.76s1.49-1.77 5.42-1.77 4 .89 3.52 1.77-1.49 1.76-5.41 1.76ZM556.46 1337.71c-3.93 0-4-.84-3.53-1.76s1.48-1.77 5.42-1.77 4 .89 3.52 1.77-1.49 1.76-5.41 1.76ZM543.36 1337.71c-3.93 0-4-.84-3.52-1.76s1.48-1.77 5.42-1.77 4 .89 3.52 1.77-1.49 1.76-5.42 1.76ZM530.27 1337.71c-3.93 0-4-.84-3.52-1.76s1.48-1.77 5.42-1.77 4 .89 3.52 1.77-1.49 1.76-5.42 1.76ZM517.18 1337.71c-3.93 0-4-.84-3.53-1.76s1.49-1.77 5.42-1.77 4 .89 3.53 1.77-1.49 1.76-5.42 1.76ZM504.08 1337.71c-3.92 0-4-.84-3.52-1.76s1.48-1.77 5.42-1.77 4 .89 3.52 1.77-1.5 1.76-5.42 1.76ZM491 1337.71c-3.93 0-4-.84-3.52-1.76s1.48-1.77 5.42-1.77 4 .89 3.52 1.77-1.5 1.76-5.42 1.76ZM479.81 1338.35l-.53-.68h-2.65l1.2-2.3s.05-.09.08-.14l-.56-1.2h1.23c1.65-2.75 2.65-3.15 3.42-3.15s1.35.42-.05 3.32c1.19.18 1.92.61 1.37 1.64a3.83 3.83 0 0 1-3.1 1.63ZM484.23 1326.83c-.88 0-1.48-.53.63-4.47s3.29-4.47 4.17-4.47 1.47.54-.64 4.47-3.25 4.47-4.16 4.47ZM491.25 1313.74c-.87 0-1.48-.53.64-4.47s3.29-4.47 4.16-4.47 1.48.54-.63 4.47-3.25 4.47-4.17 4.47ZM498.28 1300.65c-.87 0-1.48-.53.63-4.47s3.3-4.47 4.17-4.47 1.47.54-.64 4.47-3.24 4.47-4.16 4.47ZM505.31 1287.56c-.88 0-1.48-.54.63-4.48s3.29-4.47 4.17-4.47 1.47.54-.64 4.47-3.25 4.48-4.16 4.48ZM512.33 1274.46c-.87 0-1.48-.53.64-4.47s3.29-4.47 4.16-4.47 1.48.54-.63 4.47-3.25 4.47-4.17 4.47ZM519.36 1261.37c-.87 0-1.48-.53.63-4.47s3.3-4.47 4.17-4.47 1.47.54-.63 4.47-3.25 4.47-4.17 4.47ZM526.39 1248.28c-.88 0-1.48-.54.63-4.47s3.29-4.47 4.17-4.47 1.47.54-.64 4.47-3.25 4.47-4.16 4.47ZM533.42 1235.19c-.88 0-1.49-.54.63-4.48s3.29-4.47 4.16-4.47 1.47.55-.63 4.47-3.25 4.48-4.16 4.48ZM540.44 1222.09c-.87 0-1.48-.53.63-4.47s3.29-4.47 4.17-4.47 1.47.55-.63 4.47-3.25 4.47-4.17 4.47ZM547.47 1209c-.88 0-1.48-.53.63-4.47s3.29-4.47 4.17-4.47 1.47.54-.64 4.47-3.24 4.47-4.16 4.47ZM554.5 1195.91c-.88 0-1.49-.54.63-4.48s3.29-4.46 4.16-4.46 1.47.54-.63 4.46-3.25 4.48-4.16 4.48ZM561.52 1182.81c-.87 0-1.48-.53.63-4.47l.21-.37-1.87.29 2.78-1.82.4-.58 1.16-1.65 1.37.26h.07l1.4-.92-.46 1.27c.3.23.45.6.12 1.22a2.64 2.64 0 0 1-1 1c-.19.4-.41.84-.65 1.29-2.1 3.94-3.24 4.48-4.16 4.48ZM575 1177.82c-3.93 0-4-.89-3.52-1.77s1.49-1.76 5.42-1.76 4 .84 3.52 1.76-1.48 1.77-5.42 1.77ZM588.09 1177.82c-3.94 0-4-.89-3.51-1.77s1.48-1.76 5.41-1.76 4 .84 3.52 1.76-1.51 1.77-5.42 1.77ZM601.19 1177.82c-3.94 0-4-.89-3.52-1.77s1.49-1.76 5.41-1.76 4 .84 3.53 1.76-1.49 1.77-5.42 1.77ZM614.28 1177.82c-3.94 0-4-.89-3.52-1.77s1.49-1.76 5.41-1.76 4 .84 3.53 1.76-1.48 1.77-5.42 1.77ZM627.37 1177.82c-3.94 0-4-.89-3.52-1.77s1.49-1.76 5.42-1.76 4 .84 3.52 1.76-1.48 1.77-5.42 1.77ZM640.46 1177.82c-3.94 0-4-.89-3.52-1.77s1.49-1.76 5.42-1.76 4 .84 3.52 1.76-1.48 1.77-5.42 1.77ZM653.56 1177.82c-3.94 0-4-.89-3.53-1.77s1.49-1.76 5.42-1.76 4 .84 3.53 1.76-1.49 1.77-5.42 1.77ZM666.65 1177.82c-3.94 0-4-.89-3.52-1.77s1.49-1.76 5.41-1.76 4 .84 3.53 1.76-1.48 1.77-5.42 1.77ZM679.74 1177.82c-3.94 0-4-.89-3.52-1.77s1.49-1.76 5.42-1.76 4 .84 3.52 1.76-1.48 1.77-5.42 1.77ZM692.83 1177.82c-3.94 0-4-.89-3.52-1.77s1.49-1.76 5.42-1.76 4 .84 3.53 1.76-1.49 1.77-5.43 1.77ZM705.93 1177.82c-3.94 0-4-.89-3.53-1.77s1.49-1.76 5.42-1.76 4 .84 3.53 1.76-1.48 1.77-5.42 1.77ZM719 1177.82c-3.94 0-4-.89-3.52-1.77s1.49-1.76 5.42-1.76 4 .84 3.52 1.76-1.42 1.77-5.42 1.77ZM718.34 1188.54c-.92 0-1.47-.54.64-4.47s3.24-4.47 4.16-4.47 1.48.53-.63 4.47-3.29 4.47-4.17 4.47ZM711.31 1201.63c-.91 0-1.47-.54.64-4.47s3.25-4.47 4.17-4.47 1.48.53-.64 4.47-3.29 4.47-4.17 4.47ZM704.29 1214.73c-.92 0-1.47-.55.63-4.48s3.25-4.47 4.17-4.47 1.48.53-.63 4.47-3.3 4.48-4.17 4.48ZM697.26 1227.82c-.92 0-1.47-.54.64-4.47s3.24-4.47 4.16-4.47 1.48.53-.63 4.47-3.29 4.47-4.17 4.47ZM690.23 1240.91c-.91 0-1.47-.54.64-4.47s3.25-4.47 4.16-4.47 1.49.53-.63 4.47-3.29 4.47-4.17 4.47ZM683.21 1254c-.92 0-1.48-.54.63-4.47s3.25-4.47 4.17-4.47 1.48.53-.63 4.47-3.3 4.47-4.17 4.47ZM676.18 1267.1c-.92 0-1.47-.55.64-4.48s3.24-4.47 4.16-4.47 1.48.54-.63 4.47-3.29 4.48-4.17 4.48ZM669.15 1280.19c-.91 0-1.47-.54.64-4.47s3.25-4.48 4.16-4.48 1.49.54-.63 4.48-3.32 4.47-4.17 4.47ZM662.13 1293.28c-.92 0-1.47-.54.63-4.47s3.25-4.47 4.17-4.47 1.48.53-.64 4.47-3.29 4.47-4.16 4.47ZM655.1 1306.37c-.92 0-1.47-.54.64-4.47s3.24-4.47 4.16-4.47 1.48.53-.63 4.47-3.27 4.47-4.17 4.47ZM648.07 1319.47c-.91 0-1.47-.55.64-4.48s3.25-4.46 4.16-4.46 1.48.53-.63 4.46-3.24 4.48-4.17 4.48ZM641.05 1332.56c-.92 0-1.47-.55.63-4.47s3.25-4.47 4.17-4.47 1.48.53-.64 4.47-3.29 4.47-4.16 4.47Z"/><path class="cls-14" d="M642.84 1340.24H631l6.36-11.84h11.84l-6.36 11.84z"/><path class="cls-14" d="M643.4 1341.44h-14.24l7.64-14.23H651Zm-10.56-2.39h9.45l5.07-9.45h-9.45ZM482.08 1341.87h-11.84l6.35-11.84h11.85l-6.36 11.84z"/><path class="cls-14" d="M482.64 1343.06H468.4l7.64-14.23h14.24Zm-10.56-2.39h9.45l5.07-9.45h-9.45ZM728.41 1180.82h-11.85l6.36-11.84h11.84l-6.35 11.84z"/><path class="cls-14" d="M729 1182h-14.28l7.64-14.24h14.24Zm-10.56-2.4h9.45l5.07-9.44h-9.45ZM567.89 1181.97h-11.84l6.36-11.84h11.84l-6.36 11.84z"/><path class="cls-14" d="M568.45 1183.17h-14.24l7.64-14.23h14.24Zm-10.56-2.39h9.45l5.07-9.45H563Z"/><path style="fill:url(#Áåçûìÿííûé_ãðàäèåíò_30-11)" d="M829.21 1296.54H708.29l64.89-120.92h120.93l-64.9 120.92z"/><path style="fill:url(#Áåçûìÿííûé_ãðàäèåíò_75-5)" d="m723.01 1288.25 73.07-70.2-2.7 44.33 27.4-23.45 2.61 49.03-100.38.29z"/><path class="cls-14" d="M830.93 1209.86c-2.35 4.32-7.76 7.8-12.06 7.76s-5.87-3.58-3.51-7.91 7.76-7.79 12.06-7.75 5.88 3.58 3.51 7.9ZM721.21 1288.85l-.52-1.1 160.5-104.44.51 1.1-160.49 104.44z"/><path class="cls-14" d="m824.54 1288.85-48.39-104.44 1.7-1.1 48.39 104.44-1.7 1.1z"/><path class="cls-14" d="M822.43 1289.83c-2.56 0-2.62-.55-2.3-1.15s1-1.16 3.54-1.16 2.61.59 2.3 1.16-.97 1.15-3.54 1.15ZM813.88 1289.83c-2.57 0-2.62-.55-2.3-1.15s1-1.16 3.54-1.16 2.6.59 2.3 1.16-.98 1.15-3.54 1.15ZM805.33 1289.83c-2.57 0-2.63-.55-2.3-1.15s1-1.16 3.53-1.16 2.61.59 2.31 1.16-.98 1.15-3.54 1.15ZM796.77 1289.83c-2.56 0-2.62-.55-2.3-1.15s1-1.16 3.54-1.16 2.61.59 2.3 1.16-.97 1.15-3.54 1.15ZM788.23 1289.83c-2.57 0-2.63-.55-2.31-1.15s1-1.16 3.54-1.16 2.61.59 2.3 1.16-.97 1.15-3.53 1.15ZM779.67 1289.83c-2.56 0-2.62-.55-2.3-1.15s1-1.16 3.54-1.16 2.61.59 2.3 1.16-.97 1.15-3.54 1.15ZM771.12 1289.83c-2.57 0-2.62-.55-2.3-1.15s1-1.16 3.54-1.16 2.6.59 2.3 1.16-.98 1.15-3.54 1.15ZM762.57 1289.83c-2.57 0-2.63-.55-2.3-1.15s1-1.16 3.54-1.16 2.6.59 2.29 1.16-.97 1.15-3.53 1.15ZM754 1289.83c-2.57 0-2.63-.55-2.31-1.15s1-1.16 3.54-1.16 2.61.59 2.31 1.16-.96 1.15-3.54 1.15ZM745.46 1289.83c-2.56 0-2.62-.55-2.3-1.15s1-1.16 3.54-1.16 2.61.59 2.3 1.16-1 1.15-3.54 1.15ZM736.91 1289.83c-2.56 0-2.62-.55-2.3-1.15s1-1.16 3.54-1.16 2.61.59 2.3 1.16-.97 1.15-3.54 1.15ZM728.36 1289.83c-2.57 0-2.62-.55-2.3-1.15s1-1.16 3.54-1.16 2.61.59 2.3 1.16-.97 1.15-3.54 1.15ZM721.06 1290.24l-.35-.44h-1.73l.78-1.49.06-.1-.37-.79h.8c1.08-1.8 1.74-2.06 2.24-2.06s.88.28 0 2.17c.77.12 1.25.39.89 1.07a2.49 2.49 0 0 1-2 1.06ZM723.94 1282.72c-.57 0-1-.34.42-2.92s2.15-2.92 2.72-2.92 1 .36-.42 2.92-2.12 2.92-2.72 2.92ZM728.53 1274.17c-.57 0-1-.35.41-2.92s2.16-2.92 2.73-2.92 1 .36-.42 2.92-2.12 2.92-2.72 2.92ZM733.12 1265.62c-.57 0-1-.35.41-2.92s2.16-2.92 2.73-2.92 1 .35-.42 2.92-2.12 2.92-2.72 2.92ZM737.71 1257.07c-.57 0-1-.35.41-2.92s2.15-2.92 2.73-2.92 1 .35-.42 2.92-2.12 2.92-2.72 2.92ZM742.3 1248.52c-.57 0-1-.35.41-2.92s2.15-2.93 2.73-2.93 1 .36-.42 2.93-2.12 2.92-2.72 2.92ZM746.89 1240c-.57 0-1-.34.41-2.92s2.15-2.92 2.73-2.92 1 .36-.42 2.92-2.12 2.92-2.72 2.92ZM751.48 1231.41c-.57 0-1-.35.41-2.92s2.15-2.92 2.72-2.92 1 .36-.41 2.92-2.12 2.92-2.72 2.92ZM756.07 1222.86c-.57 0-1-.35.41-2.92s2.15-2.92 2.73-2.92 1 .36-.42 2.92-2.12 2.92-2.72 2.92ZM760.66 1214.31c-.57 0-1-.35.41-2.92s2.15-2.92 2.72-2.92 1 .35-.41 2.92-2.12 2.92-2.72 2.92ZM765.25 1205.76c-.57 0-1-.35.41-2.93s2.15-2.91 2.72-2.91 1 .35-.41 2.91-2.12 2.93-2.72 2.93ZM769.84 1197.2c-.57 0-1-.34.41-2.92s2.15-2.91 2.72-2.91 1 .35-.41 2.91-2.12 2.92-2.72 2.92ZM783.24 1185.39c-2.58 0-2.61-.59-2.3-1.15s1-1.16 3.53-1.16 2.62.56 2.3 1.16-.96 1.15-3.53 1.15ZM791.78 1185.39c-2.57 0-2.6-.59-2.29-1.15s1-1.16 3.53-1.16 2.63.56 2.31 1.16-.97 1.15-3.55 1.15ZM800.34 1185.39c-2.58 0-2.61-.59-2.3-1.15s1-1.16 3.54-1.16 2.62.56 2.3 1.16-.97 1.15-3.54 1.15ZM808.89 1185.39c-2.57 0-2.6-.59-2.3-1.15s1-1.16 3.54-1.16 2.62.56 2.3 1.16-.97 1.15-3.54 1.15ZM817.44 1185.39c-2.57 0-2.6-.59-2.3-1.15s1-1.16 3.54-1.16 2.62.56 2.3 1.16-.98 1.15-3.54 1.15ZM826 1185.39c-2.57 0-2.6-.59-2.3-1.15s1-1.16 3.54-1.16 2.63.56 2.3 1.16-.97 1.15-3.54 1.15ZM834.55 1185.39c-2.58 0-2.61-.59-2.31-1.15s1-1.16 3.54-1.16 2.63.56 2.31 1.16-.97 1.15-3.54 1.15ZM843.1 1185.39c-2.58 0-2.61-.59-2.3-1.15s1-1.16 3.54-1.16 2.62.56 2.3 1.16-.97 1.15-3.54 1.15ZM851.65 1185.39c-2.57 0-2.61-.59-2.3-1.15s1-1.16 3.54-1.16 2.62.56 2.3 1.16-.97 1.15-3.54 1.15ZM860.2 1185.39c-2.57 0-2.61-.59-2.3-1.15s1-1.16 3.54-1.16 2.62.56 2.3 1.16-.97 1.15-3.54 1.15ZM868.75 1185.39c-2.57 0-2.6-.59-2.3-1.15s1-1.16 3.54-1.16 2.63.56 2.31 1.16-.97 1.15-3.55 1.15ZM877.31 1185.39c-2.58 0-2.61-.59-2.3-1.15s1-1.16 3.53-1.16 2.63.56 2.31 1.16-.97 1.15-3.54 1.15ZM876.86 1192.39c-.6 0-1-.35.42-2.92s2.12-2.92 2.72-2.92 1 .35-.41 2.92-2.16 2.92-2.73 2.92ZM872.27 1200.94c-.6 0-1-.35.42-2.92s2.12-2.92 2.72-2.92 1 .35-.41 2.92-2.16 2.92-2.73 2.92ZM867.68 1209.5c-.6 0-1-.36.42-2.93s2.12-2.92 2.72-2.92 1 .35-.41 2.92-2.16 2.93-2.73 2.93ZM863.09 1218.05c-.6 0-1-.36.42-2.92s2.12-2.92 2.72-2.92 1 .34-.41 2.92-2.16 2.92-2.73 2.92ZM858.5 1226.6c-.6 0-1-.36.42-2.92s2.12-2.92 2.72-2.92 1 .35-.41 2.92-2.16 2.92-2.73 2.92ZM853.91 1235.15c-.6 0-1-.35.42-2.92s2.12-2.92 2.72-2.92 1 .35-.41 2.92-2.16 2.92-2.73 2.92ZM849.32 1243.7c-.59 0-1-.35.42-2.92s2.12-2.92 2.72-2.92 1 .35-.41 2.92-2.16 2.92-2.73 2.92ZM844.73 1252.26c-.6 0-1-.36.42-2.93s2.12-2.92 2.72-2.92 1 .35-.41 2.92-2.15 2.93-2.73 2.93ZM840.14 1260.81c-.59 0-1-.36.42-2.92s2.12-2.92 2.72-2.92 1 .34-.41 2.92-2.15 2.92-2.73 2.92ZM835.56 1269.36c-.6 0-1-.36.41-2.92s2.12-2.92 2.72-2.92 1 .35-.41 2.92-2.15 2.92-2.72 2.92ZM831 1277.91c-.59 0-1-.35.42-2.92s2.12-2.92 2.72-2.92 1 .35-.41 2.92-2.19 2.92-2.73 2.92ZM826.38 1286.46c-.6 0-1-.35.41-2.91s2.12-2.93 2.72-2.93 1 .35-.41 2.93-2.1 2.91-2.72 2.91Z"/><path class="cls-14" d="M827.55 1291.49h-7.74l4.15-7.74h7.74l-4.15 7.74z"/><path class="cls-14" d="M827.91 1292.27h-9.3l5-9.3h9.3Zm-6.9-1.57h6.18l3.31-6.17h-6.18ZM722.54 1292.54h-7.74l4.16-7.73h7.73l-4.15 7.73z"/><path class="cls-14" d="M722.9 1293.32h-9.3l5-9.29h9.3Zm-6.89-1.56h6.17l3.31-6.17h-6.17ZM883.44 1187.35h-7.74l4.15-7.73h7.74l-4.15 7.73z"/><path class="cls-14" d="M883.8 1188.13h-9.3l5-9.3h9.3Zm-6.9-1.56h6.17l3.32-6.17h-6.18ZM778.59 1188.1h-7.73l4.15-7.73h7.73l-4.15 7.73z"/><path class="cls-14" d="M779 1188.88h-9.31l5-9.29H784Zm-6.9-1.56h6.17l3.31-6.17h-6.17Z"/><path style="fill:url(#Áåçûìÿííûé_ãðàäèåíò_30-12)" d="M984.75 1296.54H863.83l64.9-120.92h120.92l-64.9 120.92z"/><path style="fill:url(#Áåçûìÿííûé_ãðàäèåíò_75-6)" d="m878.55 1288.25 73.07-70.2-2.7 44.33 27.4-23.45 2.62 49.03-100.39.29z"/><path class="cls-14" d="M986.48 1209.86c-2.36 4.32-7.76 7.8-12.06 7.76s-5.88-3.58-3.52-7.91 7.76-7.79 12.07-7.75 5.87 3.58 3.51 7.9ZM876.75 1288.85l-.51-1.1 160.49-104.44.51 1.1-160.49 104.44z"/><path class="cls-14" d="m980.08 1288.85-48.38-104.44 1.7-1.1 48.38 104.44-1.7 1.1z"/><path class="cls-14" d="M978 1289.83c-2.56 0-2.62-.55-2.3-1.15s1-1.16 3.54-1.16 2.61.59 2.3 1.16-1 1.15-3.54 1.15ZM969.42 1289.83c-2.56 0-2.62-.55-2.3-1.15s1-1.16 3.54-1.16 2.61.59 2.3 1.16-.96 1.15-3.54 1.15ZM960.87 1289.83c-2.56 0-2.62-.55-2.3-1.15s1-1.16 3.54-1.16 2.61.59 2.3 1.16-.97 1.15-3.54 1.15ZM952.32 1289.83c-2.57 0-2.62-.55-2.3-1.15s1-1.16 3.54-1.16 2.6.59 2.3 1.16-.98 1.15-3.54 1.15ZM943.77 1289.83c-2.57 0-2.63-.55-2.3-1.15s1-1.16 3.54-1.16 2.6.59 2.29 1.16-.97 1.15-3.53 1.15ZM935.22 1289.83c-2.57 0-2.63-.55-2.31-1.15s1-1.16 3.54-1.16 2.61.59 2.3 1.16-.97 1.15-3.53 1.15ZM926.67 1289.83c-2.57 0-2.63-.55-2.31-1.15s1-1.16 3.54-1.16 2.61.59 2.3 1.16-.97 1.15-3.53 1.15ZM918.11 1289.83c-2.56 0-2.62-.55-2.3-1.15s1-1.16 3.54-1.16 2.61.59 2.3 1.16-.97 1.15-3.54 1.15ZM909.56 1289.83c-2.57 0-2.62-.55-2.3-1.15s1-1.16 3.54-1.16 2.61.59 2.3 1.16-.97 1.15-3.54 1.15ZM901 1289.83c-2.57 0-2.63-.55-2.3-1.15s1-1.16 3.54-1.16 2.6.59 2.3 1.16-.96 1.15-3.54 1.15ZM892.46 1289.83c-2.57 0-2.63-.55-2.31-1.15s1-1.16 3.54-1.16 2.61.59 2.31 1.16-1 1.15-3.54 1.15ZM883.9 1289.83c-2.56 0-2.62-.55-2.3-1.15s1-1.16 3.54-1.16 2.61.59 2.3 1.16-.97 1.15-3.54 1.15ZM876.6 1290.24l-.34-.44h-1.74l.79-1.49.05-.1-.36-.79h.79c1.09-1.8 1.74-2.06 2.24-2.06s.88.28 0 2.17c.78.12 1.25.39.89 1.07a2.48 2.48 0 0 1-2 1.06ZM879.49 1282.72c-.58 0-1-.34.41-2.92s2.15-2.92 2.72-2.92 1 .36-.41 2.92-2.13 2.92-2.72 2.92ZM884.07 1274.17c-.57 0-1-.35.42-2.92s2.15-2.92 2.72-2.92 1 .36-.42 2.92-2.12 2.92-2.72 2.92ZM888.67 1265.62c-.58 0-1-.35.41-2.92s2.15-2.92 2.72-2.92 1 .35-.42 2.92-2.12 2.92-2.71 2.92ZM893.25 1257.07c-.57 0-1-.35.42-2.92s2.15-2.92 2.72-2.92 1 .35-.42 2.92-2.12 2.92-2.72 2.92ZM897.84 1248.52c-.57 0-1-.35.42-2.92s2.15-2.93 2.72-2.93 1 .36-.42 2.93-2.12 2.92-2.72 2.92ZM902.43 1240c-.57 0-1-.34.42-2.92s2.15-2.92 2.72-2.92 1 .36-.42 2.92-2.15 2.92-2.72 2.92ZM907 1231.41c-.57 0-1-.35.42-2.92s2.15-2.92 2.72-2.92 1 .36-.42 2.92-2.1 2.92-2.72 2.92ZM911.61 1222.86c-.57 0-1-.35.42-2.92s2.15-2.92 2.72-2.92 1 .36-.42 2.92-2.12 2.92-2.72 2.92ZM916.2 1214.31c-.57 0-1-.35.42-2.92s2.15-2.92 2.72-2.92 1 .35-.42 2.92-2.12 2.92-2.72 2.92ZM920.79 1205.76c-.57 0-1-.35.42-2.93s2.15-2.91 2.72-2.91 1 .35-.42 2.91-2.12 2.93-2.72 2.93ZM925.38 1197.2c-.57 0-1-.34.42-2.92s2.15-2.91 2.72-2.91 1 .35-.42 2.91-2.1 2.92-2.72 2.92ZM938.78 1185.39c-2.57 0-2.61-.59-2.3-1.15s1-1.16 3.54-1.16 2.62.56 2.3 1.16-.97 1.15-3.54 1.15ZM947.33 1185.39c-2.57 0-2.61-.59-2.3-1.15s1-1.16 3.54-1.16 2.62.56 2.3 1.16-.97 1.15-3.54 1.15ZM955.88 1185.39c-2.57 0-2.6-.59-2.3-1.15s1-1.16 3.54-1.16 2.62.56 2.3 1.16-.97 1.15-3.54 1.15ZM964.43 1185.39c-2.57 0-2.6-.59-2.3-1.15s1-1.16 3.54-1.16 2.63.56 2.3 1.16-.97 1.15-3.54 1.15ZM973 1185.39c-2.57 0-2.6-.59-2.29-1.15s1-1.16 3.53-1.16 2.63.56 2.3 1.16-.98 1.15-3.54 1.15ZM981.54 1185.39c-2.58 0-2.61-.59-2.3-1.15s1-1.16 3.53-1.16 2.63.56 2.31 1.16-.97 1.15-3.54 1.15ZM990.09 1185.39c-2.57 0-2.61-.59-2.3-1.15s1-1.16 3.54-1.16 2.62.56 2.3 1.16-.97 1.15-3.54 1.15ZM998.64 1185.39c-2.57 0-2.61-.59-2.3-1.15s1-1.16 3.54-1.16 2.62.56 2.3 1.16-.97 1.15-3.54 1.15ZM1007.19 1185.39c-2.57 0-2.6-.59-2.3-1.15s1-1.16 3.54-1.16 2.63.56 2.3 1.16-.96 1.15-3.54 1.15ZM1015.75 1185.39c-2.58 0-2.61-.59-2.31-1.15s1-1.16 3.54-1.16 2.63.56 2.31 1.16-.97 1.15-3.54 1.15ZM1024.3 1185.39c-2.58 0-2.61-.59-2.3-1.15s1-1.16 3.53-1.16 2.63.56 2.31 1.16-.97 1.15-3.54 1.15ZM1032.85 1185.39c-2.57 0-2.61-.59-2.3-1.15s1-1.16 3.54-1.16 2.62.56 2.3 1.16-.97 1.15-3.54 1.15ZM1032.41 1192.39c-.6 0-1-.35.41-2.92s2.12-2.92 2.72-2.92 1 .35-.41 2.92-2.13 2.92-2.72 2.92ZM1027.82 1200.94c-.6 0-1-.35.41-2.92s2.12-2.92 2.72-2.92 1 .35-.41 2.92-2.15 2.92-2.72 2.92ZM1023.23 1209.5c-.6 0-1-.36.41-2.93s2.12-2.92 2.72-2.92 1 .35-.41 2.92-2.15 2.93-2.72 2.93ZM1018.64 1218.05c-.6 0-1-.36.41-2.92s2.12-2.92 2.72-2.92 1 .34-.41 2.92-2.15 2.92-2.72 2.92ZM1014.05 1226.6c-.6 0-1-.36.41-2.92s2.12-2.92 2.72-2.92 1 .35-.41 2.92-2.15 2.92-2.72 2.92ZM1009.46 1235.15c-.6 0-1-.35.41-2.92s2.12-2.92 2.72-2.92 1 .35-.41 2.92-2.18 2.92-2.72 2.92ZM1004.87 1243.7c-.6 0-1-.35.41-2.92s2.12-2.92 2.72-2.92 1 .35-.41 2.92-2.15 2.92-2.72 2.92ZM1000.28 1252.26c-.6 0-1-.36.41-2.93s2.12-2.92 2.72-2.92 1 .35-.41 2.92-2.15 2.93-2.72 2.93ZM995.69 1260.81c-.6 0-1-.36.41-2.92s2.12-2.92 2.72-2.92 1 .34-.41 2.92-2.15 2.92-2.72 2.92ZM991.1 1269.36c-.6 0-1-.36.41-2.92s2.12-2.92 2.72-2.92 1 .35-.41 2.92-2.15 2.92-2.72 2.92ZM986.51 1277.91c-.6 0-1-.35.41-2.92s2.12-2.92 2.72-2.92 1 .35-.41 2.92-2.15 2.92-2.72 2.92ZM981.92 1286.46c-.6 0-1-.35.41-2.91s2.12-2.93 2.72-2.93 1 .35-.41 2.93-2.15 2.91-2.72 2.91Z"/><path class="cls-14" d="M983.09 1291.49h-7.73l4.15-7.74h7.73l-4.15 7.74z"/><path class="cls-14" d="M983.45 1292.27h-9.3l5-9.3h9.3Zm-6.89-1.57h6.17l3.31-6.17h-6.17ZM878.08 1292.54h-7.73l4.15-7.73h7.73l-4.15 7.73z"/><path class="cls-14" d="M878.45 1293.32h-9.3l5-9.29h9.3Zm-6.9-1.56h6.17l3.31-6.17h-6.17ZM1038.98 1187.35h-7.74l4.16-7.73h7.73l-4.15 7.73z"/><path class="cls-14" d="M1039.34 1188.13H1030l5-9.3h9.3Zm-6.89-1.56h6.17l3.31-6.17h-6.17ZM934.13 1188.1h-7.73l4.15-7.73h7.74l-4.16 7.73z"/><path class="cls-14" d="M934.5 1188.88h-9.3l5-9.29h9.3Zm-6.9-1.56h6.17l3.31-6.17h-6.17Z"/><path style="fill:url(#Áåçûìÿííûé_ãðàäèåíò_30-13)" d="M1136.21 1295.15h-120.92l64.9-120.92h120.92l-64.9 120.92z"/><path style="fill:url(#Áåçûìÿííûé_ãðàäèåíò_75-7)" d="m1030.02 1286.86 61.35-66.14 9.02 40.27 32.24-22.94-2.23 48.52-100.38.29z"/><path class="cls-14" d="M1137.94 1208.47c-2.36 4.33-7.76 7.8-12.06 7.76s-5.87-3.58-3.51-7.9 7.76-7.8 12.06-7.76 5.87 3.58 3.51 7.9ZM1028.21 1287.47l-.51-1.11 160.49-104.44.52 1.1-160.5 104.45z"/><path class="cls-14" d="m1131.55 1287.47-48.39-104.45 1.7-1.1 48.39 104.44-1.7 1.11z"/><path class="cls-14" d="M1129.44 1288.44c-2.57 0-2.62-.55-2.3-1.15s1-1.15 3.54-1.15 2.6.58 2.3 1.15-.98 1.15-3.54 1.15ZM1120.89 1288.44c-2.57 0-2.62-.55-2.3-1.15s1-1.15 3.54-1.15 2.6.58 2.3 1.15-.98 1.15-3.54 1.15ZM1112.33 1288.44c-2.56 0-2.62-.55-2.29-1.15s1-1.15 3.53-1.15 2.61.58 2.3 1.15-.97 1.15-3.54 1.15ZM1103.78 1288.44c-2.56 0-2.62-.55-2.3-1.15s1-1.15 3.54-1.15 2.61.58 2.3 1.15-.97 1.15-3.54 1.15ZM1095.23 1288.44c-2.56 0-2.62-.55-2.3-1.15s1-1.15 3.54-1.15 2.61.58 2.3 1.15-.97 1.15-3.54 1.15ZM1086.68 1288.44c-2.57 0-2.62-.55-2.3-1.15s1-1.15 3.54-1.15 2.6.58 2.3 1.15-.98 1.15-3.54 1.15ZM1078.13 1288.44c-2.57 0-2.62-.55-2.3-1.15s1-1.15 3.54-1.15 2.6.58 2.3 1.15-.98 1.15-3.54 1.15ZM1069.58 1288.44c-2.57 0-2.63-.55-2.31-1.15s1-1.15 3.55-1.15 2.6.58 2.29 1.15-.97 1.15-3.53 1.15ZM1061 1288.44c-2.56 0-2.62-.55-2.3-1.15s1-1.15 3.54-1.15 2.61.58 2.31 1.15-.96 1.15-3.55 1.15ZM1052.47 1288.44c-2.56 0-2.62-.55-2.3-1.15s1-1.15 3.54-1.15 2.61.58 2.3 1.15-1.01 1.15-3.54 1.15ZM1043.92 1288.44c-2.57 0-2.62-.55-2.3-1.15s1-1.15 3.54-1.15 2.61.58 2.3 1.15-.97 1.15-3.54 1.15ZM1035.37 1288.44c-2.57 0-2.62-.55-2.3-1.15s1-1.15 3.54-1.15 2.6.58 2.3 1.15-.98 1.15-3.54 1.15ZM1028.07 1288.86l-.35-.45h-1.74l.79-1.5a.31.31 0 0 0 0-.1l-.36-.78h.8c1.08-1.79 1.73-2.06 2.24-2.06s.88.28 0 2.17c.78.12 1.26.4.9 1.07a2.5 2.5 0 0 1-2 1.07ZM1031 1281.34c-.57 0-1-.35.41-2.92s2.15-2.92 2.73-2.92 1 .35-.42 2.92-2.17 2.92-2.72 2.92ZM1035.54 1272.79c-.57 0-1-.35.41-2.92s2.15-2.93 2.72-2.93 1 .36-.41 2.93-2.12 2.92-2.72 2.92ZM1040.13 1264.24c-.57 0-1-.35.41-2.93s2.15-2.92 2.73-2.92 1 .36-.42 2.92-2.12 2.93-2.72 2.93ZM1044.72 1255.68c-.57 0-1-.35.41-2.92s2.15-2.92 2.72-2.92 1 .36-.41 2.92-2.12 2.92-2.72 2.92ZM1049.31 1247.13c-.57 0-1-.35.41-2.92s2.15-2.92 2.72-2.92 1 .35-.41 2.92-2.12 2.92-2.72 2.92ZM1053.9 1238.58c-.57 0-1-.35.41-2.92s2.15-2.92 2.72-2.92 1 .35-.41 2.92-2.12 2.92-2.72 2.92ZM1058.49 1230c-.57 0-1-.35.41-2.92s2.15-2.92 2.72-2.92 1 .35-.41 2.92-2.12 2.92-2.72 2.92ZM1063.08 1221.47c-.57 0-1-.34.41-2.92s2.15-2.92 2.72-2.92 1 .36-.41 2.92-2.12 2.92-2.72 2.92ZM1067.67 1212.92c-.57 0-1-.35.41-2.92s2.15-2.92 2.72-2.92 1 .36-.41 2.92-2.12 2.92-2.72 2.92ZM1072.26 1204.37c-.57 0-1-.35.41-2.92s2.15-2.92 2.72-2.92 1 .36-.41 2.92-2.12 2.92-2.72 2.92ZM1076.85 1195.82c-.57 0-1-.35.41-2.92s2.15-2.92 2.72-2.92 1 .35-.41 2.92-2.12 2.92-2.72 2.92ZM1090.25 1184c-2.58 0-2.61-.58-2.31-1.15s1-1.15 3.54-1.15 2.62.55 2.3 1.15-.96 1.15-3.53 1.15ZM1098.79 1184c-2.57 0-2.6-.58-2.29-1.15s1-1.15 3.53-1.15 2.63.55 2.31 1.15-.97 1.15-3.55 1.15ZM1107.35 1184c-2.58 0-2.61-.58-2.3-1.15s1-1.15 3.53-1.15 2.63.55 2.31 1.15-.97 1.15-3.54 1.15ZM1115.9 1184c-2.57 0-2.61-.58-2.3-1.15s1-1.15 3.54-1.15 2.62.55 2.3 1.15-.97 1.15-3.54 1.15ZM1124.45 1184c-2.57 0-2.6-.58-2.3-1.15s1-1.15 3.54-1.15 2.62.55 2.3 1.15-.99 1.15-3.54 1.15ZM1133 1184c-2.57 0-2.61-.58-2.3-1.15s1-1.15 3.54-1.15 2.62.55 2.3 1.15-.97 1.15-3.54 1.15ZM1141.55 1184c-2.57 0-2.6-.58-2.3-1.15s1-1.15 3.54-1.15 2.63.55 2.3 1.15-.96 1.15-3.54 1.15ZM1150.11 1184c-2.58 0-2.61-.58-2.31-1.15s1-1.15 3.54-1.15 2.63.55 2.31 1.15-.97 1.15-3.54 1.15ZM1158.66 1184c-2.57 0-2.61-.58-2.3-1.15s1-1.15 3.54-1.15 2.62.55 2.3 1.15-.97 1.15-3.54 1.15ZM1167.21 1184c-2.57 0-2.61-.58-2.3-1.15s1-1.15 3.54-1.15 2.62.55 2.3 1.15-.97 1.15-3.54 1.15ZM1175.76 1184c-2.57 0-2.61-.58-2.3-1.15s1-1.15 3.54-1.15 2.63.55 2.3 1.15-.96 1.15-3.54 1.15ZM1184.32 1184c-2.58 0-2.61-.58-2.31-1.15s1-1.15 3.54-1.15 2.63.55 2.31 1.15-.97 1.15-3.54 1.15ZM1183.87 1191c-.6 0-1-.35.42-2.91s2.12-2.93 2.72-2.93 1 .35-.42 2.93-2.15 2.91-2.72 2.91ZM1179.28 1199.56c-.6 0-1-.36.42-2.92s2.12-2.92 2.72-2.92 1 .34-.42 2.92-2.15 2.92-2.72 2.92ZM1174.69 1208.11c-.6 0-1-.35.42-2.92s2.12-2.92 2.72-2.92 1 .35-.42 2.92-2.15 2.92-2.72 2.92ZM1170.1 1216.66c-.6 0-1-.35.42-2.92s2.12-2.92 2.72-2.92 1 .35-.42 2.92-2.15 2.92-2.72 2.92ZM1165.51 1225.21c-.6 0-1-.35.42-2.92s2.12-2.92 2.72-2.92 1 .35-.42 2.92-2.15 2.92-2.72 2.92ZM1160.92 1233.77c-.6 0-1-.36.42-2.92s2.12-2.93 2.72-2.93 1 .35-.42 2.93-2.15 2.92-2.72 2.92ZM1156.33 1242.32c-.6 0-1-.36.42-2.92s2.12-2.92 2.72-2.92 1 .34-.42 2.92-2.15 2.92-2.72 2.92ZM1151.74 1250.87c-.6 0-1-.35.42-2.92s2.12-2.92 2.72-2.92 1 .35-.42 2.92-2.15 2.92-2.72 2.92ZM1147.15 1259.42c-.6 0-1-.35.42-2.92s2.12-2.92 2.72-2.92 1 .35-.41 2.92-2.16 2.92-2.73 2.92ZM1142.56 1268c-.59 0-1-.35.42-2.92s2.12-2.92 2.72-2.92 1 .35-.42 2.92-2.14 2.92-2.72 2.92ZM1138 1276.53c-.6 0-1-.36.42-2.92s2.12-2.93 2.72-2.93 1 .35-.41 2.93-2.19 2.92-2.73 2.92ZM1133.38 1285.08c-.59 0-1-.36.42-2.92s2.12-2.92 2.72-2.92 1 .34-.41 2.92-2.11 2.92-2.73 2.92Z"/><path class="cls-14" d="M1134.56 1290.1h-7.74l4.15-7.73h7.74l-4.15 7.73z"/><path class="cls-14" d="M1134.92 1290.88h-9.3l5-9.3h9.3Zm-6.9-1.56h6.17l3.31-6.17h-6.17ZM1029.55 1291.16h-7.74l4.15-7.74h7.74l-4.15 7.74z"/><path class="cls-14" d="M1029.91 1291.94h-9.3l5-9.3h9.3Zm-6.89-1.57h6.17l3.31-6.17h-6.17ZM1190.44 1185.96h-7.73l4.15-7.73h7.74l-4.16 7.73z"/><path class="cls-14" d="M1190.81 1186.75h-9.3l5-9.3h9.3Zm-6.9-1.57h6.17l3.32-6.17h-6.18ZM1085.6 1186.72h-7.73l4.15-7.74h7.73l-4.15 7.74z"/><path class="cls-14" d="M1086 1187.5h-9.3l5-9.3h9.3Zm-6.89-1.57h6.17l3.31-6.16h-6.17Z"/><path style="fill:url(#Áåçûìÿííûé_ãðàäèåíò_60-6)" d="m1570.36 947.9-247.14 445.86h-189.48l247.13-445.86h189.49z"/><path class="cls-19" transform="rotate(-18.49 1487.942 1281.17)" d="M1478.53 1167.53h18.38v227.01h-18.38z"/><path d="M1496.74 1026.33h-130.52l12.91-23.28h130.52l-12.91 23.28zM1464.35 1081.03h-130.52l12.9-23.29h130.52l-12.9 23.29zM1430.03 1145.37h-130.52l12.91-23.28h130.52l-12.91 23.28zM1327.37 1306.33c-13.77 24.84-45.07 45-69.91 45s-33.81-20.14-20-45 45.07-45 69.91-45 33.77 20.17 20 45Z"/><path d="M330.15 1698.52h-30.52s-84-13.27-64.53-175.36a55.68 55.68 0 0 1 36.07-45.7c45.56-16.59 138.48-43.69 260-43.69 0 0 1.22.11 3.2.48-108.14 3.61-190.69 27.87-232.72 43.21a55.61 55.61 0 0 0-36.07 45.7c-19.41 162.09 64.57 175.36 64.57 175.36Z" style="fill:url(#Áåçûìÿííûé_ãðàäèåíò_60-7)"/><path d="M598.65 1515.74c-25.67 77-52 142.08-52 142.08s-12.5 40.7-63.2 40.7H453c50.7 0 63.24-40.7 63.24-40.7s26.29-65.09 51.92-142.08c22.1-66.3-21.29-79.21-33.72-81.49q13.41-.49 27.32-.48s62.56 5 36.89 81.97Z" style="fill:#d4c8c0"/><path class="cls-14" d="M483.65 1702.19H329.74c-3.58-.56-87.28-15.7-67.62-179.4a59 59 0 0 1 38.46-48.79c45-16.4 138.79-43.92 261.31-43.92h.29c1 .08 25 2.22 38.25 22.19 10.33 15.61 11 37.36 1.87 64.63-25.4 76.2-51.76 141.63-52 142.28-.05.16-13.85 43.01-66.65 43.01Zm-153-7.35h153c47.24 0 59.22-36.54 59.71-38.1.36-.94 26.64-66.17 52-142.15 8.34-25 8-44.61-1-58.24-10.82-16.34-30.82-18.73-32.58-18.91-121.3 0-214.1 27.25-258.62 43.48a51.71 51.71 0 0 0-33.68 42.69c-18.37 152.46 56.33 170.25 61.17 171.23Z"/><path class="cls-19" d="M537.32 2010.83s-20.18 8.13-55.39-50.07-30.51-113.6-6.57-133.32 73.23 45.07 88.25 85.44 21.59 105.3-26.29 97.95Z"/><path d="M539.67 1897.15c-33.09 8.59-63.57 33.91-80.23 80.24-5.82 16.15-12.74 31.67-9.18 49.46 3.1 15.52 15.44 29.17 26.69 36.46 3.62 2.34 3.62 6.28-.69 6.24-15.58-.12-38.35-.28-53.63-.28-25.19 0-55.1-14.32-46.74-50.82s2.62-63.92-7.19-103.63 3.85-67 47.41-74.29c15.62-2.58 41-4.45 51.81-8.47 6.31-2.35 25.55-13.85 30-16.51-.03 0 68.08 44.51 41.75 81.6Z" style="fill:url(#Áåçûìÿííûé_ãðàäèåíò_75-8)"/><path class="cls-14" d="M439.73 2015.87c-5.58-31.63-1.65-64.75 0-79.88 1.89-17.44 10.94-42.71 2-66.73-10.76-28.91-27.84-28.1-29.48-27.82-39.92 6.68-53.06 35-43.55 73.51 9.83 39.71 15.56 67.13 7.19 103.63s21.57 50.82 46.76 50.82c11.61 0 30 .09 43.9.19a4.63 4.63 0 0 0 2.87-8.28c-10.7-8.21-25.63-22.37-29.69-45.44Z"/><path d="M429.76 2015.87c-5.57-31.63-1.64-64.75 0-79.88 1.89-17.44 10.94-42.71 2-66.73-10.75-28.91-27.83-28.1-29.48-27.82-39.91 6.68-53.06 35-43.54 73.51 9.82 39.71 15.55 67.13 7.19 103.63s21.56 50.82 46.76 50.82c12.84 0 34 0 48.18.13a3.21 3.21 0 0 0 1.91-5.82c-10.63-7.71-28.51-22.24-33.02-47.84Z" style="fill:url(#Áåçûìÿííûé_ãðàäèåíò_60-8)"/><path class="cls-14" d="M366.84 1889c0 20.5 12.94 37.13 28.9 37.13s28.9-16.63 28.9-37.13-12.94-37.13-28.9-37.13-28.9 16.62-28.9 37.13Z"/><path class="cls-19" d="m445 1922.47-2.84-2.34c28.78-35.11 25.06-58.91 22.13-67.51-2.58-7.56-7.74-13.25-13.15-14.49l.83-3.59c6.72 1.55 12.77 8 15.8 16.89 3.12 9.19 7.23 34.5-22.77 71.04Z"/><path class="cls-19" d="m464 1964.61-2.68-2.52c5.92-6.29 8.55-13.06 7.83-20.12-1.59-15.66-18.9-28-19.08-28.13l2.12-3c.77.54 18.86 13.45 20.62 30.76.81 8.17-2.15 15.91-8.81 23.01Z"/><path class="cls-19" d="m476.94 1945.94-2.94-2.21c5.1-6.8 7-13.72 5.67-20.56-2.73-14-18.08-23.36-18.24-23.45l1.9-3.16c.68.42 16.89 10.3 19.95 25.89 1.55 7.91-.59 15.81-6.34 23.49Z"/><path d="M630.27 1594.61c-33.07 36.06-57.59 66-103.28 170.87-12.94 29.72-49.28 60.24-49.28 60.24 21.47-10.79 150.11 183.67 59.61 185.11 0 0 64.47 13.46 141.45-75.73s114.85-299.18 107.34-346.1-98.11-57.33-155.84 5.61Z" style="fill:url(#Áåçûìÿííûé_ãðàäèåíò_43-11)"/><path class="cls-19" d="M786.11 1589c-7.51-46.94-98.11-57.31-155.84 5.63-22.94 25-41.77 47.12-66.39 93.28 4.44.29 10.06.75 12.65.82a192.11 192.11 0 0 1 27.32 3c29.25 5 53.55 21.27 68 47.61 30.48 55.49-1.45 123.22-37.63 166.81-19.16 23.08-42 41.82-66.39 58.63 4.69 26.17-2.12 45.65-30.53 46.1 0 0 64.47 13.46 141.45-75.73S793.62 1635.92 786.11 1589Z"/><path class="cls-19" d="M794.72 2010.83s-20.19 8.13-55.39-50.07-30.51-113.6-6.58-133.32 73.25 45.07 88.25 85.44 21.6 105.3-26.28 97.95Z"/><path d="M797.06 1897.15c-33.09 8.59-63.57 33.91-80.22 80.24-5.82 16.15-12.75 31.67-9.19 49.46 3.11 15.52 15.44 29.17 26.69 36.46 3.62 2.34 3.62 6.28-.69 6.24-15.57-.12-38.34-.28-53.63-.28-25.19 0-55.1-14.32-46.73-50.82s2.61-63.92-7.19-103.63 3.85-67 47.4-74.29c15.62-2.58 41-4.45 51.82-8.47 6.31-2.35 25.54-13.85 30-16.51-.03 0 68.04 44.51 41.74 81.6Z" style="fill:url(#Áåçûìÿííûé_ãðàäèåíò_75-9)"/><path class="cls-14" d="M697.12 2015.87c-5.57-31.63-1.64-64.75 0-79.88 1.89-17.44 10.94-42.71 2-66.73-10.75-28.91-27.84-28.1-29.48-27.82-39.91 6.68-53.06 35-43.54 73.51 9.82 39.71 15.55 67.13 7.19 103.63s21.56 50.82 46.76 50.82c11.6 0 30 .09 43.89.19a4.63 4.63 0 0 0 2.88-8.28c-10.7-8.21-25.64-22.37-29.7-45.44Z"/><path d="M687.16 2015.87c-5.58-31.63-1.64-64.75 0-79.88 1.89-17.44 10.94-42.71 2-66.73-10.76-28.91-27.84-28.1-29.48-27.82-39.92 6.68-53.06 35-43.54 73.51 9.82 39.71 15.55 67.13 7.19 103.63s21.56 50.82 46.75 50.82c12.85 0 34 0 48.19.13a3.22 3.22 0 0 0 1.91-5.82c-10.63-7.71-28.51-22.24-33.02-47.84Z" style="fill:url(#Áåçûìÿííûé_ãðàäèåíò_60-9)"/><path class="cls-14" d="M624.24 1889c0 20.5 12.94 37.13 28.9 37.13S682 1909.49 682 1889s-12.94-37.13-28.89-37.13-28.87 16.62-28.87 37.13Z"/><path class="cls-19" d="m702.39 1922.47-2.85-2.34c28.79-35.11 25.07-58.91 22.13-67.51-2.58-7.56-7.73-13.25-13.14-14.49l.83-3.59c6.71 1.55 12.77 8 15.8 16.89 3.13 9.19 7.18 34.5-22.77 71.04Z"/><path class="cls-19" d="m721.38 1964.61-2.68-2.52c5.91-6.29 8.55-13.06 7.83-20.12-1.59-15.66-18.9-28-19.08-28.13l2.12-3c.77.54 18.86 13.45 20.62 30.76.81 8.17-2.13 15.91-8.81 23.01Z"/><path class="cls-19" d="m734.34 1945.94-3-2.21c5.1-6.8 7-13.72 5.68-20.56-2.73-14-18.09-23.36-18.24-23.45l1.89-3.16c.69.42 16.9 10.3 19.95 25.89 1.6 7.91-.53 15.81-6.28 23.49Z"/><path d="M887.66 1594.61c-33.07 36.06-57.58 66-103.27 170.87-12.95 29.72-49.29 60.24-49.29 60.24 21.48-10.79 150.12 183.67 59.62 185.11 0 0 64.46 13.46 141.45-75.73S1051 1635.92 1043.51 1589s-98.12-57.33-155.85 5.61Z" style="fill:url(#Áåçûìÿííûé_ãðàäèåíò_43-12)"/><path d="M492.64 1677c42.09 14.14 118.7 6.77 198.14 6.77s234.22 10.32 280.28-10.37c32.8-14.74 107.88-64.54 55.52-135.85s-491.21-85.31-537.25-87.12-109.52 188.67 3.31 226.57Z" style="fill:url(#Áåçûìÿííûé_ãðàäèåíò_43-13)"/><path class="cls-74" d="m516.69 986.81-22 67.3s-54 13.63-76.86-22.95l27.4-62.49Z"/><path class="cls-19" d="m529.79 1598.64-3.51-1.17 2.37-7s1.2.41 3.44 1.14ZM857.94 1920.64l-4.7-5.66c1.88-1.55 3.73-3.15 5.57-4.77l4.88 5.5c-1.9 1.68-3.81 3.29-5.75 4.93ZM872 1908l-5.12-5.28q2.63-2.55 5.18-5.17l5.27 5.13q-2.64 2.72-5.33 5.32Zm13-13.58-5.48-4.9q2.46-2.74 4.85-5.55l5.6 4.77q-2.41 2.9-4.97 5.7Zm12.17-14.42-5.77-4.57c1.53-1.92 3-3.87 4.51-5.83l5.87 4.43q-2.26 3.03-4.61 5.97Zm11.26-15.11-6-4.22c1.41-2 2.8-4 4.18-6.07l6.1 4.1c-1.42 2.11-2.84 4.18-4.28 6.22Zm10.4-15.63-6.22-3.91c1.3-2.08 2.59-4.18 3.86-6.27l6.3 3.79q-1.93 3.24-3.94 6.42Zm9.61-16.11-6.41-3.62c1.21-2.14 2.4-4.28 3.57-6.44l6.46 3.51c-1.19 2.22-2.39 4.4-3.62 6.58Zm8.84-16.49-6.55-3.32q1.66-3.31 3.29-6.61l6.6 3.22q-1.62 3.39-3.34 6.74Zm8.14-16.88-6.68-3.06c1-2.24 2-4.49 3-6.73l6.74 3q-1.48 3.4-3.06 6.82Zm7.45-17.18-6.8-2.8c.94-2.28 1.85-4.56 2.75-6.84l6.84 2.68q-1.36 3.51-2.79 6.99Zm6.78-17.47-6.91-2.53c.85-2.32 1.67-4.63 2.48-6.94l6.94 2.41q-1.21 3.56-2.51 7.09Zm6.08-17.71-7-2.26c.76-2.36 1.5-4.7 2.2-7l7 2.14q-1.04 3.55-2.2 7.15Zm5.38-18-7.08-2q1-3.58 1.91-7.11l7.11 1.84a232.1 232.1 0 0 1-1.94 7.35Zm4.63-18.18-7.17-1.66q.84-3.63 1.59-7.19l7.19 1.52q-.75 3.7-1.61 7.41Zm3.78-18.4-7.24-1.28c.43-2.47.84-4.89 1.21-7.27l7.27 1.14c-.38 2.5-.76 4.98-1.24 7.49Zm2.75-18.62-7.3-.83c.28-2.5.52-4.94.72-7.29l7.33.6q-.3 3.74-.75 7.6Zm1.36-18.88-7.36-.17v-3.12c0-1.41 0-2.77-.07-4.1l7.35-.25c0 1.4.07 2.85.07 4.35.04 1.15.03 2.25.01 3.37Zm-167.46-13.15v-7.35q3.71 0 7.41-.06l.07 7.36Zm-11.18 0-7.46-.07.1-7.36c2.47 0 4.94.06 7.41.08Zm29.83-.22-.16-7.35q3.72-.07 7.41-.18l.2 7.35q-3.72.21-7.45.21Zm-48.47 0q-3.72-.08-7.45-.19l.22-7.35 7.4.19Zm67.11-.52-.29-7.34q3.72-.15 7.39-.33l.36 7.35Zm-85.74 0-7.44-.31.32-7.35 7.41.31Zm-18.61-.85-7.44-.43.44-7.34 7.4.43Zm123-.06-.45-7.34c2.48-.16 4.94-.32 7.37-.5l.54 7.33c-2.47.18-4.96.34-7.47.5Zm-141.59-1.09-7.43-.55.56-7.33q3.68.29 7.38.54Zm160.22-.31-.65-7.32c2.48-.23 4.94-.45 7.36-.7l.73 7.32c-2.46.23-4.94.47-7.45.69ZM711.92 1638c-2.48-.23-5-.48-7.45-.74l.77-7.31q3.68.39 7.35.72Zm263.35-.54a39.77 39.77 0 0 0-1.63-6.58l6.93-2.45a46 46 0 0 1 1.95 7.82Zm-65.94-.23-.9-7.3q3.74-.45 7.31-1l1 7.28q-3.62.52-7.41.98Zm-216-1.25c-2.48-.3-5-.63-7.41-1l1-7.29c2.44.33 4.89.65 7.33 1Zm234.57-1.42-1.23-7.26c2.48-.41 4.89-.85 7.23-1.3l1.4 7.22q-3.61.65-7.41 1.3Zm-253.08-1.14-7.35-1.16 1.17-7.26 7.3 1.15Zm271.55-2.61-1.75-7.14q3.67-.9 7-1.87l2 7.07q-3.44.97-7.26 1.9Zm-290-.44-7.34-1.34 1.34-7.23c2.42.45 4.85.9 7.29 1.33Zm-18.35-3.47q-3.67-.73-7.31-1.5l1.51-7.2c2.39.51 4.81 1 7.25 1.49Zm326.52-1.72-2.73-6.83.52-.21a12.76 12.76 0 0 1 9.37-.4l-2.62 6.87a5.53 5.53 0 0 0-4 .36ZM619.81 1623l-7.28-1.64 1.65-7.17c2.38.55 4.79 1.09 7.23 1.64Zm-18.17-4.21-7.25-1.78 1.77-7.14q3.54.89 7.2 1.76Zm-18.09-4.55q-3.7-1-7.22-1.9l1.9-7.1 7.17 1.89Zm-18-4.86c-2.49-.69-4.89-1.38-7.19-2l2-7.06 7.12 2Zm-17.93-5.19-7.14-2.17 2.17-7 7.09 2.16Z"/><path class="cls-74" d="M521 1020.36c-14.34.42-68.47-30.53-76.16-51.08-2.74-7.33-.39-26.21 3-35.21 10.74-28.18 9-61.66 31.77-68.23 9.59-2.75 50.09.17 58.93.17 34.59 0 25.52 43.31 24 72.41-1.68 32.64-16.25 81.21-41.54 81.94Z"/><path class="cls-19" d="M557.75 885.2c-3.32.94-13.44 3.12-13.44 3.12s-6.26 23.76-11.26 32.2 1.86 41.94 18.12 47.57 3 21.92.3 29.42c-3.8 10.73 4.69 24-17.35 28.24-14.69 2.81-48.46-10.4-36-31s32.43-45.75 20.55-72.35-1.88 30-35 44.7-42.2 20.95-42.2 20.95-2.19-13.13-10.32-17.51S403 932.71 408 894.26s24.39-48.76 59.4-50.33 25.1-17.71 46.89-18.44 52.57-22.07 52.57-22.07 21.33 73.18-9.11 81.78Z"/><path d="M518.82 1043.22c64.73 22.77 106.07 73.7 141.65 220.93s81.37 162.1 93.41 203c0 0-148.76 80.07-223.6 216.79 0 0-253.38 20.08-237.73-185.73s-23.06-246.1-13.84-322.91 74.29-143.52 118.55-147.72c36.48-3.46 71.59-1.93 121.56 15.64Z" style="fill:url(#Áåçûìÿííûé_ãðàäèåíò_75-10)"/><path class="cls-74" d="M479.91 938.16c4 13.21 16.42 21.13 27.73 17.7s17.24-16.92 13.24-30.12-16.42-21.13-27.74-17.7-17.24 16.96-13.23 30.12Z"/><path class="cls-19" d="M506.88 948.43a5.44 5.44 0 0 1-2.95-.92c-3.13-2-2.86-4.66-2.64-6.8s.42-4-1.73-6.58a15.47 15.47 0 0 0-5.56-3.91c-3.12-1.51-6.65-3.23-4.76-9.57a7.64 7.64 0 0 1 3.85-4.68c5.51-2.93 14.59-.14 15 0l-1.1 3.51c-2.2-.69-8.71-2.07-12.15-.24a4 4 0 0 0-2 2.48c-1 3.35-.19 3.74 2.84 5.22a18.87 18.87 0 0 1 6.77 4.85 11 11 0 0 1 2.57 9.32c-.21 2-.21 2.58.95 3.32a1.51 1.51 0 0 0 1.4.27c1.52-.51 3-3.26 3.47-4.51l3.44 1.3c-.21.56-2.18 5.52-5.75 6.7a5.13 5.13 0 0 1-1.65.24Z"/><path class="cls-74" d="M883.78 1322.89c-13.4 2.13-138.79 17.54-197.4 18.43s-88.09 133.31 14.4 119.89L953 1346.42s20-12.59 16.85-32.71-72.66 7.04-86.07 9.18Z"/><path class="cls-74" d="M673.76 1233.75s55.4 115.56 62.78 134.82-49.73 100.87-88 80.76-97-90-123.29-161 101.19-134.07 148.51-54.58Z"/><path d="M504 1060.89c-23.49 7.38-48.34 24.69-46.55 84.55s44.92 165.87 93.49 239.91c0 0 131.75-24.76 145.52-108.39 0 0-67.66-138.34-97.34-178.27s-69.23-45.95-95.12-37.8Z" style="fill:url(#Áåçûìÿííûé_ãðàäèåíò_75-11)"/><path class="cls-19" d="M551 1288.28c-18.21-5.16-47.32-19.59-58.79-59.82l3.54-1c16.42 57.62 70.39 60 70.94 60l-.12 3.67a73.28 73.28 0 0 1-15.57-2.85Z"/><path class="cls-19" d="m550.72 1388.68-.65-1c-.75-1.19-75.27-120.28-90.9-216.24l3.63-.59c14.72 90.42 82.32 201.81 89.73 213.81 7.79-1.48 51.84-10.72 89-36l2.08 3c-41.36 28.16-91.13 36.72-91.63 36.8ZM831.91 1688.19a94.05 94.05 0 0 1-10.2-.45l.47-3.65c.7.1 70.45 8.17 134.66-49.77l2.46 2.73c-50.88 45.95-105.3 51.14-127.39 51.14Z"/><path class="cls-74" d="M1004.63 1330.86c5.75 12.11 17.09 43 5.13 53.37s-13.24-21.15-13.24-21.15-.27 21.6-6.09 20.54-13-13.93-12.8-26.71-6.27-34.9-1.41-40.09 18.42-7.01 28.41 14.04Z"/><path class="cls-74" d="M876.46 1323.91s48.95-24.45 90.82-28.09 48.86 8.17 63.62 38.42-6.52 17.32-12.6 11.55-18.81-28.79-29.3-24.26c0 0-13.33 40.82-48.26 33.3-3.38-.73-23.35 5.58-31.83 11.68-5.55 3.97-32.45-42.6-32.45-42.6Z"/><path class="cls-19" d="M904.8 1697.88H544.05v-16.42H904.8a8.21 8.21 0 0 1 8.21 8.21 8.21 8.21 0 0 1-8.21 8.21Z"/><path d="M538.88 2026.92c-6 0-10.93-4-10.93-8.94v-329.81h21.87V2018c0 4.92-4.9 8.92-10.94 8.92Z" style="fill:url(#Áåçûìÿííûé_ãðàäèåíò_60-10)"/><path class="cls-19" d="M538.88 2028.76c-7 0-12.77-4.83-12.77-10.78v-331.65h25.54V2018c0 5.93-5.73 10.76-12.77 10.76ZM529.79 1690v328c0 3.92 4.08 7.11 9.09 7.11s9.1-3.19 9.1-7.11v-328Z"/><path class="cls-19" d="M542.01 1691.96h3.68v322.63h-3.68z"/><path d="M320.64 1696.48h280.1c-12.65-2.46-76.51-23.87-60.13-205.14 9.76-108.09-55.9-273.85-76.2-317.94H174.19c-.81 5.12 1.24 12.85 11.23 24.09 22.53 25.35 70.41 221.56 77 277.89 6.37 54.76-45.76 184.56 58.22 221.1Z" style="fill:url(#Áåçûìÿííûé_ãðàäèåíò_60-11)"/><path class="cls-19" d="M600.73 1698.32h-280.4l-.3-.11c-78.82-27.7-69.35-109.49-62.44-169.22 2.46-21.26 4.59-39.63 3-53.4-6.86-58.79-54.48-252.07-76.53-276.88-8.85-10-12.78-18.58-11.67-25.6l.25-1.55h128.9v3.67H175.87c-.11 5.62 3.64 12.84 10.93 21 23.6 26.55 71.32 226.59 77.43 278.9 1.65 14.19-.5 32.75-3 54.25-7.14 61.67-16 138.4 59.7 165.22h279.8Z"/><path d="M886.56 1515.74c-25.67 77-52 142.08-52 142.08s-12.5 40.7-63.21 40.7h-30.48c50.71 0 63.25-40.7 63.25-40.7s26.29-65.09 51.92-142.08c22.1-66.3-21.29-79.21-33.72-81.49q13.41-.49 27.32-.48s62.59 5 36.92 81.97Z" style="fill:url(#Áåçûìÿííûé_ãðàäèåíò_60-12)"/><path d="M771.56 1702.19H617.64c-3.57-.56-87.27-15.7-67.61-179.4a59 59 0 0 1 38.46-48.79c45-16.4 138.79-43.92 261.31-43.92h.29c1 .08 25 2.22 38.25 22.19 10.33 15.61 11 37.36 1.87 64.63-25.4 76.2-51.76 141.63-52 142.28-.05.16-13.85 43.01-66.65 43.01Zm-153-7.35h153c47.24 0 59.21-36.54 59.7-38.1.37-.94 26.64-66.17 52-142.15 8.34-25 8-44.61-1-58.24-10.81-16.34-30.81-18.73-32.57-18.91-121.31 0-214.1 27.25-258.62 43.48a51.68 51.68 0 0 0-33.67 42.69c-18.4 152.46 56.31 170.25 61.15 171.23Z" style="fill:#2a2b29"/><path class="cls-19" d="M215.3 1279.68h194.34v3.68H215.3zM226.33 1316.45h194.34v3.68H226.33zM241.04 1353.22h194.34v3.68H241.04z"/><path d="M1617.17 1271.68a247.62 247.62 0 0 0-52.26-116.68c-13.65-16.72-29.32-22.46-47.2-33.47-20.88-12.87-43.23-58-43.22-84.66 0-2.09-98.84 17.6-100.43 21.35-2.79 6.61-.19 17.85-1.52 27-3.08 21.23-17 41.67-19.12 63-2 20.21 4.55 41.46 9.52 60.8 11.89 46.3 26.53 94.65 8.7 141.22-3.75 2.43-8.72 2-12.73 3.89a15.23 15.23 0 0 0-6.1 5.16c-4.1 5.75-4.89 14.66-3.75 21.45.88 5.19 4.4 7.3 9.39 8.09 10.21 1.6 21.28.17 31.38-1.59a2.54 2.54 0 0 0 .92-.37 2.28 2.28 0 0 0 .65.23 183.59 183.59 0 0 0 40.85 1.06c5.25-.5 19.37 0 22.35-5.17 1-1.64 123 12 139.78 4.08 33.62-15.63 27.42-86.49 22.79-115.39Z" style="fill:url(#Áåçûìÿííûé_ãðàäèåíò_30-14)"/><path d="M1732.08 1000.29c-6.06-11.78-13.47-20.37-26.63-23.9-15.34-4.12-32.35-5.48-48.16-5.07-24.49.65-57.7 7-70.63 30.5-15.59 28.36-17.29 67.91-12.76 99.16 6.17 42.43 26.19 81.53 35.89 123.15A405.15 405.15 0 0 1 1620 1294c1.16 21.31.16 43.92-14.14 61a3.06 3.06 0 0 0-1.83 1c-.45.55-.9 1.09-1.36 1.63a3 3 0 0 0-.2 3.11c.43.72.87 1.43 1.3 2.16a3.32 3.32 0 0 0 3.39 1.65c9.41-.69 17.27-13 21.75-20.27 7.86-12.83 11.8-27.75 13.33-42.62 3.72-36.25-2.19-74.8-5.92-110.83q-3.11-29.87-7.19-59.62c-2.6-18.84-8.07-40.9-.06-59.11 10.55-23.94 38.89-24.34 60.27-17.23 11.27 3.74 24.64 14.69 37.16 11 26.85-7.87 14.11-48.99 5.58-65.58Z" style="fill:url(#Áåçûìÿííûé_ãðàäèåíò_30-15)"/><path d="M1374.7 968.05c3.45 4.53 44.15-.86 43.44-1.62.26-18.21-14.78-33.8-24.57-47.88-1.37-1.97-22.25 45.06-18.87 49.5Z"/><path d="M1402.63 968.63c3.44 4.53 42.27 2 41.57 1.21.26-18.21-11.24-38.2-21-52.27-1.4-1.96-23.95 46.62-20.57 51.06Z" style="fill:url(#Áåçûìÿííûé_ãðàäèåíò_30-16)"/><path d="M1330.17 1035.84c2.63 13.73 13.2 19.61 26.13 21.19 35.14 4.32 22.33 62.44 27.68 66.59 25.15-28.74 82.37 4.51 100.76-28.78-7.78.06-4.87-101.71-39.23-129.14-10.88-8.69-22.52-15.16-36.6-15.52-29.66-.75-52.9 20.24-64.05 46.24-.06.13 0 .27-.1.42-8.92 3.77-17.42 10.55-20.75 19.91-2.78 7.81.91 14.03 6.16 19.09Z" style="fill:url(#Áåçûìÿííûé_ãðàäèåíò_30-17)"/><path d="M1333.61 1002.66c-3.31-1.66-7.55.11-9.47 4s-3.23 10.38.08 12 10-2.2 11.91-6 .79-8.35-2.52-10ZM1373.34 976.14a8.5 8.5 0 1 0 8.5 8.49 8.5 8.5 0 0 0-8.5-8.49ZM1409.83 1228.57c-.18-4-6.35-4-6.18 0a823.52 823.52 0 0 1-8.28 157.44c-.58 3.88 5.36 5.55 6 1.64a833.37 833.37 0 0 0 8.46-159.08ZM1526.82 1262.24c-25.12 19.63-48 46.13-40.23 80-13 4.1-27.23 3.39-38.51 11.81a25.53 25.53 0 0 0-10.49-5.11c5.64-28.63 5.69-56.78 10.4-85.55.64-3.88-5.3-5.55-5.94-1.64-4.74 28.92-4.78 57.35-10.5 86.07a3.07 3.07 0 0 0 1.91 3.52 2.64 2.64 0 0 0 2.11 3.43 20.28 20.28 0 0 1 16.39 20.8c-.17 4 6 4 6.17 0a26.07 26.07 0 0 0-5.64-17.19c10.92-7.94 26.1-6.38 38.41-11a3.24 3.24 0 0 0 1.94-4.06 3.1 3.1 0 0 0 0-1.38c-8.14-32.34 14.93-56.93 38.39-75.28 3.07-2.5-1.32-6.84-4.41-4.42Z"/><path d="M1887.35 1511.13C1789 1421 1659 1654.48 1671.44 1746.67h49.13c47.74-23.02 246.43-162.56 166.78-235.54Z" style="fill:url(#Áåçûìÿííûé_ãðàäèåíò_21-4)"/><path class="cls-19" d="M1697.06 1747.52c72.88-133.32 190.56-233.68 191.74-234.68l-2.9-3.42c-1.19 1-119.5 101.91-192.77 235.95Z"/><path class="cls-19" d="M1754.84 1656.18c3.49-.36 85.77-9 110.81-18.37l-1.58-4.21c-24.5 9.18-108.84 18-109.69 18.12ZM1814.63 1577.66l4.16-1.68c-11.45-28.49-13.72-74.37-13.74-74.83l-4.48.21c.09 1.91 2.33 47.1 14.06 76.3ZM1714.94 1595.92c-30.16 52.83-48.53 113.39-43.49 150.75 68.67-59.89 54.37-140.9 43.49-150.75Z"/><path d="M1635.13 1448.31c-87.28-36.27-61 181.57 15.66 298.36h35.75c17.85-29.16 19.27-268.99-51.41-298.36Z" style="fill:url(#Áåçûìÿííûé_ãðàäèåíò_21-5)"/><path class="cls-19" d="m1669.25 1747.14 4.39-.93c-13.72-64.64-50.94-273.21-51.32-275.31l-4.42.79c.38 2.1 37.62 210.73 51.35 275.45Z"/><path class="cls-19" transform="rotate(-44.87 1636.214 1655.426)" d="M1633.84 1628.34h4.48v54.07h-4.48z"/><path class="cls-19" transform="rotate(-35.06 1664.119 1573.52)" d="M1637.53 1571.25h53.09v4.49h-53.09z"/><path d="M1807.71 1747v30c0 34.13-7.1 67.68-20.61 97.44l-5.37 11.82-36 32.32h-102.2l-38.14-32.32-5.36-11.82c-13.52-29.76-20.62-63.31-20.62-97.44v-30Z" style="fill:url(#Áåçûìÿííûé_ãðàäèåíò_75-12)"/><path class="cls-19" d="M1636.26 1820.36h170.07v4.48h-170.07zM1604.4 1883.74h60.86v4.49h-60.86z"/></g><path d="M615 1698.52h-30.54s-84-13.27-64.54-175.36a55.69 55.69 0 0 1 36.08-45.7c45.55-16.59 138.47-43.69 260-43.69 0 0 1.21.11 3.2.48-108.14 3.61-190.69 27.87-232.72 43.21a55.62 55.62 0 0 0-36.08 45.7C531 1685.25 615 1698.52 615 1698.52Z" style="fill:url(#Áåçûìÿííûé_ãðàäèåíò_60-13)"/><path class="cls-19" d="M113.6 1781.05h1784.17v10H113.6z"/></g></g></svg>