<svg xmlns="http://www.w3.org/2000/svg" viewBox="0 0 108.99 21.46"><defs><style>.cls-1{fill:#b2b8e6;}</style></defs><title>Asset 1</title><g id="Layer_2" data-name="Layer 2"><g id="Layer_1-2" data-name="Layer 1"><g id="Layer_1-2-2" data-name="Layer 1-2"><path class="cls-1" d="M90.94,2.2V19.27a2.19,2.19,0,0,0,2.2,2.19,2.26,2.26,0,0,0,1.26-.39l13.65-9.56a2.2,2.2,0,0,0,.55-3,2.1,2.1,0,0,0-.75-.67L94.19.27a2.19,2.19,0,0,0-3,.88A2.13,2.13,0,0,0,90.94,2.2Z"/></g><rect class="cls-1" x="73.71" y="8.44" width="12.24" height="4.71"/><rect class="cls-1" x="55" y="8.5" width="12.24" height="4.71"/><rect class="cls-1" x="36" y="8.5" width="12.24" height="4.71"/><rect class="cls-1" x="18" y="8.5" width="12.24" height="4.71"/><rect class="cls-1" y="8.5" width="12.24" height="4.71"/></g></g></svg>