<svg xmlns="http://www.w3.org/2000/svg" viewBox="0 0 1539.52 1383.48"><defs><style>.cls-1{fill:#fff;}.cls-11,.cls-12,.cls-13,.cls-14,.cls-16,.cls-2,.cls-21,.cls-22,.cls-24,.cls-25,.cls-26,.cls-27,.cls-28,.cls-29,.cls-3,.cls-4,.cls-5,.cls-6,.cls-7,.cls-8,.cls-9{fill:none;stroke-linecap:round;stroke-linejoin:round;}.cls-13,.cls-2{stroke:#94c7d4;}.cls-12,.cls-2,.cls-26,.cls-27,.cls-28,.cls-29,.cls-3,.cls-4,.cls-5,.cls-6,.cls-7,.cls-8{stroke-width:5.72px;}.cls-11,.cls-3{stroke:#75acba;}.cls-4{stroke:#c3e0e7;}.cls-5,.cls-9{stroke:#fe9276;}.cls-25,.cls-6{stroke:#f6b60d;}.cls-7{stroke:#fad470;}.cls-8{stroke:#fd6d48;}.cls-11,.cls-13,.cls-14,.cls-22,.cls-24,.cls-25,.cls-9{stroke-width:2.86px;}.cls-10{fill:#100c27;}.cls-12{stroke:#afd5df;}.cls-14{stroke:#fd3c0b;}.cls-15{fill:#94c7d4;}.cls-16{stroke:#100c27;stroke-width:14.3px;}.cls-17{fill:#f7eae1;}.cls-18{fill:#fd3c0b;}.cls-19{fill:#292f44;}.cls-20{fill:#75acba;}.cls-21{stroke:#000;stroke-width:1.43px;}.cls-22{stroke:#e8dacf;}.cls-23{fill:#fe7a59;}.cls-24,.cls-26{stroke:#fe7654;}.cls-27{stroke:#fe8c6f;}.cls-28{stroke:#c0dee6;}.cls-29{stroke:#fad677;}</style></defs><title>Asset 3</title><g id="Layer_2" data-name="Layer 2"><g id="_Layer_" data-name="&lt;Layer&gt;"><rect class="cls-1" x="300.49" y="268.88" width="865.73" height="548.63" rx="67.35"/><path class="cls-2" d="M487.28,440.2c-4.49-40.46,35.8-46.24,64.13-50.71s52.2-11.19,57.42-29.08,19.39-50.71,44.74-55.18,49.21,16.4,67.86,38,52.94-10.44,81.28,3,8.2,45.49,30.57,54.44,35-25.36,60.4-36.54,56.67-3,65.62,27.59-20.88,50-41,58.91-30.58,26.09-22.38,41,29.09,29.08,22.38,50S901.88,564.72,875,564s-305.73,29.83-305.73,29.83-34.07-35.75-5.22-59.66c26.1-21.62,35-38,24.61-52.2s-32.81-6-58.17-6.71S488.78,453.62,487.28,440.2Z"/><circle class="cls-3" cx="734.48" cy="500.97" r="117.44" transform="translate(-139.12 666.08) rotate(-45)"/><rect class="cls-4" x="304.59" y="340.28" width="157.65" height="64.13"/><rect class="cls-5" x="304.59" y="443.92" width="121.55" height="58.16"/><rect class="cls-5" x="997.33" y="337.29" width="164.79" height="66.37"/><rect class="cls-6" x="997.33" y="435.72" width="164.79" height="321.26"/><rect class="cls-7" x="2.86" y="945.02" width="1475.43" height="53.69"/><path class="cls-2" d="M326.22,282.86c0-47-12.68-91.72-32.81-111.85s-66.74-10.07-74.57,29.08,5.22,71.58,16.41,98.43C251,336.4,294.9,395.83,294.9,395.83"/><path class="cls-8" d="M338.67,578.7c-9-20-46.84-65.09-97.43-96.82-63.07-39.56-116.58-51.19-150.55-94.81C56,342.56,78.59,298.07,102,285.18s60.92-7.86,100.85,22.18c34.25,25.76,80.48,79.67,99.87,121.82"/><path class="cls-6" d="M415.71,675c-33.79-32.52-87.19-92-181.52-74.93-80.74,14.6-128,7.56-157.44-22.1-32.57-32.78-22.09-82.62,27.39-97.81,74.43-22.84,155.39,21.78,186.29,37.56C343,544.59,419,623.11,448.71,649.14"/><polygon class="cls-9" points="388.94 943.65 271.89 943.65 261.9 820.74 398.92 820.74 388.94 943.65"/><line class="cls-9" x1="265.26" y1="861.47" x2="395.57" y2="861.47"/><path class="cls-10" d="M159.72,685H107.2l-5.39-40a5.18,5.18,0,0,1,5.14-5.87h53a5.18,5.18,0,0,1,5.14,5.87Z"/><path class="cls-3" d="M172.61,706V666.64a11.32,11.32,0,0,0-11.32-11.32H107.87a11.32,11.32,0,0,0-11.32,11.32V706a88.43,88.43,0,0,1-11.33,43.31l-.27.48a88.41,88.41,0,0,0-11.33,43.31V926.78a16,16,0,0,0,16,16h89.9a16,16,0,0,0,16-16V793.11a88.41,88.41,0,0,0-11.33-43.31l-.27-.48A88.43,88.43,0,0,1,172.61,706Z"/><line class="cls-11" x1="74.18" y1="784.51" x2="194.98" y2="784.51"/><polygon class="cls-3" points="248.15 942.78 149.07 942.78 141.11 832.61 256.12 832.61 248.15 942.78"/><line class="cls-11" x1="144.65" y1="885.18" x2="252.02" y2="885.18"/><path class="cls-12" d="M1167.9,654.76c23.49-57,45.3-85.56,72.14-109s55.37-30.2,48.66-3.36-104,192.95-122.48,234.89"/><rect class="cls-13" x="1189.34" y="285.38" width="38.18" height="171.2" transform="translate(-54.01 435.68) rotate(-20)"/><rect class="cls-14" x="1234.08" y="303.67" width="38.18" height="152.91" transform="translate(-54.43 451.54) rotate(-20)"/><line class="cls-11" x1="1298.95" y1="346.61" x2="1298.95" y2="457.72"/><rect class="cls-15" x="1169.58" y="458.47" width="192.38" height="39.15"/><path class="cls-14" d="M976.69,88.45c6.22,5,9.35,12.26,9.33,21.75,0,19.81-13.78,29.87-40.74,29.81s-40.65-10.16-40.61-30c0-9.5,3.19-16.76,9.46-21.74"/><polyline class="cls-14" points="904.67 110.03 911.74 192.45 978.95 192.45 986.02 110.2"/><path class="cls-11" d="M982,28.43c0-17.85-12.3-26.95-36.57-27s-36.67,9-36.69,26.85c0,38.38,9.62,81.78,9.62,81.78,0,13.16,9.07,19.88,27,19.91s27-6.64,27.06-19.8C972.36,110.17,981.94,61.93,982,28.43Z"/><path class="cls-11" d="M930.84,8.72C918,19,921.56,36.93,923.25,65.31S928,119,928,119"/><path class="cls-11" d="M939.63,12.94c-5.41,13-3.2,71.63-.16,106.09"/><path class="cls-11" d="M958.31,8.72c12.84,10.3,9.28,28.21,7.59,56.59S961.17,119,961.17,119"/><path class="cls-11" d="M949.53,12.94c5.4,13,3.2,71.63.16,106.09"/><rect class="cls-16" x="300.49" y="268.88" width="865.73" height="548.63" rx="67.35"/><path class="cls-10" d="M403.4,758.23c-44.75,10.06-72.71,43.62-80.54,140.93s-3.35,126.39-3.35,126.39l148.76-72.7V758.23Z"/><path class="cls-17" d="M1153.92,734c29.64,34.86,68.79,88.55,69.35,131.06s-18.46,79.41-74.38,84.44-116.33-125.83-116.33-125.83Z"/><path class="cls-17" d="M640.15,552.05c-29.83-10.44-99.18-24.61-203.57-11.93S268.8,595.3,252.4,631.83s-26.85,90.23,14.91,129S423.9,793.65,453,787.68,640.15,552.05,640.15,552.05Z"/><path class="cls-18" d="M411.22,612.45s55.18-22.37,118.57-35.05S653.57,552.79,670,532.66L823.58,526s45.49,27.59,88,39.52,122.3,47.72,163.31,85,79,83.51,79,83.51-54.44,63.39-103.65,93.21-592.81-24.61-592.81-24.61-22.37-52.19-31.32-99.17S411.22,612.45,411.22,612.45Z"/><path class="cls-19" d="M655.62,544.87c26.84,12.86,65.15,17.34,104,14.54,36.05-2.59,72.08-16,83.37-22.62C831.16,530.54,823.58,526,823.58,526L670,532.66c-3.42,4.2-8.77,8-15.65,11.6Z"/><path class="cls-17" d="M677.15,346.89c-12-6.43-21.81-3.35-27.12,5.32s-5.31,25.44,5,36.07,27.13,13.14,27.13,13.14,3.35,35.51,2.51,60.4-6.8,60.59-14.73,70.84c0,0,29.27,9.13,77.65,6.62s76-13.33,76-13.33-14.72-16.31-22-50.71-13.43-78.85-13.43-78.85,15.66-8.67,23.21-25.17,4.48-35.23-7.55-39.43-24.32,10.63-24.32,10.63Z"/><path class="cls-20" d="M687.5,306.63c11.37-17.17,28-25.26,30.94-37.19s5.6-34.68,22.37-41,22.19-11,28.9-27.77,17-17.62,34.11-16.5,19.28-8.55,30.48-9.51c19.58-1.68,22.09,12.77,19.48,23.21s-14.91,18.64-14.54,30.2,10.44,29.83-10.81,60.4-42.13,35.42-42.13,35.42,9.41,21.35,6.06,43.72-13.61,41.1-30.76,55.64-21.81,14.26-21.81,14.26-14.79-8.63-25.73-14.26c-19-9.79-36.63-26-39.7-48.93C670.9,348.53,673.24,328.16,687.5,306.63Z"/><path class="cls-21" d="M748.46,255.45c-7.55,5.88-5.6,14.27-10.91,21.82s-9.51,8.94-9.51,8.94"/><path class="cls-21" d="M790.12,202.6c-6.15,1.4-4.75,10.91-8.67,16.5s-11.74,8.11-11.74,8.11"/><path class="cls-21" d="M812.21,199.25c10.63-1.4,16.5-3.92,21-8.67s10.91-3.63,11.75-2"/><path class="cls-21" d="M826.19,219.38c-4.47,5.87-4.75,12.87-2,21a21.12,21.12,0,0,1-1.12,17.34"/><path class="cls-21" d="M800.75,229.17C794.32,232.8,791,237,790.68,244s-6.15,10.91-9.51,12.3"/><path class="cls-21" d="M808,271.11c-6.43,5-2.24,13.15-4.2,17.62s-8.39,6.15-8.39,6.15"/><path class="cls-21" d="M777,278.94c-5.59,4.48-7.83,7.27-7.55,12.87s-5.87,9.22-5.87,9.22"/><path class="cls-21" d="M726.37,310c-6.16,5-9.23,13.7-9.23,13.7"/><path class="cls-21" d="M754.05,316.13a23.66,23.66,0,0,1,1.12,13.43"/><path class="cls-21" d="M777.54,334.31a88,88,0,0,1,2.24,14.26"/><path class="cls-21" d="M736.15,337.67c-1.95,5.31-1.11,12.58-.56,14.82"/><path class="cls-21" d="M706,304.39a26.48,26.48,0,0,0-8.66,11.74"/><path class="cls-21" d="M690.57,345.5c-1.67,6.43-2.51,12-1.11,17.33"/><path class="cls-21" d="M713.22,346.89c-.83,5.88-1.67,9.23-.56,13.43"/><path class="cls-21" d="M759.92,358.08c.84,6.43,0,10.06-1.4,13.14"/><path class="cls-21" d="M726.37,370.66a22.7,22.7,0,0,0,4.19,14"/><path class="cls-21" d="M775.86,377.93c.28,5.87-3.07,10.63-4.75,12.86"/><path class="cls-21" d="M749.3,392.19a31.39,31.39,0,0,1-3.36,10.91"/><path class="cls-21" d="M704.84,380.73a17.83,17.83,0,0,0,5.59,11.74"/><path class="cls-21" d="M698.12,399.74c3.64,5,9.23,7.55,11.47,9.23"/><path class="cls-21" d="M727.76,408.41c.56,4.76,5.32,7.55,6.72,11.47"/><path class="cls-21" d="M760.2,409.53c-1.12,3.91-8.67,7-10.06,9.23"/><path class="cls-21" d="M411.22,612.45c-35,12.67-69.34,23.86-88.73,35.79"/><path class="cls-21" d="M439.19,604.43c0,28,19,125.28,30.76,151.56"/><path class="cls-21" d="M1130.43,710.69c-15.66,23.49-74.38,80-94,92.28"/><path class="cls-15" d="M740.63,1383.48c-77.18-2.24-212-17.9-321.58-118.57-106.3-97.62-140.93-203.57-144.28-248.31s52.57-62.63,76.05-87.24c42.6-44.62,54.59-89.37,113-168.9C528.67,672.1,623.16,624,740.63,624s212,48.09,276.83,136.45c58.39,79.53,70.37,124.28,113,168.9,23.49,24.61,79.41,42.5,76.06,87.24s-38,150.69-144.29,248.31C952.59,1365.58,817.81,1381.24,740.63,1383.48Z"/><path class="cls-1" d="M1005.14,745.54c0,1.26,2.33,1.88,3.43,3.37,7.3,9.81-4.74-6.81-5.86-6.7C1000.46,742.42,1005.1,743.55,1005.14,745.54Z"/><path class="cls-1" d="M994.87,737.65c2.38,1.78-2,1-2.62,5.51a2,2,0,0,1-.68,1.31c-.89.47.35,1.25-.49,1.71s.84,0-.94,2.43c-1,1.33-1,1.59-.25,1.28s.82-.27,0,.34c-1.09.86-6.84,8.92-4.85,9.26,1.33.23-1.48,1.83-.88,3.5.44,1.19,2.19,1.91,2.49,1,.12-.37.33-.53.5-.38,1.54,1.35,5.3-.1,5.79.54,1,1.26,12.56,1,13.56-.66.07-.11,7.12.65,7.06-2-.05-1.76,1.52-1.28.82-.9-1.74.94,1.73,2.18,3.51,1.2.46-.26.62.15-.47-1.33-3-4-3-5-5.63-2.94-.45.36-.91.48-1,.24-.13-.52-2.72,0-2.75.59,0,.73-3.48-.8-4.26,2-.24.9,0-1.33-2.32-1s-1.59,1.31-3.41.76c-2-.6-8.53.86-7.93-.15.75-1.26-1.28-1.76.74-2a2.6,2.6,0,0,0,1.93-1.74c.39-.85.86-1.49,1-1.39.42.25,3.06-7.22,3.94-8.94s-.57-1.4.46-2a5,5,0,0,0,1.33-1.75c1.45-3.16,8.15,5.05-3-7.57C995.35,735.61,994.34,737.25,994.87,737.65ZM985.61,757c.62-1,.58.06.51.18C986.23,759.87,984.78,758.4,985.61,757Zm8.36-13c-1.08-.65.75-.61.68-.5C995.86,743.77,994.52,744.38,994,744.06Zm3.4-5.86c.73,0-.15,1.48-.5.84C996.34,738.08,997.44,738.08,997.37,738.2Z"/><path class="cls-1" d="M951.75,870c-1.26.47.4,19.08,1.93,20,.66.39.67,2,.19,1.12s-2,.58.81.73c.92,0,1,.17.52.57-1.23,1,1.8,1.44,3.19.49,3.24-2.22,4.47-2.56,3.62-3.06s3.42-1,3.63-2c.23-1.23.75.45,1.79-.68,1.2-1.3,4.13-1.24,3.4-2.09s0-1.6.4-.79,2.63-.14,2.83-1.11c.08-.39.34-.49.63-.23.7.65.72-1,1.47-.55,1.05.62-1-.59,4.18-2.13s2.7-2.4,4.27-2.14c1.25.21,1-1.11,3.93-2.34,3.28-1.41,1.63-2.24,2.58-1.68,1.22.72,2.92-4.87.92-4.83-1.54,0,1.51-.86-3.13-3.4-4.22-2.3-3.39-.61-4.28-1.73-.34-.43-.72-.36-1.06.19-.51.81-.53.8-.37-.24.27-1.69-3.24-3.26-3.51-2.81-.15.26-.36.07-.49-.45-.29-1.12-2.48-2.47-2.46-1.51s-.34-.46-1.71-1.27c-.38.08-19.84-6.85-20.52-5.69-1,1.75-4.13-5.31-3.3,13.18C951.44,870.51,953.1,869.54,951.75,870Zm15.3,16.22c-.91.73-1.08-.1-.24-.53C968.31,885,967.17,886.33,967.05,886.26Zm15-23.18c.74.38.59.66.47.59C982,863.82,980.72,862.38,982.05,863.08Zm-24.13-2.82c8.43,4.39,21.35,6.81,21.43,8,0,.86,2.89,2.7,3.24,2.11.17-.29.45-.27.61,0,.48.89,2.72-1.63,2.33.68.77.46-5.21,2.85-5.23,3.85s.37-.81-2.59.79c-3.27,1.77-2.35.21-4.56,1.91-2.93,2.25-5.15,1.3-4.87,3.08.23,1.43-.26,0-1,.59s-2.95.23-3.15,1.41-1.86.07-2.07,1.34c-.37,2.2-1.11-1.73-2-2.24-.45-.27-1.62-19.39-3.52-19.42-.38,0-.44-.09-.13-.19.68-.21.44-2.06-.26-2S954.85,858.66,957.92,860.26Zm-6.17,6.41c.61-1,.82.49.7.42C952.46,867.94,951.37,867.3,951.75,866.67Z"/><path class="cls-1" d="M1068.58,943.73c.45.9,1.34,2.79,1.08,3.76-.45,1.69,3.32,4.4,4.34,3.13.3-.37.51-.37.51,0,0,1.48,2.61-.72,7.19-3.39,1.61-1.36.92-2.77,1.48-1.8,1,1.71,18.75-14.78,19-14.66.92.5,3.9-2.51,3.38-3.41-3-5.1-40.28-23.66-36.26-16.74.41.71-.68,1.34-.66.47.07-3.1-3.64,7.09-2.42,7.76.44.25.46.38,0,.37C1062.66,919.11,1066.39,939.32,1068.58,943.73Zm12.43-.68c.12-.57,1.69.53,1.67,1.17C1082.66,945.21,1080.74,943.21,1081,943.05ZM1074.22,911c0,1.4-.82.48-.7.41C1073.15,910.76,1074.24,910.13,1074.22,911Zm-1.68,14.88c.77-.45-1.4-1.72-.46-2.26.68-.4,1-3.54.43-4.48s.92-1.36,2.1-.41c1.61,1.3,3.16,0,3.87,1.23s.76.15,2.32,1.27,3.75.32,4,.87c.52,1.09.8,1.3,1.06.79.18-.33.44-.34.63,0,.47.81,6.61,3.09,6.77,2.52.06-.27.25-.22.44.11,1,1.73,4.22,1.68,4.43,3,.28,1.7-1.27.8-1,.61-.28-.92-1.38-.42-.76.16s-.51-.18-1,1.15c-.33.9-.37.85-.42-.39-.08-2.25-2.45.07-2,.3.25.15.16.45-.22.67-1,.6-.86-.58-1.65-.12-.28.16-.3.39,0,.53.54.29-1.47,1.38-2.5,1.35-.47,0-.59.32-.32.86s.19.67-.13.42c-.78-.6-1.71-.06-.78.45,1.31.73-1.18-.45-2.37.88-1,1.17-5.2,3.74-8.43,6.09-3.49,2.54-.38-.14-2.24-2.33-1.3-1.52.14-.52-.08-1.94-.1-.58-.29-.66-.54-.22s-.27,0-.09-1,.12-1.33-.17-.85-.41.36-.22-.63c.39-2-1.1-3.35-.38-3.76s-1.93-2.41-.88-2.39C1072.84,928.37,1071.82,926.27,1072.54,925.86Z"/><path class="cls-1" d="M992.36,978.71c-1.76,4.12.76,4.66-.33,5-.83.26.63.91-.29,2.18-.53.74-.47,1,.45,1.58s1,.69,0,.34c-1.3-.48-1.83.27-.7,1s.53,1.65-.32,1c-1.43-1.17,0,4.66-.42,5-1,.82.41,2.89-.62,3.66-.51.39-.49.69.07,1s.57.54-.12.7c-1.1.24-1.79,4.33-.43,3.43,1.19-.79-1.33,1.51-.68,1.85s-2.94,6.2-1.84,9.66c.53,1.67.82,2,1.34,1.61,1.61-1.27-1.85,5.19,13.23-2.63-.29.09,13.58-7.78,13.63-7.62.2.61,1.5-2.5,1.81-1.54s2-1.71,3.88-2.32-.36-1.74.45-1.72c1,0,0-1.81-.51-3.07-1.33-3.31-3.49-2.07-4.24-4.25-.22-.67-.68-1.06-1-.88s-.62.14-.63-.11c0-.79-1.54-2.49-2.06-2.33-.31.1-.46-.08-.37-.45s-.12-.54-.43-.44-1-.42-1.61-1.21c-1.52-2-1.66-.07-2.06-1.33-.16-.53-6.34-6.6-7-5.83-.51.6-1.38-1.87-2-1.11-.28.34-.42.17-.38-.48s-.14-.83-.6-.46c-1.4,1.1-1.38-3.06-3.22-3-.64,0-.6.09.17.37C997.46,977,993.52,976,992.36,978.71Zm-.63,26.24c-.79.3-.89,0-.76,0C991.24,1004.39,993.13,1004.43,991.73,1005Zm1.53-15.81c-.19-.59,1.41-1.09,1.25-.39C994.23,990,993,989.23,993.26,989.14Zm19.5,5.52c-.09-.3.71-1.39,1-.64C1014,995,1012.44,994.76,1012.76,994.66Zm-16-6.84c-.14-.68,1.46-.92,1.71-.25.12.34.3.07.39-.59.15-1.06.21-1,.48.2s3.86,4.41,5.12,4.54c.72.07.86,1.87,1.22,1.24s9.55,6.32,10.66,5.54c.62-.43,1.74,1-4.46,3.28-3,1.12-2,2.63-2.9,1.83-.63-.55-3.64.3-3.43,1,.07.22-.23.53-.65.66-1.18.38-.61-.79-2,0-.58.36-.72.88-.38,1.35s.36.61-.36,0c-1.11-.89-1.59.13-1.46.09-.43.65-.58.7-.73.23-.28-.89-5.34,2.41-5.45,2.53-2.85,3.35,2.06-12.12.89-13.66-.28-.37-.21-.58.17-.49C996.66,995.63,997.13,989.38,996.8,987.82Z"/><path class="cls-1" d="M1108.08,1044.88c.27-.21.39,0,.27.44-.32,1.17,1.09,1.17.76,1.93s2.6,1.94,1.65,2,1.79,2.25,1.9,3.41c.1,1,1.93.92,1.59,1.62s1.31,2.25,2.06,2c.39-.13,1,.51,1.32,1.46,1,2.82,3.78,3.13,3.21,3.89-.42.55,1,0,.89.95s1.22-.09,1.35,1.27c.12,1.14,4.05,4.51,4.56,3.89.19-.24.68,0,1.14.47,2.1,2.31,4.41-4.33,3.62-4.5s-.33-1.78.68-1.47c3.14,1,7.46-22,7.75-22.38,1-1.25-.15-2.32.56-2.39s.34-3.87-.42-3.8c-.33,0-.46-.19-.3-.52s-.22-.52-.87-.46c-1.68.16-.3-1-1-1.06-4.72-.2-18.74,2.2-22.5,5.28-1.66,1.35-.66-1.13-4.51,1.31-1.18.75-2-.41-1.27.57.37.52.26.65-.42.48-1.33-.34-.54,1-1.34.6C1107.2,1039.18,1107.43,1045.39,1108.08,1044.88Zm5.93,7.06c-1-.27-1.17-.66-.4-.74S1115.19,1052.27,1114,1051.94Zm16,15.47c0,.3-1,1.22-1,.43C1128.86,1066.82,1130.36,1067.38,1130,1067.41Zm-17.4-23.08c.63-.76,4.18,0,4.06-1.19-.06-.6,0-.61.49-.05s.66.49.86.08c.47-1,2.42.29,1.6-.76s1.48,0,2.73-.13c1.86-.2,11.76-3,13.15-1.72.13,0,.32.34-.19.12s-1.67,3.63-1.39,4.86c.15.67-1.44,1.89-1.42,2.89.07,2.9-1.33,4.86-.06,4,1-.68-2.27,3.24-1.82,3.2,1.15-.11-4.75,5.86-3.41,3.13.39-.79-1.63-.7-1.22-1.58s-.84-.17-.94-1.17-2.11-2.54-2.5-2.06-3-2.07-.79-.75c1,.64,1.09.63.34-.14-1.07-1.11-2.94-1.16-3-1.79-.08-.82-2-2.52-2.51-2.17-.25.19-.38.13-.33-.14.17-.84-2.15-3.27-2.71-2.85-.34.26-.47.06-.32-.5C1113.56,1044.25,1112.1,1045,1112.61,1044.33Z"/><path class="cls-1" d="M900,980.36c.39.8.6-1.09,3.06-.71,2.17.33.71-.15,3.3-1.32,1-.44,1.44-.54,1.06-.23-1.68,1.35,3.32-.16.55-4.92-2.12-3.62-3.84-3.43-4.81-4.66-.51-.65-.49.74-1.23.45-.28-.11-.25-.45.06-.8.78-.86-.08-1.82-1.28-1.41-.81.27-.9.21-.43-.31s-21.76-21.82-21.15-15.08c0,.44-.11.19-.34-.54-1.27-4.08-4.29,6.21-3.62,6.09.29,0,.11.25-.41.69-1.38,1.17-.34,4.4-.94,3.59s-2.32,4.21-1.72,4.11c.26,0,0,1-.53,2.25-1.38,3.21-.23,5.56-.84,4.78s-1,.47-.47.67c.85.33-3.18,6.38.36,10.7l2,2.42c14.74-1,20.59-5.31,20.89-5.06C894,981.47,899.69,979.74,900,980.36Zm-27.38,3.48c.34-.88.83-.68.77-.55C874.34,984.49,871.45,986.8,872.61,983.84Zm18.79-9c-.41,1-2.08-.89-1.53.9.42,1.33.22,1-1.3.63-1.33-.36-8.19,2.34-8,3.16.05.27-.25.19-.64-.16s-.69-.41-.61,0c.21,1.17-1.09-.81-1.41,0s-3.35,1.28-3.79.7c-.94-1.25.36-.7.26-.44.31.41.45.29.45-.41,0-.53.17-.78.36-.53.43.58,1.89-3.69,1.67-4.89-.1-.57,0-.63.32-.21,1.2,1.6,4.22-14.91,6-15.22.51-.09.57,0,.18.33s.32,1,2.39,1.73c.94.32-.78.31,1.21,2.08,2.36,2.1,3.79,4,5.75,4.48s.12.17,2.94,2.91,2.47.47,2.93,2.18c.64,2.31-1.72.74-2.14,1.8-.21.55-3.6.2-3.87.89S891.71,974,891.4,974.8Z"/><path class="cls-1" d="M892.2,1068c.48-.8,1-1.3,1.25-1.13.69.52,6.51-3.77,6.91-5.1.63-2.07,1,.26,3-1.57.12-.11,6-4.47,6.46-7.1.18-1.07-1.84-4-2.59-3.71-.23.07-.18.28.12.43,1.32.68-.82,1.84-1.13-.21-.38-2.51-18.82-7.41-19.72-5.63-.33.63-.43.62-.5,0-.17-1.55-1.87.49-3.32-.9-4.18-4-1.23,21-2.83,22.72-1.16,1.26.34,2.56-.18,3.59-.36.7,1.35.8.64.85-1,.07-2.46,4.07-.79,5,.66.38,1.05.31,1.11-.2s.41-.62.9-.37c1.1.56-.38.85.6,1.35s.75-.66,1.8-.12c.81.41,4-.9,1.57-.43-1.21.24-1.22.21-.1-.57.66-.46,1.13-1,1.07-1.2C886.06,1072.54,891.31,1069.52,892.2,1068Zm4.71-6c-.84,1.63-1.47.5-.48-.61C898.16,1059.51,897,1062.12,896.91,1062.06Zm-12,4.22c-.13.26-1.48.5-1.12-.21C884.28,1065.15,885.24,1066.43,884.93,1066.28Zm.92-5.39c.08-.17-1.24-10.59-1.29-10.75-.74-2.66,1.39-2,1.92-1.42.85,1,1.17-.56,3.3.62s4.79,1.07,8.93,3.06c3.72,1.78,3.58.9.89,3.12s-1.75,3-2.66,2.51c-1.53-.79-3.41,2.91-4.37,2.79s-2,2.54-2.31,2c-.23-.36-.78.17-1.14,1.09C888.66,1065.07,884.47,1063.58,885.85,1060.89Z"/><path class="cls-1" d="M1005.19,1116.54c.51-.73-.87-.27-.73-1,.61-2.94-1.67-.81-1.62-1.86,0-.76-2.17-.39-2.13-1.11s-1.73-1.34-2.17-.71c-.25.37-1,0-2-.92-2.29-2.09-2.54-.64-3.06-1.6-.25-.44-.14-.5.33-.17s.58.27.34-.18c-.69-1.26-16.37-7-20.24-9-1.17-.59-4,.22-4.13,1.19-.26,1.74-.33,1.83-.81,1-1.32-2.23-1.31,19.77-1.31,19.9,1.09,5.36,2.95,2.3,2.14,3.55-.51.8.52,3.54,1.19,3.17.24-.13.28.32.09,1-.51,1.71.23,0,1.21,1.42.63.94.67.94.75-.1.06-.82.18-.9.5-.33.82,1.45,1.59-1.93,3.13-1.24.48.21.84.14.85-.18s.24-.4.56-.18c.85.58,3.29-.15,3.33-1a.77.77,0,0,1,.88-.72c1.38.07-.94,2.41,2.2.42,1.3-.82,4.78-.06,9.21-2.74,1.23-.75,5.6-1.44,4.6-2.54-.16-.18.18-.2.72-.05,1.13.33,4.32-2,3.86-2.84-.19-.35,0-.41.58-.17.73.33.82.18.53-.93s-.24-1.23.47-.58.92.6,1.28.09C1006.37,1117.22,1004.71,1117.26,1005.19,1116.54Zm-26.68,9.62c.3-.47.77,0,.76.18C980.31,1128.17,977.89,1127.13,978.51,1126.16Zm13.75-8.57c0,.68-5.55,2.16-5.69,3.44-.05.54-.2.67-.33.28-.29-.81-5.1,1.18-7,2.89-1.58,1.43-1.28-.07-3.08,1.48s-2.62.6-2.38-3-1.31-2.63-.3-3.24,0-.87,0-.73c-1.31-.51.46-.21,1.12-4.54.35-2.24.72-8.08,4-5,1.4,1.33,4.27.9,3.81,1.31s4.2,2.59,5.51,2.69c.71,0,1.23.43,1.21.86,0,1.15,1.65,0,1.61.76s2.33.29,3.21,1.5C995.1,1117.9,992.32,1116.51,992.26,1117.59Z"/><path class="cls-1" d="M1103.65,1169.19c.08-.33-.13-.48-.49-.36s-.54,0-.42-.2c.32-.64-3-3.64-4-3.68s-.17-1.5-2.57-2.34c-1-.34-1.47-.72-1.1-.84s.33-.43-.5-.9c-2.14-1.21-.52-1.49-3.49-2.39-1.09-.34-2-.87-2-1.25-.33-1.9-5.09-4.59-6.33-3.57-.46.37-.67.34-.57-.09.31-1.32-1.24-.94-1.87.46-1,2.14-1.74,1.44-1.37,2.54s-.92.69-.44,2.11-1.32,1.91-.53,2.86-.65-.15-.51,1.81c.18,2.56-1.62,3-.16,3.37.62.16.59.29-.14.54-1.73.58,1,2.84-.25,2.56-.95-.2,1,2,.13,1.77-.48-.11-.48.2,0,2.22.24,1-.81,2-.43,3.18s-1.08.91-.35,1.53c1,.81-.52,2.37.93,3.08,1.21.61-.31.14-.32,1a4,4,0,0,1-.23,1.23c-.47,1.37,1,4.53,2.21,4.9,1.83.54.55,1.9,1.56.43.47-.67.69-.79.59-.31-.28,1.28,3.29,0,3.55-.77.45-1.37-1,1.34,6.28-1.37,4.41-1.65,13-6.11,12.64-7-.41-1.22,3.64-.67,2.43-2.53-.52-.8-.44-.88.6-.63,3,.71.46-4.58-1.42-5.8C1104.23,1170.2,1103.59,1169.49,1103.65,1169.19Zm-23.55-13.32c-.65-.55.54-1,.77-.26C1081.26,1156.75,1080,1155.91,1080.1,1155.87Zm1.54-2.25c-.3,1.37-.9.3-.77.26C1080.63,1153.19,1081.82,1152.78,1081.64,1153.62Zm10,5.83c1.06.9-1.38.47-.78.26C1090.69,1159.08,1091,1158.86,1091.69,1159.45Zm3.08,18.76c-1.78-.41-10,3.22-12,2.23-.75-.37-.76-.46-.1-.54s.69-.81.47-2.29a54.27,54.27,0,0,1,0-6.51c-.32-.92.9-.75.63-1.54-.4-1.17.63-8.36,1.36-6.2.29.85,1.57-.62,1.59-.07,0,.85,2.13,2.3,2.56,1.77.29-.34.39-.29.28.15-.22.92,1.76,1.38,4,3.3s3.4.76,3.91,2.26,1.24.25,1.65,1.48c.18.52.55.61,1,.25s.64-.32.56,0,.07.55.38.45c.53-.18,2.6,1.73-3.45,3.5C1094.93,1177.29,1095.76,1178.44,1094.77,1178.21Zm1.48,2.42c-.12-.34,2.34.09,2.45.44S1095.89,1180.75,1096.25,1180.63Zm4.25-2.77c-.2-.59,1-1.72,1.31-.73C1102.3,1178.56,1100,1178,1100.5,1177.86Zm4-6.09c-.77.3-.88,0-.76,0C1104.05,1171.21,1106,1171.21,1104.55,1171.77Z"/><path class="cls-1" d="M818.6,1135.23c-1-1.69-2.57-2-2.59-2.91s-1.84-.64-1.35-1.47-1.81-.86-1.83-1.73-6.74-6.73-8.13-8.55c-1.25-1.64-1.49-1.8-1.47-1s-1.13-.52-1.61-1.72-3.92-1.44-4.71-2.4c-1.67-2-5.65,2.61-4.69,3.32,2.37,1.79-2.06,1-2.62,5.52a2,2,0,0,1-.69,1.3c-.88.48.35,1.25-.48,1.72s.84,0-.94,2.43c-1,1.33-1,1.58-.25,1.28s.82-.28,0,.34c-1.1.86-6.84,8.91-4.85,9.26,1.33.23-1.48,1.83-.88,3.49.43,1.2,2.19,1.92,2.48,1,.13-.38.34-.53.51-.38,1.54,1.34,5.29-.1,5.79.54,1,1.26,12.55,1,13.55-.66.07-.12,7.13.65,7.06-2,0-1.77,1.52-1.29.83-.91-1.74,1,1.72,2.18,3.5,1.2,1.18-.65.94.9,2.22-.23,1.62-1.44,1.42,1.47,3.25-.07,1.43-1.2,1-1.82,1.89-.87.49.54.51.31-.53-2.58.5.47,2.27,2.42,1.63,1C822.93,1138.39,820.47,1138.39,818.6,1135.23ZM783,1138.14c.62-1,.58.07.51.18C783.57,1141,782.13,1139.53,783,1138.14Zm11.76-18.8c.73,0-.15,1.47-.5.84C793.69,1119.22,794.79,1119.22,794.72,1119.34ZM792,1124.7c1.21.2-.14.82-.68.49C790.24,1124.55,792.07,1124.58,792,1124.7Zm17.18,14c-.45.37-.91.48-1,.25-.14-.52-2.72,0-2.75.58,0,.74-3.48-.8-4.26,2-.25.9,0-1.33-2.32-1s-1.59,1.31-3.42.76c-2-.6-8.52.85-7.92-.15.75-1.27-1.29-1.76.74-2a2.6,2.6,0,0,0,1.93-1.74c.38-.85.86-1.49,1-1.4.42.25,3.06-7.22,3.94-8.94s-.58-1.39.46-2a4.89,4.89,0,0,0,1.33-1.75c.86-1.88,1.14-.74,3.07-.3.84.19.85.26,0,.34-2.25.21,2.38,1.33,2.43,3.32,0,1.27,2.32,1.89,3.43,3.37,2.47,3.33,2.65,3.5,3.29,3.16.41-.22.61,0,.58.69,0,1.44,1.35,1.56,1.93,2.74S811,1137.2,809.18,1138.65Zm8.07-1.48c-.66-1.23.49-.82.42-.7C818.3,1136.84,817.66,1137.92,817.25,1137.17Z"/><path class="cls-1" d="M998.62,1231.45c-.3-.1-.19-.31.26-.46.67-.23.49-.51-1-1.72-2.37-1.87-2.86-2-3.41-1.07-.39.65-.47.6-.47-.26,0-1.71-1.9-1.07-1.81-1.94s-.89.71-1.28-.43-3.32-1.16-4-2-1.09.46-1.45-.15c-1.44-2.5-3.4-1.33-4.72-2.48-.16-.14-3.59-1.53-3.79-.94-.1.29-.41.08-.67-.48-.71-1.49-1.4.14-1.55-.84s-1.77.29-1.9-.67c0-.34-1.36-.71-2.95-.83-4.75-.37-5.34.84-3.65,7.45.44,1.73,3.72,19.59,4.9,19.18.51-.18.53-.06,0,.39-1,.88,4.71,14.19,6.36,11.36.33-.56.53-.51.78.21s.42.72.55.32.57-.44,1-.2c1.72,1,17-16.82,15.31-17.48-.47-.18-.38-.24.29-.21,1,.06,2-1.25,1.24-1.52-.56-.19.73-1.3.83-.61.11.84,1.21-.24,1.36-1.34.11-.81.18-.87.28-.26.08.43.35.6.61.38C1000.26,1234.42,999.4,1231.72,998.62,1231.45Zm-9.73,10.4c.19-1-.14-2.23.66-1.26C990.63,1241.9,988.16,1242.45,988.89,1241.85Zm3.84-6c.85,1-.3-.94-2.84,1.81s-7.58,7.57-7.69,8.36-.89-.51-1.52.89c-1.11,2.43-3.29,1.7-3.68-1.24a11.1,11.1,0,0,0-2.1-4.92c-.7-.59-.06-2.17.08-1.17.06.38.21.65.32.56.38-.32-6.9-21.76-1.11-14.74.89,1.08,4.61,1.3,5,1.76.14.17.48-.06.79-.54.44-.68.5-.66.3.1-.39,1.51.34.53,4.65,2.29,8,3.27,7.55.69,7.57,2.26,0,1,.38,1.06,1.11.23.48-.56,1.55,2,1.37.2-.09-.86,0-.89.49-.26C997,1233.32,992,1234.92,992.73,1235.85Z"/><path class="cls-1" d="M904.63,1193.66c.11,0,.08-.08,0,0Z"/><path class="cls-1" d="M910.57,1196.1c-.45.39-2.67-3-2.77-4.31-.07-.93-2.07-.73-2.14-2.39-.12-3-3.46-3.31-3.33-4.28.35-2.54-2.18-2-2.47-3.72s-1.29-.57-1.45-2.06c-.44-4.08-5.68-7.24-6.26-8-1.27-1.68-5.8-.32-4.67,1.39.16.24-.16.44-.7.46-.82,0-.84.12-.15.55s.7.53-.17.55c-1.66,0,.2,1.31-1.23,1.9-1.16.47.16.27-1.25,3.12s-.09,3-1.23,3.51c-.77.31-.78.46-.1,1.26.54.64.56.79.07.52-1.19-.67-.22,2.38-1.13,2.41-1.11,0-.14,6-1.52,5.23-1.15-.64-.08,3-1.08,3-.31,0-.38.23-.18.55a.33.33,0,0,1-.28.56c-1,0,.25,2.34-.52,1.9s-.65.69.15,1.17c.41.24.37.54-.11.9s-.55.61,0,.8c1.33.49.07,2.54,1.64,1.92,1.38-.56-.12.68.77,1.17.31.18.54-.12.53-.67,0-.71.1-.79.45-.28.7,1,5.3.71,6.82,1.27.66.24,1,.12.94-.38s.16-.52.41-.21c1.74,2.17,3.89-2.21,3.93-.93,0,.67,4.57,0,4.82-.75a.42.42,0,0,1,.67-.2c.93.53,9.86-3.09,10.52-3.65s.69-.7.24-.47-.46,0,.24-.94C910.57,1196.3,910.83,1195.88,910.57,1196.1Zm-28.9-2.44c-.13,0-1.07-1.14.13-.25.51.37,1.05.5,1.24.29C883.68,1193,883.63,1196,881.67,1193.66Zm10.5-17.58c0-1.2.82-1.47,1-.3C893.34,1177.91,891.64,1176.1,892.17,1176.08Zm-.57,27c-.46-.71.8-.75.82,0C892.45,1204.27,891.47,1203.1,891.6,1203.09Zm.77-1.63c0-.66,1-1.52,1.08-.36C893.5,1202.78,892,1201.47,892.37,1201.46Zm12.82-4.65c-.79-.59-2.59-.62-2.58,0,0,.38-6.38.26-5.75,1.2.52.79-13.52.24-11.58.18-1.82-.57-.63-1.37-.61-2.87,0-1,1.83.58,1.19-3.59-.14-.93,0-1.34.45-1.19.83.29,1.37-1.93.58-2.39s3.48-2.78,1.55-5c-1.29-1.5.44.58,1.5-1,1.3-1.92.55.81,2.21.76,1,0,.74.62.84,1.5.15,1.33,3.07,2.34,7.12,6.19s4.74,3.07,4.52,3.11C904,1194.19,907.28,1198.37,905.19,1196.81Zm3.24-1.14c-1.55.67-1.61-.08-1.48-.08C906.91,1194,910.33,1194.84,908.43,1195.67Z"/><path class="cls-1" d="M789.38,1250.4c-1.54,0,1.52-.86-3.13-3.4-4.22-2.31-3.38-.62-4.27-1.74-.34-.42-.72-.36-1.07.2-.51.81-.53.8-.36-.25.27-1.69-3.25-3.25-3.51-2.8-.16.26-.36.07-.5-.46-.29-1.12-2.47-2.46-2.45-1.51s-.35-.46-1.71-1.26c-.39.08-19.84-6.85-20.53-5.7-1,1.75-4.12-5.31-3.29,13.19.23,5,1.88,4,.54,4.51s.39,19.08,1.92,20c.67.39.68,2,.19,1.13s-2,.57.81.72c.92,0,1,.17.53.58-1.24,1,1.79,1.44,3.19.48,3.24-2.22,4.47-2.56,3.62-3.06s3.42-1,3.62-2c.24-1.24.75.45,1.8-.68,1.2-1.3,4.13-1.25,3.39-2.09s0-1.6.41-.8,2.63-.13,2.82-1.1c.08-.4.34-.49.63-.23.71.65.73-1,1.48-.56,1,.63-1-.58,4.17-2.13s2.71-2.39,4.28-2.13c1.24.2,1-1.11,3.93-2.35,3.27-1.4,1.62-2.24,2.58-1.68C789.69,1256,791.38,1250.36,789.38,1250.4Zm-39.58-2.17c0,.85-1.08.21-.71-.42C749.71,1246.77,749.91,1248.29,749.8,1248.23Zm29.6-4c.74.39.59.67.47.6C779.3,1245,778.07,1243.52,779.4,1244.21Zm-15,23.18c-.91.73-1.08-.09-.25-.52C765.65,1266.09,764.52,1267.46,764.4,1267.39ZM777.65,1256c0,.93.36-.82-2.59.78-3.28,1.78-2.35.21-4.56,1.91-2.93,2.26-5.15,1.3-4.87,3.09.23,1.43-.26,0-1,.59s-2.95.23-3.15,1.4-1.86.08-2.07,1.35c-.37,2.19-1.11-1.74-2-2.24-.46-.27-1.63-19.39-3.52-19.43-.38,0-.44-.09-.13-.18.68-.21.44-2.07-.26-2.06s-1.35-1.44,1.71.16c11.53,6,19.76,5.48,19,6.76-.4.68,2.36.33,2.42,1.18s2.9,2.7,3.25,2.11c.17-.28.44-.26.61,0,.48.89,2.72-1.63,2.33.68C783.65,1252.63,777.66,1255,777.65,1256Z"/><path class="cls-1" d="M902.88,1308.48c-3-5.1-40.27-23.64-36.26-16.74.41.72-.69,1.34-.67.48.08-3.11-3.63,7.08-2.42,7.75.45.25.47.38.06.37-3.59-.09.15,20.12,2.34,24.52.45.9,1.34,2.79,1.08,3.77-.45,1.69,3.31,4.4,4.34,3.12.29-.36.51-.36.51,0,0,1.47,2.61-.73,7.19-3.39,1.6-1.36.91-2.77,1.48-1.81,1,1.71,18.74-14.77,19-14.65C900.42,1312.39,903.4,1309.38,902.88,1308.48Zm-31.31-16.37c0,1.4-.82.48-.71.42C870.5,1291.89,871.58,1291.26,871.57,1292.11Zm6.79,32.07c.12-.57,1.69.54,1.67,1.18C880,1326.35,878.08,1324.34,878.36,1324.18Zm16.18-14c-.28-.92-1.39-.43-.76.16s-.52-.19-1,1.15c-.33.89-.37.85-.42-.39-.08-2.25-2.45.06-2,.3.26.14.16.44-.21.66-1,.6-.86-.57-1.65-.12-.28.17-.3.4,0,.54.54.29-1.47,1.37-2.5,1.34-.47,0-.6.33-.32.86s.19.68-.14.43c-.77-.61-1.7-.06-.78.45,1.32.72-1.18-.46-2.36.87-1.05,1.17-5.2,3.74-8.43,6.1-3.49,2.54-.38-.14-2.24-2.33-1.3-1.53.14-.52-.09-1.94-.09-.58-.28-.66-.54-.23s-.26,0-.08-1,.12-1.33-.18-.84-.4.36-.21-.64c.38-2-1.1-3.34-.38-3.76s-1.94-2.4-.89-2.39-.11-2.08.61-2.5-1.4-1.71-.46-2.26c.67-.39,1-3.53.42-4.48s.93-1.36,2.11-.4c1.61,1.3,3.16,0,3.87,1.22s.76.15,2.32,1.28,3.75.32,4,.86c.51,1.09.8,1.3,1.06.8.17-.34.43-.34.63,0,.46.8,6.61,3.08,6.76,2.51.07-.26.26-.21.45.12,1,1.73,4.22,1.67,4.43,3C895.77,1311.32,894.22,1310.42,894.54,1310.23Z"/><path class="cls-1" d="M814.09,1374.71c-.23-.67-.68-1.07-1-.88s-.62.14-.63-.12c0-.79-1.54-2.49-2.06-2.32-.32.09-.47-.09-.38-.46s-.11-.54-.42-.44-1-.42-1.62-1.21c-1.51-2-1.65-.06-2.05-1.32-.17-.53-6.34-6.6-7-5.84-.52.6-1.39-1.86-2-1.1-.28.33-.42.16-.38-.48s-.14-.84-.61-.47c-1.4,1.11-1.37-3.06-3.21-3-.64,0-.61.09.17.37,2,.72-2-.27-3.13,2.43-1.77,4.11.75,4.66-.34,5-.83.27.63.92-.28,2.18-.53.74-.47,1,.44,1.58s1,.7,0,.34c-1.29-.48-1.83.27-.7,1s.53,1.65-.31,1c-1.44-1.17,0,4.66-.42,5-1,.81.4,2.88-.62,3.66-1.92,1.45,3,.67,5.33.42.5-3.4-.59-3.67.17-3.48,1,.25,1.48-6,1.15-7.55-.14-.69,1.45-.92,1.7-.26.13.34.31.08.4-.58.15-1.06.2-1,.48.19s3.86,4.42,5.12,4.55c.72.07.86,1.87,1.22,1.24.19-.33,3.68,2.07,6.63,3.83C821.74,1376.3,815.07,1377.6,814.09,1374.71Zm-23.49-4.43c-.18-.59,1.41-1.09,1.25-.4C791.58,1371.09,790.32,1370.37,790.6,1370.28Zm19.51,5.52c-.1-.31.71-1.39.94-.65C811.36,1376.14,809.78,1375.9,810.11,1375.8Z"/><path class="cls-1" d="M700.5,1349.65c-.51-.64-.5.75-1.23.46-.28-.11-.25-.45.06-.8.77-.87-.08-1.82-1.28-1.42-.81.28-.9.22-.44-.31s-21.75-21.81-21.14-15.07c0,.43-.12.19-.34-.55-1.27-4.07-4.29,6.22-3.62,6.09.29,0,.11.25-.42.69-1.37,1.17-.33,4.41-.93,3.6s-2.32,4.2-1.73,4.1c.27,0,0,1-.53,2.26-1.37,3.2-.22,5.56-.84,4.77s-1,.48-.46.67-1.32,4.08-.84,4.84c1.07,1.69-2.94.82,3.18,8.28,14.75-1,20.6-5.3,20.9-5,.48.4,6.19-1.33,6.49-.72.4.81.61-1.08,3.07-.7,2.16.33.71-.16,3.3-1.32,1-.44,1.44-.54,1.06-.23-1.68,1.35,3.32-.17.54-4.92C703.19,1350.69,701.47,1350.89,700.5,1349.65ZM670,1365c.34-.88.82-.69.77-.55C671.68,1365.63,668.8,1367.93,670,1365Zm23.83-10c-.21.55-3.6.21-3.87.89s-.86-.8-1.18,0c-.4,1-2.08-.89-1.52.9.41,1.33.22,1.05-1.3.64-1.33-.36-8.19,2.34-8,3.16,0,.27-.26.19-.64-.17s-.7-.41-.61.06c.2,1.17-1.09-.81-1.41,0s-3.36,1.28-3.79.7c-.94-1.24.35-.69.25-.43.32.41.45.29.46-.41,0-.53.17-.78.35-.54.43.58,1.9-3.69,1.68-4.89-.1-.56,0-.63.32-.2,1.2,1.59,4.21-14.92,6-15.23.5-.08.57,0,.18.33s.32,1,2.39,1.73c.94.33-.79.32,1.2,2.09,2.37,2.1,3.8,4,5.76,4.48s.11.17,2.94,2.91,2.47.47,2.93,2.17C696.56,1355.54,694.2,1354,693.79,1355Z"/><path class="cls-1" d="M874.56,650.25c-1,.84-10.46-.66-10,.36.19.4,0,.39-.57,0-1.07-.77-4.08-.68-4.18.12-.05.37-.23.31-.46-.16s-1.16-.7-4.76-.43c-10.84.79-8.53.92-9.6,2.79-.38.67-.63.76-.85.29s-.67,0-1.21,1c-1.23,2.25.85,4,.73,6.92-.11,2.37,1.07,1.71.94,2.9-.41,3.73,3.3,5.38,3,6.22-.12.36.13.6.57.55.61-.06.63.07.1.59-1.15,1.14,2.64,5,2.44,6.81-.17,1.51,1,.6.86,2.15s1.7,1.59,1.17,2.63.82,1.85.42,1,.86-.83.74.25,1.21,2.2.81.61c-.44-1.79.37.37,1.78.52.66.08.69,0,.16-.45s-.23-.6.88-.75c3.65-.51,3.24-2.22,5.73-4.89,1.26-1.35,1.66-2.12,1.26-2.42s-.15-.66.66-1.06c1.8-.87,9.27-13.81,7.4-13.11-1,.35,1.8-1.18,1.18-1.25-.24,0-.15-.32.21-.66,1-.91.94-2.74,2.17-4.49s0-1.58.88-2.46C877.81,653.06,875.48,650.35,874.56,650.25ZM843.42,655c.2-1.79.86.1.73.08C844.43,656.23,843.3,656.11,843.42,655Zm3.37-3.2c1-1.33.57.39.44.38C846.7,653.24,846.2,652.56,846.79,651.82Zm.45,11.92c-.45.37-2.17-.43-.67-.35C847.4,663.44,847.38,663.76,847.24,663.74Zm1.44-1.55c0,.16-1.57.8-1.47-.16S848.93,662.22,848.68,662.19Zm10.79,20.37c-.12,1.05-1.09.34-.61-.29C859.72,681.16,859.6,682.57,859.47,682.56Zm8.92-22c-.09.65-.31,1-.51.91-.77-.56-.48,4.41-1.38,3.75-.62-.46-1.83,2.73-3,3.68s-.76,2.57-1.62,3a.82.82,0,0,0-.49.86c.21,1-3.49,3.87-4.11,3.23s-1.68.42-1.07-.45-.73-1-.19-2.06-2.17-3.25-2.1-4-1.61-2.82-2.37-2.9c-.43,0-.6-.21-.4-.37.61-.5-.43-2.54-1.13-2.21-.35.17-.45.08-.22-.2.6-.73-1.74-2.46-1.14-3.2.24-.29.05-.4-.46-.27s-.77,0-.5-.71c.61-1.52-1.23-2.33-1.1-3.5.1-.95-1.91.13-1.27-.69a1,1,0,0,1,1-.33c1.28.41,3.7-.27,3.45-1s.22,1.27,3.18,1.44C873.78,656.86,868.94,656.47,868.39,660.59Z"/><path class="cls-1" d="M729.49,626.85c-1,.88,4.71,14.19,6.36,11.36.33-.56.53-.51.78.21s.41.73.55.32.57-.43,1-.2c1.85,1.06,14.06-14.41,14.18-14.57-1.39,0-2.78,0-4.17,0-.12.74-1.48,1-.91.51.12-.66.45-.52-2.57-.5-2.08,2.13-4.06,4.18-4.12,4.67-.12.92-.89-.5-1.53.89-1.1,2.44-3.28,1.7-3.67-1.24a12.69,12.69,0,0,0-1.64-4.33c-1.82,0-3.64,0-5.45,0C729.36,627.65,730.2,626.19,729.49,626.85Z"/><path class="cls-1" d="M638.89,709.19c1,1.7,18.75-14.78,19-14.66.92.5,3.89-2.52,3.37-3.41-3-5.09-40.29-23.68-36.26-16.75.42.72-.68,1.34-.66.48.07-3.11-3.64,7.09-2.42,7.76.45.24.47.38.06.37-3.59-.1.14,20.11,2.34,24.52.44.9,1.33,2.79,1.08,3.76-.45,1.69,3.31,4.4,4.34,3.12.29-.36.51-.36.5,0,0,1.48,2.61-.73,7.19-3.39C639,709.63,638.33,708.22,638.89,709.19Zm-8.95-34.44c0,1.4-.83.48-.71.41C628.86,674.53,630,673.89,629.94,674.75Zm.07,28.13c-1.29-1.53.14-.52-.08-1.94-.09-.58-.28-.66-.54-.22s-.26,0-.09-1,.13-1.32-.17-.84-.41.36-.21-.64c.38-1.95-1.1-3.34-.39-3.75s-1.93-2.41-.88-2.4-.11-2.08.6-2.49-1.39-1.72-.46-2.26c.68-.4,1-3.54.43-4.49s.93-1.35,2.11-.4c1.6,1.3,3.16,0,3.87,1.23s.76.15,2.32,1.27,3.75.32,4,.86c.52,1.09.8,1.31,1.07.8.17-.34.43-.34.62,0,.47.81,6.62,3.09,6.77,2.51.07-.26.25-.21.45.12,1,1.73,4.21,1.68,4.43,3,.27,1.7-1.28.8-1,.61-.29-.92-1.39-.42-.76.16s-.52-.19-1,1.15c-.32.89-.37.85-.41-.39-.09-2.25-2.46.07-2,.3.26.15.16.45-.22.67-1,.6-.86-.58-1.64-.12-.29.16-.31.39-.05.53.54.29-1.47,1.38-2.49,1.35-.47,0-.6.32-.33.86s.19.67-.13.42c-.77-.61-1.7-.06-.78.45,1.31.73-1.18-.45-2.37.87s-5.19,3.75-8.43,6.1C628.76,707.75,631.88,705.07,630,702.88Zm6.72,3.93c.12-.56,1.68.54,1.67,1.18C638.37,709,636.45,707,636.73,706.81Z"/><path class="cls-1" d="M856.38,801.63c1.09.78,1.3.8.86.11-1-1.65.43.44,4.57-.66,3.69-1,2.06-2,2.89-1.36.57.48,7.94-1.08,7.19-2.16-.13,0,8.77-1,6.89-2.37-.8-.61-.76-.62.4-.08,2.31,1.06,4.91-2,7.46-2.66.28-.08.25-.49-.06-1s-.3-.65.08-.33c1.61,1.34,2.75-1.77,3.59-.64.65.87.67-.57,1.73-1,2.06-.74,2.31-.88,1.91-1.09-.24-.14,0-.74.42-1.3,1.17-1.4-.21-2.19.53-2.8,1-.83-.81-.29-1.07-1.24s1.24.4.77-1.37c-.27-1-.38-1-.67-.27-.65,1.8.63-1.18-2.08-2.61-1-.53-1.67-1.12-1.54-1.34,1-1.67-6.41-5.82-6-5.92.81-.21-4.37-4.07-4.84-5.21-.64-1.53-1.36-2.23-1.82-1.77-.25.25-.4,0-.35-.48.13-1.28-1.78-1.89-2.42-3.26-1-2-4.47.61-5.49-1.19-.53-.93-2.33-.9-2.08,0,.11.42-4,3.27-3.72,4.61a1.17,1.17,0,0,1-.29.93c-1.48,1.7-4.22,17-4.72,17.13-1.1.3,1.61.83.12,2.23-1.31,1.22-.73,2-.14,1.4s.26.93-.46.71-1.91,3.31-1.63,4.93c.14.75,0,1.36-.31,1.38-.78.05.22,2.15-.74,2.21a.49.49,0,1,0,.11,1c.67-.17,1.15,1.06,0,.94C853.64,797,854.3,800.14,856.38,801.63Zm37-16.36c.29-.46,1.91,1.62.59.86C893.5,785.88,893.1,785.33,893.33,785.27Zm-1.19,3.11c.12-1.16.82-.7.55.2C892.19,790.19,892,788.42,892.14,788.38Zm-19.77-27.1c-.3,1.06-1.09.29-1,.26C870.9,761,872.56,760.59,872.37,761.28Zm-6.31,15.41c-.61-.85-.62-1.09,0-1,.72.07,1.22-1.91.76-3-.11-.24.06-.33.43-.23.71.21,2.8-10.07,4-5.09.6,2.6,2.64,3.83,3,4.66.82,2.1,2.38,0,2,1.13-.53,1.85,5.38,5.39,5.8,4.9.13-.15.16-.1.07.12-.24.61,4.11,3.7,4.55,3.23s.39,1,2.27,2.36c5.49,4.07-7.67,2.62-6.33,4.46.74,1-3.33.56-2.83.42-.64-.24-11.64,3.88-12,2.9-.25-.68.48.51-2.75,1.1C859,793.75,868.2,779.65,866.06,776.69Z"/><path class="cls-1" d="M744.2,718.63c3,1,15.57,13,18.08,12.55.84-.17.88-.11.19.27s-.47.7,1.18,1.63c5.75,3.22,2.59,3.53,5.07,4.45,2.29.84,2.13,2.26,2.26,1.16,0-.38.62-.61,1.33-.53,1.25.14,3-1.5,2.61-2.4s1.6-.19.54-1.83c-.34-.54-.47-1-.28-.94.75.08-1.08-2,.19-2.34.85-.22,1.92-2.37,1.21-2.45s.91-2.53-.23-2c-.82.38-.94-.72.43-.91,1-.13,1-.14,0-.3-1.25-.21-1-2.52-.28-1.18.79,1.55,2.22-11.56,1.22-11.08-.66.31.69-6.27.2-6.05s-2.39-1.13-.94-1c1.26.14.81-4.79.59-4.61-.48.38-1.64-1.56-1.23-2.06,1-1.3-6,.41-6.55.34-.4,0-.37.16.08.54s.24.53-1.06.34-6.45,1.41-6,2.28c.12.24-.19.25-.66,0s-.77-.23-.52.3.16.61-.26.28c-.64-.5-4.58,1.15-4.68,2,0,.4-5.08.58-4.76,2,.15.7-1.31-.23-7.2,4-4.49,3.22-2,5.21-2.05,5.34C742.34,717.61,742.71,718.15,744.2,718.63Zm33.43-1c-.22.18-1,.07-1-.06C775.61,717.08,778.09,717.29,777.63,717.65ZM753.85,725c-.66-.07-.73-.44.1-.81C755.21,723.66,753.78,725.67,753.85,725Zm10.36,5.59c-.63-1.23-.44-2.19.12-1.09C765.39,731.6,764.15,731.15,764.21,730.63Zm5.5-28.77c.87.68.13,1.74.17,1.38C769.61,703.21,769,701.31,769.71,701.86Zm-15.42,9.76c1.11.85-.1,1-.09.82C753.47,712.35,753.62,711.1,754.29,711.62Zm-2,5.08c.27-1.36,5.59-5.32,5-4.54-1.28,1.69,15.39-8.51,15.62-8.63-.6,1.66-1,2.69-.37,2.76.91.11-2,6.76-.54,6.13.35-.16.19.27-.38,1-1.33,1.66-2.08,5.51-1,5,.62-.29.61-.2-.08.49s-.71.85-.11.92.54.19.15.41c-.94.51-1.5,4-.58,3.6.53-.24.51-.09-.08.5-1.78,1.77,1.51,1.77-1.06,3.72-.79.6-1.16.75-.87.35s.27-.65-.52-.45c-1.36.34,0-.06-.85-1-1.85-2.14-5.91-3.68-6.44-4.28-1.94-2.21-6.86-5.72-7.47-5.34C752.34,717.55,752.18,717.34,752.31,716.7Z"/><path class="cls-1" d="M782.5,884.27c-.24,0-.22.16,0,0Z"/><path class="cls-1" d="M776.15,886.38c.2,1,.14,1.14-.26.72s-.46-.28-.26.69c.35,1.65-.84,3.45.75,7.65.34.9.67,1.24.8.81s.27-.52.42,0c.34,1.22,2,0,5.86.51,2.93.35,2.82-1.27,3.68-.59.59.46,2.9-.41,1.88-1.56-1.21-1.36,2.66,1.83,8.13-1.29,6.36-3.64,8.92-1.63,7.61-4.19-.38-.74-.29-.72.56.08.66.63,1,.77,1.16.4.23-.79,1.4.2,2.38-.86,2.87-3.1.49-7.86.95-5.59.37,1.79-7.26-11.39-12.16-12.24-.5-.08-1.24-2.55-2.29-2.86-.72-.21-8.92-7.26-9.88-6.85-.52.23-.84.11-1-.34-.56-2.06-3.28,0-1-.09.8,0,.83,0,.12.29-3,1-1.22-4.37-4.15,5.55C780,866.5,775.64,883.88,776.15,886.38Zm6.46,7.94c.51-.68.89-.59.85-.46C783.75,894.33,781.65,895.64,782.61,894.32Zm19.74-4.24c.65.19.65.56-.23.79C800.77,891.22,802.53,889.47,802.35,890.08Zm-19.46-5.75c-1.47-.44,1.23,2.46,3.79-14.83a28.29,28.29,0,0,1,3.57,2.76c2.13,2.64,2.54-.07,4.22,2.7,1.82,3,3.21,2,3,2.84-.12.42,2.2,2.6,2.81,2.64.77,0-1.29,1,2.06,1.88a14.67,14.67,0,0,1-4.6,2.48c-2,.46-6.77,4.25-7.08,3.69s-.06.9-1.91,1.55c-1.65.57-.83,1.88-1.24,1.21s-2.77.39-2.6,1c.07.24-.41.32-1,.17-1.57-.35-1.66.79-2.47.55C780.19,892.64,784.23,884.72,782.89,884.33Zm-3.73-.54c-.52-1.77.26-.93.23-.8C779.94,883.61,779.55,885.1,779.16,883.79Z"/><path class="cls-1" d="M577.21,764.66c1,0,0-1.81-.52-3.07-1.33-3.32-3.49-2.07-4.23-4.25-.23-.67-.69-1.06-1-.88s-.61.14-.63-.11c0-.79-1.54-2.49-2.06-2.33-.31.1-.46-.08-.37-.46s-.11-.53-.43-.43-1-.43-1.61-1.21c-1.51-2-1.65-.07-2.05-1.33-.17-.53-6.34-6.6-7-5.83-.52.6-1.39-1.87-2-1.11-.29.33-.42.16-.38-.48s-.14-.84-.61-.46c-1.4,1.1-1.37-3.07-3.22-3-.64,0-.6.09.18.37,2,.71-2-.28-3.13,2.42-1.77,4.12.75,4.66-.34,5-.83.26.63.91-.28,2.18-.54.74-.48,1,.44,1.58s1,.69,0,.34c-1.3-.48-1.83.27-.7,1s.53,1.65-.32,1c-1.43-1.18,0,4.66-.42,5-1,.81.41,2.89-.62,3.66-.5.39-.48.69.07,1s.58.54-.12.7c-1.1.24-1.79,4.33-.43,3.43,1.19-.79-1.32,1.51-.68,1.85s-2.93,6.2-1.84,9.66c.53,1.67.82,2,1.34,1.61,1.61-1.28-1.85,5.18,13.23-2.63-.28.09,13.59-7.78,13.64-7.62.19.61,1.5-2.5,1.8-1.54s2-1.72,3.88-2.32S576.39,764.64,577.21,764.66Zm-29.77,4.06c-.78.3-.89,0-.76,0C547,768.16,548.85,768.2,547.44,768.72Zm21-10.29c-.1-.3.7-1.39.94-.64C569.73,758.77,568.15,758.53,568.48,758.43ZM549,752.91c-.19-.59,1.41-1.09,1.25-.39C549.94,753.72,548.69,753,549,752.91Zm18.66,12.64c-3,1.12-2,2.63-2.9,1.83-.63-.55-3.64.3-3.43,1,.07.22-.23.53-.65.66-1.18.38-.61-.8-2,0-.57.36-.72.88-.37,1.35s.35.6-.37,0c-1.11-.89-1.59.13-1.46.09-.42.65-.58.7-.73.23-.28-.89-5.34,2.41-5.44,2.53-2.85,3.34,2.06-12.13.89-13.67-.28-.37-.21-.57.16-.48,1,.26,1.48-6,1.15-7.55-.15-.68,1.45-.92,1.7-.25.13.33.31.07.4-.59.14-1.06.2-1,.47.2s3.87,4.41,5.12,4.54c.73.07.87,1.87,1.23,1.24s9.54,6.32,10.66,5.54C572.71,761.84,573.83,763.25,567.63,765.55Z"/><path class="cls-1" d="M696.68,797.48c-.33,0-.45-.19-.3-.52s-.21-.53-.87-.46c-1.67.16-.29-1-1-1.06-4.73-.21-18.74,2.2-22.51,5.28-1.69,1.38-.59-1.17-4.51,1.31-1.18.75-2-.41-1.26.57.37.52.25.65-.42.48-1.34-.34-.55,1-1.34.6-1.53-.74-1.3,5.48-.64,5,.26-.21.38,0,.26.44-.32,1.17,1.09,1.17.76,1.93s2.61,1.94,1.66,2c-1.1.1,1.78,2.25,1.89,3.4s1.94.93,1.6,1.63,1.31,2.25,2,2c.39-.13,1,.51,1.32,1.46,1.06,2.82,3.79,3.13,3.21,3.89-.42.55,1,0,.89.95s1.22-.09,1.36,1.27c.11,1.14,4,4.5,4.55,3.89.2-.24.69,0,1.14.47,2.1,2.31,4.41-4.33,3.62-4.5s-.32-1.78.68-1.47c3.36,1.05,8-24.73,8.32-24.77C697.78,801.22,697.44,797.41,696.68,797.48Zm-26.95,18.23c-1-.27-1.17-.66-.4-.74S670.91,816,669.73,815.71Zm16,15.47c0,.3-1,1.22-1.06.43C684.57,830.58,686.07,831.15,685.73,831.18ZM691,804.45c-.56-.25-1.67,3.63-1.39,4.86.15.67-1.44,1.89-1.41,2.88.06,2.91-1.34,4.87-.06,4,1-.68-2.28,3.24-1.83,3.2,1.15-.11-4.75,5.86-3.4,3.13.39-.8-1.64-.7-1.22-1.58s-.84-.17-.94-1.17-2.12-2.54-2.51-2.06-3-2.07-.79-.75c1.06.64,1.09.62.35-.14-1.08-1.12-2.94-1.16-3-1.79-.08-.82-2.06-2.52-2.52-2.17-.25.19-.37.13-.32-.14.16-.84-2.16-3.27-2.72-2.85-.34.26-.46.06-.32-.5.34-1.31-1.13-.61-.61-1.23s4.17,0,4-1.19c-.06-.6,0-.61.49,0s.66.48.86.08c.48-1,2.42.29,1.6-.76s1.48,0,2.73-.13c1.86-.2,11.76-3,13.15-1.72C691.35,804.31,691.54,804.67,691,804.45Z"/><path class="cls-1" d="M787.27,1005.43c.65-.47,5.24,2.54,7.1-.84a3,3,0,0,0,.47-2c-.14-.36,0-.64.24-.59,1.76.34-2.63-5.81-2.67-5.94-2.1-2-.3-3.87-7.48,9.62A3.29,3.29,0,0,0,787.27,1005.43Z"/><path class="cls-1" d="M780.09,978c-.22.28-.33.2-.26-.18.2-1.07-1-2-1.74-1.39-.48.43-.66.4-.57-.1s-.24-.72-.77-.73c-1.47,0,0-1.42-2.25-.54-2.13.8-.89,1.71-1.78,1.55s0,1.72-1.79,1.82c-.86,0-1,.19-.52.55s.37.43-.11.33c-1.09-.21-3.91,4.32-5.64,5.15-4.67,2.25-7.52,9.52-8.3,9.38-.94-.17-1.64,3-1,4.62.54,1.43,3.1,3.15,4.12,2.76.13,0,8.62,3.23,9,2.71.23-.3.47-.3.58,0,.2.51,2.74.62,2.76.12s4.19,2.12,6.53.78c1.29-.73,1.49.91,2.91.37,5.42-2.06.07,7.18,9.64-10.83C785.09,987.38,782.1,975.39,780.09,978Zm0,9.3c-.12.26-.9.55-1,.42C778.05,987.75,780.35,986.8,780.11,987.34Zm-14,13.44c-.53.67-1-.51-.29-.77C766.94,999.59,766.15,1000.9,766.11,1000.78Zm4.41,2.39c-.49.62-1.42-.14-.43-.51C771.49,1002.12,770.57,1003.29,770.52,1003.17Zm10.44-3.06c-.67.25-1,.11-.86-.41s-.15-.3-.54.35c-.53.9-.64,1-.52.26s0-.73-.53-.27c-.92.81.57-.76-4.47-1.13-1.8-.14-10-1.52-10-3.32,0-.22,5-5.31,4.89-6.73-.13-2.32,3-.75,1.67-3.32-.63-1.22-.6-1.27.41-.63s1.2.07.38-1.25c-.58-.92,1.43,1.18,2.06-1.22.2-.78.45-1.28.53-1.08s.47-.28.87-1.09c1.71-3.47,2,2,1.85,1.61C780.05,1000.35,786.75,997.91,781,1000.11Zm4.59,2.63c-.84-.15-1.23-1.17-.39-1C786.65,1002,785.71,1003.17,785.55,1002.74Z"/><path class="cls-1" d="M435.23,839c.67.38,1,.32,1.11-.19s.41-.62.9-.37c1.11.56-.38.84.6,1.34s.75-.65,1.81-.11c.81.41,4-.9,1.56-.43-1.21.24-1.22.2-.1-.57.66-.47,1.14-1,1.07-1.2-.4-1.18,4.84-4.2,5.73-5.7.48-.8,1-1.3,1.25-1.13.69.53,6.51-3.77,6.91-5.09.63-2.07,1,.26,3-1.57.12-.11,6-4.47,6.46-7.1.18-1.07-1.83-4-2.59-3.71-.23.07-.17.28.12.42,1.33.68-.82,1.84-1.13-.2-.38-2.51-18.81-7.41-19.72-5.63-.32.63-.43.62-.5,0-.17-1.55-1.87.49-3.32-.9-4.17-4-1.22,21-2.83,22.72-1.16,1.26.35,2.56-.18,3.59-.36.7,1.36.8.64.85C435,834.07,433.56,838.07,435.23,839Zm17.39-13.2c-.84,1.64-1.47.51-.47-.6C453.87,823.28,452.74,825.89,452.62,825.82Zm-10.43-13.33c.86,1,1.18-.56,3.31.62s4.78,1.07,8.92,3.06c3.73,1.78,3.58.9.89,3.12s-1.75,3-2.66,2.5c-1.53-.78-3.41,2.92-4.37,2.8s-2,2.54-2.31,2c-.22-.36-.78.16-1.14,1.09-.45,1.16-4.64-.33-3.27-3,.08-.16-1.24-10.58-1.29-10.74C439.53,811.24,441.66,811.89,442.19,812.49Zm-2.66,17.35c.47-.92,1.43.36,1.12.2C440.51,830.31,439.17,830.54,439.53,829.84Z"/><path class="cls-1" d="M560.91,880.31c.5-.74-.88-.27-.73-1,.6-2.94-1.67-.81-1.62-1.86,0-.76-2.17-.39-2.14-1.11s-1.73-1.34-2.16-.71c-.26.37-1,0-2-.92-2.3-2.09-2.55-.65-3.07-1.6-.24-.44-.14-.5.34-.17s.58.27.33-.18c-.68-1.26-16.37-7-20.23-9-1.18-.59-4,.22-4.14,1.19-.26,1.74-.33,1.83-.81,1-1.32-2.23-1.3,19.76-1.31,19.9,1.09,5.36,2.95,2.3,2.14,3.55-.51.8.52,3.54,1.19,3.17.24-.13.28.32.09,1-.51,1.71.23,0,1.22,1.42.63.94.66.94.74-.1.06-.82.19-.9.51-.33.82,1.45,1.58-1.93,3.12-1.24.48.21.84.14.86-.18s.23-.4.55-.18c.85.57,3.29-.16,3.33-1a.77.77,0,0,1,.88-.72c1.38.06-.94,2.41,2.2.42,1.3-.83,4.78-.06,9.21-2.74,1.23-.75,5.61-1.44,4.61-2.54-.17-.18.17-.2.71,0,1.13.33,4.32-2,3.87-2.85-.19-.34,0-.4.57-.16.74.33.82.18.54-.93s-.25-1.24.46-.58.92.6,1.28.09C562.09,881,560.42,881,560.91,880.31Zm-26.69,9.62c.3-.48.77,0,.77.17C536,891.94,533.6,890.9,534.22,889.93ZM548,881.35c0,.69-5.56,2.17-5.69,3.45-.06.54-.2.66-.34.28-.28-.81-5.09,1.18-7,2.89-1.57,1.43-1.28-.07-3.08,1.48s-2.62.6-2.37-3-1.32-2.64-.31-3.24,0-.87,0-.73c-1.32-.51.46-.21,1.12-4.54.34-2.24.71-8.08,4-5,1.4,1.33,4.27.89,3.82,1.31s4.19,2.58,5.5,2.69c.71,0,1.24.43,1.22.86-.06,1.15,1.64-.05,1.6.76s2.33.29,3.21,1.5C550.81,881.66,548,880.28,548,881.35Z"/><path class="cls-1" d="M640.22,951.88c.45-1.37-1,1.34,6.28-1.37,4.41-1.65,13-6.11,12.64-7-.41-1.22,3.65-.67,2.44-2.53-.53-.8-.45-.88.59-.63,3,.7.46-4.58-1.41-5.81-.82-.53-1.46-1.24-1.39-1.55s-.13-.47-.5-.35-.53,0-.41-.2c.31-.64-3-3.64-4-3.68-1.21-.05-.18-1.51-2.58-2.34-1-.34-1.47-.72-1.09-.84s.32-.43-.51-.9c-2.13-1.21-.52-1.49-3.49-2.39-1.09-.34-2-.88-2-1.25-.33-1.9-5.09-4.59-6.33-3.57-.45.37-.66.34-.56-.09.3-1.32-1.24-.94-1.88.46-1,2.14-1.74,1.44-1.37,2.54s-.91.69-.44,2.1-1.32,1.92-.53,2.87-.65-.15-.51,1.81c.18,2.56-1.61,3-.16,3.37.62.16.59.29-.13.54s-.81.59-.3,1.51c.4.73.42,1.14,0,1.05-1-.2,1,2,.14,1.77-.49-.11-.49.2,0,2.22.24,1-.81,2-.43,3.17s-1.07.92-.35,1.53c1,.82-.52,2.38.93,3.09,1.21.6-.31.14-.32,1a4.32,4.32,0,0,1-.22,1.23c-.47,1.37.95,4.52,2.21,4.9,1.82.54.54,1.9,1.56.43.46-.67.69-.79.58-.31C636.39,953.93,640,952.65,640.22,951.88Zm19.29-16.38c.26-.52,2.15-.52.76,0C659.49,935.84,659.38,935.55,659.51,935.5Zm-23.7-15.86c-.65-.55.54-1,.78-.26C637,920.52,635.68,919.68,635.81,919.64Zm1.55-2.25c-.3,1.36-.91.3-.78.26C636.35,917,637.54,916.55,637.36,917.39Zm14.6,27c-.11-.34,2.34.09,2.46.43S651.6,944.52,652,944.4Zm4.26-2.77c-.2-.59,1-1.72,1.31-.73C658,942.33,655.69,941.81,656.22,941.63Zm-8.82-18.41c1.06.9-1.38.46-.78.26C646.41,922.84,646.71,922.63,647.4,923.22Zm-8.88,21c-.74-.37-.76-.46-.1-.54s.7-.82.47-2.3a56.37,56.37,0,0,1,.05-6.5c-.31-.92.9-.75.63-1.54-.39-1.17.64-8.36,1.37-6.2.28.84,1.56-.62,1.59-.07,0,.85,2.12,2.29,2.56,1.77.28-.34.39-.29.28.15-.23.91,1.75,1.38,4,3.3s3.4.76,3.9,2.25,1.24.26,1.66,1.49c.17.52.54.61,1,.25s.64-.32.57,0,.07.55.38.45c.52-.18,2.6,1.73-3.46,3.5-2.72.8-1.89,2-2.88,1.72C648.7,941.57,640.53,945.2,638.52,944.21Z"/><path class="cls-1" d="M373.2,906.45c1.63-1.43,1.42,1.48,3.26-.06,1.42-1.2,1-1.82,1.89-.88.48.55.51.32-.54-2.57.5.46,2.27,2.42,1.63,1-.7-1.57-2.71-1.76-4.45-4-4.68,6.57-6.3,8-4,6.71C372.16,906,371.93,907.59,373.2,906.45Z"/><path class="cls-1" d="M671.91,1031.39c-1,.83-10.46-.66-10,.36.19.39,0,.39-.58,0-1.07-.76-4.08-.68-4.18.13,0,.37-.22.3-.46-.16-.31-.62-1.16-.7-4.76-.44-10.83.8-8.53.92-9.59,2.79-.38.68-.64.76-.86.29s-.66,0-1.2,1c-1.23,2.25.85,4,.72,6.92-.1,2.37,1.08,1.72,1,2.91-.41,3.72,3.3,5.38,3,6.21-.12.36.12.6.57.56.61-.06.63.06.1.59-1.16,1.13,2.64,5,2.44,6.8-.17,1.52,1,.61.86,2.16s1.7,1.58,1.17,2.63.82,1.85.41,1,.86-.84.75.24,1.2,2.21.81.61c-.45-1.78.37.37,1.78.53.65.07.69,0,.16-.45s-.24-.6.88-.76c3.65-.51,3.24-2.22,5.73-4.89,1.26-1.35,1.65-2.11,1.25-2.42s-.14-.66.67-1c1.8-.87,9.27-13.81,7.4-13.12-1,.36,1.79-1.18,1.18-1.24-.24,0-.15-.32.21-.67,1-.9.93-2.73,2.17-4.49s0-1.57.87-2.46C675.16,1034.2,672.83,1031.49,671.91,1031.39Zm-31.14,4.77c.19-1.8.86.09.73.08C641.78,1037.36,640.65,1037.24,640.77,1036.16Zm3.36-3.2c1-1.33.58.39.44.37C644.05,1034.37,643.55,1033.69,644.13,1033Zm.46,11.92c-.46.36-2.18-.44-.68-.35C644.75,1044.57,644.73,1044.89,644.59,1044.88Zm1.43-1.55c0,.16-1.57.8-1.46-.16S646.27,1043.36,646,1043.33Zm10.79,20.36c-.11,1.06-1.08.34-.6-.28C657.07,1062.29,657,1063.71,656.81,1063.69Zm8.93-22c-.09.65-.32,1-.52.9-.76-.55-.48,4.42-1.37,3.75-.62-.46-1.84,2.74-3,3.68s-.76,2.58-1.62,3a.8.8,0,0,0-.49.85c.2,1-3.5,3.87-4.11,3.24-.76-.78-1.68.42-1.08-.46s-.72-1-.18-2-2.17-3.25-2.1-4-1.61-2.81-2.37-2.89c-.44,0-.61-.21-.4-.38.61-.49-.44-2.53-1.13-2.2-.35.17-.45.07-.23-.2.61-.74-1.73-2.46-1.13-3.2.24-.29,0-.41-.46-.27s-.78,0-.5-.72c.6-1.51-1.23-2.32-1.1-3.5.1-.94-1.92.13-1.27-.69a1,1,0,0,1,1.05-.32c1.27.41,3.7-.27,3.45-1a4.13,4.13,0,0,0,3.17,1.45C671.13,1038,666.28,1037.6,665.74,1041.73Z"/><path class="cls-1" d="M554.33,995.22c-.3-.1-.18-.31.26-.46.67-.23.49-.51-1-1.72-2.38-1.87-2.87-2-3.42-1.07-.38.65-.47.6-.47-.26,0-1.71-1.89-1.07-1.81-1.94s-.89.71-1.28-.44-3.32-1.15-4-2-1.09.46-1.44-.15c-1.45-2.5-3.41-1.33-4.73-2.48-.16-.14-3.58-1.54-3.79-1-.1.3-.4.09-.67-.47-.71-1.49-1.4.14-1.55-.84s-1.77.28-1.89-.67c0-.34-1.37-.71-3-.83-4.75-.37-5.34.84-3.65,7.45.44,1.73,3.72,19.59,4.91,19.17.51-.17.52-.05,0,.4-1,.88,4.7,14.19,6.36,11.36.33-.56.53-.51.77.21s.42.72.55.32a.65.65,0,0,1,1-.21c1.72,1,17-16.81,15.31-17.47-.46-.18-.37-.25.29-.21,1,.06,2-1.25,1.25-1.52-.57-.19.73-1.3.82-.61s1.22-.24,1.37-1.34c.11-.81.17-.87.28-.27.08.44.34.61.6.39C556,998.19,555.11,995.48,554.33,995.22Zm-9.73,10.4c.19-1-.13-2.23.67-1.26C546.34,1005.67,543.88,1006.22,544.6,1005.62Zm3.84-6c.86,1-.29-.94-2.83,1.81s-7.59,7.57-7.69,8.36-.89-.51-1.53.89c-1.11,2.43-3.28,1.7-3.67-1.24a11,11,0,0,0-2.11-4.92c-.69-.59-.06-2.17.09-1.17,0,.38.2.65.31.56.38-.32-6.9-21.76-1.11-14.74.9,1.08,4.61,1.29,5,1.76.14.17.47-.07.79-.55.43-.67.49-.65.3.11-.4,1.51.33.52,4.64,2.29,8,3.27,7.56.69,7.57,2.26,0,1,.38,1.06,1.11.23.49-.56,1.55,2,1.37.2-.09-.86,0-.89.49-.26C552.72,997.09,547.67,998.69,548.44,999.62Z"/><path class="cls-1" d="M466.29,959.87c-.46.39-2.68-3-2.78-4.31-.07-.93-2.07-.73-2.13-2.39-.13-3-3.46-3.32-3.33-4.28.34-2.54-2.19-2-2.47-3.72s-1.3-.57-1.46-2.06c-.43-4.09-5.67-7.24-6.26-8-1.27-1.67-5.8-.32-4.67,1.4.16.24-.15.44-.7.46-.82,0-.84.11-.15.55s.7.52-.17.55c-1.66.05.2,1.31-1.23,1.9-1.15.47.17.27-1.25,3.12s-.09,3-1.23,3.51c-.76.31-.77.46-.1,1.26.54.64.56.79.07.51-1.19-.66-.22,2.39-1.13,2.41-1.11,0-.14,6-1.51,5.24-1.15-.64-.09,3-1.09,3-.31,0-.38.23-.17.55a.34.34,0,0,1-.29.56c-1,0,.25,2.33-.51,1.9s-.65.69.14,1.17c.41.24.37.54-.11.9s-.54.61,0,.79c1.34.49.07,2.55,1.64,1.92,1.39-.55-.11.69.77,1.18.31.18.55-.12.53-.67,0-.71.11-.79.46-.28.69,1,5.29.71,6.81,1.27.66.24,1,.12.95-.38s.15-.52.4-.21c1.75,2.17,3.9-2.21,3.93-.93,0,.67,4.58,0,4.82-.75a.42.42,0,0,1,.68-.2c.92.53,9.85-3.09,10.52-3.65s.68-.71.23-.48-.46,0,.24-.93C466.28,960.07,466.55,959.64,466.29,959.87Zm-28.91-2.44c-.13,0-1.07-1.14.14-.25.5.37,1,.5,1.24.29C439.39,956.8,439.35,959.77,437.38,957.43Zm10.5-17.58c0-1.2.82-1.48.95-.3C449.06,941.68,447.35,939.86,447.88,939.85Zm-.57,27c-.46-.72.8-.75.82,0C448.17,968,447.18,966.87,447.31,966.86Zm.77-1.63c0-.66,1.05-1.52,1.09-.36C449.22,966.55,447.66,965.24,448.08,965.23Zm12.82-4.65c-.78-.59-2.59-.62-2.57-.06,0,.39-6.39.26-5.76,1.21.52.79-13.51.24-11.58.18-1.81-.57-.62-1.37-.6-2.88,0-1,1.82.59,1.18-3.58-.14-.93,0-1.34.45-1.19.83.29,1.37-1.93.59-2.39s3.48-2.78,1.54-5c-1.29-1.5.45.58,1.5-1,1.31-1.92.56.8,2.21.76.95,0,.75.62.85,1.5.15,1.33,3.06,2.34,7.11,6.18s4.74,3.08,4.52,3.12C459.72,958,463,962.14,460.9,960.58Zm3.24-1.15c-1.55.68-1.61-.07-1.47-.07C462.62,957.77,466,958.61,464.14,959.43Z"/><path class="cls-1" d="M460.34,957.43c.12,0,.09-.08,0,0Z"/><path class="cls-1" d="M344.18,1019c1.22.72,2.92-4.86.92-4.82-1.54,0,1.51-.86-3.13-3.4-4.22-2.31-3.39-.62-4.28-1.74-.34-.43-.72-.36-1.06.2-.51.81-.53.8-.37-.25.27-1.69-3.24-3.25-3.51-2.81-.15.27-.36.08-.49-.45-.29-1.12-2.48-2.47-2.46-1.51s-.34-.46-1.71-1.27c-.38.09-19.84-6.84-20.52-5.69-1,1.75-4.13-5.31-3.29,13.19.22,5,1.88,4,.53,4.5s.4,19.08,1.93,20c.66.39.67,2,.19,1.13s-2,.57.81.72c.92,0,1,.17.52.57-1.23,1,1.8,1.45,3.19.49,3.24-2.22,4.47-2.56,3.62-3.06s3.42-1,3.63-2c.23-1.24.75.44,1.79-.69,1.2-1.29,4.13-1.24,3.4-2.08s0-1.6.4-.8,2.63-.14,2.83-1.1c.08-.4.34-.49.63-.23.7.64.72-1,1.47-.56,1,.63-1-.58,4.18-2.13s2.7-2.4,4.27-2.13c1.25.2,1.05-1.11,3.93-2.35C344.88,1019.27,343.23,1018.43,344.18,1019Zm-38.67-7c0,.86-1.08.22-.7-.41C305.42,1010.54,305.63,1012.06,305.51,1012Zm29.6-4c.74.39.59.67.47.6C335,1008.72,333.78,1007.29,335.11,1008Zm-15,23.18c-.91.73-1.08-.09-.24-.52C321.37,1029.86,320.23,1031.23,320.11,1031.16Zm13.25-11.36c0,.93.37-.82-2.59.78-3.27,1.77-2.35.21-4.56,1.91-2.93,2.26-5.15,1.3-4.87,3.09.23,1.42-.26,0-1,.59s-2.95.23-3.15,1.4-1.86.07-2.07,1.35c-.37,2.19-1.11-1.74-2-2.24-.45-.27-1.62-19.4-3.52-19.43-.38,0-.44-.09-.13-.18.68-.21.44-2.07-.26-2.06s-1.35-1.44,1.72.16c11.52,6,19.76,5.48,19,6.76-.4.68,2.37.33,2.43,1.18s2.89,2.7,3.24,2.11c.17-.28.45-.26.61,0,.48.89,2.72-1.63,2.33.68C339.36,1016.4,333.38,1018.8,333.36,1019.8Z"/><path class="cls-1" d="M423.28,1054.42c-.44,1.19-1.4.32-.95,1.09s-.68,1.34-.66.48c.07-3.11-3.64,7.08-2.42,7.75.44.25.46.38.05.37-3.58-.09.15,20.12,2.34,24.52.45.9,1.34,2.79,1.08,3.77-.45,1.69,3.32,4.4,4.34,3.12.3-.37.51-.37.51,0,0,1.47,2.61-.73,7.19-3.39,1.61-1.36.92-2.77,1.48-1.81,1,1.71,18.75-14.78,19-14.65.92.49,3.9-2.52,3.38-3.42C455.85,1067.53,424.25,1051.75,423.28,1054.42Zm4,1.46c0,1.4-.82.48-.7.41C426.21,1055.66,427.3,1055,427.28,1055.88Zm6.79,32.07c.12-.57,1.69.54,1.67,1.18C435.72,1090.12,433.8,1088.11,434.07,1088Zm16.18-14c-.28-.93-1.38-.43-.76.16s-.51-.19-1,1.15c-.33.89-.37.85-.42-.39-.08-2.25-2.45.06-2,.3.25.14.16.44-.22.66-1,.6-.86-.57-1.65-.12-.28.17-.3.4,0,.53.54.29-1.47,1.38-2.5,1.35-.47,0-.59.32-.32.86s.19.68-.13.43c-.78-.61-1.71-.06-.78.45,1.31.72-1.18-.46-2.37.87-1,1.17-5.19,3.74-8.43,6.1-3.49,2.54-.38-.14-2.24-2.34-1.3-1.52.14-.51-.08-1.94-.1-.57-.29-.65-.54-.22s-.27,0-.09-1,.12-1.33-.17-.85-.41.37-.22-.63c.39-2-1.1-3.34-.38-3.76s-1.93-2.41-.88-2.39c.9,0-.12-2.08.6-2.5s-1.4-1.72-.46-2.26c.68-.39,1-3.54.43-4.48s.92-1.36,2.11-.4c1.6,1.29,3.15,0,3.86,1.22s.76.15,2.32,1.28,3.75.32,4,.86c.52,1.09.8,1.3,1.06.8.18-.34.44-.34.63,0,.47.8,6.61,3.08,6.77,2.51.06-.26.25-.21.44.12,1,1.73,4.22,1.67,4.43,3C451.48,1075.09,449.93,1074.19,450.25,1074Z"/><path class="cls-1" d="M691.12,1164.25c-.22-.82,1.24.41.77-1.36-.27-1-.38-1.05-.67-.28-.66,1.8.63-1.18-2.08-2.61-1-.52-1.67-1.12-1.54-1.34,1-1.66-6.42-5.81-6-5.91.81-.22-4.37-4.08-4.84-5.21-.64-1.53-1.37-2.24-1.82-1.78-.25.26-.41,0-.35-.47.12-1.29-1.78-1.89-2.42-3.26-1-2.06-4.47.6-5.49-1.2-.53-.93-2.33-.89-2.08.05a.67.67,0,0,1-.55.71c-4.66,1.24-7.44,21.76-8.18,22-1.1.29,1.61.83.11,2.23-1.3,1.22-.73,2-.13,1.39s.25.93-.46.71-1.92,3.31-1.63,4.93c.14.76,0,1.37-.31,1.39-.78,0,.22,2.14-.75,2.2a.5.5,0,1,0,.12,1c.66-.18,1.15,1.05,0,.93-1.81-.19-1.15,3,.92,4.47,1.1.78,1.31.81.86.11-1-1.64.44.45,4.58-.65,3.69-1,2.06-2,2.89-1.36.57.47,7.94-1.08,7.19-2.17-.13,0,8.77-1,6.89-2.37-.81-.6-.76-.61.4-.08,2.31,1.07,4.91-2,7.46-2.66.27-.07.25-.49-.06-1s-.31-.66.08-.33c1.6,1.34,2.75-1.77,3.59-.65.65.87.66-.56,1.73-.94,2.06-.74,2.31-.89,1.91-1.1s0-.73.42-1.3c1.16-1.4-.21-2.19.53-2.79C693.19,1164.67,691.37,1165.2,691.12,1164.25Zm-21.41-21.83c-.29,1-1.08.29-1,.25C668.25,1142.16,669.91,1141.72,669.71,1142.42Zm10.16,26.94c.74,1-3.32.56-2.82.43-.65-.25-11.65,3.88-12,2.89-.25-.68.47.51-2.76,1.11-6,1.1,3.27-13,1.13-16-.62-.85-.63-1.1,0-1s1.22-1.9.75-3c-.1-.25.07-.34.44-.23.71.2,2.8-10.08,4-5.1.6,2.61,2.64,3.84,3,4.67.83,2.1,2.39,0,2,1.12-.53,1.85,5.37,5.4,5.8,4.9.13-.15.15-.1.06.13-.24.61,4.12,3.69,4.56,3.23s.39,1,2.26,2.36C691.69,1169,678.54,1167.53,679.87,1169.36Zm10.17.35c-.5,1.62-.68-.16-.55-.19C689.61,1168.36,690.31,1168.82,690,1169.71Zm1.23-2.45c-.42-.24-.83-.79-.6-.85C691,1166,692.59,1168,691.27,1167.26Z"/><path class="cls-1" d="M572.81,1115.06c-.35-.53-.47-1-.28-.94.74.09-1.09-2,.19-2.34.85-.22,1.91-2.36,1.21-2.44s.9-2.54-.24-2c-.82.38-.93-.72.44-.91,1-.13,1-.14,0-.3-1.25-.22-1-2.53-.27-1.19.79,1.55,2.22-11.55,1.21-11.07-.65.31.7-6.27.2-6.06s-2.38-1.12-.93-1c1.25.15.81-4.79.58-4.61-.47.38-1.63-1.56-1.23-2.06,1-1.29-6,.42-6.54.35-.41,0-.38.15.07.53s.24.53-1,.35-6.45,1.41-6,2.27c.12.25-.19.25-.66,0s-.78-.24-.53.3.17.61-.25.28c-.64-.51-4.58,1.14-4.68,2,0,.4-5.08.58-4.76,2,.15.71-1.31-.23-7.2,4-4.5,3.23-2,5.21-2.05,5.34-.34,1.17,0,1.7,1.51,2.19,3,1,15.57,13,18.08,12.54.85-.16.89-.1.19.27s-.46.71,1.19,1.64c5.74,3.22,2.59,3.52,5.07,4.44,2.29.85,2.13,2.27,2.26,1.17,0-.39.62-.62,1.32-.54,1.25.15,3-1.49,2.62-2.39S573.86,1116.71,572.81,1115.06Zm2.17-16.27c-.23.18-1.06.07-1-.06C573,1098.21,575.44,1098.42,575,1098.79Zm-7.92-15.8c.86.68.13,1.75.17,1.38C567,1084.34,566.36,1082.44,567.06,1083Zm-15.42,9.77c1.11.85-.11,1-.09.81C550.82,1093.49,551,1092.24,551.64,1092.76Zm-.44,13.42c-.67-.08-.73-.44.09-.82C552.55,1104.79,551.13,1106.8,551.2,1106.18Zm10.36,5.58c-.64-1.23-.45-2.18.12-1.08C562.73,1112.73,561.5,1112.29,561.56,1111.76Zm8.34-24.33c.92.1-2,6.76-.54,6.12.36-.16.2.27-.37,1-1.34,1.66-2.08,5.5-1,5,.62-.28.61-.2-.08.5s-.71.85-.11.92.54.19.15.4c-.94.51-1.51,4-.58,3.61.53-.25.5-.1-.09.49-1.77,1.78,1.52,1.78-1.06,3.73-.78.59-1.16.74-.86.34s.27-.65-.53-.44c-1.36.34,0-.07-.84-1-1.86-2.13-5.91-3.68-6.44-4.27-1.94-2.21-6.86-5.73-7.47-5.34-.42.26-.58.06-.45-.59.27-1.36,5.59-5.31,5-4.53-1.28,1.68,15.38-8.52,15.61-8.63C569.68,1086.33,569.26,1087.36,569.9,1087.43Z"/><path class="cls-1" d="M579.85,1265.41c-.25,0-.22.16,0,0Z"/><path class="cls-1" d="M607.16,1264.31c.36,1.79-7.27-11.39-12.16-12.24-.5-.09-1.24-2.55-2.29-2.86-.72-.21-8.92-7.27-9.88-6.85-.52.22-.85.11-1-.35-.56-2-3.29,0-1-.09.8,0,.82,0,.11.29-3,1-1.21-4.37-4.15,5.55.51-.12-3.86,17.26-3.34,19.75.2,1,.14,1.14-.26.72s-.46-.28-.26.69c.34,1.66-.84,3.45.74,7.66.34.9.68,1.23.8.8s.28-.52.43,0c.33,1.22,2,.06,5.86.51,2.92.35,2.82-1.27,3.67-.59.6.47,2.9-.41,1.89-1.55-1.21-1.36,2.66,1.82,8.13-1.3,6.36-3.63,8.92-1.63,7.61-4.18-.38-.74-.29-.73.55.07.67.64,1.06.77,1.17.4.23-.78,1.4.21,2.38-.86C609.08,1266.79,606.69,1262,607.16,1264.31Zm-30.65.62c-.52-1.77.26-.93.22-.8C577.29,1264.74,576.9,1266.24,576.51,1264.93Zm3.45,10.53c.5-.68.89-.59.85-.46C581.09,1275.47,579,1276.78,580,1275.46Zm8-5.83c-.36-.66-.06.9-1.91,1.54-1.66.58-.83,1.89-1.24,1.22s-2.77.39-2.6,1c.07.23-.41.31-1.05.17-1.57-.35-1.67.79-2.47.55-1.17-.34,2.86-8.27,1.53-8.66s1.23,2.46,3.79-14.83a31.13,31.13,0,0,1,3.57,2.76c2.12,2.65,2.54-.06,4.21,2.7,1.83,3,3.22,2,3,2.85-.13.42,2.19,2.59,2.81,2.63s-1.29,1,2.06,1.89a15.14,15.14,0,0,1-4.61,2.48C593.05,1266.4,588.28,1270.19,588,1269.63Zm11.49,2.37c-1.35.35.41-1.39.23-.78C600.35,1271.41,600.34,1271.77,599.47,1272Z"/><path class="cls-1" d="M374.55,1145.79c1,0,0-1.8-.51-3.07-1.33-3.31-3.49-2.07-4.24-4.24-.22-.68-.68-1.07-1-.88s-.62.13-.63-.12c0-.79-1.54-2.49-2.06-2.33-.31.1-.46-.08-.37-.45s-.12-.54-.43-.44-1-.42-1.61-1.21c-1.52-2-1.66-.06-2.06-1.32-.16-.53-6.34-6.6-7-5.84-.51.6-1.38-1.86-2-1.1-.28.33-.42.16-.38-.48s-.13-.84-.6-.47c-1.4,1.11-1.38-3.06-3.22-3-.64,0-.6.09.17.37,2,.72-2-.27-3.13,2.43-1.76,4.11.76,4.66-.33,5-.83.26.63.92-.29,2.18-.53.74-.47,1,.45,1.58s1,.69,0,.34c-1.3-.48-1.83.27-.7,1s.53,1.65-.32,1c-1.43-1.17,0,4.66-.42,5-1,.81.41,2.88-.62,3.66-.51.38-.49.68.07,1s.57.55-.12.7c-1.1.25-1.79,4.33-.43,3.43,1.19-.79-1.33,1.52-.68,1.85s-2.94,6.21-1.84,9.66c.53,1.67.82,2,1.34,1.61,1.61-1.27-1.85,5.19,13.23-2.63-.29.09,13.58-7.78,13.63-7.61.2.61,1.5-2.5,1.81-1.55s2-1.71,3.88-2.31S373.74,1145.77,374.55,1145.79Zm-29.76,4.07c-.79.29-.89,0-.76,0C344.3,1149.29,346.19,1149.33,344.79,1149.86Zm21-10.3c-.09-.3.71-1.38.95-.64C367.08,1139.91,365.5,1139.67,365.82,1139.56Zm-19.5-5.51c-.19-.59,1.41-1.09,1.25-.4C347.29,1134.86,346,1134.14,346.32,1134.05ZM365,1146.68c-3,1.13-2,2.64-2.9,1.83-.63-.54-3.64.31-3.43,1,.07.22-.23.53-.65.67-1.18.37-.61-.8-2,0-.58.36-.72.88-.38,1.35s.36.61-.36,0c-1.11-.89-1.59.13-1.46.09-.43.66-.58.7-.73.23-.28-.88-5.34,2.41-5.45,2.54-2.85,3.34,2.06-12.13.89-13.67-.28-.37-.21-.58.17-.48,1,.25,1.47-6,1.14-7.56-.14-.68,1.46-.91,1.71-.25.12.34.3.08.39-.58.15-1.06.21-1,.48.19s3.86,4.42,5.12,4.54c.72.08.86,1.88,1.22,1.25s9.55,6.31,10.66,5.53C370.06,1143,371.18,1144.38,365,1146.68Z"/><path class="cls-1" d="M494,1178.62c-.33,0-.46-.19-.3-.52s-.22-.53-.87-.47c-1.68.17-.3-1-1-1.06-4.72-.2-18.74,2.2-22.5,5.28-1.69,1.38-.6-1.17-4.51,1.32-1.18.74-2-.41-1.27.56.37.53.26.66-.42.48-1.33-.34-.54,1-1.34.6-1.52-.73-1.29,5.48-.64,5,.27-.21.39,0,.27.44-.32,1.16,1.09,1.17.76,1.93s2.61,1.94,1.65,2,1.79,2.25,1.9,3.41,1.93.93,1.59,1.63,1.31,2.25,2.06,2c.39-.14,1,.5,1.32,1.46,1.05,2.82,3.78,3.12,3.21,3.88-.42.55,1,0,.89,1s1.22-.1,1.35,1.26c.12,1.15,4.05,4.51,4.56,3.9.19-.24.68,0,1.14.46,2.1,2.32,4.41-4.32,3.62-4.5-.64-.14-.33-1.78.68-1.46,3.36,1,8-24.74,8.31-24.77C495.12,1182.35,494.79,1178.54,494,1178.62Zm-27,18.22c-1-.27-1.17-.66-.4-.73S468.25,1197.18,467.07,1196.84Zm16,15.48c0,.3-1,1.22-1.05.43C481.92,1211.72,483.42,1212.28,483.07,1212.32Zm5.3-26.74c-.56-.24-1.67,3.63-1.39,4.87.15.66-1.44,1.89-1.42,2.88.07,2.9-1.33,4.86-.06,4,1-.69-2.27,3.24-1.82,3.19,1.15-.11-4.75,5.87-3.41,3.14.39-.8-1.63-.71-1.22-1.59s-.84-.16-.94-1.17-2.11-2.54-2.5-2.06-3-2.06-.79-.74c1.05.63,1.09.62.34-.15-1.07-1.11-2.94-1.15-3-1.79-.08-.82-2.05-2.52-2.51-2.17-.25.19-.38.14-.33-.13.17-.84-2.15-3.28-2.71-2.85-.34.25-.47.06-.32-.51.33-1.31-1.13-.6-.62-1.23s4.18,0,4.06-1.19c-.06-.6,0-.6.49,0s.66.49.86.09c.47-1,2.42.28,1.6-.76s1.48,0,2.73-.14c1.86-.2,11.76-3,13.15-1.72C488.69,1185.45,488.88,1185.81,488.37,1185.58Z"/><path class="cls-22" d="M1303.43,617.29c-23.63,7.93-33.19,24.24-38.78,56.68s-10.06,89.1-10.06,133.47,4.1,118.19,4.1,118.19-11.93,13-3.73,16,11.93-4.84,11.93-4.84a5.57,5.57,0,0,0,6.34,5.59c6.34-.37,8.2-7.46,8.2-7.46s-1.49,5.6,6,6.71,11.55-7.08,11.55-7.08.1,6.8,6.81,6.8,9.37-4.19,9.37-4.19,2.19,4.43,9.64,4a8.67,8.67,0,0,0,8.48-7s-.28,6.71,7.18,6.34,8.11-3,9.23-7.46a8.44,8.44,0,0,0,7.46,6.34c6.33.74,7.83-2.61,7.83-2.61a8.58,8.58,0,0,0,7.45,3.73,15.27,15.27,0,0,0,8.2-3.36S1381,942,1391,942s70.47-1.12,77.93,0,31.13,15.84,23.86,51.08-33.56,47.35-53.69,49.58-46.42-6-64.87-4.28-30.2,15.65-20.14,30.75,49.78,18.46,81.1,17.9,61.7-13,81.65-42.5c20.65-30.5,25.16-60.4,18.08-88.37-7-27.6-33.18-54.24-58.91-58.16,0,0,1.12-48.09-26.84-88.92s-55.37-71-63.2-98.43-15.94-56.48-31-75.5S1317.6,612.54,1303.43,617.29Z"/><path class="cls-22" d="M1275.56,637.43c-6.43-10.35-8.67-37.19-3.92-39.71s28.53,19.85,28.53,19.85"/><path class="cls-22" d="M1332.32,617.29c4.2-6.15,19.58-21.81,24.89-21.25s6.15,33,3.63,46.14"/><path class="cls-20" d="M1311.15,646.93c0,2.58-1,3.89-2.88,3.89s-2.87-1.31-2.87-3.89,1-3.88,2.87-3.88S1311.15,644.36,1311.15,646.93Z"/><path class="cls-20" d="M1277.41,646c0,2.57-1,3.88-2.88,3.88s-2.87-1.31-2.87-3.88,1-3.88,2.87-3.88S1277.41,643.43,1277.41,646Z"/><path class="cls-23" d="M1290.33,645.74c2.85,0,4.3,1.14,4.3,3.39s-1.45,3.39-4.3,3.39-4.3-1.15-4.3-3.39S1287.48,645.74,1290.33,645.74Z"/><path class="cls-24" d="M1290.19,652.53c-.37,8.57-.56,13.42-.37,18.45"/><path class="cls-24" d="M1280.31,667.63c2.24,3.35,11.75,7.83,19.2.74"/><line class="cls-22" x1="1321.14" y1="658.68" x2="1335.49" y2="655.32"/><line class="cls-22" x1="1321.7" y1="667.81" x2="1336.61" y2="670.61"/><line class="cls-22" x1="1319.46" y1="677.32" x2="1331.76" y2="684.03"/><line class="cls-22" x1="1258.31" y1="647.31" x2="1268.57" y2="651.6"/><line class="cls-22" x1="1252.53" y1="659.24" x2="1266.52" y2="660.73"/><line class="cls-22" x1="1252.53" y1="670.42" x2="1264.28" y2="670.24"/><path class="cls-22" d="M1349.66,933.09c0-23.86-1.12-111.48-1.86-124.16"/><path class="cls-22" d="M1300.07,811.54c1.12,16.78,1.87,113.35-1.12,123"/><path class="cls-22" d="M1397,805.2c-14.54.38-41.76,19.77-42.5,46.61s26.84,52.57,26.84,52.57-28,7.08-31.32,21.25"/><path class="cls-22" d="M1365,936.82c-3.73-4.1-2.61-13.43,6-19"/><path class="cls-22" d="M1380.6,937.19c-3-6.71,1.5-16,10.07-18.27"/><path class="cls-22" d="M1266.89,936.82a24.09,24.09,0,0,1,6-14.17"/><path class="cls-22" d="M1281.43,935c.37-4.84,5.59-11.18,5.59-11.18"/><path class="cls-22" d="M1314.71,936.35a12.69,12.69,0,0,1,1.53-12.16"/><path class="cls-22" d="M1333.3,934.39a13.33,13.33,0,0,1,2.1-10.06"/><path class="cls-22" d="M1476.05,898c-.74,13.05-3.73,36.91-7.08,44"/><path class="cls-22" d="M1396.26,1040.84c-4.1,12.68-6.71,30.94-3,44"/><path class="cls-22" d="M1426.84,1043.45c-2.24,11.56-2.24,33.18,3,43.25"/><path class="cls-22" d="M1454.05,1039.35c-2.61,13.42,4.85,35.79,11.56,42.5"/><path class="cls-22" d="M1474.93,1027.42c2.24,15.28,16.41,30.2,27.59,33.18"/><path class="cls-22" d="M1487.61,1009.15c9.69,12.67,31,18.27,38.4,20.5"/><path class="cls-22" d="M1495.07,982.68c16,6.71,34.67,6,42.87,3.72"/><path class="cls-22" d="M1487.24,955.83c14.91-3.35,32.81-14.91,36.16-24.61"/><path class="cls-25" d="M664.85,190.86c3.35-14.82,5-37.93,1.12-44.18s-9.32-11.43-8.54-16.38,4.42-10.15,5-15.36-1.83-13.53-9.11-14-13,2.94-14.58,10.93c-1.3,6.77,3.38,12.75-.52,19s-16.38,9.71-23.38,24.25c-6,12.41-10.9,36.07-10.9,36.07"/><path class="cls-24" d="M365.36,193.1c.7-9.81,4.56-41.35,2.1-47.66s-22.78-26.29-23.83-57.84,2.89-42.51,9.55-45.3c8.15-3.42,9.38,2.89,9.38,12.36A215,215,0,0,0,364.22,77s1.84-22.69,3.24-32.51S374.52,31.11,379,31.87c5.7,1,9.11,4.56,7.36,17.88s-1.93,22-.88,27.25c0,0,4.39-21.64,6.84-32.51s7.36-15.07,12.27-14.37,7.71,5.26,5.25,18.23-4.55,23.83-4.55,29.09c0,0,6.82-18.9,10.51-27.69,4.12-9.82,10.87-8.94,14.37-7.19s4.47,7.63.79,18.67c-3.39,10.17-5,12.88-7.1,24.45-2,11,3.42,17.08,3.42,17.08a32.61,32.61,0,0,0,6.05-13.67c1.31-8.41,6.22-14.63,13.93-15s5.35,14.11,3.94,22.87-2.8,23.92-7,36.54-7.36,15.77-8.76,23.48-3.85,35.75-3.85,35.75"/><rect class="cls-15" x="343" y="193.38" width="361.28" height="27.96"/><polygon class="cls-11" points="574.53 193 457.83 193 483.06 52.44 599.75 52.44 574.53 193"/><polyline class="cls-11" points="599.51 52.82 608.75 61.84 585.19 193.12"/><polygon class="cls-11" points="675.79 193 593.17 193 614.79 78.31 697.42 78.31 675.79 193"/><polyline class="cls-11" points="697.32 78.54 705.04 86.81 685.26 193.13"/><path class="cls-13" d="M493.62,87.12c3,10.44,11.56,12.67,14.92,21.62s-3.36,27.59,2.23,42.13,16.41,25,16.41,25"/><path class="cls-14" d="M517.48,69.22c3.73,4.1,1.87,14.54,10.07,23.12s17.46,14.81,24.61,26.47,11.56,31.32,11.56,31.32"/><path class="cls-22" d="M510,83.39a48.6,48.6,0,0,0,13.05,26.84c8.2,8.58,17.15,24.24,17.89,35.05"/><path class="cls-22" d="M543.58,69.22c2.61,13.42,10.44,17.53,15.29,23.49s.74,12.68,10.44,25.35"/><polygon class="cls-24" points="559.19 176.91 476.53 176.91 496.71 68.54 579.37 68.54 559.19 176.91"/><path class="cls-14" d="M1094.23,91.84q5.89,7.05,5.88,18.36c0,19.81-13.78,29.87-40.74,29.81s-40.66-10.16-40.62-30q0-12.19,6.94-19.44"/><polyline class="cls-14" points="1018.75 110.03 1025.83 192.45 1093.03 192.45 1100.11 110.2"/><path class="cls-11" d="M1080.15,124.62q-6.78,5.37-20.76,5.35c-11.15,0-18.89-2.63-23.13-7.78-2.57-3.12-8-25.28-10.52-34.8a233.51,233.51,0,0,1-5.48-27.68c-3.36-24.32-4.17-40.8-.84-41.66,7.55-2,29.36,51.73,29.36,51.73s7.27-63.29,16.22-64,12,60.4,12,60.4,22.46-35.7,31.41-33.47c6.15,1.54-6.53,37.56-15.07,59.94C1089.47,102.81,1084.32,121.31,1080.15,124.62Z"/><path class="cls-11" d="M1048.78,69.78c-2.52,26.29-4.2,48.66-4.2,57.32"/><path class="cls-11" d="M1077,66.15c1.12,14.82,1.12,53.13,1.12,58.72"/><rect class="cls-15" x="881" y="193.38" width="250.34" height="27.96"/><path class="cls-26" d="M1290.41,271.6c-14.48-16.08.52-29.58-14-45.67s-29.48-2.58-44-18.66.52-29.59-14-45.67-29.48-2.58-44-18.67.52-29.59-14-45.68"/><line class="cls-6" x1="1356.37" y1="540.12" x2="1415.65" y2="533.41"/><line class="cls-6" x1="743.42" y1="68.1" x2="755.73" y2="117.32"/><line class="cls-27" x1="869.82" y1="62.51" x2="857.51" y2="108.37"/><line class="cls-27" x1="158.44" y1="176.6" x2="183.05" y2="214.63"/><line class="cls-7" x1="307.2" y1="99.42" x2="320.63" y2="143.04"/><line class="cls-28" x1="71.2" y1="409.25" x2="101.4" y2="426.03"/><circle class="cls-5" cx="1264.37" cy="1061.62" r="17.62"/><line class="cls-29" x1="1211.52" y1="1137.96" x2="1253.47" y2="1164.81"/><path class="cls-9" d="M21.25,1235.44c12.1-28.24,61.18-118.17,84-145.06s57.82-35,76-33,49.08-48.41,55.8-44.37,33.62,40.34,15.46,63.87-90.09,24.2-94.8,37.65,15.47,25.55,40.34,17.48,51.77-29.58,59.17-22.86-8.07,31.6-28.24,50.43-32.94,53.45-38.32,75"/><path class="cls-9" d="M93,1102.49C84.09,1088.76,73.79,1074,73.79,1074S45.06,1107.87,39,1103.54s3.08-36.34,14.37-49.69,26.19-13.11,38.94-6.81c10.66,5.28,32.48,24.85,32.48,24.85"/><path class="cls-20" d="M154.47,1080c1.69,3.47,1.24,5.87-1.33,7.12s-4.74.13-6.43-3.34-1.24-5.87,1.33-7.12S152.78,1076.53,154.47,1080Z"/><path class="cls-9" d="M213.87,1035.25c7.32,5.54,27.74,10.84,41.61,5"/><path class="cls-9" d="M212.87,1096.51c2.77,5.8,8.57,15.13,13.36,12.36s2.27-17.9,2.27-17.9"/><path class="cls-9" d="M240.85,1086.93c5.3,8.57,9.58,14.12,13.62,10.84s-2.27-18.65-2.27-18.65"/><path class="cls-9" d="M75.16,1041.74c5.5-6.52,13.73-12,24.38-6.52s37.35,31,37.35,31"/><path class="cls-9" d="M94.87,1125a112.9,112.9,0,0,0-11.6,16.64"/><path class="cls-9" d="M127.65,1121a140.5,140.5,0,0,0-9.58,15.13"/><path class="cls-9" d="M138.74,1160.81c-4.54,6-8.57,15.63-8.57,15.63"/><path class="cls-9" d="M99.91,1168.37c-3.53,4-7.06,16.14-7.06,16.14"/><path class="cls-9" d="M74.7,1181s-4,6.55-7.06,12.6"/><path class="cls-9" d="M111,1203.16c-4,4.54-7.06,11.1-8.58,14.12"/><path class="cls-9" d="M67.64,1215.27c-3.53,5.54-6.56,10.08-6.56,10.08"/><path class="cls-9" d="M164.46,1175.43c-2.52,5.55-5.05,12.1-5.05,12.1"/><path class="cls-9" d="M139.75,1212.24a119.62,119.62,0,0,0-6.56,10.59"/><path class="cls-9" d="M202.28,1155.26c-2,4.54-7.57,14.12-7.57,14.12"/><path class="cls-9" d="M161.43,1148.54a55.72,55.72,0,0,1-6.55,9.74"/><path class="cls-9" d="M127.81,1086.68c-6,2.52-10.25,9.08-10.25,9.08"/><path class="cls-9" d="M211.86,1059c-3,3-16.14,6.55-16.14,6.55"/><path class="cls-9" d="M239.09,1057.94c0,5-4.54,9.07-6.56,10.59"/><path class="cls-9" d="M200.09,1080.63c-7.06,3.36-17.48,4.54-17.48,4.54"/><path class="cls-9" d="M168.88,1225.39a60.79,60.79,0,0,0-6.71,19.39"/></g></g></svg>