<svg xmlns="http://www.w3.org/2000/svg" xmlns:xlink="http://www.w3.org/1999/xlink" viewBox="0 0 935.51 759.99"><defs><linearGradient id="linear-gradient" x1="523.8" y1="138.63" x2="523.8" y2="291.61" gradientUnits="userSpaceOnUse"><stop offset="0" stop-color="gray"/><stop offset="1"/></linearGradient><linearGradient id="linear-gradient-2" x1="523.8" y1="138.82" x2="523.8" y2="291.42" xlink:href="#linear-gradient"/><style>.cls-2{fill:#cbf4e1}.cls-4{fill:#ffb14c}.cls-5{fill:#462f72}.cls-6{fill:#28121f}.cls-7{fill:#e87323}.cls-8{fill:#fc5649}.cls-9{fill:#fffeeb}.cls-10{fill:#ffa194}.cls-11{fill:#db5349}.cls-12{fill:#f4756e}.cls-13{fill:#3180b5}.cls-14{opacity:.5;mix-blend-mode:soft-light}.cls-17{fill:#8fd8b0}</style></defs><g style="isolation:isolate"><g id="Layer_2" data-name="Layer 2"><g id="_Layer_" data-name="&lt;Layer&gt;"><path class="cls-2" d="M734.69 278.08c-55-20.61-102.81-11.83-138.22 3.48-37.17-91-110.24-198.15-255.21-157.11-151.11 42.77-188.19 168.18-188.19 287 0 0-87.31 79.11-21.9 195.88 35 62.4 101 74.31 136.65 75.07 368.42 7.91 463.37 15.28 533.13-70.22 75.58-92.64 52.2-289.73-66.26-334.1Z"/><path d="M64.67 387.78h263.85a64.61 64.61 0 0 1 62 46.46l85.12 290.48H78.7l-76-254.14a64.62 64.62 0 0 1 61.97-82.8Z" style="fill:#70529e"/><path class="cls-4" d="M208.41 724.72h277.82l-18.08-62.92-259.74-.35v63.27z"/><path class="cls-5" d="M358 730.41H84.44a36.29 36.29 0 0 1 0-72.58H358a36.29 36.29 0 1 1 0 72.58Z"/><circle class="cls-6" cx="393.67" cy="360.14" r="40.23" transform="rotate(-35.52 393.678 360.143)"/><path class="cls-6" d="M399 400.52a43.1 43.1 0 1 1 10.61-1.33 43.26 43.26 0 0 1-10.61 1.33Zm.14-80.5a37.55 37.55 0 1 0 19.15 5.31 37.53 37.53 0 0 0-19.12-5.33ZM328.51 345.35a40.23 40.23 0 1 1-48.86-29.14 40.23 40.23 0 0 1 48.86 29.14Z"/><circle class="cls-6" cx="446.65" cy="399.17" r="54.27" transform="rotate(-10.75 446.87 399.318)"/><path class="cls-4" d="M440.6 400.16c34.73 35.53 84.5 68.12 134.31 59 39.57-7.22 69-56.38 74.06-109.12l102.72 5.14c4.71 104.94-.36 215.91-136.61 249.63-87.82 21.77-160.08-32.61-228.47-98.6Z"/><path class="cls-7" d="m386.61 506.21 54-106c16.39 16.79 36.2 32.89 57.76 44.28a264.56 264.56 0 0 1 7.9 31.46c10 52.95-5 93.18-5 93.18l2.8 24.34c-41.58-18.6-80.07-51.2-117.46-87.26Z"/><path class="cls-8" d="M680.26 565.92a79.42 79.42 0 0 1 5.15 7.7c-18.28 13.37-41.33 24-70.33 31.22a160.13 160.13 0 0 1-77.9.11 79.91 79.91 0 0 1 143.08-39Z"/><path class="cls-4" d="M220.9 399.17c-18.35 15.31-35.55 38.33-51.78 72.93-30.36 64.73-41.39 136-17.38 194.58 4.83 11.77 11.59 23.88 16.26 30.3 35.78 53.42 89.34 64.23 136.63 62.91 82.46-2.31 116-51.5 150.27-96.14l-2.25-1.82h15.5v-104.5s16.64-27.93 13.35-67.17c-5.86-69.93-52.25-105.46-71.26-112.37-7.44-2.71-28.09-9-63.89-9.05-47.38-.08-88.72-.3-125.45 30.33Z"/><path class="cls-7" d="M348.56 445.36c-19.3 0-40-3.73-61.6-11.08a250.86 250.86 0 0 1-51.71-24.55l-13.12-8.26a2.72 2.72 0 1 1 2.89-4.6l13.13 8.25a244.7 244.7 0 0 0 50.57 24c21 7.16 41.14 10.79 59.84 10.79a129.93 129.93 0 0 0 18.66-1.31c17.28-2.5 31.86-7.39 44.58-14.93 11.83-7 20.5-15.56 26.24-21.2l4.1-4a2.72 2.72 0 0 1 3.81 3.88l-4.1 4c-5.92 5.83-14.87 14.65-27.28 22C401.23 436.27 386 441.38 368 444a135 135 0 0 1-19.44 1.36Z"/><path class="cls-9" d="M430.79 390.26c-8-6.38-15.31-10.46-20.55-12.37-7.44-2.71-28.09-9-63.89-9.05-40.68-.07-76.92-.24-109.6 19.11l8.74 5.5a230.72 230.72 0 0 0 47.68 22.62c19.57 6.67 38.2 10.06 55.39 10.06a117 117 0 0 0 16.68-1.13c15.46-2.24 28.39-6.54 39.52-13.15 10.39-6.16 18-13.68 23.6-19.17Z"/><path class="cls-10" d="M410.24 377.89c-7.44-2.71-28.09-9-63.89-9.05-33.55 0-64.07-.18-92.07 10.63 28.74 18.07 72.5 34.39 108.59 29.15 29.46-4.27 41.81-15.84 53.91-27.74a51.58 51.58 0 0 0-6.54-2.99Z"/><path class="cls-6" d="M339.27 242.17c30.38 0 62.26 13 63.51 52.63.81 26.08-21.78 39.2-47.78 39.36h-.3a47.24 47.24 0 1 1-15.38-92Z"/><path class="cls-10" d="m360.61 376.42-.09-27.55c36.13-.18 40-15.33 38.26-45.68-.73-12.86-2.69-30.63-20.18-43.65-23.38-17.39-57-7-66.15 20.64l-.33 1c-5.51 17.68-7.23 33.84 3.57 45l.24 48.26Z"/><path class="cls-11" d="M339.55 352.53c2.88 4.52 9.14 11.88 21 15.93l-.06-19.59-18.84-.18a2.5 2.5 0 0 0-2.1 3.84Z"/><path class="cls-6" d="m292.26 287.57.16 30.68 41.62 30.44-.47-35.79-41.31-25.33z"/><path class="cls-11" d="M382.89 321.21a2.73 2.73 0 0 1-2.22-4.3l3-4.19a.19.19 0 0 0 0-.18.2.2 0 0 0-.14-.13l-3.25-.84a2.72 2.72 0 0 1-1.9-1.78 16.4 16.4 0 0 1 3.62-15.05 2.72 2.72 0 1 1 4.15 3.51 11.44 11.44 0 0 0-2.85 8.49l1.58.41a5.63 5.63 0 0 1 3.18 8.72l-3 4.2a2.71 2.71 0 0 1-2.17 1.14Z"/><path class="cls-6" d="M357.45 297.16c0-.05-4.67-2.78-4.67-2.78a8.53 8.53 0 0 1 14.2-.31l-4.57 2.93a3.08 3.08 0 0 0-2.42-1.16 3.12 3.12 0 0 0-2.54 1.32ZM384.1 299.21a2.72 2.72 0 0 1-2.35-4.08 8.52 8.52 0 0 1 14.2-.32l-4.57 2.95a3.11 3.11 0 0 0-4.92.1 2.72 2.72 0 0 1-2.36 1.35ZM284.8 372.51a31.91 31.91 0 1 0 22.51-39.11 31.91 31.91 0 0 0-22.51 39.11ZM383.92 305.32a2.73 2.73 0 1 0 2.26-3.13 2.73 2.73 0 0 0-2.26 3.13ZM357.22 305.46a2.73 2.73 0 1 0 2.25-3.14 2.73 2.73 0 0 0-2.25 3.14Z"/><path class="cls-12" d="M350.58 320.66a8.06 8.06 0 1 0 4.81-10.33 8.05 8.05 0 0 0-4.81 10.33ZM397.68 309.83a8.38 8.38 0 0 1 1.37-.36 85.49 85.49 0 0 1-.74 15.7 8.06 8.06 0 0 1-.63-15.34Z"/><path class="cls-9" d="M387.29 321.54H370.6a2 2 0 0 0-1.9 2.78c1.05 2.61 3.62 6.21 9.87 6.79 6.59.62 9.45-3.76 10.63-6.81a2 2 0 0 0-1.91-2.76Z"/><path class="cls-6" d="M336.29 249.2c16.76-5.74 27.43-1.89 31.12.09 25.21 13.55 30.27 34.31 30.27 34.31H394a2 2 0 0 1-1.95-1.48 33.54 33.54 0 0 0-11.12-16.65c3 3.38 5.68 11.37 6.92 15.52a2 2 0 0 1-1.94 2.61H358.1a2 2 0 0 1-2-1.93 54.71 54.71 0 0 0-4.1-17.62c.39 34.83-18.78 48-18.78 48s-29.87-2.83-29.56-13 16.18-44.22 32.63-49.85Z"/><path class="cls-10" d="M320.51 315.45a13.15 13.15 0 1 0 9.27-16.11 13.14 13.14 0 0 0-9.27 16.11Z"/><path class="cls-11" d="M325.42 314.13a8.06 8.06 0 1 0 5.69-9.88 8.06 8.06 0 0 0-5.69 9.88Z"/><path class="cls-9" d="M410.9 464.24a11.53 11.53 0 1 0 10.36-12.6 11.55 11.55 0 0 0-10.36 12.6ZM423.13 544.1a11.53 11.53 0 1 0 10.36-12.6 11.52 11.52 0 0 0-10.36 12.6Z"/><path class="cls-7" d="M399.11 598.61a3.15 3.15 0 0 1-.52-.05 2.72 2.72 0 0 1-2.16-3.18c7.79-40.72 1.19-80.3-5.72-106.32-7.5-28.29-17-47.15-17.09-47.34a2.72 2.72 0 0 1 4.85-2.46c.4.78 9.8 19.46 17.46 48.27a282.93 282.93 0 0 1 8.73 50.15 221.44 221.44 0 0 1-2.88 58.72 2.73 2.73 0 0 1-2.67 2.21Z"/><path class="cls-11" d="M468 532.91s20.95-13.57 33.77-21.72c16.54-10.53 25.14-10.56 30.64-1.75 5.63 9-2.08 23.73-24.22 38.51-20.13 13.44-35.67-7.78-35.67-7.78Z"/><path class="cls-10" d="M410.85 574c22.65-35.47 47.76-40.72 67.67-44.68s93.63 13.43 95.39 30.48-28.09 12.75-48.43 7.35c0 0 24.81 15.14 14 29.31-6.4 8.37-14.47 7.64-18.54 3.68 4.36 5.78 4.24 12.55.78 16.53-5.31 6.11-9.44 10-19.32 6.7 2.71 6-1.48 12.42-5.2 16.43-11.11 12-29.51 3.5-29.51 3.5s4.17 16-13.62 19.81L379.94 603Z"/><path class="cls-11" d="M526.88 569.89a2.68 2.68 0 0 1-1.73-.62c-.17-.14-16.52-13.6-25-16.61a2.72 2.72 0 0 1 1.82-5.13c9.38 3.34 25.93 17 26.63 17.55a2.72 2.72 0 0 1-1.73 4.81ZM473.92 635.61a2.72 2.72 0 0 1-2.31-1.29c-.06-.1-6.53-10.32-15.2-14a2.72 2.72 0 0 1 2.14-5c10.26 4.4 17.38 15.68 17.68 16.16a2.73 2.73 0 0 1-2.31 4.16ZM520.93 602.82a2.72 2.72 0 0 1-2.21-1.13c-.16-.22-16.6-22.81-34-29.24a2.72 2.72 0 1 1 1.89-5.1c18.95 7 35.81 30.18 36.51 31.17a2.71 2.71 0 0 1-2.2 4.3ZM502.39 626.05a2.72 2.72 0 0 1-2.07-1c-.21-.24-20.71-24.28-34.17-30a2.72 2.72 0 1 1 2.12-5c14.64 6.21 35.32 30.44 36.19 31.47a2.72 2.72 0 0 1-.31 3.83 2.69 2.69 0 0 1-1.76.7Z"/><path class="cls-11" d="M479.93 650.71c-5.72 0-11.14-2.18-14.27-5.62-3.53-3.88-4.93-7.67-4.15-11.26 1.13-5.2 6.51-7.57 6.74-7.67a2.72 2.72 0 0 1 2.16 5c-.86.38-3.16 1.82-3.59 3.86-.46 2.2 1.31 4.71 2.87 6.42s5.21 3.82 10.16 3.84c3.95 0 9.72-1.29 15.35-7.36 2.7-2.92 6.92-8.55 4.71-13.47a2.72 2.72 0 0 1 3.34-3.69c8.36 2.78 11.38-.11 16.4-5.9 2.84-3.26 2.47-8.65-.89-13.11a2.72 2.72 0 0 1 4.06-3.59 7.67 7.67 0 0 0 5.9 2.06c3.07-.23 6-2.11 8.59-5.44a9.86 9.86 0 0 0 2.09-8c-1.6-9.29-14.49-17.8-14.62-17.88a2.72 2.72 0 0 1 3-4.56c.61.4 15 9.87 17 21.51a15.2 15.2 0 0 1-3.12 12.21c-4.45 5.81-9.25 7.32-12.51 7.56a13.38 13.38 0 0 1-2.61-.06 14.22 14.22 0 0 1-2.75 12.85c-4.88 5.62-9.44 9.88-17.8 8.59.13 4.61-2.18 9.64-6.78 14.6-6.98 7.52-14.32 9.11-19.28 9.11Z"/><path class="cls-6" d="M342.14 244.93a7.29 7.29 0 0 1-5.78-2.35 7.88 7.88 0 0 1-1.63-6l5.37.81a2.48 2.48 0 0 0 .38 1.63 2.42 2.42 0 0 0 1.69.46 4 4 0 0 0 4-3.09l2.66.59 2.66.56a9.43 9.43 0 0 1-9.29 7.38Z"/><path class="cls-10" d="M626.53 264.92c4.05-9.45 15.61-10 23.36-4.25 3.86 2.87 9.13 9 13.44 14.39a4.51 4.51 0 0 0 8-2.63c1.22-45.15 4.1-60 15.79-59.14 7.09.54 11.14 7.26 11.61 19.55 3.46-17.08 11.11-24.71 19.67-22.72 7.92 1.85 10.33 11.08 7.84 25 4.05-11.09 12.68-13.34 17.46-11.78 8.31 2.71 8.55 13.81 5.62 22.75s-14.08 40.32-14.08 40.32c10.06-16.55 16.34-34.72 30.24-27.33S761 299.5 756.26 309s-4.57 46.17-4.57 46.17L649 350.07l1.12-16.31-4.29-30c-3.83-6.6-23.35-29.38-19.3-38.84Z"/><path class="cls-11" d="M704.05 317.77a2.72 2.72 0 0 1-2.72-2.76c.23-12.78-3.07-22.32-9.81-28.35-10.14-9.08-25-7.29-25.14-7.27a2.72 2.72 0 0 1-.71-5.39c.71-.09 17.4-2.16 29.44 8.58 8 7.13 11.91 18.07 11.65 32.52a2.7 2.7 0 0 1-2.71 2.67Z"/><path class="cls-11" d="M691.13 281.67a3.4 3.4 0 0 1-.45 0 2.73 2.73 0 0 1-2.24-3.13l7.65-46.12a2.72 2.72 0 0 1 5.37.89l-7.66 46.09a2.71 2.71 0 0 1-2.67 2.27ZM718.12 288.44a2.09 2.09 0 0 1-.43 0 2.71 2.71 0 0 1-2.25-3.11l8.15-50.58a2.72 2.72 0 0 1 5.37.87l-8.16 50.57a2.71 2.71 0 0 1-2.68 2.25ZM735.57 295.35h-.45a2.72 2.72 0 0 1-2.24-3.13l2.68-16.13a2.72 2.72 0 1 1 5.36.89l-2.68 16.13a2.71 2.71 0 0 1-2.67 2.24Z"/><path class="cls-8" d="M803.76 505.85a2.72 2.72 0 0 1-2.76-2.75l.38-28.48a2.72 2.72 0 1 1 5.44.07l-.38 28.48a2.72 2.72 0 0 1-2.68 2.68ZM861.71 517.62a2.71 2.71 0 0 1-2.05-4.51l31.05-35.41a2.72 2.72 0 0 1 4.09 3.58l-31 35.41a2.69 2.69 0 0 1-2.09.93Z"/><path class="cls-13" d="M454.16 138.82h139.29a59.85 59.85 0 0 1 0 119.7h-92.68l-42.5 31.68a6.11 6.11 0 0 1-9.77-4.9v-27.05a59.85 59.85 0 0 1 5.66-119.43Z"/><path class="cls-9" d="M594.54 220.5a34.33 34.33 0 0 1-18-4.94 30.78 30.78 0 0 1-8.35-7.68c-8.71 6.22-18.33 9.23-27.51 8.42a30.1 30.1 0 0 1-16.4-6.92 45.32 45.32 0 0 1-12.41 7.13c-10.6 4-22.17 3.94-31.74-.24a35.32 35.32 0 0 1-8-4.93 43.18 43.18 0 0 1-4.12 3.11c-5.68 3.77-12.7 5.39-18.33 4.23a13.36 13.36 0 0 1-8.74-5.75 2.72 2.72 0 0 1 4.55-3 7.92 7.92 0 0 0 5.28 3.41c4.2.86 9.79-.49 14.24-3.44a38.84 38.84 0 0 0 3.17-2.36c-5.91-6.63-9-15.43-5.92-24.13a23.14 23.14 0 0 1 9.24-11.58c4.15-2.65 10.1-3.92 14.06-.79 3.06 2.42 4.17 6.62 3.24 12.15-1.45 8.51-6.22 17.44-12.71 24.35a29.68 29.68 0 0 0 6.26 3.73c12.32 5.38 27.5 2.51 38.09-5.78-.12-.14-.24-.28-.35-.43a23.56 23.56 0 0 1-5.4-17.82 16.51 16.51 0 0 1 7.53-11.62 9.73 9.73 0 0 1 14.3 4.91c1.61 4 1.19 9.82-1.05 14.69a38.88 38.88 0 0 1-7.12 10.42 24.49 24.49 0 0 0 12.85 5.22c8 .71 16.43-2 24.17-7.64a28 28 0 0 1-3.07-12.9c.07-5.11 2.79-10.52 6.62-13.17a9.15 9.15 0 0 1 8.48-1.23c5.26 1.91 7.24 7.91 6.43 12.58s-3.86 8.46-6.43 11.23a62.83 62.83 0 0 1-4.91 4.77 25.42 25.42 0 0 0 7 6.42 30.15 30.15 0 0 0 24.29 2.78 2.72 2.72 0 0 1 1.58 5.21 37.43 37.43 0 0 1-10.82 1.59Zm-114.72-45.84a11 11 0 0 0-5.47 1.77 17.92 17.92 0 0 0-7 8.8c-2.33 6.62.09 13.39 4.73 18.64 5.78-6.13 10-14 11.32-21.57.27-1.59.68-5.44-1.26-7a3.64 3.64 0 0 0-2.32-.64Zm47.56 4.93a4.9 4.9 0 0 0-2.49.75A11 11 0 0 0 520 188a18.21 18.21 0 0 0 4.25 13.71l.13.17a33.32 33.32 0 0 0 6.07-8.88c1.63-3.54 2-7.72.94-10.42a4.43 4.43 0 0 0-2.52-2.66 3.94 3.94 0 0 0-1.49-.33Zm46.88 1.24a4 4 0 0 0-2.32.82c-2.39 1.65-4.23 5.42-4.27 8.76a22.45 22.45 0 0 0 2 9.32q1.9-1.72 3.72-3.67c2.18-2.36 4.49-5.22 5.06-8.47.43-2.48-.57-5.68-2.93-6.53a3.51 3.51 0 0 0-1.26-.23Z"/><path d="M454.62 291.61a6.31 6.31 0 0 1-6.32-6.31v-26.88a60 60 0 0 1 5.86-119.79h139.29a60 60 0 0 1 0 120.09h-92.61l-42.46 31.64a6.27 6.27 0 0 1-3.76 1.25ZM454.16 139a59.72 59.72 0 0 0-59.66 59.65c0 30.42 23.73 56.51 54 59.38h.18v27.27a5.93 5.93 0 0 0 9.46 4.75l42.56-31.72h92.74a59.66 59.66 0 0 0 0-119.31Z" style="fill:url(#linear-gradient)" class="cls-14"/><path d="M454.16 138.82h139.29a59.85 59.85 0 0 1 0 119.7h-92.68l-42.5 31.68a6.11 6.11 0 0 1-9.77-4.9v-27.05a59.85 59.85 0 0 1 5.66-119.43Z" style="fill:url(#linear-gradient-2)" class="cls-14"/><path class="cls-17" d="M422.61 0h82.83a35.59 35.59 0 0 1 0 71.18h-55.11L425.06 90a3.64 3.64 0 0 1-5.81-2.92V71a35.59 35.59 0 0 1 3.36-71Z"/><path class="cls-8" d="M185 651.52a78 78 0 0 0-33.28 15.17c4.83 11.76 11.59 23.87 16.26 30.29 27.78 41.47 66.26 57.25 104.21 61.63A78.31 78.31 0 0 0 185 651.52Z"/><path class="cls-9" d="M745.26 377.69a11.53 11.53 0 1 1-11.53-11.53 11.53 11.53 0 0 1 11.53 11.53ZM433.91 673a11.53 11.53 0 1 1-11.53-11.54A11.53 11.53 0 0 1 433.91 673Z"/><path class="cls-7" d="m751.69 357.93-102.86-5.15a2.72 2.72 0 1 1 .27-5.43l102.72 5.15a2.72 2.72 0 0 1-.13 5.43Z"/><path class="cls-9" d="M333 321.58a8.56 8.56 0 1 1-7.71 9.32 8.55 8.55 0 0 1 7.71-9.32Z"/><path class="cls-17" d="M309.79 82.5h-121a52 52 0 0 0 0 104h80.54l36.94 27.53a5.31 5.31 0 0 0 8.49-4.26v-23.48a52 52 0 0 0-4.97-103.79Z"/><circle class="cls-9" cx="246.22" cy="132.98" r="17.55" transform="rotate(-89.79 246.2 132.979)"/><circle class="cls-9" cx="181.75" cy="132.98" r="17.55"/><path class="cls-9" d="M328.24 133a17.56 17.56 0 1 1-17.55-17.56A17.55 17.55 0 0 1 328.24 133Z"/><path class="cls-5" d="M112.61 675.71a2.72 2.72 0 0 1-2.6-1.94L45.85 459.36a2.71 2.71 0 1 1 5.2-1.56l64.17 214.41a2.72 2.72 0 0 1-1.83 3.38 2.64 2.64 0 0 1-.78.12Z"/><path class="cls-7" d="M402.7 726.42a2.71 2.71 0 0 1-1.76-4.78c18.26-15.58 32.86-34.73 47-53.24l3.21-4.21-71-57.57a147.4 147.4 0 0 1-32.65 23c-11.71 5.91-22.94 9.06-33.38 9.35a51.43 51.43 0 0 1-35.48-12.48c-11.62-9.78-17.86-23.9-18.53-42-.53-14.15 2.35-30.76 8.55-49.38 10.5-31.47 27.17-58.29 27.34-58.55a2.72 2.72 0 1 1 4.61 2.88c-.17.26-16.54 26.61-26.82 57.48-6 18-8.76 33.92-8.25 47.41.62 16.46 6.21 29.24 16.6 38 16.85 14.16 38 15 62.79 2.5A143.16 143.16 0 0 0 378 601.08a2.71 2.71 0 0 1 3.64-.2l75 60.76a2.71 2.71 0 0 1 .45 3.76l-4.81 6.29c-14.3 18.75-29.08 38.13-47.78 54.08a2.71 2.71 0 0 1-1.8.65Z"/><path class="cls-6" d="M547.13 750.86h248.11a38.59 38.59 0 0 0 38.09-32.37l23.84-145.76a38.6 38.6 0 0 0-38.1-44.83H571a38.6 38.6 0 0 0-38.1 32.37L509 706a38.59 38.59 0 0 0 38.13 44.86Z"/><circle class="cls-9" cx="691.04" cy="639.38" r="29.98"/><path class="cls-6" d="M419.13 751h230.12a26.32 26.32 0 1 0 0-52.64H419.13a26.32 26.32 0 0 0 0 52.64Z"/><path class="cls-2" d="m925.88 349.48-51.78 78.17a11.78 11.78 0 0 1-16.33 3.35l-78.18-51.78a11.78 11.78 0 0 1-3.31-16.33l51.77-78.17a11.78 11.78 0 0 1 16.33-3.32l78.18 51.78a11.79 11.79 0 0 1 3.32 16.3Z"/><path class="cls-17" d="M905.8 362.13a19.55 19.55 0 1 1-5.5-27.13 19.54 19.54 0 0 1 5.5 27.13ZM895.58 395.22l-.85-.61a47.16 47.16 0 0 0-21.11-8.06 19.22 19.22 0 0 1-17-19.33 47.23 47.23 0 0 0-51.37-48.07l-29 43.71a11.78 11.78 0 0 0 3.31 16.33L857.77 431a11.78 11.78 0 0 0 16.33-3.32Z"/><circle class="cls-4" cx="68.11" cy="158.79" r="19.96" transform="rotate(-45 68.112 158.787)"/><circle class="cls-13" cx="915.54" cy="612.92" r="19.96" transform="rotate(-76.72 915.503 612.923)"/><path class="cls-8" d="M686 95.7a20 20 0 1 1-20-20 20 20 0 0 1 20 20Z"/><path class="cls-17" d="M38.37 271.7 104.2 359a10.41 10.41 0 0 0 14.56 2.06L192 306.13a10.41 10.41 0 0 0 2.07-14.59l-52.3-69.31-46.07-6.58-55.26 41.46a10.41 10.41 0 0 0-2.07 14.59Z"/><path class="cls-2" d="m123.78 235.73 18-13.52-46.09-6.56 13.49 18a10.42 10.42 0 0 0 14.6 2.08Z"/><circle class="cls-2" cx="116.22" cy="285.42" r="21.75"/><path class="cls-2" d="M495.77 46.2h-63.49a10.68 10.68 0 1 1 0-21.36h63.49a10.68 10.68 0 1 1 0 21.36Z"/></g></g></g></svg>