<svg xmlns="http://www.w3.org/2000/svg" viewBox="0 0 4167 4167" width="4167" height="4167">
	<style>
		tspan { white-space:pre }
		.shp0 { fill: #a1cfec } 
		.shp1 { fill: #f55f44 } 
		.shp2 { fill: #6a9ebf } 
		.shp3 { fill: #5f6461 } 
		.shp4 { fill: #c54d37 } 
		.shp5 { fill: #39447a } 
		.shp6 { fill: #ffffff } 
		.shp7 { fill: #e6996b } 
		.shp8 { fill: #016bb1 } 
		.shp9 { fill: #008dea } 
		.shp10 { fill: #784b5e } 
		.shp11 { fill: #016fb8 } 
		.shp12 { fill: #eaa06f } 
		.shp13 { fill: #ef9563 } 
		.shp14 { fill: #e59862 } 
		.shp15 { fill: #d7eef4 } 
		.shp16 { fill: #f3b680 } 
		.shp17 { fill: #000000 } 
		.shp18 { fill: #854a22 } 
		.shp19 { fill: none;stroke: #000000;stroke-width: 10.417 } 
		.shp20 { fill: #602f11 } 
		.shp21 { fill: #63342c } 
		.shp22 { fill: #d9bc9e } 
		.shp23 { fill: #edb47f } 
		.shp24 { fill: #e4985e } 
		.shp25 { fill: none;stroke: #be502b;stroke-linecap:round;stroke-width: 10.417 } 
		.shp26 { fill: #e1aa7a } 
		.shp27 { fill: #337592 } 
		.shp28 { fill: none;stroke: #ffffff;stroke-linecap:round;stroke-width: 6.25 } 
		.shp29 { fill: #f3f2ee } 
		.shp30 { fill: #3a7650 } 
	</style>
	<g id="Group 1">
		<path id="Path 1" class="shp0" d="M0 4167L4166.67 4167L4166.67 0.33L0 0.33L0 4167Z" />
		<path id="Path 2" class="shp1" d="M2395.46 2856.71L1610.02 2856.71C1555.38 2856.71 1511.08 2812.42 1511.08 2757.77L1511.08 2221.58L2494.4 2221.58L2494.4 2757.77C2494.4 2812.42 2450.1 2856.71 2395.46 2856.71Z" />
		<path id="Path 3" class="shp2" d="M2007.29 3989.92C1120.76 3989.92 402.08 3804.77 402.08 3576.37C402.08 3347.98 1120.76 3162.83 2007.29 3162.83C2893.81 3162.83 3612.5 3347.98 3612.5 3576.37C3612.5 3804.77 2893.81 3989.92 2007.29 3989.92Z" />
		<path id="Path 4" class="shp3" d="M2020.47 3491.83L2055.93 3491.83L2055.93 2847.04L2020.47 2847.04L2020.47 3491.83ZM1868.94 3561.15C1868.94 3604.77 1833.57 3640.12 1789.95 3640.12C1746.33 3640.12 1710.96 3604.77 1710.96 3561.15C1710.96 3517.52 1746.33 3482.17 1789.95 3482.17C1833.57 3482.17 1868.94 3517.52 1868.94 3561.15ZM2307.4 3561.15C2307.4 3604.77 2272.04 3640.12 2228.42 3640.12C2184.79 3640.12 2149.42 3604.77 2149.42 3561.15C2149.42 3517.52 2184.79 3482.17 2228.42 3482.17C2272.04 3482.17 2307.4 3517.52 2307.4 3561.15ZM2233.25 3562.75L1781.89 3562.75L1781.89 3482.17L2233.25 3482.17L2233.25 3562.75Z" />
		<path id="Path 5" class="shp4" d="M2405.85 2859.94L1599.62 2859.94C1550.72 2859.94 1511.08 2820.29 1511.08 2771.4L1511.08 2674.44C1511.08 2625.54 1550.72 2585.9 1599.62 2585.9L2405.85 2585.9C2454.75 2585.9 2494.4 2625.54 2494.4 2674.44L2494.4 2771.4C2494.4 2820.29 2454.75 2859.94 2405.85 2859.94Z" />
		<path id="Path 6" class="shp5" d="M2020.47 3485.37L1830.25 3485.37L1830.25 2576.23L2020.47 2576.23L2020.47 3485.37Z" />
		<path id="Path 7" class="shp6" d="M2152.65 1341.44L1943.09 1341.44L1943.09 1293.09L2152.65 1293.09L2152.65 1341.44Z" />
		<path id="Path 8" class="shp7" d="M2130.08 1312.43C2130.08 1342.7 2092.54 1367.24 2046.26 1367.24C1999.96 1367.24 1962.44 1342.7 1962.44 1312.43C1962.44 1282.16 1999.96 1257.62 2046.26 1257.62C2092.54 1257.62 2130.08 1282.16 2130.08 1312.43Z" />
		<path id="Path 9" class="shp8" d="M2152.65 1293.09L1943.09 1293.09L1943.09 1241.5L2152.65 1241.5L2152.65 1293.09Z" />
		<path id="Path 10" class="shp8" d="M2642.69 1976.56C2642.69 2067.37 2569.08 2140.98 2478.27 2140.98C2387.46 2140.98 2313.85 2067.37 2313.85 1976.56C2313.85 1885.76 2387.46 1812.14 2478.27 1812.14C2569.08 1812.14 2642.69 1885.76 2642.69 1976.56Z" />
		<path id="Path 11" class="shp9" d="M2529.12 2091.02L2492.77 2011.3L2572.5 1974.95L2608.83 2054.67L2529.12 2091.02Z" />
		<path id="Path 12" class="shp9" d="M2081.72 1973.34L1691.62 1973.34L1691.62 2041.05L2081.72 2041.05L2081.72 1973.34ZM2465.37 1973.34L2120.42 1973.34L2120.42 2041.05L2465.37 2041.05L2465.37 1973.34Z" />
		<path id="Path 13" class="shp8" d="M1895.01 1491.73L1690.75 2065.62C1674.74 2110.6 1625.29 2134.1 1580.31 2118.08L1491.11 2086.33C1446.13 2070.33 1422.64 2020.88 1438.65 1975.89L1642.91 1402.01C1658.92 1357.02 1708.37 1333.53 1753.35 1349.54L1842.55 1381.29C1887.53 1397.3 1911.02 1446.75 1895.01 1491.73Z" />
		<path id="Path 14" class="shp9" d="M1723.25 1360.8L1813.9 1394.53L1558.58 2080.87L1467.93 2047.15L1723.25 1360.8Z" />
		<path id="Path 15" class="shp10" d="M1453.06 1935.41L1452.98 1935.38L1474.6 1874.63L1474.68 1874.66L1453.06 1935.41Z" />
		<path id="Path 17" class="shp8" d="M1594.03 1985.58L1502.9 1953.14L1525.38 1892.71L1616.51 1925.14L1594.03 1985.58Z" />
		<path id="Path 18" class="shp10" d="M1752.81 1891.48L1752.74 1891.46L1774.36 1830.71L1774.44 1830.74L1752.81 1891.48Z" />
		<path id="Path 19" class="shp11" d="M1752.74 1891.46L1643.5 1852.58L1665.99 1792.14L1774.36 1830.71L1752.74 1891.46ZM1552.37 1820.15L1500.72 1801.76L1522.34 1741.01L1574.86 1759.7L1552.37 1820.15Z" />
		<path id="Path 20" class="shp8" d="M1643.5 1852.58L1552.37 1820.15L1574.86 1759.7L1665.99 1792.14L1643.5 1852.58Z" />
		<path id="Path 21" class="shp10" d="M1800.55 1757.86L1800.32 1757.78L1821.94 1697.04L1822.17 1697.12L1800.55 1757.86Z" />
		<path id="Path 22" class="shp8" d="M1800.32 1757.78L1692.98 1719.58L1715.46 1659.14L1821.94 1697.04L1800.32 1757.78ZM1601.85 1687.14L1548.45 1668.14L1570.07 1607.39L1624.34 1626.71L1601.85 1687.14Z" />
		<path id="Path 23" class="shp8" d="M1692.98 1719.58L1601.85 1687.14L1624.34 1626.71L1715.46 1659.14L1692.98 1719.58Z" />
		<path id="Path 24" class="shp10" d="M1854.26 1607.94L1853.72 1607.75L1875.34 1547L1875.89 1547.2L1854.26 1607.94Z" />
		<path id="Path 25" class="shp8" d="M1853.72 1607.75L1748.51 1570.31L1771 1509.87L1875.34 1547L1853.72 1607.75ZM1657.38 1537.87L1602.17 1518.22L1623.79 1457.47L1679.87 1477.43L1657.38 1537.87Z" />
		<path id="Path 26" class="shp8" d="M1748.51 1570.31L1657.38 1537.87L1679.87 1477.43L1771 1509.87L1748.51 1570.31Z" />
		<path id="Path 27" class="shp12" d="M2117.19 1360.79L1975.33 1360.79L1975.33 1247.95L2117.19 1247.95L2117.19 1360.79Z" />
		<path id="Path 28" class="shp13" d="M2097.83 1360.79L1994.67 1360.79L1994.67 1247.95L2097.83 1247.95L2097.83 1360.79Z" />
		<path id="Path 29" class="shp14" d="M2313.85 2034.6L2252.58 2034.6L2252.58 1976.56C2272.87 1978.85 2291.02 1991.78 2301.5 2011.45L2313.85 2034.6Z" />
		<path id="Path 30" class="shp6" d="M2652.54 1941.1L1691.45 1941.1C1677.3 1941.1 1665.83 1929.63 1665.83 1915.48L1665.83 1367.06C1665.83 1352.91 1677.3 1341.44 1691.45 1341.44L2652.54 1341.44C2666.69 1341.44 2678.15 1352.91 2678.15 1367.06L2678.15 1915.48C2678.15 1929.63 2666.69 1941.1 2652.54 1941.1Z" />
		<path id="Path 31" class="shp15" d="M2652.54 1978.45L1691.45 1978.45C1677.3 1978.45 1665.83 1966.98 1665.83 1952.83L1665.83 1404.41C1665.83 1390.26 1677.3 1378.79 1691.45 1378.79L2652.54 1378.79C2666.69 1378.79 2678.15 1390.26 2678.15 1404.41L2678.15 1952.83C2678.15 1966.98 2666.69 1978.45 2652.54 1978.45Z" />
		<path id="Path 32" class="shp6" d="M2265.48 2044.27L2081.72 2044.27L2081.72 1734.77L2221.58 1734.77L2265.48 2044.27Z" />
		<path id="Path 33" class="shp15" d="M2201 1831.49C2201 1851.07 2185.12 1866.95 2165.54 1866.95C2145.96 1866.95 2130.08 1851.07 2130.08 1831.49C2130.08 1811.9 2145.96 1796.02 2165.54 1796.02C2185.12 1796.02 2201 1811.9 2201 1831.49ZM2494.4 2105.52L1630.37 2105.52L1630.37 2034.6L2494.4 2034.6L2494.4 2105.52Z" />
		<path id="Path 34" class="shp6" d="M628.82 3645.19L1054.21 2261.56L1146.66 2290L730.88 3640.12L628.82 3645.19ZM1661.5 3645.19L1236.11 2261.56L1143.66 2290L1559.44 3640.12L1661.5 3645.19ZM1488.51 3243.58L782.46 3243.58L782.46 3340.31L1488.51 3340.31L1488.51 3243.58ZM2505.17 3645.19L2930.56 2261.56L3023 2290L2607.23 3640.12L2505.17 3645.19ZM3537.85 3645.19L3112.46 2261.56L3020 2290L3435.79 3640.12L3537.85 3645.19ZM3364.85 3243.58L2658.81 3243.58L2658.81 3340.31L3364.85 3340.31L3364.85 3243.58Z" />
		<path id="Path 35" class="shp6" d="M1375.67 2302.62L927.54 2302.62L927.54 2260.73L1375.67 2260.73L1375.67 2302.62ZM3245.58 2302.62L2797.44 2302.62L2797.44 2260.73L3245.58 2260.73L3245.58 2302.62Z" />
		<path id="Path 37" class="shp16" d="M2320.29 864.3C2320.29 1079.74 2192.27 1264.07 2046.26 1264.07C1900.25 1264.07 1781.89 1089.41 1781.89 873.97C1781.89 658.52 1909.92 503.21 2055.93 503.21C2201.94 503.21 2320.29 648.85 2320.29 864.3Z" />
		<path id="Path 38" class="shp17" d="M1804.46 928.78L1778.67 906.21C1778.67 906.21 1779.53 873.69 1775.44 854.62C1765.77 809.49 1769.64 819.21 1765.77 803.04C1754.9 757.57 1759.48 681.71 1791.56 619.27C1802.79 597.43 1817.36 574.14 1843.15 564.47C1854 560.4 1862.37 562.41 1878.61 558.02C1899.65 552.33 1912.27 542.02 1917.3 538.68C1975.33 499.99 2051.18 491.73 2062.38 490.32C2108.6 484.48 2182.08 475.2 2246.15 519.33C2263.29 531.14 2287.48 547.16 2300.96 577.36C2314.67 608.14 2320.29 628.95 2320.29 690.2C2320.29 718.64 2325.6 724.5 2329.96 745.01C2336.96 777.88 2323.52 899.76 2323.52 899.76L2310.62 899.76C2310.62 899.76 2310.62 815.94 2304.17 745.01C2299.6 694.84 2217.69 673.02 2172 683.75C2144.19 690.29 2146.12 705.25 2110.73 716C2072.36 727.64 2036.64 720.19 2001.12 712.77C1955.25 703.2 1954.16 694.3 1923.75 693.43C1905.93 692.91 1866.17 691.76 1836.7 719.22C1809.19 744.84 1805.63 781.43 1804.46 793.37C1803.11 807.19 1804.64 823 1807.68 854.62C1811.17 890.79 1804.46 928.78 1804.46 928.78Z" />
		<path id="Path 39" class="shp18" d="M1972.11 899.76L1856.04 899.76L1856.04 873.97L1972.11 873.97L1972.11 899.76ZM2239.69 899.76L2123.62 899.76L2123.62 873.97L2239.69 873.97L2239.69 899.76Z" />
		<path id="Path 40" class="shp19" d="M1953.37 1051.29L1874.78 1051.29C1848.75 1051.29 1826.19 1033.24 1820.48 1007.85L1816.51 990.21C1808.68 955.41 1835.14 922.33 1870.81 922.33L1957.34 922.33C1993.01 922.33 2019.47 955.41 2011.64 990.21L2007.67 1007.85C2001.96 1033.24 1979.4 1051.29 1953.37 1051.29Z" />
		<path id="Path 41" class="shp17" d="M2073.66 985.2L2015.63 985.2L2015.63 969.08L2073.66 969.08L2073.66 985.2ZM2329.21 906.62L2281.02 950.58C2279.4 952.07 2276.85 951.89 2275.44 950.2L2270.19 943.91C2268.81 942.27 2269.04 939.83 2270.69 938.46L2319.13 898.01C2320.35 896.99 2322.1 896.82 2323.5 897.6L2328.48 900.37C2330.79 901.65 2331.17 904.83 2329.21 906.62ZM1763.31 909.84L1811.5 953.8C1813.13 955.29 1815.67 955.12 1817.08 953.42L1822.33 947.14C1823.7 945.5 1823.48 943.05 1821.84 941.68L1773.38 901.24C1772.15 900.21 1770.42 900.05 1769.02 900.82L1764.04 903.59C1761.72 904.88 1761.35 908.06 1763.31 909.84Z" />
		<path id="Path 42" class="shp20" d="M1939.87 964.24C1939.87 978.49 1928.32 990.03 1914.07 990.03C1899.83 990.03 1888.28 978.49 1888.28 964.24C1888.28 950 1899.83 938.45 1914.07 938.45C1928.32 938.45 1939.87 950 1939.87 964.24Z" />
		<path id="Path 43" class="shp21" d="M1933.42 964.24C1933.42 974.92 1924.76 983.58 1914.07 983.58C1903.39 983.58 1894.73 974.92 1894.73 964.24C1894.73 953.56 1903.39 944.9 1914.07 944.9C1924.76 944.9 1933.42 953.56 1933.42 964.24Z" />
		<path id="Path 44" class="shp19" d="M2214.52 1052.9L2135.92 1052.9C2109.9 1052.9 2087.33 1034.85 2081.62 1009.46L2077.65 991.82C2069.82 957.02 2096.29 923.94 2131.96 923.94L2218.48 923.94C2254.15 923.94 2280.6 957.02 2272.79 991.82L2268.81 1009.46C2263.1 1034.85 2240.54 1052.9 2214.52 1052.9Z" />
		<path id="Path 45" class="shp22" d="M2208.5 1043.04L2141.94 1043.04C2119.87 1043.04 2100.77 1027.76 2095.92 1006.24L2092.56 991.3C2085.94 961.82 2108.35 933.8 2138.56 933.8L2211.87 933.8C2242.08 933.8 2264.5 961.82 2257.87 991.3L2254.5 1006.24C2249.67 1027.76 2230.56 1043.04 2208.5 1043.04Z" />
		<path id="Path 46" class="shp23" d="M2204.67 1036.74L2145.77 1036.74C2126.25 1036.74 2109.35 1022.99 2105.08 1003.63L2102.1 990.18C2096.23 963.66 2116.06 938.45 2142.79 938.45L2207.65 938.45C2234.37 938.45 2254.21 963.66 2248.33 990.18L2245.35 1003.63C2241.08 1022.99 2224.17 1036.74 2204.67 1036.74Z" />
		<path id="Path 47" class="shp20" d="M2210.69 967.46C2210.69 981.71 2199.12 993.26 2184.9 993.26C2170.65 993.26 2159.1 981.71 2159.1 967.46C2159.1 953.22 2170.65 941.67 2184.9 941.67C2199.12 941.67 2210.69 953.22 2210.69 967.46Z" />
		<path id="Path 48" class="shp21" d="M2204.23 967.46C2204.23 978.15 2195.56 986.81 2184.9 986.81C2174.21 986.81 2165.54 978.15 2165.54 967.46C2165.54 956.78 2174.21 948.12 2184.9 948.12C2195.56 948.12 2204.23 956.78 2204.23 967.46Z" />
		<path id="Path 49" class="shp19" d="M1953.37 1052.9L1874.78 1052.9C1848.75 1052.9 1826.19 1034.85 1820.48 1009.46L1816.51 991.82C1808.68 957.02 1835.14 923.94 1870.81 923.94L1957.34 923.94C1993.01 923.94 2019.47 957.02 2011.64 991.82L2007.67 1009.46C2001.96 1034.85 1979.4 1052.9 1953.37 1052.9Z" />
		<path id="Path 50" class="shp22" d="M1947.36 1043.04L1880.79 1043.04C1858.73 1043.04 1839.62 1027.76 1834.78 1006.24L1831.42 991.3C1824.79 961.82 1847.21 933.8 1877.42 933.8L1950.73 933.8C1980.94 933.8 2003.36 961.82 1996.73 991.3L1993.37 1006.24C1988.52 1027.76 1969.42 1043.04 1947.36 1043.04Z" />
		<path id="Path 51" class="shp23" d="M1943.52 1036.74L1884.63 1036.74C1865.12 1036.74 1848.22 1022.99 1843.93 1003.63L1840.96 990.18C1835.09 963.66 1854.92 938.45 1881.65 938.45L1946.5 938.45C1973.23 938.45 1993.06 963.66 1987.19 990.18L1984.22 1003.63C1979.94 1022.99 1963.03 1036.74 1943.52 1036.74Z" />
		<path id="Path 52" class="shp20" d="M1949.54 967.46C1949.54 981.71 1937.99 993.26 1923.75 993.26C1909.5 993.26 1897.96 981.71 1897.96 967.46C1897.96 953.22 1909.5 941.67 1923.75 941.67C1937.99 941.67 1949.54 953.22 1949.54 967.46Z" />
		<path id="Path 53" class="shp21" d="M1943.09 967.46C1943.09 978.15 1934.43 986.81 1923.75 986.81C1913.06 986.81 1904.4 978.15 1904.4 967.46C1904.4 956.78 1913.06 948.12 1923.75 948.12C1934.43 948.12 1943.09 956.78 1943.09 967.46Z" />
		<path id="Path 54" class="shp16" d="M2307.4 928.78C2323.52 905.6 2331.83 901.39 2336.42 902.98C2348.69 907.25 2349.21 958.19 2326.75 996.48C2314.02 1018.17 2296.6 1031.2 2284.83 1038.39" />
		<path id="Path 55" class="shp14" d="M2309.54 940.87C2321.02 924.4 2326.9 921.41 2330.17 922.54C2338.9 925.58 2339.25 961.76 2323.29 988.97C2314.25 1004.38 2301.9 1013.64 2293.52 1018.75" />
		<path id="Path 56" class="shp16" d="M1788.34 938.45C1772.21 915.27 1763.92 911.06 1759.32 912.66C1747.05 916.93 1746.53 967.86 1769 1006.15C1781.73 1027.85 1799.13 1040.87 1810.91 1048.06" />
		<path id="Path 57" class="shp14" d="M1786.19 950.54C1774.73 934.07 1768.84 931.08 1765.57 932.21C1756.86 935.25 1756.48 971.43 1772.44 998.64C1781.49 1014.05 1793.85 1023.31 1802.22 1028.42" />
		<path id="Path 58" class="shp24" d="M2092.92 1059.6C2096.21 1068.47 2084 1081.14 2065.69 1087.91C2047.37 1094.68 2026.91 1080.3 2026.91 1080.3C2026.91 1080.3 2057.33 1080.51 2068.69 1066.9C2081.72 1051.29 2089.65 1050.73 2092.92 1059.6Z" />
		<path id="Path 59" class="shp25" d="M1962.44 1131.89C1970.32 1139.14 2005.37 1169.8 2055.93 1167.35C2080.72 1166.15 2099.77 1157.45 2110.73 1151.23" />
		<path id="Path 60" class="shp14" d="M1991.45 2034.6L1778.67 2034.6L1800.65 2000.32C1806.25 1991.6 1814.85 1986.41 1824.03 1986.22L1893.33 1984.39C1930.95 1983.39 1966.96 2001.82 1991.45 2034.6Z" />
		<path id="Path 61" class="shp9" d="M2391.23 2221.58L1701.29 2221.58L1701.29 2395.69L2391.23 2395.69L2391.23 2221.58Z" />
		<path id="Path 62" class="shp8" d="M2391.23 2221.58L1701.29 2221.58L1701.29 2308.62L2391.23 2308.62L2391.23 2221.58Z" />
		<path id="Path 63" class="shp9" d="M1814.13 2395.69L1733.53 2395.69L1733.53 2308.62L1814.13 2308.62L1814.13 2395.69Z" />
		<path id="Path 64" class="shp9" d="M1814.13 2308.62L1733.53 2308.62L1733.53 2221.58L1814.13 2221.58L1814.13 2308.62Z" />
		<path id="Path 65" class="shp9" d="M1952.76 2395.69L1872.16 2395.69L1872.16 2308.62L1952.76 2308.62L1952.76 2395.69Z" />
		<path id="Path 66" class="shp9" d="M1952.76 2308.62L1872.16 2308.62L1872.16 2221.58L1952.76 2221.58L1952.76 2308.62Z" />
		<path id="Path 67" class="shp9" d="M2101.06 2395.69L2020.47 2395.69L2020.47 2308.62L2101.06 2308.62L2101.06 2395.69Z" />
		<path id="Path 68" class="shp9" d="M2101.06 2308.62L2020.47 2308.62L2020.47 2221.58L2101.06 2221.58L2101.06 2308.62Z" />
		<path id="Path 69" class="shp9" d="M2226.79 2395.69L2146.21 2395.69L2146.21 2308.62L2226.79 2308.62L2226.79 2395.69Z" />
		<path id="Path 70" class="shp9" d="M2226.79 2308.62L2146.21 2308.62L2146.21 2221.58L2226.79 2221.58L2226.79 2308.62Z" />
		<path id="Path 71" class="shp9" d="M2362.21 2395.69L2281.6 2395.69L2281.6 2308.62L2362.21 2308.62L2362.21 2395.69Z" />
		<path id="Path 72" class="shp9" d="M2362.21 2308.62L2281.6 2308.62L2281.6 2221.58L2362.21 2221.58L2362.21 2308.62Z" />
		<path id="Path 73" class="shp9" d="M1943.09 1241.5L1849.76 1322.79C1845.4 1326.59 1840.32 1329.48 1834.82 1331.29L1803.97 1341.44L1943.58 1341.44L1943.09 1241.5ZM2152.65 1241.5L2246.5 1322.84C2250.83 1326.61 2255.9 1329.47 2261.35 1331.27L2292.25 1341.44L2152.65 1341.44L2152.65 1241.5Z" />
		<path id="Path 74" class="shp5" d="M2391.23 2585.9L1767.96 2585.9C1731.14 2585.9 1701.29 2556.04 1701.29 2519.23L1701.29 2395.69L2391.23 2395.69L2391.23 2585.9ZM2376.73 2395.69L2252.58 2395.69L2252.58 3482.17L2442.81 3482.17L2442.81 2461.75C2442.81 2425.25 2413.23 2395.69 2376.73 2395.69Z" />
		<path id="Path 75" class="shp26" d="M1975.33 3520.85L1881.84 3520.85L1888.28 3485.37L1972.11 3485.37L1975.33 3520.85ZM2397.67 3520.85L2317.06 3520.85L2317.06 3485.37L2400.9 3485.37L2397.67 3520.85Z" />
		<path id="Path 76" class="shp6" d="M2407.65 3682.04L2320.9 3682.04C2304.54 3682.04 2291.27 3668.79 2291.27 3652.44L2291.27 3550.48C2291.27 3535.9 2303.1 3524.06 2317.71 3524.06L2388.77 3524.06C2422.17 3524.06 2449.25 3551.15 2449.25 3584.54L2449.25 3640.44C2449.25 3663.42 2430.62 3682.04 2407.65 3682.04Z" />
		<path id="Path 77" class="shp27" d="M2407.65 3665.92L2320.9 3665.92C2304.54 3665.92 2291.27 3652.67 2291.27 3636.31L2291.27 3534.37C2291.27 3519.77 2303.1 3507.96 2317.71 3507.96L2388.77 3507.96C2422.17 3507.96 2449.25 3535.02 2449.25 3568.44L2449.25 3624.31C2449.25 3647.29 2430.62 3665.92 2407.65 3665.92Z" />
		<path id="Path 78" class="shp28" d="M2326.75 3549.85C2331.67 3546.73 2340.52 3541.98 2352.54 3540.19C2367.25 3538 2379.02 3541.33 2384.77 3543.42" />
		<path id="Path 78" class="shp28" d="M2329.96 3575.65C2334.9 3572.52 2343.73 3567.77 2355.75 3565.98C2370.48 3563.79 2382.25 3567.12 2388 3569.21" />
		<path id="Path 78" class="shp28" d="M2331.58 3599.83C2336.5 3596.69 2346.96 3590.35 2358.98 3588.54C2373.69 3586.35 2396.75 3588.08 2402.5 3590.17" />
		<path id="Path 79" class="shp27" d="M2407.65 3665.92L2320.9 3665.92C2304.54 3665.92 2291.27 3652.67 2291.27 3636.31L2291.27 3534.37C2291.27 3519.77 2303.1 3507.96 2317.71 3507.96L2388.77 3507.96C2422.17 3507.96 2449.25 3535.02 2449.25 3568.44L2449.25 3624.31C2449.25 3647.29 2430.62 3665.92 2407.65 3665.92Z" />
		<path id="Path 80" class="shp28" d="M2326.75 3549.85C2331.67 3546.73 2340.52 3541.98 2352.54 3540.19C2367.25 3538 2379.02 3541.33 2384.77 3543.42" />
		<path id="Path 80" class="shp28" d="M2329.96 3575.65C2334.9 3572.52 2343.73 3567.77 2355.75 3565.98C2370.48 3563.79 2382.25 3567.12 2388 3569.21" />
		<path id="Path 80" class="shp28" d="M2331.58 3599.83C2336.5 3596.69 2346.96 3590.35 2358.98 3588.54C2373.69 3586.35 2396.75 3588.08 2402.5 3590.17" />
		<path id="Path 81" class="shp6" d="M1875.08 3682.04L1961.84 3682.04C1978.19 3682.04 1991.45 3668.79 1991.45 3652.44L1991.45 3550.48C1991.45 3535.9 1979.62 3524.06 1965.03 3524.06L1893.96 3524.06C1860.55 3524.06 1833.47 3551.15 1833.47 3584.54L1833.47 3640.44C1833.47 3663.42 1852.1 3682.04 1875.08 3682.04Z" />
		<path id="Path 82" class="shp27" d="M1875.08 3665.92L1961.84 3665.92C1978.19 3665.92 1991.45 3652.67 1991.45 3636.31L1991.45 3534.37C1991.45 3519.77 1979.62 3507.96 1965.03 3507.96L1893.96 3507.96C1860.55 3507.96 1833.47 3535.02 1833.47 3568.44L1833.47 3624.31C1833.47 3647.29 1852.1 3665.92 1875.08 3665.92Z" />
		<path id="Path 83" class="shp28" d="M1955.99 3549.85C1951.06 3546.73 1942.22 3541.98 1930.2 3540.19C1915.48 3538 1903.71 3541.33 1897.96 3543.42" />
		<path id="Path 83" class="shp28" d="M1952.76 3575.65C1947.84 3572.52 1938.99 3567.77 1926.97 3565.98C1912.26 3563.79 1900.48 3567.12 1894.73 3569.21" />
		<path id="Path 83" class="shp28" d="M1951.15 3599.83C1946.22 3596.69 1935.77 3590.35 1923.75 3588.54C1909.03 3586.35 1885.97 3588.08 1880.22 3590.17" />
		<path id="Path 84" class="shp27" d="M1875.08 3665.92L1961.84 3665.92C1978.19 3665.92 1991.45 3652.67 1991.45 3636.31L1991.45 3534.37C1991.45 3519.77 1979.62 3507.96 1965.03 3507.96L1893.96 3507.96C1860.55 3507.96 1833.47 3535.02 1833.47 3568.44L1833.47 3624.31C1833.47 3647.29 1852.1 3665.92 1875.08 3665.92Z" />
		<path id="Path 85" class="shp28" d="M1955.99 3549.85C1951.06 3546.73 1942.22 3541.98 1930.2 3540.19C1915.48 3538 1903.71 3541.33 1897.96 3543.42" />
		<path id="Path 85" class="shp28" d="M1952.76 3575.65C1947.84 3572.52 1938.99 3567.77 1926.97 3565.98C1912.26 3563.79 1900.48 3567.12 1894.73 3569.21" />
		<path id="Path 85" class="shp28" d="M1951.15 3599.83C1946.22 3596.69 1935.77 3590.35 1923.75 3588.54C1909.03 3586.35 1885.97 3588.08 1880.22 3590.17" />
		<path id="Path 86" class="shp29" d="M2990.87 2095.85L2832.9 2095.85L2789.38 1778.29L3037.62 1778.29L2990.87 2095.85Z" />
		<path id="Path 87" class="shp30" d="M3003.77 2012.03L2820 2012.03L2800.67 1866.95L3023.12 1866.95L3003.77 2012.03Z" />
		<path id="Path 88" class="shp29" d="M3048.92 1779.9L2771.65 1779.9L2771.65 1757.34L3048.92 1757.34L3048.92 1779.9ZM3032.79 1757.34L2787.77 1757.34L2787.77 1718.65L3032.79 1718.65L3032.79 1757.34ZM2858.69 1418.82C2846.27 1464.04 2831.56 1498.36 2820 1521.99C2808.75 1544.98 2803.98 1550.67 2803.9 1563.9C2803.69 1597.39 2834.08 1608.46 2842.58 1654.17C2846.77 1676.7 2842.79 1692.42 2845.79 1692.86C2849.67 1693.42 2862.4 1668.05 2858.69 1641.27C2854.5 1610.78 2833.21 1608.79 2829.69 1580.02C2826.33 1552.74 2835.65 1520.45 2842.58 1509.09C2853.69 1490.87 2853.33 1492.59 2858.69 1480.07C2868.37 1457.51 2869.54 1436.95 2858.69 1418.82Z" />
		<path id="Path 89" class="shp6" d="M3362.52 2228.04L842.83 2228.04C823.74 2228.04 808.25 2212.56 808.25 2193.46L808.25 2130.42C808.25 2111.33 823.74 2095.85 842.83 2095.85L3362.52 2095.85C3381.62 2095.85 3397.1 2111.33 3397.1 2130.42L3397.1 2193.46C3397.1 2212.56 3381.62 2228.04 3362.52 2228.04Z" />
	</g>
</svg>