<svg xmlns="http://www.w3.org/2000/svg" xmlns:xlink="http://www.w3.org/1999/xlink" viewBox="0 0 3357.8 1504.17"><defs><style>.cls-1{isolation:isolate;}.cls-2{fill:#fff;}.cls-3{fill:#170c1e;}.cls-4{fill:#8fd8b0;}.cls-5{fill:#cbf4e1;}.cls-6{fill:#ffb14c;}.cls-7{fill:#fffeeb;}.cls-8{opacity:0.5;mix-blend-mode:soft-light;}.cls-9{fill:url(#linear-gradient);}.cls-10{fill:#3180b5;}.cls-11{fill:#0dba98;}.cls-12{fill:#28121f;}.cls-13{fill:#fc5649;}.cls-14{fill:#ffa194;}.cls-15{fill:#db5349;}.cls-16{fill:#70529e;}.cls-17{fill:#1c5482;}.cls-18{fill:url(#linear-gradient-2);}.cls-19{fill:#f4756e;}.cls-20{fill:url(#linear-gradient-3);}.cls-21{fill:#b21f1f;}.cls-22{fill:#c9c9c9;}.cls-23{fill:#8e8e8e;}.cls-24{fill:url(#linear-gradient-4);}.cls-25{fill:#462f72;}.cls-26{fill:#e87323;}.cls-27{fill:url(#linear-gradient-5);}.cls-28{fill:url(#linear-gradient-6);}</style><linearGradient id="linear-gradient" x1="1966.24" y1="395.88" x2="1966.24" y2="615.87" gradientUnits="userSpaceOnUse"><stop offset="0" stop-color="gray"/><stop offset="1"/></linearGradient><linearGradient id="linear-gradient-2" x1="1505.7" y1="318.25" x2="1505.7" y2="440.03" xlink:href="#linear-gradient"/><linearGradient id="linear-gradient-3" x1="6574.13" y1="575.42" x2="6574.13" y2="653.41" gradientTransform="matrix(-1, 0, 0, 1, 7507.86, 0)" xlink:href="#linear-gradient"/><linearGradient id="linear-gradient-4" x1="521.91" y1="731.11" x2="521.91" y2="1089.04" xlink:href="#linear-gradient"/><linearGradient id="linear-gradient-5" x1="2740.58" y1="410.47" x2="2740.58" y2="563.46" xlink:href="#linear-gradient"/><linearGradient id="linear-gradient-6" x1="2740.58" y1="410.66" x2="2740.58" y2="563.27" xlink:href="#linear-gradient"/></defs><title>signUp2</title><g class="cls-1"><g id="_Layer_" data-name="&lt;Layer&gt;"><rect class="cls-2" width="3357.8" height="1504.17"/><path class="cls-3" d="M551.82,1205,531,1144.82h11.35l14.25,44.28,14.67-44.45h8.88l14.67,44.45,14.25-44.28h11L599.26,1205h-9l-14.68-42.92L560.86,1205Z" transform="translate(0 0)"/><path class="cls-3" d="M644.74,1205.57a22.46,22.46,0,0,1-16.51-6.57q-6.62-6.57-6.62-17a23.81,23.81,0,0,1,6.23-16.64,20.45,20.45,0,0,1,15.79-6.82q10.23,0,15.91,7t5.67,17.28a18,18,0,0,1-.17,2.9h-33.1a13.48,13.48,0,0,0,4.35,8.4,12.69,12.69,0,0,0,8.62,3q6.65,0,12.2-5.37l6.06,5.37A22.77,22.77,0,0,1,644.74,1205.57Zm-12.89-26.71H655a14.58,14.58,0,0,0-3.5-8.53,10.16,10.16,0,0,0-7.94-3.33,10.46,10.46,0,0,0-7.85,3.29A14.73,14.73,0,0,0,631.85,1178.86Z" transform="translate(0 0)"/><path class="cls-3" d="M701.22,1205.48q-9.3,0-15.28-7.93v7H675.62v-62.28h10.32V1167q6-8.45,15.28-8.44a20,20,0,0,1,14.76,6.35q6.22,6.36,6.23,17.19,0,10.67-6.23,17A20,20,0,0,1,701.22,1205.48Zm-2.39-9a12,12,0,0,0,9.17-4q3.71-4,3.71-10.58a14.65,14.65,0,0,0-3.75-10.41,12.07,12.07,0,0,0-9.13-4,12.33,12.33,0,0,0-9.26,4.1,14.63,14.63,0,0,0-3.88,10.49,14.37,14.37,0,0,0,3.88,10.37A12.38,12.38,0,0,0,698.83,1196.52Z" transform="translate(0 0)"/><path class="cls-3" d="M748.23,1205.4a30,30,0,0,1-19.11-6.75l4.6-7q7.34,5.55,14.76,5.54a8.64,8.64,0,0,0,5.16-1.32,4.3,4.3,0,0,0,1.84-3.71,3.48,3.48,0,0,0-.64-2.09,5.73,5.73,0,0,0-2.26-1.66,21.82,21.82,0,0,0-2.73-1.11l-3.67-1.11-.77-.26q-2.38-.68-4-1.32a32.18,32.18,0,0,1-3.71-1.75,13.53,13.53,0,0,1-3.33-2.43,10.52,10.52,0,0,1-2.13-3.37,11.87,11.87,0,0,1-.86-4.61,12.25,12.25,0,0,1,4.57-10,17.47,17.47,0,0,1,11.47-3.75,29.52,29.52,0,0,1,16.56,5.12l-4.1,7.33q-7-4.26-12.71-4.26a7.43,7.43,0,0,0-4.65,1.28,4.09,4.09,0,0,0-1.67,3.41,3.37,3.37,0,0,0,1.5,2.64,10.78,10.78,0,0,0,3,1.75q1.5.55,4.83,1.67l.42.17a1.28,1.28,0,0,0,.43.08,50.47,50.47,0,0,1,5,1.84,26.67,26.67,0,0,1,4.31,2.43,10.46,10.46,0,0,1,3.46,3.8,11.1,11.1,0,0,1,1.19,5.24q0,6.82-4.69,10.5T748.23,1205.4Z" transform="translate(0 0)"/><path class="cls-3" d="M775.62,1152.58v-9.81h11.09v9.81Zm.42,52v-45h10.33v45Z" transform="translate(0 0)"/><path class="cls-3" d="M815,1205.31q-13,0-13-13.23v-23.71h-5.72v-8.88H802v-12.37H812.3v12.37h12.12v8.88H812.3v22.09q0,5.64,5.55,5.64a14.2,14.2,0,0,0,6.4-1.54V1203A18.7,18.7,0,0,1,815,1205.31Z" transform="translate(0 0)"/><path class="cls-3" d="M854.19,1205.57a22.48,22.48,0,0,1-16.51-6.57q-6.6-6.57-6.61-17a23.81,23.81,0,0,1,6.23-16.64,20.42,20.42,0,0,1,15.78-6.82q10.24,0,15.92,7t5.67,17.28a19.26,19.26,0,0,1-.17,2.9H841.4a13.39,13.39,0,0,0,4.35,8.4,12.69,12.69,0,0,0,8.62,3q6.64,0,12.2-5.37l6,5.37Q865.63,1205.57,854.19,1205.57Zm-12.88-26.71h23.12a14.57,14.57,0,0,0-3.49-8.53A10.16,10.16,0,0,0,853,1167a10.44,10.44,0,0,0-7.85,3.29A14.67,14.67,0,0,0,841.31,1178.86Z" transform="translate(0 0)"/><path class="cls-3" d="M435.49,1305.66v-45.05h10.32v6.83q5.64-7.77,13.74-7.76,9.39,0,13.39,7.93,6.06-7.93,15.28-7.93,7.42,0,11.6,4.52t4.18,12.71v28.75H493.68v-25.6q0-5.37-2.39-8.19a8.37,8.37,0,0,0-6.74-2.81,9,9,0,0,0-7,2.94c-1.76,2-2.64,4.71-2.64,8.24v25.42H464.58V1280c0-3.47-.79-6.16-2.39-8.06a8.28,8.28,0,0,0-6.74-2.86,8.82,8.82,0,0,0-7,3c-1.77,2-2.65,4.77-2.65,8.23v25.34Z" transform="translate(0 0)"/><path class="cls-3" d="M554.34,1305.66H544.1v-5.54q-5.46,6.48-14.59,6.48a17.71,17.71,0,0,1-11.39-3.71q-4.65-3.71-4.65-10.37,0-7.24,5-11c3.36-2.49,7.77-3.75,13.23-3.75a40.85,40.85,0,0,1,12.46,1.88v-.85c0-3.13-1-5.52-2.86-7.17s-4.65-2.47-8.24-2.47a33.34,33.34,0,0,0-12.88,2.81l-2.82-8.28a41.56,41.56,0,0,1,17.15-3.75q9.83,0,14.81,5t5,14.08Zm-10-16.29v-2.56A28.24,28.24,0,0,0,534,1285a13.27,13.27,0,0,0-7.59,1.88,6.06,6.06,0,0,0-2.73,5.29,5.67,5.67,0,0,0,2.47,4.86,10.32,10.32,0,0,0,6.23,1.8,13.45,13.45,0,0,0,8.58-2.65A8.29,8.29,0,0,0,544.36,1289.37Z" transform="translate(0 0)"/><path class="cls-3" d="M566.79,1253.7v-9.81h11.1v9.81Zm.43,52v-45.05h10.32v45.05Z" transform="translate(0 0)"/><path class="cls-3" d="M591,1305.66v-45.05h10.33v7q5.37-7.93,14.08-7.93,7.5,0,11.77,4.69t4.27,12.62v28.67H621.14v-25.6c0-3.52-.84-6.24-2.51-8.14a9,9,0,0,0-7.13-2.86,9.61,9.61,0,0,0-7.33,3q-2.82,3-2.82,8.19v25.42Z" transform="translate(0 0)"/><path class="cls-3" d="M659,1306.43q-13,0-13-13.23v-23.71h-5.72v-8.88h5.72v-12.37h10.32v12.37H668.5v8.88H656.38v22.09q0,5.64,5.55,5.64a14.15,14.15,0,0,0,6.39-1.54v8.45A18.66,18.66,0,0,1,659,1306.43Z" transform="translate(0 0)"/><path class="cls-3" d="M698.27,1306.69a22.48,22.48,0,0,1-16.51-6.57q-6.62-6.57-6.61-17a23.76,23.76,0,0,1,6.23-16.64,20.42,20.42,0,0,1,15.78-6.82q10.25,0,15.91,7t5.68,17.28a19.26,19.26,0,0,1-.17,2.9H685.47a13.48,13.48,0,0,0,4.35,8.4,12.73,12.73,0,0,0,8.62,3q6.66,0,12.2-5.37l6.06,5.37Q709.71,1306.69,698.27,1306.69ZM685.39,1280h23.12a14.51,14.51,0,0,0-3.5-8.53,10.13,10.13,0,0,0-7.93-3.33,10.44,10.44,0,0,0-7.85,3.29A14.61,14.61,0,0,0,685.39,1280Z" transform="translate(0 0)"/><path class="cls-3" d="M729.15,1305.66v-45.05h10.33v7q5.37-7.93,14.08-7.93,7.5,0,11.77,4.69T769.6,1277v28.67H759.27v-25.6c0-3.52-.84-6.24-2.51-8.14a9,9,0,0,0-7.13-2.86,9.65,9.65,0,0,0-7.34,3q-2.81,3-2.81,8.19v25.42Z" transform="translate(0 0)"/><path class="cls-3" d="M819.85,1305.66H809.61v-5.54q-5.46,6.48-14.59,6.48a17.71,17.71,0,0,1-11.39-3.71q-4.65-3.71-4.65-10.37,0-7.24,5-11c3.35-2.49,7.76-3.75,13.22-3.75a40.85,40.85,0,0,1,12.46,1.88v-.85q0-4.69-2.86-7.17t-8.23-2.47a33.38,33.38,0,0,0-12.89,2.81l-2.81-8.28a41.49,41.49,0,0,1,17.15-3.75q9.81,0,14.8,5t5,14.08Zm-10-16.29v-2.56a28.18,28.18,0,0,0-10.32-1.8q-4.87,0-7.6,1.88a6.06,6.06,0,0,0-2.73,5.29,5.66,5.66,0,0,0,2.48,4.86,10.3,10.3,0,0,0,6.23,1.8,13.44,13.44,0,0,0,8.57-2.65A8.26,8.26,0,0,0,809.87,1289.37Z" transform="translate(0 0)"/><path class="cls-3" d="M832.14,1305.66v-45.05h10.32v7q5.37-7.93,14.08-7.93,7.5,0,11.77,4.69t4.27,12.62v28.67H862.25v-25.6c0-3.52-.83-6.24-2.51-8.14a9,9,0,0,0-7.13-2.86,9.61,9.61,0,0,0-7.33,3q-2.82,3-2.82,8.19v25.42Z" transform="translate(0 0)"/><path class="cls-3" d="M905.85,1306.69a22.31,22.31,0,0,1-16.64-6.83,24.07,24.07,0,0,1,0-33.27,22.26,22.26,0,0,1,16.68-6.91,23.27,23.27,0,0,1,18,7.76l-6.4,6.91q-5.37-5.62-11.69-5.63a11.84,11.84,0,0,0-9.26,4.22,15.07,15.07,0,0,0-3.71,10.28,14.81,14.81,0,0,0,3.8,10.33,12.52,12.52,0,0,0,9.68,4.18q6.24,0,11.69-5.63l6.23,6.14a27.2,27.2,0,0,1-8,6.27A23,23,0,0,1,905.85,1306.69Z" transform="translate(0 0)"/><path class="cls-3" d="M953.12,1306.69a22.48,22.48,0,0,1-16.51-6.57q-6.61-6.57-6.61-17a23.76,23.76,0,0,1,6.23-16.64,20.42,20.42,0,0,1,15.78-6.82q10.25,0,15.91,7t5.68,17.28a19.26,19.26,0,0,1-.17,2.9H940.32a13.48,13.48,0,0,0,4.35,8.4,12.71,12.71,0,0,0,8.62,3q6.66,0,12.2-5.37l6.06,5.37A22.77,22.77,0,0,1,953.12,1306.69ZM940.24,1280h23.12a14.51,14.51,0,0,0-3.5-8.53,10.14,10.14,0,0,0-7.93-3.33,10.44,10.44,0,0,0-7.85,3.29A14.61,14.61,0,0,0,940.24,1280Z" transform="translate(0 0)"/><path class="cls-3" d="M1523.38,1204.54v-59.72h11.17l18.18,28.24,18.17-28.24h11.18v59.72h-10.5v-42.83l-18.85,28.16h-.35l-18.68-28v42.66Z" transform="translate(0 0)"/><path class="cls-3" d="M1596.41,1152.58v-9.81h11.09v9.81Zm.43,52v-45h10.32v45Z" transform="translate(0 0)"/><path class="cls-3" d="M1641.46,1205.57a22.29,22.29,0,0,1-16.64-6.83,24.08,24.08,0,0,1,0-33.27,22.29,22.29,0,0,1,16.68-6.91,23.27,23.27,0,0,1,18,7.76l-6.39,6.91q-5.39-5.62-11.69-5.63a11.84,11.84,0,0,0-9.26,4.22,15.07,15.07,0,0,0-3.71,10.28,14.76,14.76,0,0,0,3.8,10.33,12.52,12.52,0,0,0,9.68,4.18q6.22,0,11.69-5.63l6.23,6.14a27.32,27.32,0,0,1-8,6.27A23,23,0,0,1,1641.46,1205.57Z" transform="translate(0 0)"/><path class="cls-3" d="M1669.36,1204.54v-45h10.32v10.16q4.78-11.52,16-11v10.92h-.6a14.43,14.43,0,0,0-11.18,4.56q-4.18,4.58-4.18,13.27v17.15Z" transform="translate(0 0)"/><path class="cls-3" d="M1724.47,1205.57a23.16,23.16,0,0,1-17.06-6.83,23.64,23.64,0,0,1,.08-33.32,24.87,24.87,0,0,1,34.26,0,23.59,23.59,0,0,1,0,33.32A23.48,23.48,0,0,1,1724.47,1205.57Zm.18-9a12.67,12.67,0,0,0,9.89-4.18,14.87,14.87,0,0,0,3.76-10.33,14.56,14.56,0,0,0-3.93-10.28,13,13,0,0,0-9.9-4.22,12.57,12.57,0,0,0-9.81,4.18,14.9,14.9,0,0,0-3.75,10.32,14.6,14.6,0,0,0,3.92,10.24A12.78,12.78,0,0,0,1724.65,1196.61Z" transform="translate(0 0)"/><path class="cls-3" d="M1774.56,1205.4a30,30,0,0,1-19.11-6.75l4.6-7q7.34,5.55,14.76,5.54a8.69,8.69,0,0,0,5.17-1.32,4.31,4.31,0,0,0,1.83-3.71,3.48,3.48,0,0,0-.64-2.09,5.73,5.73,0,0,0-2.26-1.66,21.82,21.82,0,0,0-2.73-1.11l-3.67-1.11-.77-.26q-2.38-.68-4-1.32a32.18,32.18,0,0,1-3.71-1.75,13.72,13.72,0,0,1-3.33-2.43,10.52,10.52,0,0,1-2.13-3.37,11.87,11.87,0,0,1-.85-4.61,12.25,12.25,0,0,1,4.56-10,17.48,17.48,0,0,1,11.48-3.75,29.51,29.51,0,0,1,16.55,5.12l-4.1,7.33q-7-4.26-12.71-4.26a7.43,7.43,0,0,0-4.65,1.28,4.09,4.09,0,0,0-1.67,3.41,3.37,3.37,0,0,0,1.5,2.64,10.78,10.78,0,0,0,3,1.75q1.5.55,4.82,1.67l.43.17a1.28,1.28,0,0,0,.43.08,50.47,50.47,0,0,1,5,1.84,26.67,26.67,0,0,1,4.31,2.43,10.46,10.46,0,0,1,3.46,3.8,11.1,11.1,0,0,1,1.19,5.24q0,6.82-4.69,10.5T1774.56,1205.4Z" transform="translate(0 0)"/><path class="cls-3" d="M1802,1152.58v-9.81H1813v9.81Zm.42,52v-45h10.32v45Z" transform="translate(0 0)"/><path class="cls-3" d="M1841.28,1205.31q-13,0-13-13.23v-23.71h-5.72v-8.88h5.72v-12.37h10.32v12.37h12.12v8.88h-12.12v22.09q0,5.64,5.55,5.64a14.2,14.2,0,0,0,6.4-1.54V1203A18.72,18.72,0,0,1,1841.28,1205.31Z" transform="translate(0 0)"/><path class="cls-3" d="M1880.52,1205.57A22.48,22.48,0,0,1,1864,1199q-6.6-6.57-6.61-17a23.81,23.81,0,0,1,6.23-16.64,20.42,20.42,0,0,1,15.78-6.82q10.24,0,15.92,7t5.67,17.28a19.26,19.26,0,0,1-.17,2.9h-33.1a13.39,13.39,0,0,0,4.35,8.4,12.69,12.69,0,0,0,8.62,3q6.65,0,12.19-5.37l6.06,5.37Q1892,1205.57,1880.52,1205.57Zm-12.88-26.71h23.12a14.51,14.51,0,0,0-3.5-8.53,10.13,10.13,0,0,0-7.93-3.33,10.44,10.44,0,0,0-7.85,3.29A14.61,14.61,0,0,0,1867.64,1178.86Z" transform="translate(0 0)"/><path class="cls-3" d="M1453.2,1306.6a19.86,19.86,0,0,1-14.67-6.36q-6.24-6.35-6.23-17.19t6.18-17.06a19.91,19.91,0,0,1,14.72-6.31q9.21,0,15.36,7.93v-24.23h10.32v62.28h-10.32v-7.51Q1462.59,1306.61,1453.2,1306.6Zm-6.7-13a12.46,12.46,0,0,0,18.39-.08,14.74,14.74,0,0,0,3.84-10.5,14.44,14.44,0,0,0-3.84-10.36,12.58,12.58,0,0,0-18.43-.09c-2.5,2.64-3.75,6.19-3.75,10.62A14.51,14.51,0,0,0,1446.5,1293.63Z" transform="translate(0 0)"/><path class="cls-3" d="M1512.41,1306.69a22.48,22.48,0,0,1-16.51-6.57q-6.62-6.57-6.61-17a23.81,23.81,0,0,1,6.23-16.64,20.42,20.42,0,0,1,15.78-6.82q10.25,0,15.92,7t5.67,17.28a19.26,19.26,0,0,1-.17,2.9h-33.11a13.44,13.44,0,0,0,4.36,8.4,12.68,12.68,0,0,0,8.61,3q6.66,0,12.2-5.37l6.06,5.37Q1523.85,1306.69,1512.41,1306.69ZM1499.53,1280h23.12a14.51,14.51,0,0,0-3.5-8.53,10.13,10.13,0,0,0-7.93-3.33,10.44,10.44,0,0,0-7.85,3.29A14.61,14.61,0,0,0,1499.53,1280Z" transform="translate(0 0)"/><path class="cls-3" d="M1555.41,1306l-18.51-45.4H1548l12.12,33.11,12.2-33.11h10.83l-18.43,45.4Z" transform="translate(0 0)"/><path class="cls-3" d="M1610,1306.69a22.48,22.48,0,0,1-16.51-6.57q-6.62-6.57-6.61-17a23.8,23.8,0,0,1,6.22-16.64,20.46,20.46,0,0,1,15.79-6.82q10.23,0,15.91,7t5.67,17.28a18,18,0,0,1-.17,2.9h-33.1a13.48,13.48,0,0,0,4.35,8.4,12.71,12.71,0,0,0,8.62,3q6.64,0,12.2-5.37l6.06,5.37A22.77,22.77,0,0,1,1610,1306.69ZM1597.13,1280h23.13a14.58,14.58,0,0,0-3.5-8.53,10.15,10.15,0,0,0-7.94-3.33,10.46,10.46,0,0,0-7.85,3.29A14.73,14.73,0,0,0,1597.13,1280Z" transform="translate(0 0)"/><path class="cls-3" d="M1641.5,1305.66v-62.28h10.32v62.28Z" transform="translate(0 0)"/><path class="cls-3" d="M1686.72,1306.69a23.16,23.16,0,0,1-17.07-6.83,23.65,23.65,0,0,1,.09-33.32,24.86,24.86,0,0,1,34.25,0,23.59,23.59,0,0,1,0,33.32A23.44,23.44,0,0,1,1686.72,1306.69Zm.17-9a12.71,12.71,0,0,0,9.9-4.18,14.91,14.91,0,0,0,3.75-10.33,14.56,14.56,0,0,0-3.93-10.28,12.93,12.93,0,0,0-9.89-4.22,12.54,12.54,0,0,0-9.81,4.18,14.86,14.86,0,0,0-3.76,10.32,14.57,14.57,0,0,0,3.93,10.24A12.74,12.74,0,0,0,1686.89,1297.73Z" transform="translate(0 0)"/><path class="cls-3" d="M1721.36,1319.31v-58.7h10.32v7.51q6-8.44,15.27-8.44a20,20,0,0,1,14.76,6.35q6.24,6.36,6.23,17.19,0,10.66-6.23,17a20,20,0,0,1-14.76,6.36q-9.3,0-15.27-7.93v20.64Zm23.21-21.67a12,12,0,0,0,9.17-4q3.71-4,3.71-10.58a14.65,14.65,0,0,0-3.75-10.41,12.07,12.07,0,0,0-9.13-4,12.33,12.33,0,0,0-9.26,4.1,14.63,14.63,0,0,0-3.88,10.49,14.37,14.37,0,0,0,3.88,10.37A12.38,12.38,0,0,0,1744.57,1297.64Z" transform="translate(0 0)"/><path class="cls-3" d="M1778.52,1305.66v-45.05h10.33v6.83q5.63-7.77,13.73-7.76,9.39,0,13.4,7.93,6-7.93,15.27-7.93,7.43,0,11.61,4.52t4.17,12.71v28.75h-10.32v-25.6q0-5.37-2.39-8.19a8.37,8.37,0,0,0-6.74-2.81,9,9,0,0,0-7,2.94c-1.76,2-2.64,4.71-2.64,8.24v25.42h-10.33V1280q0-5.2-2.38-8.06a8.3,8.3,0,0,0-6.74-2.86,8.84,8.84,0,0,0-7,3,12.11,12.11,0,0,0-2.64,8.23v25.34Z" transform="translate(0 0)"/><path class="cls-3" d="M1880.22,1306.69a22.48,22.48,0,0,1-16.51-6.57q-6.62-6.57-6.61-17a23.81,23.81,0,0,1,6.23-16.64,20.43,20.43,0,0,1,15.79-6.82q10.23,0,15.91,7t5.67,17.28a19.26,19.26,0,0,1-.17,2.9h-33.1a13.39,13.39,0,0,0,4.35,8.4,12.68,12.68,0,0,0,8.61,3q6.66,0,12.2-5.37l6.06,5.37Q1891.66,1306.69,1880.22,1306.69ZM1867.34,1280h23.12a14.57,14.57,0,0,0-3.49-8.53,10.16,10.16,0,0,0-7.94-3.33,10.44,10.44,0,0,0-7.85,3.29A14.67,14.67,0,0,0,1867.34,1280Z" transform="translate(0 0)"/><path class="cls-3" d="M1911.11,1305.66v-45.05h10.32v7q5.38-7.93,14.08-7.93,7.5,0,11.77,4.69t4.27,12.62v28.67h-10.32v-25.6c0-3.52-.84-6.24-2.52-8.14a9,9,0,0,0-7.12-2.86,9.63,9.63,0,0,0-7.34,3q-2.82,3-2.82,8.19v25.42Z" transform="translate(0 0)"/><path class="cls-3" d="M1979.11,1306.43q-13,0-13-13.23v-23.71h-5.72v-8.88h5.72v-12.37h10.32v12.37h12.12v8.88h-12.12v22.09q0,5.64,5.55,5.64a14.2,14.2,0,0,0,6.4-1.54v8.45A18.72,18.72,0,0,1,1979.11,1306.43Z" transform="translate(0 0)"/><path class="cls-4" d="M1513.92,495l-13.64-.09a15.19,15.19,0,0,1-14.35-10.37,108.81,108.81,0,0,0-4.19-10.78,15.41,15.41,0,0,1,3.3-17.27l9.46-9.32a15.52,15.52,0,0,0,.15-21.93l-15.73-15.95a15.5,15.5,0,0,0-21.93-.15l-8.5,8.38a15.55,15.55,0,0,1-18,2.75,111.38,111.38,0,0,0-11.07-4.85,15.52,15.52,0,0,1-10.11-14.64l.08-11.73a15.51,15.51,0,0,0-15.4-15.62l-22.39-.15A15.51,15.51,0,0,0,1356,388.7l-.07,11a15.52,15.52,0,0,1-10.6,14.6,109.7,109.7,0,0,0-11.78,4.74,15.53,15.53,0,0,1-17.68-3.12l-7.7-7.81a15.51,15.51,0,0,0-21.93-.15l-16,15.73a15.52,15.52,0,0,0-.15,21.93l7.9,8a15.52,15.52,0,0,1,2.91,17.64,108.77,108.77,0,0,0-4.74,11.52,15.55,15.55,0,0,1-14.77,10.47l-11.39-.08a15.5,15.5,0,0,0-15.61,15.39l-.16,22.4a15.52,15.52,0,0,0,15.4,15.62l12.51.08a15.39,15.39,0,0,1,14.4,10.06,112.27,112.27,0,0,0,4.66,11,15.43,15.43,0,0,1-3.08,17.75l-9.07,8.94a15.52,15.52,0,0,0-.15,21.93l15.73,15.95a15.52,15.52,0,0,0,21.93.15l10.16-10a15.1,15.1,0,0,1,17-3q4.89,2.29,10,4.12a15.72,15.72,0,0,1,10.45,14.94l-.1,14a15.5,15.5,0,0,0,15.4,15.61l22.39.16a15.51,15.51,0,0,0,15.62-15.4l.1-14.75a15.72,15.72,0,0,1,10.39-14.7q4.76-1.71,9.28-3.82a15.48,15.48,0,0,1,17.55,3.19l10.51,10.65a15.51,15.51,0,0,0,21.93.16l16-15.73a15.51,15.51,0,0,0,.15-21.93l-10.31-10.46a15.46,15.46,0,0,1-2.9-17.66q2.32-4.75,4.2-9.76a15.16,15.16,0,0,1,14.34-9.78l14.76.1a15.5,15.5,0,0,0,15.61-15.4l.16-22.4A15.51,15.51,0,0,0,1513.92,495Zm-138.21,81.46a56,56,0,1,1,61.85-61A56.18,56.18,0,0,1,1375.71,576.48Z" transform="translate(0 0)"/><path class="cls-4" d="M1344.51,524.37a37.47,37.47,0,1,1,33.22,33.68A37.48,37.48,0,0,1,1344.51,524.37Z" transform="translate(0 0)"/><path class="cls-4" d="M1947.19,806.08a12.58,12.58,0,0,0,12.48,12.66l10.14.07a12.47,12.47,0,0,1,11.68,8.15,87.68,87.68,0,0,0,3.78,8.92,12.5,12.5,0,0,1-2.5,14.38l-7.35,7.25a12.56,12.56,0,0,0-.12,17.77L1988,888.21a12.58,12.58,0,0,0,17.78.13l8.23-8.13a12.26,12.26,0,0,1,13.79-2.42,87.92,87.92,0,0,0,8.14,3.34,12.76,12.76,0,0,1,8.47,12.11l-.08,11.38a12.56,12.56,0,0,0,12.48,12.65l18.15.13a12.57,12.57,0,0,0,12.66-12.48l.08-11.95a12.74,12.74,0,0,1,8.42-11.92c2.57-.92,5.08-2,7.53-3.1a12.56,12.56,0,0,1,14.22,2.58l8.52,8.64a12.56,12.56,0,0,0,17.77.13l12.93-12.75a12.56,12.56,0,0,0,.12-17.77l-8.35-8.48a12.53,12.53,0,0,1-2.36-14.32q1.89-3.86,3.41-7.91a12.32,12.32,0,0,1,11.62-7.93l12,.09a12.57,12.57,0,0,0,12.65-12.48l.13-18.16a12.56,12.56,0,0,0-12.48-12.65l-11.06-.08a12.32,12.32,0,0,1-11.63-8.4,87.84,87.84,0,0,0-3.4-8.74,12.5,12.5,0,0,1,2.68-14l7.66-7.56a12.57,12.57,0,0,0,.13-17.77l-12.75-12.93a12.58,12.58,0,0,0-17.78-.12l-6.89,6.8a12.62,12.62,0,0,1-14.56,2.23,86.36,86.36,0,0,0-9-3.93,12.57,12.57,0,0,1-8.19-11.87l.06-9.51a12.57,12.57,0,0,0-12.48-12.66l-18.15-.12a12.57,12.57,0,0,0-12.66,12.48l-.06,8.93a12.59,12.59,0,0,1-8.58,11.83,87.46,87.46,0,0,0-9.56,3.84,12.59,12.59,0,0,1-14.33-2.53l-6.24-6.33a12.56,12.56,0,0,0-17.77-.12l-12.93,12.75a12.56,12.56,0,0,0-.12,17.77l6.4,6.49a12.57,12.57,0,0,1,2.36,14.3,91.1,91.1,0,0,0-3.85,9.34,12.57,12.57,0,0,1-12,8.48l-9.23-.06a12.57,12.57,0,0,0-12.66,12.48Zm74.38-3.93A45.39,45.39,0,1,1,2061.81,843,45.4,45.4,0,0,1,2021.57,802.15Z" transform="translate(0 0)"/><path class="cls-5" d="M1345,877.85c-3.3-65.48-.57-127.15.14-244.46,1.34-223.19,138.15-318.88,330.61-307.83,194.08,11.15,225.79,158.93,225.79,158.93s175-28.44,225,176.85C2170.27,841.13,2087.36,971,1932.75,971c-77.62,0-444.65,2.45-444.65,2.45C1397.84,979.31,1348.33,943.34,1345,877.85Z" transform="translate(0 0)"/><path class="cls-4" d="M1513.92,495l-13.64-.09a15.19,15.19,0,0,1-14.35-10.37,108.81,108.81,0,0,0-4.19-10.78,15.41,15.41,0,0,1,3.3-17.27l9.46-9.32a15.52,15.52,0,0,0,.15-21.93l-15.73-15.95a15.5,15.5,0,0,0-21.93-.15l-8.5,8.38a15.55,15.55,0,0,1-18,2.75,111.38,111.38,0,0,0-11.07-4.85,15.52,15.52,0,0,1-10.11-14.64l.08-11.73a15.51,15.51,0,0,0-15.4-15.62l-22.39-.15A15.51,15.51,0,0,0,1356,388.7l-.07,11a15.52,15.52,0,0,1-10.6,14.6,109.7,109.7,0,0,0-11.78,4.74,15.53,15.53,0,0,1-17.68-3.12l-7.7-7.81a15.51,15.51,0,0,0-21.93-.15l-16,15.73a15.52,15.52,0,0,0-.15,21.93l7.9,8a15.52,15.52,0,0,1,2.91,17.64,108.77,108.77,0,0,0-4.74,11.52,15.55,15.55,0,0,1-14.77,10.47l-11.39-.08a15.5,15.5,0,0,0-15.61,15.39l-.16,22.4a15.52,15.52,0,0,0,15.4,15.62l12.51.08a15.39,15.39,0,0,1,14.4,10.06,112.27,112.27,0,0,0,4.66,11,15.43,15.43,0,0,1-3.08,17.75l-9.07,8.94a15.52,15.52,0,0,0-.15,21.93l15.73,15.95a15.52,15.52,0,0,0,21.93.15l10.16-10a15.1,15.1,0,0,1,17-3q4.89,2.29,10,4.12a15.72,15.72,0,0,1,10.45,14.94l-.1,14a15.5,15.5,0,0,0,15.4,15.61l22.39.16a15.51,15.51,0,0,0,15.62-15.4l.1-14.75a15.72,15.72,0,0,1,10.39-14.7q4.76-1.71,9.28-3.82a15.48,15.48,0,0,1,17.55,3.19l10.51,10.65a15.51,15.51,0,0,0,21.93.16l16-15.73a15.51,15.51,0,0,0,.15-21.93l-10.31-10.46a15.46,15.46,0,0,1-2.9-17.66q2.32-4.75,4.2-9.76a15.16,15.16,0,0,1,14.34-9.78l14.76.1a15.5,15.5,0,0,0,15.61-15.4l.16-22.4A15.51,15.51,0,0,0,1513.92,495Zm-138.21,81.46a56,56,0,1,1,61.85-61A56.18,56.18,0,0,1,1375.71,576.48Z" transform="translate(0 0)"/><path class="cls-4" d="M1344.51,524.37a37.47,37.47,0,1,1,33.22,33.68A37.48,37.48,0,0,1,1344.51,524.37Z" transform="translate(0 0)"/><path class="cls-4" d="M1947.19,806.08a12.58,12.58,0,0,0,12.48,12.66l10.14.07a12.47,12.47,0,0,1,11.68,8.15,87.68,87.68,0,0,0,3.78,8.92,12.5,12.5,0,0,1-2.5,14.38l-7.35,7.25a12.56,12.56,0,0,0-.12,17.77L1988,888.21a12.58,12.58,0,0,0,17.78.13l8.23-8.13a12.26,12.26,0,0,1,13.79-2.42,87.92,87.92,0,0,0,8.14,3.34,12.76,12.76,0,0,1,8.47,12.11l-.08,11.38a12.56,12.56,0,0,0,12.48,12.65l18.15.13a12.57,12.57,0,0,0,12.66-12.48l.08-11.95a12.74,12.74,0,0,1,8.42-11.92c2.57-.92,5.08-2,7.53-3.1a12.56,12.56,0,0,1,14.22,2.58l8.52,8.64a12.56,12.56,0,0,0,17.77.13l12.93-12.75a12.56,12.56,0,0,0,.12-17.77l-8.35-8.48a12.53,12.53,0,0,1-2.36-14.32q1.89-3.86,3.41-7.91a12.32,12.32,0,0,1,11.62-7.93l12,.09a12.57,12.57,0,0,0,12.65-12.48l.13-18.16a12.56,12.56,0,0,0-12.48-12.65l-11.06-.08a12.32,12.32,0,0,1-11.63-8.4,87.84,87.84,0,0,0-3.4-8.74,12.5,12.5,0,0,1,2.68-14l7.66-7.56a12.57,12.57,0,0,0,.13-17.77l-12.75-12.93a12.58,12.58,0,0,0-17.78-.12l-6.89,6.8a12.62,12.62,0,0,1-14.56,2.23,86.36,86.36,0,0,0-9-3.93,12.57,12.57,0,0,1-8.19-11.87l.06-9.51a12.57,12.57,0,0,0-12.48-12.66l-18.15-.12a12.57,12.57,0,0,0-12.66,12.48l-.06,8.93a12.59,12.59,0,0,1-8.58,11.83,87.46,87.46,0,0,0-9.56,3.84,12.59,12.59,0,0,1-14.33-2.53l-6.24-6.33a12.56,12.56,0,0,0-17.77-.12l-12.93,12.75a12.56,12.56,0,0,0-.12,17.77l6.4,6.49a12.57,12.57,0,0,1,2.36,14.3,91.1,91.1,0,0,0-3.85,9.34,12.57,12.57,0,0,1-12,8.48l-9.23-.06a12.57,12.57,0,0,0-12.66,12.48Zm74.38-3.93A45.39,45.39,0,1,1,2061.81,843,45.4,45.4,0,0,1,2021.57,802.15Z" transform="translate(0 0)"/><rect class="cls-6" x="1856.24" y="395.88" width="220" height="220" rx="24.3"/><path class="cls-7" d="M1914,543.51a5.84,5.84,0,0,1-4.12-1.7l-25.25-25.25a5.82,5.82,0,0,1,0-8.24l26.78-26.78a5.83,5.83,0,1,1,8.24,8.24l-22.66,22.66,21.13,21.13a5.82,5.82,0,0,1-4.12,9.94Z" transform="translate(0 0)"/><path class="cls-7" d="M2015.89,543.51a5.82,5.82,0,0,1-4.12-9.94l22.66-22.66-21.13-21.13a5.83,5.83,0,0,1,8.24-8.24l25.25,25.25a5.84,5.84,0,0,1,0,8.24L2020,541.81A5.84,5.84,0,0,1,2015.89,543.51Z" transform="translate(0 0)"/><path class="cls-7" d="M1947.19,556.21a5.82,5.82,0,0,1-5.35-8.12l37-86.41a5.82,5.82,0,0,1,10.71,4.58l-37,86.41A5.84,5.84,0,0,1,1947.19,556.21Z" transform="translate(0 0)"/><g class="cls-8"><rect class="cls-9" x="1856.24" y="395.88" width="220" height="220" rx="24.3"/></g><path class="cls-10" d="M1876.36,536.06c-44.56-35.66-96.67-44-145.25-44-26.35,0-103.82-.4-124.31,10.27-6.43,3.34-40.11,23.25-30.63,107.42,4.4,39.13,13.35,67.17,13.35,67.17V781.4h214.29c67.07,69,185.59,104.07,227.31,37.26C2085.07,732.26,2004.27,638.41,1876.36,536.06Z" transform="translate(0 0)"/><path class="cls-11" d="M1939.75,819.56a78,78,0,0,0,8,34.44c35,2.76,65.94-7.35,83.41-35.33,14.62-23.41,19.34-47.37,15.92-71.89a78.35,78.35,0,0,0-107.29,72.78Z" transform="translate(0 0)"/><rect class="cls-12" x="1399.02" y="643.4" width="548.14" height="379.48" rx="46.15" transform="translate(3346.18 1666.28) rotate(180)"/><path class="cls-13" d="M1947.16,698.71v-9.16A46.15,46.15,0,0,0,1901,643.4H1445.17A46.15,46.15,0,0,0,1399,689.55v9.16Z" transform="translate(0 0)"/><path class="cls-10" d="M1298.75,790.61c-14.23-53.3,9.11-136.08,64.45-178.33,76.69-58.55,145.08-89.87,255.6-112.53L1579.2,643.4c-77.34,22.8-118.89,40.27-142.4,93.19-17.51,39.43,7.55,87.61,47.28,106.33l-47.28,81.25C1385.46,901.15,1320,870.31,1298.75,790.61Z" transform="translate(0 0)"/><path class="cls-12" d="M1775,431c-7.26,28-39.47,44.31-67.5,37a52.43,52.43,0,0,1-37.63-63.9c7.26-28,35.51-43.32,63.9-37.62C1773.83,374.55,1782.26,403,1775,431Z" transform="translate(0 0)"/><path class="cls-14" d="M1772.64,449.07c7.29-33.51,4.51-39.43,4.51-39.43S1768,401,1755.75,399c-19.69-3.21-27.53,7.53-27.53,7.53-1.37,6.74-6.5,33-20.32,31.34,0,0-6.72,20.92-25.43,15.29l-11.94,55.14,51.54,7.7V483.4C1757.84,494.55,1764.1,488.36,1772.64,449.07Z" transform="translate(0 0)"/><path class="cls-15" d="M1701.59,482.08c1.74,6.77,6.67,18.37,20.48,23.79V483.4l-16.57-5.07A3.11,3.11,0,0,0,1701.59,482.08Z" transform="translate(0 0)"/><path class="cls-12" d="M1729.72,420.6a20.13,20.13,0,1,1-14.44-24.53A20.13,20.13,0,0,1,1729.72,420.6Z" transform="translate(0 0)"/><path class="cls-14" d="M1718.46,445.69a13.15,13.15,0,1,1-2.74-18.39A13.14,13.14,0,0,1,1718.46,445.69Z" transform="translate(0 0)"/><path class="cls-15" d="M1714.37,442.66a8.06,8.06,0,1,1-1.68-11.27A8.06,8.06,0,0,1,1714.37,442.66Z" transform="translate(0 0)"/><path class="cls-12" d="M1745.72,433.73a3.11,3.11,0,0,0-2.16-1.77,3,3,0,0,0-2.7.68s-3.89-3.81-3.89-3.81a8.54,8.54,0,0,1,13.87,3.08l-5.14,1.77Z" transform="translate(0 0)"/><path class="cls-6" d="M1664.21,884.6h-129a2.72,2.72,0,1,1,0-5.43h129a2.72,2.72,0,0,1,0,5.43Z" transform="translate(0 0)"/><path class="cls-6" d="M1664.21,822.28h-129a2.72,2.72,0,0,1-2.72-2.72V758a2.71,2.71,0,0,1,2.72-2.71h129a2.72,2.72,0,0,1,0,5.43H1538v56.16h126.24a2.72,2.72,0,0,1,0,5.44Z" transform="translate(0 0)"/><path class="cls-16" d="M1738.82,895.64H1661a13.76,13.76,0,1,1,0-27.51h77.82a13.76,13.76,0,1,1,0,27.51Z" transform="translate(0 0)"/><path class="cls-11" d="M1714.59,833.32h-6.41a13.76,13.76,0,1,1,0-27.52h6.41a13.76,13.76,0,0,1,0,27.52Z" transform="translate(0 0)"/><path class="cls-7" d="M1667.41,833.32H1661a13.76,13.76,0,1,1,0-27.52h6.41a13.76,13.76,0,0,1,0,27.52Z" transform="translate(0 0)"/><path class="cls-7" d="M1843,771.72H1713.06a13.76,13.76,0,1,1,0-27.51H1843a13.76,13.76,0,1,1,0,27.51Z" transform="translate(0 0)"/><path class="cls-7" d="M1841.56,833.32h-85.14a13.76,13.76,0,1,1,0-27.52h85.14a13.76,13.76,0,0,1,0,27.52Z" transform="translate(0 0)"/><path class="cls-7" d="M1789.92,895.64h-6.41a13.76,13.76,0,1,1,0-27.51h6.41a13.76,13.76,0,1,1,0,27.51Z" transform="translate(0 0)"/><path class="cls-7" d="M1667.41,957.24H1661a13.76,13.76,0,0,1,0-27.52h6.41a13.76,13.76,0,0,1,0,27.52Z" transform="translate(0 0)"/><path class="cls-7" d="M1837.06,895.64h-6.41a13.76,13.76,0,1,1,0-27.51h6.41a13.76,13.76,0,1,1,0,27.51Z" transform="translate(0 0)"/><path class="cls-11" d="M1798.16,957.24h-85.1a13.76,13.76,0,0,1,0-27.52h85.1a13.76,13.76,0,0,1,0,27.52Z" transform="translate(0 0)"/><path class="cls-16" d="M1667.41,771.72H1661a13.76,13.76,0,1,1,0-27.51h6.41a13.76,13.76,0,1,1,0,27.51Z" transform="translate(0 0)"/><path class="cls-17" d="M1579.21,646.12a2.72,2.72,0,0,1-1.16-5.18l36.17-17a2.72,2.72,0,0,1,2.31,4.92l-36.17,17A2.64,2.64,0,0,1,1579.21,646.12Z" transform="translate(0 0)"/><path class="cls-10" d="M1682.47,453.15a114.47,114.47,0,0,0,2.28,16.57c2.87,13.52,9.23,30.52,23.15,31.24s14.17-17.56,14.17-17.56l19,4.59s19.37,55.5-40.61,63.34c-67.09,8.78-93.65-49-93.65-49-7.79-26.4,13.39-63,64.49-66.6C1671.29,435.69,1677.28,448.68,1682.47,453.15Z" transform="translate(0 0)"/><path class="cls-15" d="M1762,470.58l-.39,0-7.37-1.05a2.72,2.72,0,0,1,.76-5.38l7.38,1.05a2.72,2.72,0,0,1-.38,5.41Z" transform="translate(0 0)"/><path class="cls-17" d="M1705.11,554.71a120,120,0,0,1-53-12.77c-16.27-8.08-30.11-19.53-39-32.24a2.72,2.72,0,1,1,4.46-3.11c17.54,25.13,53.52,42.68,87.5,42.69,11.62,0,20.5-3.53,26.42-10.5,12.11-14.25,8.33-38.35,8.29-38.59a2.72,2.72,0,0,1,5.37-.88c.17,1.09,4.2,26.84-9.52,43C1728.66,550.54,1718.38,554.71,1705.11,554.71Z" transform="translate(0 0)"/><path class="cls-7" d="M1671.22,634.32a2.7,2.7,0,0,1-1.51-.46c-12.74-8.59-17.83-26.9-11.35-40.82a24,24,0,0,1,3.52-5.51c-2.09-4.33-2.78-9.8-2.06-16.33a60.26,60.26,0,0,1,8.87-25.77c5.92-9,13.92-14.09,23.13-14.64a2.72,2.72,0,1,1,.32,5.43c-15.92.95-25.11,19.1-26.92,35.57a27,27,0,0,0,.93,11.87,17.19,17.19,0,0,1,3.9-2c4.13-1.49,11.51-1.36,14.25,3.62a7,7,0,0,1,0,6.72,9.7,9.7,0,0,1-7.28,5c-4.67.52-9.16-1.85-12-4.72a18.72,18.72,0,0,0-1.81,3.11c-5.4,11.6-1.16,26.87,9.46,34a2.72,2.72,0,0,1-1.53,5Zm-2.31-46a9.81,9.81,0,0,0,7.55,3.19,4.27,4.27,0,0,0,3.07-2,1.54,1.54,0,0,0,0-1.6c-.94-1.71-5-2.06-7.64-1.13A12.65,12.65,0,0,0,1668.91,588.35Z" transform="translate(0 0)"/><path class="cls-7" d="M1731.92,630.73a2.71,2.71,0,0,1-2.71-2.6c-.46-10.34,1.45-20.58,3.29-30.49.25-1.35.51-2.7.75-4,1.85-10.18,3.65-22,1.52-33-2.21-11.47-9-21-17.64-24.78a2.72,2.72,0,1,1,2.19-5c10.44,4.59,18.21,15.33,20.79,28.72,2.31,12,.43,24.35-1.51,35l-.75,4.07c-1.79,9.61-3.64,19.54-3.21,29.26a2.73,2.73,0,0,1-2.6,2.84Z" transform="translate(0 0)"/><path class="cls-11" d="M1381.81,686.3a78.21,78.21,0,0,0-31.57-62.84c-38.24,37-57.54,94.29-55.41,140.68a79.93,79.93,0,0,0,8.66.48A78.32,78.32,0,0,0,1381.81,686.3Z" transform="translate(0 0)"/><path class="cls-12" d="M1728.22,406.52c21,17.46,30.4,22.77,35.82,19.94,6.76-3.53-2.48-24.51-2.48-24.51s21.79,20.42,29.49,11.65c5.73-6.53-1.28-13.89-8.45-19.79-5-4.12-10.32-8.14-10.32-8.14,11.61-3.21,25-6.52,21.66-15.2-3.55-9.31-26.42-6.09-63.58-2.45Z" transform="translate(0 0)"/><path class="cls-12" d="M1737,372a2.7,2.7,0,0,1-1.82-.7,2.73,2.73,0,0,1-.21-3.85c.25-.28,6.31-6.86,22.45-9.17a2.72,2.72,0,0,1,.77,5.38c-14,2-19.13,7.38-19.18,7.44A2.69,2.69,0,0,1,1737,372Z" transform="translate(0 0)"/><path class="cls-17" d="M2009.57,687.52a2.71,2.71,0,0,1-2-.93c-.13-.16-14.24-16.13-41.28-32.17-24.92-14.78-66.25-32.66-121.64-33.87a2.72,2.72,0,1,1,.12-5.43A262.63,262.63,0,0,1,1917,626.7a243.72,243.72,0,0,1,52.18,23.17c27.71,16.48,41.82,32.48,42.4,33.15a2.72,2.72,0,0,1-.26,3.84A2.75,2.75,0,0,1,2009.57,687.52Z" transform="translate(0 0)"/><path class="cls-17" d="M1825.48,626.4l8-40.51a4,4,0,0,1,7.87.56l3.32,62.93Z" transform="translate(0 0)"/><path class="cls-14" d="M1852,614.49s-13.79-11.61-36.7-.33c0,0-12.62-10.69-27.72-1.47a24,24,0,0,0-16-3.7c-10.58,1.21-20.7,5.86-32,36-3.8,10.11-3.34,21.93,7.76,24.12,9.91,2,18.69-8.71,23.33-19.23-5.59,12.85-8.17,27.19,2.75,31.68,7.92,3.26,16.7.86,20.73-10-2.74,5.6-.46,15.2,11.8,16.67,9,1.07,17.33-6.42,19.09-20.82-2.21,11.68,7.34,17.89,14.72,18.68,14.47,1.53,19.69-14.53,29-42.51l42.54,1S1896.85,603.85,1852,614.49Z" transform="translate(0 0)"/><path class="cls-15" d="M1824.32,672.37l-.45,0a2.73,2.73,0,0,1-2.23-3.14c8-47.87,28.46-56.87,29.32-57.23a2.72,2.72,0,0,1,2.11,5c-.12,0-4.69,2.15-10.12,9.57-5.11,7-12,20.22-16,43.55A2.71,2.71,0,0,1,1824.32,672.37Z" transform="translate(0 0)"/><path class="cls-15" d="M1794.11,674.24a2.35,2.35,0,0,1-.52,0,2.71,2.71,0,0,1-2.15-3.18c6.79-35.09,21-57.39,21.58-58.32a2.72,2.72,0,0,1,4.57,2.95c-.18.29-14.25,22.47-20.81,56.4A2.72,2.72,0,0,1,1794.11,674.24Z" transform="translate(0 0)"/><path class="cls-15" d="M1768.79,656.36a3,3,0,0,1-.66-.08,2.72,2.72,0,0,1-2-3.29c6.22-25.21,18.78-41.31,19.31-42a2.72,2.72,0,0,1,4.27,3.36,115.56,115.56,0,0,0-18.31,39.92A2.71,2.71,0,0,1,1768.79,656.36Z" transform="translate(0 0)"/><path class="cls-15" d="M1868.71,643.54l4.08-9.39a5.83,5.83,0,0,1,8.11-2.58l23.26,12.81Z" transform="translate(0 0)"/><path class="cls-6" d="M1549,758a13.76,13.76,0,1,1-13.76-13.75A13.76,13.76,0,0,1,1549,758Z" transform="translate(0 0)"/><circle class="cls-6" cx="1535.25" cy="819.56" r="13.76" transform="translate(386.69 2127.03) rotate(-76.8)"/><circle class="cls-6" cx="1535.25" cy="881.89" r="13.76" transform="translate(-173.92 1343.88) rotate(-45)"/><path class="cls-14" d="M1583.29,941.58c-7.85,2.81-14.73,15.15-26.86,12.31a107.23,107.23,0,0,1-12.68-3.58s24.17-7.64,14.21-28.56c1.08.66,2.16,1.37,3.26,2.13,12.89,8.9,29.75,18.39,38.64,1.11s-17.65-32.13-38.12-45.18c-19.57-12.47-34.86-29.06-59.24-27.92l-18.42-9-47.28,81.25,29.33,19.05s9.19,23.9,21.93,35.93c7.92,7.48,29.2,7.88,29.2,7.88,26.51,12,49.32,26.37,77.63-5.51S1591.14,938.78,1583.29,941.58Z" transform="translate(0 0)"/><path class="cls-15" d="M1543.75,953a2.77,2.77,0,0,1-1.27-.31c-.4-.21-9.79-5.26-11.93-14.13-1.15-4.75,0-9.59,3.32-14.38,3.2-4.58,7.15-7.29,11.74-8.06,7.43-1.25,13.68,3.21,13.94,3.4a2.72,2.72,0,0,1-3.18,4.41c-.11-.08-4.77-3.32-9.9-2.44-3.08.53-5.82,2.48-8.15,5.8-2.45,3.51-3.27,6.78-2.49,10,1.55,6.4,9.11,10.55,9.19,10.59a2.72,2.72,0,0,1-1.27,5.12Z" transform="translate(0 0)"/><path class="cls-15" d="M1517.26,989.75a2.73,2.73,0,0,1-1.14-.25c-10.9-5-20.1-16.85-20.48-17.35a2.72,2.72,0,1,1,4.31-3.32c.08.11,8.77,11.27,18.45,15.73a2.72,2.72,0,0,1-1.14,5.19Z" transform="translate(0 0)"/><path class="cls-15" d="M1545.7,937.2a2.69,2.69,0,0,1-1.83-.71l-9.6-8.71a2.72,2.72,0,0,1,3.65-4l9.61,8.72a2.72,2.72,0,0,1-1.83,4.73Z" transform="translate(0 0)"/><path class="cls-13" d="M1598.44,943.48a13.76,13.76,0,1,1-13.76-13.76A13.76,13.76,0,0,1,1598.44,943.48Z" transform="translate(0 0)"/><path class="cls-16" d="M1749.5,407a2.72,2.72,0,0,1-2-.87c-5.09-5.51-14.32-12.09-14.42-12.15a2.72,2.72,0,0,1,3.15-4.44c.4.29,9.79,7,15.27,12.89a2.72,2.72,0,0,1-2,4.57Z" transform="translate(0 0)"/><path class="cls-16" d="M1753.13,377.07a2.72,2.72,0,0,1-.38-5.41l11.82-1.71a2.72,2.72,0,0,1,.78,5.38L1753.53,377A2.69,2.69,0,0,1,1753.13,377.07Z" transform="translate(0 0)"/><rect class="cls-13" x="1444.81" y="318.25" width="121.78" height="121.78" rx="13.45"/><path class="cls-7" d="M1545.88,425.1a5.84,5.84,0,0,1-4.12-1.7L1461.4,343a5.83,5.83,0,1,1,8.24-8.24L1550,415.16a5.82,5.82,0,0,1-4.12,9.94Z" transform="translate(0 0)"/><path class="cls-7" d="M1465.52,425.1a5.82,5.82,0,0,1-4.12-9.94l80.36-80.36A5.83,5.83,0,1,1,1550,343l-80.36,80.36A5.82,5.82,0,0,1,1465.52,425.1Z" transform="translate(0 0)"/><g class="cls-8"><rect class="cls-18" x="1444.81" y="318.25" width="121.78" height="121.78" rx="13.45"/></g><path class="cls-11" d="M1873.49,370.26a2.74,2.74,0,0,1-2.57-1.81c-10.83-30.56-34.25-58.06-64.27-75.47-28.24-16.38-62-24.42-97.56-23.26-26.48.87-47.62,7.16-63,18.72,4.81,4.58,8.36,11.75,6.19,18.94a14,14,0,0,1-10.24,9.21,11,11,0,0,1-10.83-2.86,11.35,11.35,0,0,1-3.08-8.32c.18-6.14,4.39-12.24,8.28-15.9.26-.26.53-.51.81-.76-8.17-4.65-18-6.4-26.49-4.57-15.79,3.4-24.94,24-25,24.21a2.72,2.72,0,0,1-5-2.17c.42-1,10.39-23.37,28.87-27.36,10.52-2.27,22.32,0,32,6.18,16.38-12.85,39-19.83,67.31-20.75,36.6-1.2,71.35,7.09,100.47,24a157.2,157.2,0,0,1,40.27,33.35,141.26,141.26,0,0,1,26.4,45,2.72,2.72,0,0,1-1.66,3.47A2.59,2.59,0,0,1,1873.49,370.26Zm-231.66-78.35-1.7,1.55c-3.82,3.61-6.46,8.47-6.57,12.11a5.89,5.89,0,0,0,1.6,4.42c1.84,1.95,4.55,1.56,5.62,1.31a8.67,8.67,0,0,0,6.3-5.48C1648.58,300.83,1645.73,295.34,1641.83,291.91Z" transform="translate(0 0)"/><path class="cls-12" d="M1740.59,442.3a2.73,2.73,0,1,1-2.73-2.73A2.73,2.73,0,0,1,1740.59,442.3Z" transform="translate(0 0)"/><path class="cls-12" d="M1766.36,449.55a2.73,2.73,0,1,1-2.73-2.73A2.74,2.74,0,0,1,1766.36,449.55Z" transform="translate(0 0)"/><path class="cls-15" d="M1756.82,464.05a2.68,2.68,0,0,1-2.16-1.08,2.72,2.72,0,0,1,.51-3.81l5-3.82-3.62-1.22a2.72,2.72,0,0,1-1.73-3.37c.12-.39,3-9.74,8.4-14.12a2.72,2.72,0,0,1,3.43,4.22c-2.51,2-4.55,6.11-5.73,9l2.79.94a4.42,4.42,0,0,1,1.27,7.71l-6.54,5A2.76,2.76,0,0,1,1756.82,464.05Z" transform="translate(0 0)"/><path class="cls-12" d="M1771.75,441.76a3.07,3.07,0,0,0-2.17-1.77,3,3,0,0,0-2.66.64,2.72,2.72,0,0,1-3.92-3.77,8.53,8.53,0,0,1,13.87,3.07l-5.14,1.78Z" transform="translate(0 0)"/><path class="cls-19" d="M1743.05,457.61a8.06,8.06,0,1,1-6.41-9.42A8.06,8.06,0,0,1,1743.05,457.61Z" transform="translate(0 0)"/><path class="cls-17" d="M1436.8,926.89a2.72,2.72,0,0,1-2.35-4.09l47.28-81.25a2.72,2.72,0,0,1,4.7,2.74l-47.28,81.25A2.7,2.7,0,0,1,1436.8,926.89Z" transform="translate(0 0)"/><path class="cls-5" d="M2012.61,293.63a17.51,17.51,0,0,0-13.32-2.57c-4.86,1.4-6.63-.95-3.93-5.23l17-27a9.2,9.2,0,0,0-2.87-12.67l-27-17c-4.27-2.7-6.62-.93-5.22,3.92a17.57,17.57,0,0,1-2.58,13.33,20.79,20.79,0,0,1-35.17-22.19,17.55,17.55,0,0,1,10.91-8.06c5-.83,5.57-3.71,1.29-6.41l-27-17a9.22,9.22,0,0,0-12.68,2.87l-53.47,84.78a9.23,9.23,0,0,0,2.87,12.68l84.79,53.47a9.21,9.21,0,0,0,12.67-2.87l17-27c2.7-4.27,5.58-3.69,6.41,1.29a17.59,17.59,0,0,0,8.06,10.92,20.8,20.8,0,0,0,22.19-35.18Z" transform="translate(0 0)"/><path class="cls-5" d="M771.31,942.57C680,941.84,476.06,978.66,417,854.47S411.06,512.69,511.66,426c93.88-81,225.62-102.08,344.09-24.08S951.1,550.7,951.1,550.7s179.74,5.54,173.34,193.06C1116.62,973,838.66,943.11,771.31,942.57Z" transform="translate(0 0)"/><path class="cls-11" d="M1040.27,897.09a2.72,2.72,0,0,1-.08-5.43c13.54-.41,27.89-5,43.87-14.15,75.64-43.12,109-138.85,76-217.94-6.51-15.57-18-30.29-30.61-39.36-9.15-6.56-22.86-13.05-38.81-9.73-3.54,16.21-9.91,29.63-18.94,39.9-3.56,4-8.45,6-12.48,5-2-.5-5.52-2.18-6.89-7.93-1.07-4.48.27-8.9,1.37-11.83a49.06,49.06,0,0,1,27.74-28.06c1.52-.58,3-1.1,4.57-1.53,4.45-22.63,4.32-46-.43-64.71-6.36-25-20.24-40.89-41.25-47.15a83.72,83.72,0,0,0-74.92,14.06c-20.17,15.59-31.23,38.93-30.35,64a2.72,2.72,0,1,1-5.43.19c-1-26.87,10.89-51.85,32.46-68.53a89.17,89.17,0,0,1,79.79-15,60.14,60.14,0,0,1,29.88,19.69c6.85,8.34,11.92,18.88,15.09,31.33,4.77,18.77,5.08,42.09.93,64.76,13.65-2.19,27.58,1.54,40.84,11,13.44,9.64,25.58,25.22,32.45,41.68,16.53,39.56,17.42,84.61,2.51,126.84-14.79,41.88-43.48,76.65-80.79,97.92-16.77,9.56-32,14.42-46.4,14.86Zm44.36-284.93-1.26.47a43.54,43.54,0,0,0-24.62,24.9c-1.35,3.6-1.72,6.35-1.17,8.66s1.51,3.56,2.91,3.91c2,.5,4.91-.84,7.06-3.27C1075.46,637.83,1081.19,626.19,1084.63,612.16Z" transform="translate(0 0)"/><path class="cls-10" d="M919.19,322.35c-42.16-35.59-123.75-49.78-183-13.18C658.26,357.36,623.83,470.34,623.1,620l139.59-3.25c6.69-137.67,11.8-202.78,60.65-208.52,42.85-5,64.06,52,64.06,96h93.76C982.22,447.91,982.22,375.56,919.19,322.35Z" transform="translate(0 0)"/><path class="cls-17" d="M758.46,554.51c-22.74-11.07-89.73-19.77-130.53-22.09a820.72,820.72,0,0,0-4.83,87.38l41.51-.79,98.08-2.28c1-21.29,2-40.85,3.16-58.72C763.48,556.9,761,555.76,758.46,554.51Z" transform="translate(0 0)"/><path class="cls-6" d="M747.79,302.79a78.34,78.34,0,0,0,141.43.81C848.43,284.73,793.15,280.59,747.79,302.79Z" transform="translate(0 0)"/><rect class="cls-13" x="859.1" y="575.42" width="149.27" height="77.99" rx="6.1"/><g class="cls-8"><rect class="cls-20" x="859.1" y="575.42" width="149.27" height="77.99" rx="6.1"/></g><path class="cls-6" d="M889.13,671.14a8.87,8.87,0,0,1-8.87-8.87v-8.86H898v8.86A8.87,8.87,0,0,1,889.13,671.14Z" transform="translate(0 0)"/><path class="cls-6" d="M933.73,671.14a8.87,8.87,0,0,1-8.86-8.87v-8.86H942.6v8.86A8.87,8.87,0,0,1,933.73,671.14Z" transform="translate(0 0)"/><path class="cls-6" d="M978.34,671.14a8.87,8.87,0,0,1-8.87-8.87v-8.86H987.2v8.86A8.87,8.87,0,0,1,978.34,671.14Z" transform="translate(0 0)"/><path class="cls-21" d="M1008.37,617.13H859.1a2.72,2.72,0,1,1,0-5.43h149.27a2.72,2.72,0,0,1,0,5.43Z" transform="translate(0 0)"/><path class="cls-14" d="M887.4,504.16l-3.87,17.51a21.85,21.85,0,0,1-8.22,12.8c-6.9,5.17-17.33,15.28-19.73,30.5-5.28,33.48-7.64,56,7.93,57.77,16.79,1.88,18.19-12.42,22-27.76,2.35-9.46,10.09-16.6,19.83-17,14.72-.62,35.23-.9,42.64,1.76,12.07,4.33,39.63,25.23,56.92,41.9,9.75,9.39,29.34,2.22,22.74-17.51S993,561.31,993,561.31,988.27,549,981.22,545l-.06-40.87Z" transform="translate(0 0)"/><path class="cls-15" d="M993,564a2.68,2.68,0,0,1-1.73-.62c-7.48-6.18-22.25-9.78-22.4-9.82a2.72,2.72,0,1,1,1.27-5.28c.65.15,16.14,3.92,24.59,10.91A2.71,2.71,0,0,1,993,564Z" transform="translate(0 0)"/><path class="cls-10" d="M514.94,596.5c40.87-35.19,64.77-31.42,112.3-31.42,25.78,0,66.94-1.09,110.36,20,26.9,13.08,41.4,33.21,46.86,99,4,47.69,13.15,175.93,13.15,175.93H481.51C494.7,744.19,466.6,638.11,514.94,596.5Z" transform="translate(0 0)"/><path class="cls-12" d="M707.79,492.14C705.4,521,675.85,542.64,647,540.49a52.43,52.43,0,0,1-48.39-56.19c2.16-28.88,27.27-49.92,56.19-48.39C691.49,437.86,710.69,457.12,707.79,492.14Z" transform="translate(0 0)"/><path class="cls-14" d="M707.7,510.25c.72-12.55-.84-25.77-2-33.62A6,6,0,0,0,698,471.8a44.69,44.69,0,0,1-10.8,2.22c-7.65.17-16.51-2.26-22.61-4.33a6,6,0,0,0-7.92,5.17c-1.12,12.49-4.55,35.29-14.63,35.87,0,0-2.89,21.78-22.3,19.57v45.81l44.35,9V553C701.22,557.64,705.39,550.39,707.7,510.25Z" transform="translate(0 0)"/><path class="cls-15" d="M644,555.5c2.7,5,8.39,13.09,19.77,21.16L664,553l-17-2A3.06,3.06,0,0,0,644,555.5Z" transform="translate(0 0)"/><circle class="cls-12" cx="640.32" cy="488.37" r="20.13" transform="translate(-164.1 525.96) rotate(-40.01)"/><path class="cls-14" d="M653.78,516.55a13.15,13.15,0,1,1-6-17.61A13.13,13.13,0,0,1,653.78,516.55Z" transform="translate(0 0)"/><path class="cls-15" d="M649.22,514.3a8.06,8.06,0,1,1-3.66-10.79A8.06,8.06,0,0,1,649.22,514.3Z" transform="translate(0 0)"/><path class="cls-7" d="M706.46,494.8l-33-1.35a2.72,2.72,0,1,1,.22-5.43l32.88,1.34a2.72,2.72,0,0,1-.11,5.44Z" transform="translate(0 0)"/><path class="cls-7" d="M619.69,542.1s24.46,33.32,37.42,33.32c5.17,0,3.71-12,3.71-12l11.36.66,1,4.16-12.76,41.22L602.15,565Z" transform="translate(0 0)"/><path class="cls-17" d="M684.52,858.54a2.73,2.73,0,0,1-2.72-2.79c3.12-112.12-3.42-172.69-9.45-203.75-6.62-34.11-14.14-41.36-14.21-41.43s3.53-4.13,3.53-4.13c.86.71,8.62,8,15.53,42.06,6.34,31.26,13.23,92.62,10,207.4A2.72,2.72,0,0,1,684.52,858.54Z" transform="translate(0 0)"/><polygon class="cls-12" points="467.61 949 815.68 949 797.61 860.01 481.51 860.01 467.61 949"/><rect class="cls-12" x="1005.49" y="999.79" width="47.92" height="47.92" rx="8.49"/><rect class="cls-12" x="1073.21" y="963.52" width="47.92" height="47.92" rx="8.49"/><path class="cls-10" d="M263,865.25c-35.59-42.16-49.77-123.75-13.17-183,48.19-78,194.22-116.46,343.86-117.2l-36.3,143.67c-137.67,6.7-202.78,11.81-208.52,60.66-5,42.85,55.22,64.37,99.14,64.37l-3.19,99.11C388.59,934,316.24,928.28,263,865.25Z" transform="translate(0 0)"/><path class="cls-6" d="M248.67,684.24c-28.11,47.28-24.57,108.17-4,152a78.33,78.33,0,0,0,4-152Z" transform="translate(0 0)"/><path class="cls-12" d="M811.62,698.07V642.75H601.86a44.46,44.46,0,0,0-44.45,44.45V977.78a44.45,44.45,0,0,0,44.45,44.45H961.5a8.49,8.49,0,0,0,8.49-8.49V982.8a8.49,8.49,0,0,1,8.49-8.49h30.94a8.49,8.49,0,0,0,8.49-8.49V934.88a8.49,8.49,0,0,1,8.49-8.49h30.94a8.5,8.5,0,0,0,8.49-8.5V698.07Z" transform="translate(0 0)"/><path class="cls-13" d="M601.86,642.75a44.46,44.46,0,0,0-44.45,44.45v10.87H811.62V642.75Z" transform="translate(0 0)"/><path class="cls-11" d="M625.63,670.65a11.54,11.54,0,1,0,11.54-11.54A11.54,11.54,0,0,0,625.63,670.65Z" transform="translate(0 0)"/><path class="cls-7" d="M590.37,670.65a11.54,11.54,0,1,0,11.54-11.54A11.54,11.54,0,0,0,590.37,670.65Z" transform="translate(0 0)"/><path class="cls-6" d="M730.05,745.23a3.29,3.29,0,0,0-3.32-3.27l-2.41,0a3.3,3.3,0,0,1-3.14-2.23,23.63,23.63,0,0,0-1-2.44,3.3,3.3,0,0,1,.62-3.75l1.68-1.7a3.3,3.3,0,0,0,0-4.66l-3.38-3.34a3.29,3.29,0,0,0-4.66,0l-1.64,1.66a3.28,3.28,0,0,1-3.75.66,23.9,23.9,0,0,0-2.51-1,3.3,3.3,0,0,1-2.25-3.1l0-2.34a3.29,3.29,0,0,0-3.31-3.27l-4.76,0a3.29,3.29,0,0,0-3.27,3.32v2.49a3.28,3.28,0,0,1-2.14,3.11,23.59,23.59,0,0,0-2.35,1,3.31,3.31,0,0,1-3.82-.59l-1.81-1.78a3.3,3.3,0,0,0-4.66,0l-3.34,3.39a3.3,3.3,0,0,0,0,4.66l2,2a3.27,3.27,0,0,1,.71,3.67,20.47,20.47,0,0,0-.89,2.29,3.24,3.24,0,0,1-3,2.2l-2.9,0a3.29,3.29,0,0,0-3.27,3.32l0,4.76a3.29,3.29,0,0,0,3.32,3.27l3.13,0a3.22,3.22,0,0,1,3.05,2.07,22.42,22.42,0,0,0,.89,2.08,3.27,3.27,0,0,1-.61,3.75L675,763.8a3.29,3.29,0,0,0,0,4.66l3.39,3.34a3.28,3.28,0,0,0,4.65,0l2.24-2.26a3.28,3.28,0,0,1,3.73-.68c.64.3,1.3.57,2,.81a3.34,3.34,0,0,1,2.21,3.13l0,3.13a3.29,3.29,0,0,0,3.31,3.27l4.76,0a3.29,3.29,0,0,0,3.27-3.32l0-3a3.35,3.35,0,0,1,2.22-3.18c.73-.26,1.44-.55,2.14-.87a3.21,3.21,0,0,1,3.61.63l2.16,2.13a3.3,3.3,0,0,0,4.66,0l3.34-3.39a3.3,3.3,0,0,0,0-4.66l-1.93-1.9a3.28,3.28,0,0,1-.65-3.77,24.12,24.12,0,0,0,1-2.34,3.26,3.26,0,0,1,3.06-2.13l2.65,0a3.3,3.3,0,0,0,3.28-3.32Zm-30,14.43A11.9,11.9,0,1,1,710.59,749,11.91,11.91,0,0,1,700,759.66Z" transform="translate(0 0)"/><path class="cls-7" d="M930.69,901.16a9,9,0,0,0-9.06-8.93l-6.61,0a9,9,0,0,1-8.57-6.07,65.28,65.28,0,0,0-2.76-6.69,9,9,0,0,1,1.69-10.23l4.59-4.66a9,9,0,0,0-.09-12.72l-9.26-9.13a9,9,0,0,0-12.72.09l-4.47,4.53a9,9,0,0,1-10.26,1.81,65.52,65.52,0,0,0-6.84-2.75,9,9,0,0,1-6.15-8.47l0-6.4a9,9,0,0,0-9.06-8.93l-13,.09a9,9,0,0,0-8.93,9.06l0,6.81a9,9,0,0,1-5.86,8.5,63.47,63.47,0,0,0-6.43,2.81,9,9,0,0,1-10.42-1.59l-4.94-4.87a9,9,0,0,0-12.72.09l-9.13,9.25a9,9,0,0,0,.09,12.73l5.49,5.41a9,9,0,0,1,1.91,10,61.25,61.25,0,0,0-2.43,6.25,8.81,8.81,0,0,1-8.33,6l-7.92,0a9,9,0,0,0-8.93,9.06l.09,13a9,9,0,0,0,9.06,8.94l8.56-.06a8.83,8.83,0,0,1,8.33,5.68c.72,1.93,1.54,3.82,2.44,5.66a9,9,0,0,1-1.69,10.26l-6,6.06a9,9,0,0,0,.09,12.73l9.25,9.13a9,9,0,0,0,12.73-.09l6.1-6.19a9,9,0,0,1,10.18-1.84c1.76.81,3.55,1.55,5.39,2.21a9.12,9.12,0,0,1,6,8.54l.06,8.55a9,9,0,0,0,9.06,8.94l13-.09a9,9,0,0,0,8.94-9.06l-.06-8.15a9.12,9.12,0,0,1,6.07-8.67,61.77,61.77,0,0,0,5.82-2.39,8.77,8.77,0,0,1,9.87,1.73l5.9,5.82a9,9,0,0,0,12.73-.09l9.13-9.26a9,9,0,0,0-.09-12.72l-5.26-5.19a9,9,0,0,1-1.79-10.3,64.37,64.37,0,0,0,2.7-6.39,8.93,8.93,0,0,1,8.36-5.83l7.26,0a9,9,0,0,0,8.94-9.07Zm-82,39.41a32.5,32.5,0,1,1,28.81-29.22A32.52,32.52,0,0,1,848.71,940.57Z" transform="translate(0 0)"/><path class="cls-11" d="M993.28,769.69a6.1,6.1,0,0,0-6.13-6.06l-4.48,0a6.11,6.11,0,0,1-5.81-4.11A41,41,0,0,0,975,755a6.13,6.13,0,0,1,1.15-6.94l3.11-3.15a6.11,6.11,0,0,0-.06-8.62l-6.27-6.19a6.12,6.12,0,0,0-8.63.06l-3,3.07a6.12,6.12,0,0,1-7,1.23,41.41,41.41,0,0,0-4.63-1.86,6.11,6.11,0,0,1-4.17-5.74l0-4.33a6.1,6.1,0,0,0-6.14-6.06l-8.8.06a6.11,6.11,0,0,0-6.06,6.14l0,4.62a6.1,6.1,0,0,1-4,5.75,44.42,44.42,0,0,0-4.35,1.91,6.1,6.1,0,0,1-7.06-1.08l-3.35-3.3a6.1,6.1,0,0,0-8.62.06L891,736.92a6.11,6.11,0,0,0,.06,8.62l3.72,3.67a6.06,6.06,0,0,1,1.3,6.79,44.3,44.3,0,0,0-1.65,4.24,6,6,0,0,1-5.64,4.08l-5.36,0a6.11,6.11,0,0,0-6.06,6.14l.06,8.81a6.1,6.1,0,0,0,6.14,6.05l5.81,0a6,6,0,0,1,5.63,3.85c.49,1.31,1,2.59,1.66,3.84a6.09,6.09,0,0,1-1.14,6.94l-4.06,4.12a6.1,6.1,0,0,0,.06,8.62l6.27,6.18a6.09,6.09,0,0,0,8.62-.06l4.14-4.19a6.08,6.08,0,0,1,6.9-1.25c1.19.55,2.4,1,3.65,1.5a6.17,6.17,0,0,1,4.08,5.78l0,5.8a6.11,6.11,0,0,0,6.14,6.06l8.81-.07a6.1,6.1,0,0,0,6.06-6.14l0-5.51a6.17,6.17,0,0,1,4.11-5.88c1.34-.48,2.66-1,3.94-1.62a5.93,5.93,0,0,1,6.69,1.18l4,3.94a6.11,6.11,0,0,0,8.62-.06l6.18-6.28a6.09,6.09,0,0,0-.06-8.62l-3.56-3.51a6.05,6.05,0,0,1-1.21-7,43.54,43.54,0,0,0,1.83-4.33,6,6,0,0,1,5.66-4l4.92,0a6.1,6.1,0,0,0,6.06-6.14Zm-55.54,26.69a22,22,0,1,1,19.52-19.79A22,22,0,0,1,937.74,796.38Z" transform="translate(0 0)"/><path class="cls-7" d="M826,817.28a2.38,2.38,0,0,1-.53,0,2.72,2.72,0,0,1-2.14-3.19l4.08-20.73a2.72,2.72,0,1,1,5.33,1.05l-4.08,20.73A2.71,2.71,0,0,1,826,817.28Z" transform="translate(0 0)"/><path class="cls-7" d="M791.52,831a2.65,2.65,0,0,1-1.45-.42L770.14,818a2.72,2.72,0,1,1,2.9-4.6L793,826a2.72,2.72,0,0,1-1.45,5Z" transform="translate(0 0)"/><path class="cls-6" d="M659.93,611.24a2.72,2.72,0,0,1-2.71-2.48l-2.82-33.11a2.72,2.72,0,1,1,5.42-.46l2.82,33.11a2.71,2.71,0,0,1-2.48,2.93Z" transform="translate(0 0)"/><path class="cls-13" d="M607.81,415.55a2.71,2.71,0,0,1-2.53-1.73l-18.75-48a2.72,2.72,0,0,1,5.06-2l18.75,48a2.72,2.72,0,0,1-1.54,3.53A2.84,2.84,0,0,1,607.81,415.55Z" transform="translate(0 0)"/><path class="cls-13" d="M568.29,453.87a2.73,2.73,0,0,1-1.92-.78l-26.62-26.35-14.19,14.34a2.77,2.77,0,0,1-1.92.81,2.72,2.72,0,0,1-1.92-.79l-26.61-26.33a2.72,2.72,0,1,1,3.82-3.87l24.68,24.42L537.8,421a2.68,2.68,0,0,1,1.92-.8,2.72,2.72,0,0,1,1.92.78l28.56,28.26a2.73,2.73,0,0,1,0,3.85A2.68,2.68,0,0,1,568.29,453.87Z" transform="translate(0 0)"/><path class="cls-16" d="M687.61,467.62c-17.39,0-29.06-11.3-29.59-11.83a2.72,2.72,0,0,1,3.82-3.87c.17.17,12.59,12.07,29.88,10a2.72,2.72,0,0,1,.65,5.4A41.13,41.13,0,0,1,687.61,467.62Z" transform="translate(0 0)"/><path class="cls-16" d="M683.22,455.16c-4.2,0-10.73-3.8-12-4.56a2.72,2.72,0,1,1,2.81-4.66c2.61,1.57,7.19,3.78,9.18,3.78a2.72,2.72,0,1,1,0,5.44Z" transform="translate(0 0)"/><path class="cls-22" d="M447.21,1071.12a69.27,69.27,0,0,0,18.9-74.19l147.75-133.8a69.25,69.25,0,0,0,97.26-75.65,6,6,0,0,0-10-3.39l-35.51,32.17a6,6,0,0,1-8.52-.43l-28.05-31a6,6,0,0,1,.42-8.52L665,744.18a6,6,0,0,0-2.38-10.27,69.26,69.26,0,0,0-84.91,89.3L430,957a69.27,69.27,0,0,0-97.27,75.66,6,6,0,0,0,10,3.38l35.51-32.16a6,6,0,0,1,8.52.42l28.05,31a6,6,0,0,1-.42,8.52L378.82,1076a6,6,0,0,0,2.38,10.26A69.19,69.19,0,0,0,447.21,1071.12Z" transform="translate(0 0)"/><path class="cls-23" d="M466.11,999.65a2.71,2.71,0,0,1-2-.9l-36.15-39.91a2.72,2.72,0,1,1,4-3.65l36.15,39.91a2.72,2.72,0,0,1-.19,3.84A2.66,2.66,0,0,1,466.11,999.65Z" transform="translate(0 0)"/><path class="cls-23" d="M613.86,865.85a2.7,2.7,0,0,1-2-.89L575.7,825a2.72,2.72,0,1,1,4-3.65l36.15,39.92a2.71,2.71,0,0,1-2,4.54Z" transform="translate(0 0)"/><g class="cls-8"><path class="cls-24" d="M447.21,1071.12a69.27,69.27,0,0,0,18.9-74.19l147.75-133.8a69.25,69.25,0,0,0,97.26-75.65,6,6,0,0,0-10-3.39l-35.51,32.17a6,6,0,0,1-8.52-.43l-28.05-31a6,6,0,0,1,.42-8.52L665,744.18a6,6,0,0,0-2.38-10.27,69.26,69.26,0,0,0-84.91,89.3L430,957a69.27,69.27,0,0,0-97.27,75.66,6,6,0,0,0,10,3.38l35.51-32.16a6,6,0,0,1,8.52.42l28.05,31a6,6,0,0,1-.42,8.52L378.82,1076a6,6,0,0,0,2.38,10.26A69.19,69.19,0,0,0,447.21,1071.12Z" transform="translate(0 0)"/></g><path class="cls-14" d="M593.71,897.07s26.66.93,28.26-12.23c2.37-19.45-16.82-16.61-61.06-26.42-11.47-2.54-17.71-3.95-17.71-3.95l23.15-21s-30.48-9.63-62.1-2.75c-11.08,2.41-29.57,5.68-29.57,5.68L448,833.78l-3.19,99.11L487,934.76s32.34,16,47.14,23.34c17.77,8.86,32.47,5.94,35.85.49,2.9-4.66-.77-11.06-.77-11.06.73.1,1.47.21,2.22.35,24.7,4.48,31.63-8.88,28.61-15.81,11.55.82,20.18,1.26,22.35-9.57C624.44,912.3,621.68,906.27,593.71,897.07Z" transform="translate(0 0)"/><path class="cls-15" d="M594.72,899.8a2.55,2.55,0,0,1-.72-.1l-53.52-14.56a2.72,2.72,0,0,1,1.43-5.25l53.52,14.57a2.72,2.72,0,0,1-.71,5.34Z" transform="translate(0 0)"/><path class="cls-15" d="M600.05,934.79a2.89,2.89,0,0,1-.65-.08L532,918.27A2.72,2.72,0,1,1,533.3,913l67.39,16.44a2.72,2.72,0,0,1-.64,5.36Z" transform="translate(0 0)"/><path class="cls-15" d="M569.22,950.25a3.14,3.14,0,0,1-.67-.08l-39.26-9.92a2.72,2.72,0,0,1,1.33-5.28l39.26,9.92a2.72,2.72,0,0,1-.66,5.36Z" transform="translate(0 0)"/><path class="cls-15" d="M543.2,854.47l-9.78-2.57a3.92,3.92,0,0,1,0-7.57L563.59,836Z" transform="translate(0 0)"/><path class="cls-7" d="M430,908.61a11.54,11.54,0,1,1-11.53-11.53A11.53,11.53,0,0,1,430,908.61Z" transform="translate(0 0)"/><path class="cls-17" d="M444.84,935.61a2.72,2.72,0,0,1-2.72-2.76l1.59-96.38a158.72,158.72,0,0,1-45.95-7.91c-17.23-5.75-31.05-14.09-40-24.11-9.24-10.39-13.15-22.29-11.61-35.36,2.76-23.49,18.36-37.94,50.59-46.85,29.53-8.16,72.13-11.67,135.73-15a2.72,2.72,0,1,1,.28,5.43c-63.23,3.28-105.51,6.75-134.56,14.78-29.79,8.24-44.18,21.27-46.64,42.24-1.35,11.47,2.11,21.94,10.27,31.12,18.47,20.76,56.81,30.22,84.62,30.22a2.69,2.69,0,0,1,1.93.81,2.65,2.65,0,0,1,.78,2l-1.63,99.12A2.72,2.72,0,0,1,444.84,935.61Z" transform="translate(0 0)"/><path class="cls-7" d="M969.47,480.9a11.53,11.53,0,1,1-11.53-11.53A11.53,11.53,0,0,1,969.47,480.9Z" transform="translate(0 0)"/><path class="cls-12" d="M678.15,505.49a2.73,2.73,0,1,1-2.73-2.73A2.73,2.73,0,0,1,678.15,505.49Z" transform="translate(0 0)"/><circle class="cls-12" cx="702.06" cy="507.17" r="2.73" transform="translate(163.59 1185.53) rotate(-87.4)"/><path class="cls-12" d="M624.7,445.45c-4.41,0-8.61-6.06-9.93-8.17a2.72,2.72,0,1,1,4.61-2.89c1.65,2.62,4.06,5.21,5.16,5.58.84-.83,1.62-4.66,1.59-7.94a2.72,2.72,0,1,1,5.43-.07c0,2.47-.22,10.71-4.71,13A4.69,4.69,0,0,1,624.7,445.45Z" transform="translate(0 0)"/><path class="cls-19" d="M679.24,521.45a8.06,8.06,0,1,1-6.41-9.42A8.06,8.06,0,0,1,679.24,521.45Z" transform="translate(0 0)"/><path class="cls-12" d="M712.43,536.63A9,9,0,1,1,704.1,527,9,9,0,0,1,712.43,536.63Z" transform="translate(0 0)"/><path class="cls-12" d="M706.37,527.43c-5.44-4.18-23-9.71-34,.81h-9.19a5,5,0,0,1-5-4.86l-.82-28.25L641,497.63l-1.36,40.77a25,25,0,0,0,23.89,25.32l29.21,1.34c11,.5,19.93-5.71,17.64-20.26Z" transform="translate(0 0)"/><path class="cls-15" d="M691.17,534.47a15.48,15.48,0,0,1-9.74-3.79,2.72,2.72,0,0,1,3.58-4.09c.63.54,6.24,5.1,11.21.13a2.72,2.72,0,0,1,3.85,3.84A12.3,12.3,0,0,1,691.17,534.47Z" transform="translate(0 0)"/><path class="cls-7" d="M707.15,526.42h-.76a18.54,18.54,0,0,1-11.8-4.89,2.72,2.72,0,0,1,3.69-4,13.07,13.07,0,1,0-4.09-11.37,2.72,2.72,0,1,1-5.39-.73,18.51,18.51,0,1,1,18.35,21Z" transform="translate(0 0)"/><path class="cls-7" d="M673,525h-.77a18.86,18.86,0,1,1,.77,0Zm0-31.58a13.07,13.07,0,0,0-.53,26.13,13.07,13.07,0,1,0,1.07-26.12Z" transform="translate(0 0)"/><path class="cls-15" d="M692.93,525.12a2.71,2.71,0,0,1-2.09-4.45l4.32-5.23-3.47-.46a2.72,2.72,0,0,1-2.24-1.89c-.09-.28-2.08-6.87.87-12.91a2.72,2.72,0,0,1,4.89,2.39,12.85,12.85,0,0,0-.9,7.27l4.36.58a3.87,3.87,0,0,1,2.48,6.31l-6.12,7.4A2.72,2.72,0,0,1,692.93,525.12Z" transform="translate(0 0)"/><path class="cls-17" d="M981.16,506.88H887.4a2.72,2.72,0,0,1,0-5.44h93.76a2.72,2.72,0,1,1,0,5.44Z" transform="translate(0 0)"/><rect class="cls-4" x="373.78" y="462.53" width="89.28" height="89.28" rx="11.38" transform="translate(925.6 88.75) rotate(90)"/><rect class="cls-5" x="998.23" y="382.09" width="61.48" height="61.48" rx="7.84"/><rect class="cls-4" x="275.35" y="527.34" width="61.48" height="61.48" rx="7.84"/><rect class="cls-5" x="399.22" y="323.22" width="61.48" height="61.48" rx="7.84"/><path class="cls-3" d="M2482.67,1204.54v-59.72h44.45v9.55h-34v16.3h30.12v9.56h-30.12v24.31Z" transform="translate(0 0)"/><path class="cls-3" d="M2537.44,1204.54v-45h10.32v10.16q4.78-11.52,16-11v10.92h-.6q-7,0-11.17,4.56t-4.19,13.27v17.15Z" transform="translate(0 0)"/><path class="cls-3" d="M2591.79,1205.57a22.48,22.48,0,0,1-16.51-6.57q-6.62-6.57-6.61-17a23.81,23.81,0,0,1,6.23-16.64,20.42,20.42,0,0,1,15.78-6.82q10.25,0,15.91,7t5.68,17.28a19.26,19.26,0,0,1-.17,2.9H2579a13.48,13.48,0,0,0,4.35,8.4,12.71,12.71,0,0,0,8.62,3q6.66,0,12.2-5.37l6.06,5.37A22.77,22.77,0,0,1,2591.79,1205.57Zm-12.88-26.71H2602a14.51,14.51,0,0,0-3.5-8.53,10.13,10.13,0,0,0-7.93-3.33,10.44,10.44,0,0,0-7.85,3.29A14.61,14.61,0,0,0,2578.91,1178.86Z" transform="translate(0 0)"/><path class="cls-3" d="M2643.32,1205.57a22.48,22.48,0,0,1-16.51-6.57q-6.61-6.57-6.61-17a23.81,23.81,0,0,1,6.23-16.64,20.42,20.42,0,0,1,15.78-6.82q10.24,0,15.92,7t5.67,17.28a19.26,19.26,0,0,1-.17,2.9h-33.1a13.39,13.39,0,0,0,4.35,8.4,12.68,12.68,0,0,0,8.61,3q6.66,0,12.2-5.37l6.06,5.37Q2654.76,1205.57,2643.32,1205.57Zm-12.88-26.71h23.12a14.51,14.51,0,0,0-3.5-8.53,10.13,10.13,0,0,0-7.93-3.33,10.44,10.44,0,0,0-7.85,3.29A14.61,14.61,0,0,0,2630.44,1178.86Z" transform="translate(0 0)"/><path class="cls-3" d="M2674.81,1204.54v-62.28h10.32v62.28Z" transform="translate(0 0)"/><path class="cls-3" d="M2736.41,1204.54h-10.24V1199q-5.46,6.48-14.59,6.48a17.69,17.69,0,0,1-11.39-3.71q-4.65-3.7-4.65-10.37,0-7.25,5-11c3.36-2.5,7.76-3.76,13.23-3.76a40.74,40.74,0,0,1,12.45,1.88v-.85q0-4.7-2.86-7.17c-1.9-1.65-4.65-2.47-8.23-2.47a33.34,33.34,0,0,0-12.88,2.81l-2.82-8.28a41.52,41.52,0,0,1,17.15-3.75q9.81,0,14.8,5t5,14.08Zm-10-16.29v-2.56a28.15,28.15,0,0,0-10.32-1.8,13.27,13.27,0,0,0-7.59,1.88,6.06,6.06,0,0,0-2.73,5.29,5.67,5.67,0,0,0,2.47,4.86,10.32,10.32,0,0,0,6.23,1.8,13.42,13.42,0,0,0,8.57-2.65A8.26,8.26,0,0,0,2726.42,1188.25Z" transform="translate(0 0)"/><path class="cls-3" d="M2748.69,1204.54v-45H2759v7q5.37-7.93,14.07-7.93,7.51,0,11.78,4.69t4.26,12.62v28.67h-10.32v-25.6c0-3.52-.84-6.24-2.52-8.14a9,9,0,0,0-7.12-2.86,9.63,9.63,0,0,0-7.34,3c-1.88,2-2.81,4.72-2.81,8.19v25.42Z" transform="translate(0 0)"/><path class="cls-3" d="M2822.41,1205.57a22.27,22.27,0,0,1-16.64-6.83,24.05,24.05,0,0,1,0-33.27,22.29,22.29,0,0,1,16.68-6.91,23.27,23.27,0,0,1,18,7.76l-6.39,6.91q-5.38-5.62-11.69-5.63a11.83,11.83,0,0,0-9.26,4.22,15.07,15.07,0,0,0-3.71,10.28,14.8,14.8,0,0,0,3.79,10.33,12.54,12.54,0,0,0,9.69,4.18q6.23,0,11.69-5.63l6.23,6.14a27.32,27.32,0,0,1-8,6.27A23,23,0,0,1,2822.41,1205.57Z" transform="translate(0 0)"/><path class="cls-3" d="M2869.67,1205.57a22.49,22.49,0,0,1-16.51-6.57q-6.6-6.57-6.61-17a23.81,23.81,0,0,1,6.23-16.64,20.43,20.43,0,0,1,15.79-6.82q10.23,0,15.91,7t5.67,17.28a19.26,19.26,0,0,1-.17,2.9h-33.1a13.39,13.39,0,0,0,4.35,8.4,12.69,12.69,0,0,0,8.62,3q6.65,0,12.2-5.37l6,5.37Q2881.11,1205.57,2869.67,1205.57Zm-12.88-26.71h23.12a14.57,14.57,0,0,0-3.49-8.53,10.16,10.16,0,0,0-7.94-3.33,10.44,10.44,0,0,0-7.85,3.29A14.67,14.67,0,0,0,2856.79,1178.86Z" transform="translate(0 0)"/><path class="cls-3" d="M2595.71,1306l-14.59-45.4h10.58l9.05,30.89,10-31.06h8.79l10.06,31.06,9.22-30.89h10.32l-14.76,45.4h-9.21l-10.07-30.81L2604.93,1306Z" transform="translate(0 0)"/><path class="cls-3" d="M2677.62,1306.69a23.12,23.12,0,0,1-17.06-6.83,23.64,23.64,0,0,1,.08-33.32,24.87,24.87,0,0,1,34.26,0,23.61,23.61,0,0,1,0,33.32A23.48,23.48,0,0,1,2677.62,1306.69Zm.17-9a12.7,12.7,0,0,0,9.9-4.18,14.91,14.91,0,0,0,3.75-10.33,14.6,14.6,0,0,0-3.92-10.28,13,13,0,0,0-9.9-4.22,12.54,12.54,0,0,0-9.81,4.18,14.86,14.86,0,0,0-3.76,10.32,14.57,14.57,0,0,0,3.93,10.24A12.74,12.74,0,0,0,2677.79,1297.73Z" transform="translate(0 0)"/><path class="cls-3" d="M2712.26,1305.66v-45.05h10.32v10.16q4.78-11.52,16-11v10.92h-.6a14.44,14.44,0,0,0-11.18,4.56q-4.17,4.58-4.18,13.27v17.15Z" transform="translate(0 0)"/><path class="cls-3" d="M2747.5,1305.66v-62.28h10.32v37.2l18.69-20h12.54L2771.13,1279l18.52,26.7h-12l-13.57-19.45-6.31,6.57v12.88Z" transform="translate(0 0)"/><path class="cls-5" d="M2951.46,549.92c-55-20.6-102.81-11.83-138.22,3.48-37.17-91-110.24-198.15-255.2-157.11-151.11,42.78-188.2,168.19-188.2,287,0,0-87.31,79.12-21.89,195.88,35,62.4,101,74.31,136.64,75.08C2853,962.13,2948,969.51,3017.73,884,3093.3,791.38,3069.93,594.29,2951.46,549.92Z" transform="translate(0 0)"/><path class="cls-16" d="M2281.45,659.62H2545.3a64.63,64.63,0,0,1,62,46.46l85.12,290.48h-397l-76.06-254.13A64.64,64.64,0,0,1,2281.45,659.62Z" transform="translate(0 0)"/><polygon class="cls-6" points="2425.19 996.56 2703 996.56 2684.93 933.65 2425.18 933.3 2425.19 996.56"/><path class="cls-25" d="M2574.79,1002.26H2301.21a36.29,36.29,0,1,1,0-72.58h273.58a36.29,36.29,0,0,1,0,72.58Z" transform="translate(0 0)"/><circle class="cls-12" cx="2610.45" cy="631.98" r="40.23" transform="translate(118.62 1634.29) rotate(-35.52)"/><path class="cls-12" d="M2615.8,672.36a43.1,43.1,0,1,1,10.61-1.33A43.14,43.14,0,0,1,2615.8,672.36Zm.15-80.5a38.1,38.1,0,0,0-9.27,1.16,37.3,37.3,0,1,0,9.27-1.16Z" transform="translate(0 0)"/><path class="cls-12" d="M2545.29,617.2a40.23,40.23,0,1,1-48.87-29.15A40.22,40.22,0,0,1,2545.29,617.2Z" transform="translate(0 0)"/><circle class="cls-12" cx="2663.43" cy="671.02" r="54.27" transform="translate(-78.43 508.79) rotate(-10.75)"/><path class="cls-6" d="M2657.37,672c34.73,35.54,84.51,68.12,134.32,59,39.57-7.22,69-56.38,74-109.12l102.72,5.15c4.71,104.93-.35,215.91-136.6,249.63C2744,898.42,2671.72,844,2603.39,778.05Z" transform="translate(0 0)"/><path class="cls-26" d="M2603.39,778.05l54-106c16.43,16.81,36.21,33,57.78,44.34a266.36,266.36,0,0,1,7.89,31.45c10,53-5,93.19-5,93.19l2.8,24.33C2679.26,846.71,2640.73,814.12,2603.39,778.05Z" transform="translate(0 0)"/><path class="cls-13" d="M2897,837.76a80.66,80.66,0,0,1,5.15,7.7c-18.29,13.37-41.34,24-70.33,31.23a160.13,160.13,0,0,1-77.9.1,79.91,79.91,0,0,1,143.08-39Z" transform="translate(0 0)"/><path class="cls-6" d="M2437.68,671c-18.36,15.31-35.56,38.33-51.78,72.93-30.36,64.73-41.4,136-17.38,194.58,4.82,11.77,11.59,23.89,16.26,30.31,35.78,53.42,89.34,64.22,136.63,62.9,82.46-2.3,116-51.5,150.27-96.14l-2.25-1.82,15.5,0V829.27s16.64-27.93,13.35-67.17c-5.87-69.93-52.25-105.45-71.26-112.37-7.45-2.7-28.1-9-63.89-9-47.38-.08-88.73-.3-125.45,30.32Z" transform="translate(0 0)"/><path class="cls-26" d="M2565.33,717.2c-19.3,0-40-3.73-61.59-11.08A250.1,250.1,0,0,1,2452,681.57l-13.13-8.25a2.72,2.72,0,0,1,2.9-4.61l13.12,8.26a244.91,244.91,0,0,0,50.57,24c21,7.16,41.14,10.79,59.84,10.79a131.65,131.65,0,0,0,18.67-1.3c17.28-2.51,31.86-7.4,44.57-14.94,11.84-7,20.51-15.55,26.25-21.2l4.09-4a2.72,2.72,0,1,1,3.82,3.87l-4.1,4c-5.93,5.84-14.88,14.65-27.28,22-13.34,7.91-28.57,13-46.57,15.64A136.62,136.62,0,0,1,2565.33,717.2Z" transform="translate(0 0)"/><path class="cls-7" d="M2647.56,662.1c-8-6.37-15.3-10.46-20.54-12.37-7.45-2.7-28.1-9-63.89-9-40.69-.07-76.92-.24-109.6,19.1l8.73,5.5a231.51,231.51,0,0,0,47.68,22.63c19.57,6.67,38.21,10.05,55.39,10.05A115.68,115.68,0,0,0,2582,696.8c15.45-2.24,28.38-6.54,39.52-13.14,10.39-6.17,18-13.68,23.6-19.17Z" transform="translate(0 0)"/><path class="cls-14" d="M2627,649.73c-7.45-2.7-28.1-9-63.89-9-33.55-.06-64.08-.19-92.08,10.62,28.75,18.07,72.51,34.39,108.6,29.15,29.46-4.27,41.81-15.83,53.9-27.74A51.51,51.51,0,0,0,2627,649.73Z" transform="translate(0 0)"/><path class="cls-12" d="M2556.05,514c30.38,0,62.26,13,63.5,52.63.82,26.08-21.73,39.23-47.82,39.36h-.3a47.24,47.24,0,1,1-15.38-92Z" transform="translate(0 0)"/><path class="cls-14" d="M2577.38,648.26l-.08-27.55c36.12-.18,40-15.32,38.25-45.67-.72-12.87-2.69-30.64-20.18-43.65-23.37-17.4-57-7-66.14,20.64-.12.34-.23.68-.34,1-5.5,17.68-7.23,33.85,3.58,45l.24,48.26Z" transform="translate(0 0)"/><path class="cls-15" d="M2556.33,624.38c2.88,4.52,9.14,11.87,21,15.92l-.06-19.59-18.84-.18A2.5,2.5,0,0,0,2556.33,624.38Z" transform="translate(0 0)"/><polygon class="cls-12" points="2509.04 559.41 2509.19 590.09 2550.82 620.53 2550.35 584.75 2509.04 559.41"/><path class="cls-15" d="M2599.66,593.05a2.71,2.71,0,0,1-2.21-4.29l3-4.2a.17.17,0,0,0,0-.18.15.15,0,0,0-.13-.12l-3.25-.84a2.75,2.75,0,0,1-1.91-1.79,16.42,16.42,0,0,1,3.64-15,2.72,2.72,0,1,1,4.15,3.51,11.4,11.4,0,0,0-2.85,8.49l1.58.41a5.64,5.64,0,0,1,3.18,8.72l-3,4.2A2.73,2.73,0,0,1,2599.66,593.05Z" transform="translate(0 0)"/><path class="cls-12" d="M2574.23,569s-4.68-2.77-4.68-2.77a8.52,8.52,0,0,1,14.2-.32l-4.57,3a3.11,3.11,0,0,0-4.95.14Z" transform="translate(0 0)"/><path class="cls-12" d="M2600.88,571.05a2.69,2.69,0,0,1-1.36-.36,2.73,2.73,0,0,1-1-3.72,8.53,8.53,0,0,1,14.2-.31l-4.57,2.94a3.08,3.08,0,0,0-2.42-1.16,3.12,3.12,0,0,0-2.51,1.26A2.7,2.7,0,0,1,2600.88,571.05Z" transform="translate(0 0)"/><path class="cls-12" d="M2501.58,644.36a31.91,31.91,0,1,0,22.51-39.12A31.92,31.92,0,0,0,2501.58,644.36Z" transform="translate(0 0)"/><path class="cls-12" d="M2600.69,577.17a2.74,2.74,0,0,0,3.14,2.25,2.73,2.73,0,1,0-3.14-2.25Z" transform="translate(0 0)"/><path class="cls-12" d="M2574,577.3a2.73,2.73,0,1,0,2.26-3.13A2.74,2.74,0,0,0,2574,577.3Z" transform="translate(0 0)"/><path class="cls-19" d="M2567.36,592.5a8.06,8.06,0,1,0,4.81-10.33A8,8,0,0,0,2567.36,592.5Z" transform="translate(0 0)"/><path class="cls-19" d="M2614.46,581.68a7.64,7.64,0,0,1,1.36-.37,85.6,85.6,0,0,1-.74,15.71,8.06,8.06,0,0,1-.62-15.34Z" transform="translate(0 0)"/><path class="cls-7" d="M2604.07,593.39l-16.69,0a2.05,2.05,0,0,0-1.91,2.79c1.06,2.61,3.63,6.2,9.87,6.78,6.6.62,9.46-3.76,10.64-6.81A2,2,0,0,0,2604.07,593.39Z" transform="translate(0 0)"/><path class="cls-12" d="M2553.06,521c16.77-5.74,27.43-1.89,31.13.09,25.21,13.55,30.26,34.31,30.26,34.31h-3.73a2,2,0,0,1-1.95-1.48,33.47,33.47,0,0,0-11.12-16.64c3,3.37,5.69,11.37,6.93,15.52a2,2,0,0,1-1.94,2.6h-27.77a2,2,0,0,1-2-1.93,54.4,54.4,0,0,0-4.08-17.62c.39,34.83-18.77,48-18.77,48s-29.87-2.83-29.56-13S2536.62,526.67,2553.06,521Z" transform="translate(0 0)"/><path class="cls-14" d="M2537.29,587.29a13.14,13.14,0,1,0,9.27-16.11A13.14,13.14,0,0,0,2537.29,587.29Z" transform="translate(0 0)"/><path class="cls-15" d="M2542.2,586a8.06,8.06,0,1,0,5.68-9.88A8.05,8.05,0,0,0,2542.2,586Z" transform="translate(0 0)"/><path class="cls-7" d="M2627.68,736.08a11.53,11.53,0,1,0,10.36-12.6A11.53,11.53,0,0,0,2627.68,736.08Z" transform="translate(0 0)"/><path class="cls-7" d="M2639.9,815.94a11.53,11.53,0,1,0,10.36-12.59A11.53,11.53,0,0,0,2639.9,815.94Z" transform="translate(0 0)"/><path class="cls-26" d="M2615.88,870.45a2.94,2.94,0,0,1-.51-.05,2.72,2.72,0,0,1-2.16-3.18c7.78-40.72,1.18-80.29-5.72-106.32-7.51-28.29-17-47.15-17.09-47.34a2.72,2.72,0,0,1,4.85-2.46c.39.78,9.8,19.46,17.46,48.27a282.89,282.89,0,0,1,8.72,50.15,220.58,220.58,0,0,1-2.88,58.72A2.73,2.73,0,0,1,2615.88,870.45Z" transform="translate(0 0)"/><path class="cls-15" d="M2684.79,804.75s20.95-13.56,33.76-21.72c16.55-10.52,25.15-10.55,30.65-1.75,5.62,9-2.09,23.73-24.22,38.51-20.13,13.45-35.67-7.78-35.67-7.78Z" transform="translate(0 0)"/><path class="cls-14" d="M2627.62,845.8c22.65-35.46,47.76-40.72,67.67-44.68s93.64,13.43,95.4,30.48-28.09,12.75-48.43,7.36c0,0,24.81,15.14,14,29.3-6.39,8.37-14.46,7.64-18.54,3.69,4.37,5.78,4.25,12.54.78,16.53-5.3,6.11-9.44,10-19.32,6.69,2.72,6.05-1.48,12.42-5.19,16.44-11.11,12-29.52,3.5-29.52,3.5s4.18,16-13.61,19.8l-74.12-60.08Z" transform="translate(0 0)"/><path class="cls-15" d="M2743.65,841.74a2.71,2.71,0,0,1-1.73-.63c-.16-.13-16.51-13.6-25-16.61a2.72,2.72,0,1,1,1.82-5.12c9.38,3.33,25.93,17,26.63,17.54a2.72,2.72,0,0,1-1.73,4.82Z" transform="translate(0 0)"/><path class="cls-15" d="M2690.7,907.45a2.72,2.72,0,0,1-2.31-1.28c-.07-.1-6.53-10.32-15.2-14a2.71,2.71,0,1,1,2.14-5c10.26,4.39,17.38,15.67,17.67,16.15a2.71,2.71,0,0,1-.87,3.75A2.66,2.66,0,0,1,2690.7,907.45Z" transform="translate(0 0)"/><path class="cls-15" d="M2737.71,874.67a2.73,2.73,0,0,1-2.21-1.13c-.17-.23-16.6-22.81-34-29.25a2.72,2.72,0,0,1,1.89-5.1c19,7,35.81,30.19,36.52,31.17a2.71,2.71,0,0,1-.62,3.79A2.67,2.67,0,0,1,2737.71,874.67Z" transform="translate(0 0)"/><path class="cls-15" d="M2719.17,897.89a2.71,2.71,0,0,1-2.08-1c-.2-.24-20.71-24.28-34.17-30a2.72,2.72,0,0,1,2.12-5c14.65,6.21,35.33,30.45,36.2,31.47a2.72,2.72,0,0,1-2.07,4.48Z" transform="translate(0 0)"/><path class="cls-15" d="M2696.7,922.55c-5.71,0-11.13-2.18-14.26-5.61-3.53-3.89-4.93-7.68-4.15-11.26,1.13-5.21,6.5-7.57,6.73-7.67a2.72,2.72,0,0,1,2.16,5c-.85.38-3.16,1.81-3.58,3.85-.47,2.2,1.3,4.71,2.86,6.43s5.22,3.81,10.16,3.83c4,0,9.73-1.28,15.35-7.35,2.71-2.92,6.92-8.56,4.72-13.47a2.72,2.72,0,0,1,3.33-3.7c8.37,2.78,11.38-.11,16.41-5.89,2.83-3.27,2.47-8.66-.9-13.11a2.72,2.72,0,0,1,4.07-3.59,7.6,7.6,0,0,0,5.9,2c3.07-.23,6-2.11,8.58-5.44a9.8,9.8,0,0,0,2.09-8c-1.6-9.29-14.49-17.8-14.62-17.88a2.72,2.72,0,0,1,3-4.56c.61.4,15,9.87,17,21.51a15.19,15.19,0,0,1-3.13,12.21c-4.44,5.81-9.25,7.32-12.5,7.56a13.37,13.37,0,0,1-2.61-.05,14.2,14.2,0,0,1-2.76,12.84c-4.88,5.62-9.44,9.89-17.79,8.59.12,4.61-2.19,9.65-6.78,14.6C2709,921,2701.67,922.55,2696.7,922.55Z" transform="translate(0 0)"/><path class="cls-12" d="M2558.91,516.77a7.23,7.23,0,0,1-5.77-2.35,8,8,0,0,1-1.64-6l5.38.81a1.66,1.66,0,0,0,2.07,2.09,4,4,0,0,0,4-3.08l2.65.59,2.66.55a9.42,9.42,0,0,1-9.29,7.38Z" transform="translate(0 0)"/><path class="cls-14" d="M2843.31,536.77c4-9.46,15.6-10,23.35-4.25,3.86,2.87,9.13,9,13.45,14.39a4.51,4.51,0,0,0,8-2.64c1.22-45.14,4.1-60,15.79-59.14,7.09.54,11.15,7.27,11.62,19.55,3.46-17.07,11.1-24.71,19.67-22.71,7.92,1.84,10.33,11.07,7.83,25,4-11.1,12.68-13.35,17.46-11.79,8.31,2.71,8.56,13.81,5.62,22.75s-14.07,40.32-14.07,40.32c10.06-16.55,16.34-34.72,30.24-27.32s-4.5,40.39-9.27,49.93-4.57,46.18-4.57,46.18l-102.72-5.15,1.12-16.31-4.29-30C2858.74,569,2839.26,546.22,2843.31,536.77Z" transform="translate(0 0)"/><path class="cls-15" d="M2920.82,589.62a2.74,2.74,0,0,1-2.72-2.77c.23-12.78-3.07-22.31-9.8-28.34-10.15-9.09-25-7.3-25.14-7.28a2.72,2.72,0,1,1-.71-5.39c.7-.09,17.4-2.16,29.43,8.58,8,7.13,11.92,18.07,11.66,32.53A2.73,2.73,0,0,1,2920.82,589.62Z" transform="translate(0 0)"/><path class="cls-15" d="M2907.9,553.52a3.42,3.42,0,0,1-.45,0,2.72,2.72,0,0,1-2.23-3.13l7.65-46.12a2.72,2.72,0,0,1,5.36.89l-7.65,46.12A2.72,2.72,0,0,1,2907.9,553.52Z" transform="translate(0 0)"/><path class="cls-15" d="M2934.9,560.28a3.25,3.25,0,0,1-.44,0,2.72,2.72,0,0,1-2.25-3.12l8.16-50.58a2.72,2.72,0,0,1,5.37.87L2937.58,558A2.72,2.72,0,0,1,2934.9,560.28Z" transform="translate(0 0)"/><path class="cls-15" d="M2952.34,567.2a3.42,3.42,0,0,1-.45,0,2.72,2.72,0,0,1-2.23-3.13l2.67-16.13a2.72,2.72,0,0,1,5.36.89L2955,564.92A2.72,2.72,0,0,1,2952.34,567.2Z" transform="translate(0 0)"/><path class="cls-13" d="M3020.53,777.7a2.73,2.73,0,0,1-2.71-2.76l.37-28.48a2.72,2.72,0,0,1,5.44.07l-.38,28.48A2.72,2.72,0,0,1,3020.53,777.7Z" transform="translate(0 0)"/><path class="cls-13" d="M3078.48,789.46a2.71,2.71,0,0,1-2-4.51l31-35.41a2.72,2.72,0,0,1,4.09,3.58l-31,35.42A2.72,2.72,0,0,1,3078.48,789.46Z" transform="translate(0 0)"/><path class="cls-10" d="M2670.93,410.66h139.29a59.86,59.86,0,0,1,0,119.71h-92.67L2675,562a6.11,6.11,0,0,1-9.77-4.9v-27a59.85,59.85,0,0,1,5.66-119.43Z" transform="translate(0 0)"/><path class="cls-7" d="M2811.31,492.35a34.33,34.33,0,0,1-18-5,30.34,30.34,0,0,1-8.35-7.68c-8.72,6.22-18.33,9.23-27.51,8.42a30.16,30.16,0,0,1-16.41-6.92,44.67,44.67,0,0,1-12.41,7.13c-10.59,4-22.16,3.94-31.73-.24a34.82,34.82,0,0,1-8.05-4.93,43.06,43.06,0,0,1-4.11,3.11c-5.68,3.77-12.71,5.39-18.34,4.24a13.41,13.41,0,0,1-8.74-5.76,2.72,2.72,0,0,1,4.55-3,8,8,0,0,0,5.29,3.41c4.19.86,9.78-.49,14.23-3.44a37.32,37.32,0,0,0,3.18-2.36c-5.91-6.63-9-15.42-5.92-24.13a23.2,23.2,0,0,1,9.23-11.58c4.15-2.65,10.11-3.92,14.06-.79,3.06,2.43,4.18,6.63,3.24,12.15-1.44,8.51-6.22,17.45-12.71,24.36a30.33,30.33,0,0,0,6.26,3.72c12.32,5.38,27.51,2.51,38.09-5.78l-.34-.42a23.55,23.55,0,0,1-5.4-17.83,16.48,16.48,0,0,1,7.53-11.62,9.73,9.73,0,0,1,14.3,4.91c1.6,4.06,1.19,9.82-1.06,14.7a38.83,38.83,0,0,1-7.12,10.41,24.61,24.61,0,0,0,12.86,5.23c8,.7,16.43-2,24.16-7.64a28,28,0,0,1-3.06-12.91c.07-5.1,2.79-10.52,6.61-13.16a9.13,9.13,0,0,1,8.48-1.23c5.27,1.9,7.25,7.9,6.44,12.58s-3.86,8.45-6.43,11.22a64.58,64.58,0,0,1-4.91,4.77,25.09,25.09,0,0,0,7,6.42,30.17,30.17,0,0,0,24.3,2.78,2.72,2.72,0,1,1,1.57,5.21A37,37,0,0,1,2811.31,492.35ZM2696.6,446.51a10.88,10.88,0,0,0-5.47,1.77,17.83,17.83,0,0,0-7,8.79c-2.33,6.63.08,13.4,4.73,18.64,5.78-6.12,10-14,11.31-21.57.27-1.58.69-5.44-1.25-7A3.66,3.66,0,0,0,2696.6,446.51Zm47.56,4.93a5,5,0,0,0-2.5.74,11,11,0,0,0-4.87,7.64,18.15,18.15,0,0,0,4.25,13.71l.13.16a32.75,32.75,0,0,0,6.06-8.88c1.63-3.53,2-7.72.94-10.41a4.46,4.46,0,0,0-2.51-2.67A4.12,4.12,0,0,0,2744.16,451.44Zm46.88,1.24a4.06,4.06,0,0,0-2.32.81c-2.39,1.65-4.23,5.42-4.28,8.76a22.39,22.39,0,0,0,2,9.32c1.26-1.14,2.5-2.37,3.71-3.67,2.19-2.36,4.5-5.21,5.06-8.46.43-2.48-.57-5.69-2.93-6.54A3.44,3.44,0,0,0,2791,452.68Z" transform="translate(0 0)"/><g class="cls-8"><path class="cls-27" d="M2671.39,563.46a6.34,6.34,0,0,1-6.31-6.32V530.27a60,60,0,0,1,5.85-119.8h139.29a60,60,0,0,1,0,120.09h-92.61l-42.45,31.64A6.33,6.33,0,0,1,2671.39,563.46Zm-.46-152.6a59.73,59.73,0,0,0-59.66,59.66c0,30.42,23.73,56.5,54,59.38h.18v27.23a5.92,5.92,0,0,0,9.46,4.75l42.55-31.72h92.74a59.66,59.66,0,1,0,0-119.31Z" transform="translate(0 0)"/></g><g class="cls-8"><path class="cls-28" d="M2670.93,410.66h139.29a59.86,59.86,0,0,1,0,119.71h-92.67L2675,562a6.11,6.11,0,0,1-9.77-4.9v-27a59.85,59.85,0,0,1,5.66-119.43Z" transform="translate(0 0)"/></g><path class="cls-4" d="M2639.39,271.84h82.82a35.59,35.59,0,1,1,0,71.18h-55.1l-25.28,18.84A3.63,3.63,0,0,1,2636,359V342.86a35.59,35.59,0,0,1,3.37-71Z" transform="translate(0 0)"/><path class="cls-13" d="M2401.8,923.37a77.85,77.85,0,0,0-33.28,15.16c4.82,11.77,11.59,23.88,16.26,30.3,27.77,41.46,66.26,57.25,104.21,61.62a78.32,78.32,0,0,0-87.19-107.08Z" transform="translate(0 0)"/><path class="cls-7" d="M2962,649.53A11.54,11.54,0,1,1,2950.51,638,11.54,11.54,0,0,1,2962,649.53Z" transform="translate(0 0)"/><path class="cls-7" d="M2650.69,944.83a11.54,11.54,0,1,1-11.53-11.53A11.53,11.53,0,0,1,2650.69,944.83Z" transform="translate(0 0)"/><path class="cls-26" d="M2968.46,629.77l-102.85-5.14a2.72,2.72,0,1,1,.27-5.43l102.72,5.14a2.72,2.72,0,0,1-.14,5.43Z" transform="translate(0 0)"/><path class="cls-7" d="M2549.74,593.43a8.55,8.55,0,1,1-7.71,9.32A8.54,8.54,0,0,1,2549.74,593.43Z" transform="translate(0 0)"/><path class="cls-4" d="M2526.57,354.35H2405.52a52,52,0,1,0,0,104h80.53L2523,485.9a5.32,5.32,0,0,0,8.5-4.26V458.13a52,52,0,0,0-4.92-103.78Z" transform="translate(0 0)"/><circle class="cls-7" cx="2462.99" cy="404.82" r="17.55" transform="translate(2048.93 2866.27) rotate(-89.79)"/><circle class="cls-7" cx="2398.52" cy="404.82" r="17.55"/><path class="cls-7" d="M2545,404.82a17.55,17.55,0,1,1-17.55-17.55A17.55,17.55,0,0,1,2545,404.82Z" transform="translate(0 0)"/><path class="cls-25" d="M2329.39,947.55a2.71,2.71,0,0,1-2.6-1.94l-64.17-214.4a2.72,2.72,0,1,1,5.21-1.56L2332,944.05a2.7,2.7,0,0,1-1.82,3.38A2.64,2.64,0,0,1,2329.39,947.55Z" transform="translate(0 0)"/><path class="cls-26" d="M2619.48,998.27a2.72,2.72,0,0,1-1.77-4.79c18.26-15.58,32.87-34.73,47-53.24l3.21-4.2-71-57.58a147.15,147.15,0,0,1-32.65,23c-11.7,5.91-22.93,9.06-33.37,9.36a51.45,51.45,0,0,1-35.48-12.49c-11.63-9.77-17.86-23.89-18.54-42-.53-14.16,2.35-30.77,8.56-49.39,10.49-31.46,27.16-58.28,27.33-58.55a2.72,2.72,0,0,1,4.61,2.88c-.16.26-16.53,26.61-26.81,57.48-6,18-8.76,33.93-8.25,47.41.62,16.47,6.21,29.24,16.6,38,16.84,14.16,38,15,62.79,2.49a142.91,142.91,0,0,0,33.12-23.79,2.73,2.73,0,0,1,3.65-.2l75,60.76a2.72,2.72,0,0,1,.44,3.77q-2.4,3.12-4.8,6.29c-14.3,18.74-29.09,38.12-47.79,54.08A2.74,2.74,0,0,1,2619.48,998.27Z" transform="translate(0 0)"/><path class="cls-12" d="M2763.91,1022.7H3012a38.6,38.6,0,0,0,38.1-32.37l23.83-145.75a38.6,38.6,0,0,0-38.09-44.84H2787.74a38.6,38.6,0,0,0-38.09,32.38l-23.84,145.75A38.6,38.6,0,0,0,2763.91,1022.7Z" transform="translate(0 0)"/><circle class="cls-7" cx="2907.81" cy="911.22" r="29.98"/><path class="cls-12" d="M2635.91,1022.88H2866a26.32,26.32,0,0,0,0-52.64H2635.91a26.32,26.32,0,1,0,0,52.64Z" transform="translate(0 0)"/><path class="cls-5" d="M3142.65,621.32l-51.78,78.18a11.77,11.77,0,0,1-16.32,3.31L2996.37,651a11.77,11.77,0,0,1-3.32-16.32l51.78-78.18a11.79,11.79,0,0,1,16.33-3.32L3139.34,605A11.79,11.79,0,0,1,3142.65,621.32Z" transform="translate(0 0)"/><path class="cls-4" d="M3122.58,634a19.54,19.54,0,1,1-5.5-27.08A19.55,19.55,0,0,1,3122.58,634Z" transform="translate(0 0)"/><path class="cls-4" d="M3112.36,667.06l-.86-.6a47.13,47.13,0,0,0-21.11-8.07,19.22,19.22,0,0,1-17-19.33A47.22,47.22,0,0,0,3022,591l-28.95,43.72a11.77,11.77,0,0,0,3.32,16.32l78.18,51.78a11.77,11.77,0,0,0,16.32-3.31Z" transform="translate(0 0)"/><circle class="cls-6" cx="2284.89" cy="430.63" r="19.96" transform="translate(364.73 1741.79) rotate(-45)"/><circle class="cls-10" cx="3132.32" cy="884.76" r="19.96" transform="translate(1551.57 3730.02) rotate(-76.72)"/><path class="cls-13" d="M2902.77,367.54a20,20,0,1,1-20-20A20,20,0,0,1,2902.77,367.54Z" transform="translate(0 0)"/><path class="cls-4" d="M2255.15,543.55l65.82,87.3a10.4,10.4,0,0,0,14.56,2.06L2408.78,578a10.41,10.41,0,0,0,2.07-14.6l-52.3-69.31-46.07-6.57L2257.21,529A10.42,10.42,0,0,0,2255.15,543.55Z" transform="translate(0 0)"/><path class="cls-5" d="M2340.55,507.57l18-13.52-46.1-6.55,13.5,18A10.4,10.4,0,0,0,2340.55,507.57Z" transform="translate(0 0)"/><circle class="cls-5" cx="2333" cy="557.26" r="21.75"/><path class="cls-5" d="M2712.55,318h-63.5a10.68,10.68,0,0,1,0-21.36h63.5a10.68,10.68,0,0,1,0,21.36Z" transform="translate(0 0)"/></g></g></svg>