<svg xmlns="http://www.w3.org/2000/svg" width="88" height="68.637" viewBox="0 0 88 68.637">
  <g id="monitor-window" transform="translate(-6 -15.933)">
    <path id="Path_439" data-name="Path 439" d="M90.5,55.93a40,40,0,1,0-76.44,16.5H86.94A39.88,39.88,0,0,0,90.5,55.93Z" fill="#deebf1"/>
    <line id="Line_4" data-name="Line 4" x2="78" transform="translate(11 72.43)" fill="none" stroke="#0da4de" stroke-linecap="round" stroke-linejoin="round" stroke-width="1"/>
    <line id="Line_5" data-name="Line 5" x2="2.5" transform="translate(6.5 72.43)" fill="none" stroke="#0da4de" stroke-linecap="round" stroke-linejoin="round" stroke-width="1"/>
    <line id="Line_6" data-name="Line 6" x2="2.5" transform="translate(91 72.43)" fill="none" stroke="#0da4de" stroke-linecap="round" stroke-linejoin="round" stroke-width="1"/>
    <path id="Path_468" data-name="Path 468" d="M3.6,0H44.7a3.6,3.6,0,0,1,3.6,3.6V30.9a3.6,3.6,0,0,1-3.6,3.6H3.6A3.6,3.6,0,0,1,0,30.9V3.6A3.6,3.6,0,0,1,3.6,0Z" transform="translate(23.65 41.29)" fill="#dbf1fa"/>
    <path id="Path_440" data-name="Path 440" d="M52.86,41.29H27.79a4.14,4.14,0,0,0-4.14,4.14V70.5Z" fill="#fff"/>
    <rect id="Rectangle_238" data-name="Rectangle 238" width="48.3" height="34.5" rx="3.6" transform="translate(23.65 41.29)" fill="none" stroke="#0da4de" stroke-linecap="round" stroke-linejoin="round" stroke-width="1"/>
    <path id="Path_441" data-name="Path 441" d="M67.81,75.79A4.14,4.14,0,0,0,72,71.65V70.27H23.65v1.38a4.14,4.14,0,0,0,4.14,4.14Z" fill="#fff" stroke="#0da4de" stroke-linecap="round" stroke-linejoin="round" stroke-width="1"/>
    <path id="Path_442" data-name="Path 442" d="M51.94,81.31H43.66l.69-5.52h6.9Z" fill="#fff"/>
    <path id="Path_443" data-name="Path 443" d="M51.94,81.31H43.66l.69-5.52h6.9Z" fill="none" stroke="#0da4de" stroke-linecap="round" stroke-linejoin="round" stroke-width="1"/>
    <path id="Path_444" data-name="Path 444" d="M56.77,84.07H38.83a2.76,2.76,0,0,1,2.76-2.76H54a2.77,2.77,0,0,1,2.77,2.76Z" fill="#fff" stroke="#0da4de" stroke-linecap="round" stroke-linejoin="round" stroke-width="1"/>
    <path id="Path_445" data-name="Path 445" d="M34.69,36.46h40V60.28a2.4,2.4,0,0,1-2.4,2.4H37.09a2.4,2.4,0,0,1-2.4-2.4Z" fill="#fff" stroke="#0da4de" stroke-linecap="round" stroke-linejoin="round" stroke-width="1"/>
    <path id="Path_446" data-name="Path 446" d="M37.09,28.18H72.31a2.4,2.4,0,0,1,2.4,2.4v5.88h-40V30.58a2.4,2.4,0,0,1,2.38-2.4Z" fill="#fff" stroke="#0da4de" stroke-linecap="round" stroke-linejoin="round" stroke-width="1"/>
    <circle id="Ellipse_21" data-name="Ellipse 21" cx="1.38" cy="1.38" r="1.38" transform="translate(37.45 30.94)" fill="#dbf1fa" stroke="#0da4de" stroke-linecap="round" stroke-linejoin="round" stroke-width="1"/>
    <circle id="Ellipse_22" data-name="Ellipse 22" cx="1.38" cy="1.38" r="1.38" transform="translate(42.97 30.94)" fill="#dbf1fa" stroke="#0da4de" stroke-linecap="round" stroke-linejoin="round" stroke-width="1"/>
    <circle id="Ellipse_23" data-name="Ellipse 23" cx="1.38" cy="1.38" r="1.38" transform="translate(48.49 30.94)" fill="#dbf1fa" stroke="#0da4de" stroke-linecap="round" stroke-linejoin="round" stroke-width="1"/>
    <rect id="Rectangle_239" data-name="Rectangle 239" width="5.52" height="5.52" rx="1" transform="translate(47.11 44.74)" fill="#dbf1fa" stroke="#0da4de" stroke-linecap="round" stroke-linejoin="round" stroke-width="1"/>
    <rect id="Rectangle_240" data-name="Rectangle 240" width="5.52" height="5.52" rx="1" transform="translate(56.08 44.74)" fill="#dbf1fa" stroke="#0da4de" stroke-linecap="round" stroke-linejoin="round" stroke-width="1"/>
    <rect id="Rectangle_241" data-name="Rectangle 241" width="5.52" height="5.52" rx="1" transform="translate(65.05 44.74)" fill="#dbf1fa" stroke="#0da4de" stroke-linecap="round" stroke-linejoin="round" stroke-width="1"/>
    <rect id="Rectangle_242" data-name="Rectangle 242" width="5.52" height="5.52" rx="1" transform="translate(47.11 53.02)" fill="#dbf1fa" stroke="#0da4de" stroke-linecap="round" stroke-linejoin="round" stroke-width="1"/>
    <rect id="Rectangle_243" data-name="Rectangle 243" width="5.52" height="5.52" rx="1" transform="translate(56.08 53.02)" fill="#dbf1fa" stroke="#0da4de" stroke-linecap="round" stroke-linejoin="round" stroke-width="1"/>
    <rect id="Rectangle_244" data-name="Rectangle 244" width="5.52" height="5.52" rx="1" transform="translate(65.05 53.02)" fill="#dbf1fa" stroke="#0da4de" stroke-linecap="round" stroke-linejoin="round" stroke-width="1"/>
    <rect id="Rectangle_245" data-name="Rectangle 245" width="5.52" height="2.76" rx="1" transform="translate(38.83 39.22)" fill="#dbf1fa" stroke="#0da4de" stroke-linecap="round" stroke-linejoin="round" stroke-width="1"/>
    <rect id="Rectangle_246" data-name="Rectangle 246" width="23.46" height="2.76" rx="1" transform="translate(47.11 39.22)" fill="#dbf1fa" stroke="#0da4de" stroke-linejoin="round" stroke-width="1"/>
    <line id="Line_7" data-name="Line 7" x2="5.52" transform="translate(38.83 44.74)" fill="none" stroke="#0da4de" stroke-linecap="round" stroke-linejoin="round" stroke-width="1"/>
    <line id="Line_8" data-name="Line 8" x2="5.52" transform="translate(38.83 47.5)" fill="none" stroke="#0da4de" stroke-linecap="round" stroke-linejoin="round" stroke-width="1"/>
    <line id="Line_9" data-name="Line 9" x2="5.52" transform="translate(38.83 50.26)" fill="none" stroke="#0da4de" stroke-linecap="round" stroke-linejoin="round" stroke-width="1"/>
    <line id="Line_10" data-name="Line 10" x2="5.52" transform="translate(38.83 53.02)" fill="none" stroke="#0da4de" stroke-linecap="round" stroke-linejoin="round" stroke-width="1"/>
    <line id="Line_11" data-name="Line 11" x2="5.52" transform="translate(38.83 55.78)" fill="none" stroke="#0da4de" stroke-linecap="round" stroke-linejoin="round" stroke-width="1"/>
    <line id="Line_12" data-name="Line 12" x2="3.45" transform="translate(38.83 58.54)" fill="none" stroke="#0da4de" stroke-linecap="round" stroke-linejoin="round" stroke-width="1"/>
    <path id="Path_447" data-name="Path 447" d="M83.68,73.65c-.2.73-.6.75-.89,0L78.26,62.84c-.29-.7,0-1,.75-.74l10.86,4.52c.7.3.67.7-.06.9l-3.48,1a2.7,2.7,0,0,0-1.7,1.69Z" fill="#fff" stroke="#0da4de" stroke-linejoin="round" stroke-width="1"/>
    <circle id="Ellipse_24" data-name="Ellipse 24" cx="0.58" cy="0.58" r="0.58" transform="translate(47.22 72.45)" fill="none" stroke="#0da4de" stroke-linecap="round" stroke-linejoin="round" stroke-width="1"/>
  </g>
</svg>
