<svg xmlns="http://www.w3.org/2000/svg" width="98.439" height="73.06" viewBox="0 0 98.439 73.06">
  <g id="Group_1861" data-name="Group 1861" transform="translate(-1493.383 -1269)">
    <g id="Group_1856" data-name="Group 1856">
      <g id="Get-Work-Done" transform="translate(1492.745 1255.52)">
        <path id="Path_448" data-name="Path 448" d="M89.89,53.45A40,40,0,1,0,13.46,70H86.33a39.85,39.85,0,0,0,3.56-16.55Z" fill="#dbf1fa"/>
        <line id="Line_13" data-name="Line 13" x2="78" transform="translate(10.39 69.95)" fill="none" stroke="#0da4de" stroke-linecap="round" stroke-linejoin="round" stroke-width="1"/>
        <line id="Line_14" data-name="Line 14" x2="2.5" transform="translate(5.89 69.95)" fill="none" stroke="#0da4de" stroke-linecap="round" stroke-linejoin="round" stroke-width="1"/>
        <line id="Line_15" data-name="Line 15" x2="2.5" transform="translate(90.39 69.95)" fill="none" stroke="#0da4de" stroke-linecap="round" stroke-linejoin="round" stroke-width="1"/>
        <ellipse id="Ellipse_25" data-name="Ellipse 25" cx="15.75" cy="1.57" rx="15.75" ry="1.57" transform="translate(34.36 83.4)" fill="#deebf1"/>
        <path id="Path_449" data-name="Path 449" d="M69.63,71.11V51a2.52,2.52,0,0,0-2.52-2.52h-34A2.52,2.52,0,0,0,30.58,51V71.11Z" fill="#dbf1fa"/>
        <path id="Path_450" data-name="Path 450" d="M35.62,71.11,58.3,48.43H33.1A2.52,2.52,0,0,0,30.58,51V71.11Z" fill="#fff"/>
        <path id="Path_451" data-name="Path 451" d="M69.63,71.11v5a2.52,2.52,0,0,1-2.52,2.52h-34a2.52,2.52,0,0,1-2.52-2.52v-5Z" fill="#fff" stroke="#0da4de" stroke-linecap="round" stroke-linejoin="round" stroke-width="1"/>
        <path id="Path_452" data-name="Path 452" d="M51.37,74.89a1.26,1.26,0,1,1-1.26-1.26,1.26,1.26,0,0,1,1.26,1.26Z" fill="#dbf1fa" stroke="#0da4de" stroke-linecap="round" stroke-linejoin="round" stroke-width="1"/>
        <path id="Path_453" data-name="Path 453" d="M56.41,83.71H43.8l.64-5.04H55.78Z" fill="#fff" stroke="#0da4de" stroke-linecap="round" stroke-linejoin="round" stroke-width="1"/>
        <line id="Line_16" data-name="Line 16" x2="20.15" transform="translate(40.03 83.71)" fill="none" stroke="#0da4de" stroke-linecap="round" stroke-linejoin="round" stroke-width="1"/>
        <path id="Path_454" data-name="Path 454" d="M69.63,71.11V51a2.52,2.52,0,0,0-2.52-2.52h-34A2.52,2.52,0,0,0,30.58,51V71.11Z" fill="none" stroke="#0da4de" stroke-linecap="round" stroke-linejoin="round" stroke-width="1"/>
        <path id="Path_455" data-name="Path 455" d="M57.67,59.77a7.56,7.56,0,1,1-7.56-7.56A7.56,7.56,0,0,1,57.67,59.77Z" fill="#fff"/>
        <path id="Path_456" data-name="Path 456" d="M57.67,59.77a7.56,7.56,0,1,1-7.56-7.56A7.56,7.56,0,0,1,57.67,59.77Z" fill="none" stroke="#0da4de" stroke-linecap="round" stroke-linejoin="round" stroke-width="1"/>
        <path id="Path_457" data-name="Path 457" d="M48.85,64.18a1.88,1.88,0,0,1-1.34-.55L45,61.11a1.89,1.89,0,0,1,2.67-2.67l1.19,1.18,3.07-3.07a1.89,1.89,0,0,1,2.67,2.67l-4.41,4.41A1.87,1.87,0,0,1,48.85,64.18Z" fill="#dbf1fa"/>
        <path id="Path_458" data-name="Path 458" d="M48.85,64.18a1.88,1.88,0,0,1-1.34-.55L45,61.11a1.89,1.89,0,0,1,2.67-2.67l1.19,1.18,3.07-3.07a1.89,1.89,0,0,1,2.67,2.67l-4.41,4.41A1.87,1.87,0,0,1,48.85,64.18Z" fill="none" stroke="#0da4de" stroke-linecap="round" stroke-linejoin="round" stroke-width="1"/>
        <rect id="Rectangle_247" data-name="Rectangle 247" width="25.2" height="15.12" rx="1.05" transform="translate(1.255 35.77) rotate(-15.83)" fill="#fff"/>
        <path id="Path_459" data-name="Path 459" d="M25.82,39.29l-1.37-4.85a2.53,2.53,0,0,1-3.12-1.74L6.79,36.82a2.53,2.53,0,0,1-1.74,3.12l1.37,4.85a2.52,2.52,0,0,1,3.12,1.73L24.08,42.4A2.52,2.52,0,0,1,25.82,39.29Z" fill="#fff"/>
        <path id="Path_460" data-name="Path 460" d="M17.86,38.92a2.52,2.52,0,1,1-3.11-1.73,2.52,2.52,0,0,1,3.11,1.73Z" fill="#dbf1fa"/>
        <path id="Path_461" data-name="Path 461" d="M17.86,38.92a2.52,2.52,0,1,1-3.11-1.73,2.52,2.52,0,0,1,3.11,1.73Z" fill="none" stroke="#0da4de" stroke-linecap="round" stroke-linejoin="round" stroke-width="1"/>
        <path id="Path_462" data-name="Path 462" d="M25.82,39.29l-1.37-4.85a2.53,2.53,0,0,1-3.12-1.74L6.79,36.82a2.53,2.53,0,0,1-1.74,3.12l1.37,4.85a2.52,2.52,0,0,1,3.12,1.73L24.08,42.4A2.52,2.52,0,0,1,25.82,39.29Z" fill="none" stroke="#0da4de" stroke-linecap="round" stroke-linejoin="round" stroke-width="1"/>
        <rect id="Rectangle_248" data-name="Rectangle 248" width="25.2" height="15.12" rx="1.05" transform="translate(1.255 35.77) rotate(-15.83)" fill="none" stroke="#0da4de" stroke-linecap="round" stroke-linejoin="round" stroke-width="1"/>
        <path id="Path_463" data-name="Path 463" d="M92.82,49.74,75.05,44.65a2.09,2.09,0,0,1-1.44-2.59l3-10.5a2.09,2.09,0,0,1,2.59-1.44L97,35.21a2.1,2.1,0,0,1,1.44,2.59l-3,10.5a2.09,2.09,0,0,1-2.62,1.44Z" fill="#fff"/>
        <rect id="Rectangle_249" data-name="Rectangle 249" width="22.68" height="2.52" transform="translate(76.508 31.962) rotate(15.98)" fill="#dbf1fa"/>
        <line id="Line_17" data-name="Line 17" x2="6.06" y2="1.73" transform="translate(76.15 42.35)" fill="none" stroke="#0da4de" stroke-linecap="round" stroke-linejoin="round" stroke-width="1"/>
        <rect id="Rectangle_250" data-name="Rectangle 250" width="17.64" height="2.52" transform="translate(77.542 37.496) rotate(15.98)" fill="#fff"/>
        <path id="Path_464" data-name="Path 464" d="M92.82,49.74,75.05,44.65a2.09,2.09,0,0,1-1.44-2.59l3-10.5a2.09,2.09,0,0,1,2.59-1.44L97,35.21a2.1,2.1,0,0,1,1.44,2.59l-3,10.5a2.09,2.09,0,0,1-2.62,1.44Z" fill="none" stroke="#0da4de" stroke-linecap="round" stroke-linejoin="round" stroke-width="1"/>
        <rect id="Rectangle_251" data-name="Rectangle 251" width="22.68" height="2.52" transform="translate(76.508 31.962) rotate(15.98)" fill="none" stroke="#0da4de" stroke-linecap="round" stroke-linejoin="round" stroke-width="1"/>
        <rect id="Rectangle_252" data-name="Rectangle 252" width="17.64" height="2.52" transform="translate(77.542 37.496) rotate(15.98)" fill="none" stroke="#0da4de" stroke-linecap="round" stroke-linejoin="round" stroke-width="1"/>
        <path id="Path_469" data-name="Path 469" d="M8.4,0A8.4,8.4,0,1,1,0,8.4,8.4,8.4,0,0,1,8.4,0Z" transform="translate(41.71 21.5)" fill="#dbf1fa"/>
        <path id="Path_465" data-name="Path 465" d="M50.11,21.5a8.4,8.4,0,0,0-5.94,14.34L56.05,24A8.41,8.41,0,0,0,50.11,21.5Z" fill="#fff"/>
        <circle id="Ellipse_27" data-name="Ellipse 27" cx="8.4" cy="8.4" r="8.4" transform="translate(41.71 21.5)" fill="none" stroke="#0da4de" stroke-miterlimit="10" stroke-width="1"/>
      </g>
      <path id="Path_472" data-name="Path 472" d="M57.67,59.77a7.56,7.56,0,1,1-7.56-7.56A7.56,7.56,0,0,1,57.67,59.77Z" transform="translate(1492.745 1255.52)" fill="none" stroke="#0da4de" stroke-linecap="round" stroke-linejoin="round" stroke-width="1"/>
      <path id="Path_473" data-name="Path 473" d="M57.67,59.77a7.56,7.56,0,1,1-7.56-7.56A7.56,7.56,0,0,1,57.67,59.77Z" transform="translate(1492.745 1255.52)" fill="none" stroke="#0da4de" stroke-linecap="round" stroke-linejoin="round" stroke-width="1"/>
    </g>
    <g id="like_1_" data-name="like (1)" transform="translate(1538 1269.833)">
      <g id="Group_1858" data-name="Group 1858" transform="translate(0 14.68)">
        <g id="Group_1857" data-name="Group 1857">
          <path id="Path_530" data-name="Path 530" d="M1,224a1,1,0,0,0-1,1v3.21a1,1,0,0,0,1,1h1.2a1,1,0,0,0,.6-.2V224Z" transform="translate(0 -224)" fill="#0da4de"/>
        </g>
      </g>
      <g id="Group_1860" data-name="Group 1860" transform="translate(3.21 10.667)">
        <g id="Group_1859" data-name="Group 1859">
          <path id="Path_531" data-name="Path 531" d="M177.087,16.185a.89.89,0,0,0-.261-.632,1,1,0,0,0,.257-.766,1.037,1.037,0,0,0-1.047-.91h-2.479a5.77,5.77,0,0,0,.319-1.605,1.64,1.64,0,0,0-1.2-1.605,1.262,1.262,0,0,0-.728.244.2.2,0,0,0-.075.157v1.361l-1.156,2.5-.048.024v4.3a2.629,2.629,0,0,0,1,.237h3.683a.923.923,0,0,0,.909-.7.9.9,0,0,0-.073-.6.9.9,0,0,0,.4-1.2A.9.9,0,0,0,177.087,16.185Z" transform="translate(-170.667 -10.667)" fill="#0da4de"/>
        </g>
      </g>
    </g>
  </g>
</svg>
