<svg xmlns="http://www.w3.org/2000/svg" width="88" height="68.637" viewBox="0 0 88 68.637">
  <g id="Group_1845" data-name="Group 1845" transform="translate(-1616.5 -1271)">
    <g id="monitor-window" transform="translate(1610.5 1255.067)">
      <path id="Path_439" data-name="Path 439" d="M90.5,55.93a40,40,0,1,0-76.44,16.5H86.94A39.88,39.88,0,0,0,90.5,55.93Z" fill="#deebf1"/>
      <line id="Line_4" data-name="Line 4" x2="78" transform="translate(11 72.43)" fill="none" stroke="#0da4de" stroke-linecap="round" stroke-linejoin="round" stroke-width="1"/>
      <line id="Line_5" data-name="Line 5" x2="2.5" transform="translate(6.5 72.43)" fill="none" stroke="#0da4de" stroke-linecap="round" stroke-linejoin="round" stroke-width="1"/>
      <line id="Line_6" data-name="Line 6" x2="2.5" transform="translate(91 72.43)" fill="none" stroke="#0da4de" stroke-linecap="round" stroke-linejoin="round" stroke-width="1"/>
      <path id="Path_468" data-name="Path 468" d="M3.6,0H44.7a3.6,3.6,0,0,1,3.6,3.6V30.9a3.6,3.6,0,0,1-3.6,3.6H3.6A3.6,3.6,0,0,1,0,30.9V3.6A3.6,3.6,0,0,1,3.6,0Z" transform="translate(23.65 41.29)" fill="#dbf1fa"/>
      <path id="Path_440" data-name="Path 440" d="M52.86,41.29H27.79a4.14,4.14,0,0,0-4.14,4.14V70.5Z" fill="#fff"/>
      <rect id="Rectangle_238" data-name="Rectangle 238" width="48.3" height="34.5" rx="3.6" transform="translate(23.65 41.29)" fill="none" stroke="#0da4de" stroke-linecap="round" stroke-linejoin="round" stroke-width="1"/>
      <path id="Path_441" data-name="Path 441" d="M67.81,75.79A4.14,4.14,0,0,0,72,71.65V70.27H23.65v1.38a4.14,4.14,0,0,0,4.14,4.14Z" fill="#fff" stroke="#0da4de" stroke-linecap="round" stroke-linejoin="round" stroke-width="1"/>
      <path id="Path_442" data-name="Path 442" d="M51.94,81.31H43.66l.69-5.52h6.9Z" fill="#fff"/>
      <path id="Path_443" data-name="Path 443" d="M51.94,81.31H43.66l.69-5.52h6.9Z" fill="none" stroke="#0da4de" stroke-linecap="round" stroke-linejoin="round" stroke-width="1"/>
      <path id="Path_444" data-name="Path 444" d="M56.77,84.07H38.83a2.76,2.76,0,0,1,2.76-2.76H54a2.77,2.77,0,0,1,2.77,2.76Z" fill="#fff" stroke="#0da4de" stroke-linecap="round" stroke-linejoin="round" stroke-width="1"/>
      <circle id="Ellipse_24" data-name="Ellipse 24" cx="0.58" cy="0.58" r="0.58" transform="translate(47.22 72.45)" fill="none" stroke="#0da4de" stroke-linecap="round" stroke-linejoin="round" stroke-width="1"/>
    </g>
    <g id="Group_1838" data-name="Group 1838" transform="translate(22 -68)">
      <path id="Path_471" data-name="Path 471" d="M57.67,59.77a7.56,7.56,0,1,1-7.56-7.56A7.56,7.56,0,0,1,57.67,59.77Z" transform="translate(1585.745 1323.52)" fill="#fff"/>
      <path id="Path_474" data-name="Path 474" d="M57.67,59.77a7.56,7.56,0,1,1-7.56-7.56A7.56,7.56,0,0,1,57.67,59.77Z" transform="translate(1585.745 1323.52)" fill="none" stroke="#0da4de" stroke-linecap="round" stroke-linejoin="round" stroke-width="1"/>
    </g>
    <g id="buy" transform="matrix(0.921, 0.391, -0.391, 0.921, 1686.091, 1272.524)">
      <path id="Path_475" data-name="Path 475" d="M107.34,372.017v2.689c1.532.068,1.09.338,3.754,1.536a2.522,2.522,0,0,0,1.962-.033h0l5.235-1.874a1.137,1.137,0,0,0,.691-1.415c-.4-.927-1.416-.54-1.5-.513l-2.733.756" transform="translate(-103.7 -359.379)" fill="#fff"/>
      <g id="Group_1835" data-name="Group 1835" transform="translate(3.64 10.872)">
        <path id="Path_476" data-name="Path 476" d="M110.433,322.813l3.044.964a1,1,0,0,0,1.235-.688h0a1.1,1.1,0,0,0-.766-1.31l-2.7-.916a2.3,2.3,0,0,0-1.949-.941,2.458,2.458,0,0,0-1.956,1.314v1.224" transform="translate(-107.341 -319.921)" fill="#fff"/>
      </g>
      <path id="Path_477" data-name="Path 477" d="M153.089,384.535a.331.331,0,0,1-.066-.007.325.325,0,0,1-.064-.019.341.341,0,0,1-.058-.031.331.331,0,0,1-.094-.094.346.346,0,0,1-.051-.122.326.326,0,0,1,0-.132.329.329,0,0,1,.019-.064.32.32,0,0,1,.031-.058.331.331,0,0,1,.094-.094.34.34,0,0,1,.058-.031.325.325,0,0,1,.064-.019.335.335,0,0,1,.132,0,.315.315,0,0,1,.063.019.332.332,0,0,1,.059.031.331.331,0,0,1,.094.094.342.342,0,0,1,.031.058.352.352,0,0,1,.019.064.325.325,0,0,1,0,.132.341.341,0,0,1-.019.063.337.337,0,0,1-.031.059.33.33,0,0,1-.094.094.336.336,0,0,1-.059.031.315.315,0,0,1-.063.019A.331.331,0,0,1,153.089,384.535Z" transform="translate(-147.57 -370.817)" fill="#0da4de"/>
      <rect id="Rectangle_253" data-name="Rectangle 253" width="1.285" height="3.644" transform="translate(2.356 12.142)" fill="#fff"/>
      <rect id="Rectangle_254" data-name="Rectangle 254" width="2.016" height="4.276" transform="translate(0.339 12.142)" fill="#dbf1fa"/>
      <path id="Path_478" data-name="Path 478" d="M15.6,312.807l0-.01a1.41,1.41,0,0,0-1.91-.7l-2.363.653a1.549,1.549,0,0,0-.959-.944l-.009,0-2.6-.881a2.679,2.679,0,0,0-2.161-.994,2.712,2.712,0,0,0-2.118,1.27H.339a.339.339,0,0,0-.339.339v4.276a.339.339,0,0,0,.339.339H2.355a.339.339,0,0,0,.339-.339v-.293H3.64a.339.339,0,0,0,.339-.339v-.1a2.4,2.4,0,0,1,1.239.445,20.517,20.517,0,0,0,2.037,1.04l.015.006a3.044,3.044,0,0,0,1.091.206,2.7,2.7,0,0,0,1.124-.241l5.222-1.87.027-.011A1.447,1.447,0,0,0,15.6,312.807ZM2.016,315.468H.678v-3.6H2.016Zm1.285-.632H2.695V311.87H3.3Zm11.163-.805L9.244,315.9l-.015.006-.014.006a2.2,2.2,0,0,1-1.689.029,19.653,19.653,0,0,1-1.969-1.006,3.052,3.052,0,0,0-1.578-.537v-2.731A2.094,2.094,0,0,1,5.6,310.6a1.957,1.957,0,0,1,1.66.78.339.339,0,0,0,.18.144l2.7.915a.761.761,0,0,1,.553.9.661.661,0,0,1-.812.456l-3.038-.963a.339.339,0,1,0-.2.647l3.044.965.01,0a1.331,1.331,0,0,0,1.018-.118,1.33,1.33,0,0,0,.636-.8q.012-.041.021-.082l2.546-.705c.368-.126.85-.171,1.065.324C15.192,313.639,14.614,313.959,14.464,314.031Z" transform="translate(0 -299.389)" fill="#0da4de"/>
      <path id="Path_479" data-name="Path 479" d="M46.517,13.035l-3.012-3.012L39.729,13.8l6.453,6.453,3.564-3.564" transform="translate(-38.382 -9.661)" fill="#fff"/>
      <path id="Path_480" data-name="Path 480" d="M145.031,113.954h0v0a1.594,1.594,0,1,0,1.7,1.63" transform="translate(-138.679 -110.065)" fill="#fff"/>
      <path id="Path_481" data-name="Path 481" d="M196.78,29.732V27.043c-1.532-.068-1.09-.338-3.754-1.536a2.522,2.522,0,0,0-1.962.033h0l-1.579.565,1.63,1.63" transform="translate(-183.057 -24.442)" fill="#fff"/>
      <g id="Group_1836" data-name="Group 1836" transform="translate(1.347 0.362)">
        <path id="Path_482" data-name="Path 482" d="M39.729,84.908l1.28-1.28a1.812,1.812,0,0,1,0,2.561Z" transform="translate(-39.729 -81.132)" fill="#fff"/>
        <path id="Path_483" data-name="Path 483" d="M192.264,258.83a1.813,1.813,0,0,1,2.561,0l-1.28,1.28Z" transform="translate(-187.091 -249.881)" fill="#fff"/>
        <path id="Path_484" data-name="Path 484" d="M113.333,11.3l1.28-1.28,1.28,1.28A1.812,1.812,0,0,1,113.333,11.3Z" transform="translate(-110.837 -10.023)" fill="#fff"/>
        <path id="Path_485" data-name="Path 485" d="M288.116,182.048a1.813,1.813,0,0,0,.421,1.9l1.067-1.067" transform="translate(-279.587 -176.214)" fill="#fff"/>
      </g>
      <g id="Group_1837" data-name="Group 1837" transform="translate(6.314 3.162)">
        <path id="Path_486" data-name="Path 486" d="M190.507,93.588l-3.044-.965a1,1,0,0,0-1.235.688h0a1.1,1.1,0,0,0,.766,1.31l2.7.917h0a2.3,2.3,0,0,0,1.949.941,2.458,2.458,0,0,0,1.956-1.314V93.942" transform="translate(-186.19 -92.585)" fill="#fff"/>
      </g>
      <path id="Path_487" data-name="Path 487" d="M339.589,124.176a.335.335,0,0,1-.066-.007.342.342,0,0,1-.063-.019.334.334,0,0,1-.059-.031.33.33,0,0,1-.094-.094.338.338,0,0,1-.031-.059.321.321,0,0,1-.019-.063.326.326,0,0,1,0-.132.332.332,0,0,1,.019-.064.345.345,0,0,1,.031-.058.33.33,0,0,1,.094-.094.334.334,0,0,1,.059-.031.318.318,0,0,1,.063-.019.335.335,0,0,1,.133,0,.331.331,0,0,1,.063.019.342.342,0,0,1,.058.031.339.339,0,0,1,.125.152.33.33,0,0,1,.02.064.341.341,0,0,1,0,.132.32.32,0,0,1-.02.063.314.314,0,0,1-.031.059.329.329,0,0,1-.094.094.343.343,0,0,1-.058.031.357.357,0,0,1-.063.019A.34.34,0,0,1,339.589,124.176Z" transform="translate(-327.745 -119.287)" fill="#0da4de"/>
      <rect id="Rectangle_255" data-name="Rectangle 255" width="1.285" height="3.644" transform="translate(13.723 2.143)" fill="#fff"/>
      <rect id="Rectangle_256" data-name="Rectangle 256" width="2.016" height="4.276" transform="translate(15.008 1.511)" fill="#dbf1fa"/>
      <path id="Path_488" data-name="Path 488" d="M45.708,1.172H43.692a.339.339,0,0,0-.339.339V1.8h-.946a.339.339,0,0,0-.339.339v.1A2.4,2.4,0,0,1,40.829,1.8,20.52,20.52,0,0,0,38.792.756L38.777.749a2.885,2.885,0,0,0-2.214.035L35.2,1.273,34.047.123a.339.339,0,0,0-.48,0L29.791,3.9a.336.336,0,0,0,0,.48l6.453,6.453a.366.366,0,0,0,.48,0l3.448-3.448c.09.008.183.012.279.012a2.712,2.712,0,0,0,2.118-1.27h3.139a.339.339,0,0,0,.339-.339V1.511A.339.339,0,0,0,45.708,1.172ZM34.668,4.317a1.5,1.5,0,0,0,1.016,1.2l.009,0,.678.23a1.255,1.255,0,1,1-1.7-1.433Zm.678-1.324a1.329,1.329,0,0,0-.553.584,1.933,1.933,0,1,0,2.222,2.393l1.145.389a2.165,2.165,0,0,0,.359,1.719l-.774.774a2.155,2.155,0,0,0-2.523,0L31.772,5.4a2.155,2.155,0,0,0,0-2.523l.774-.774a2.155,2.155,0,0,0,2.523,0l.733.733A1.338,1.338,0,0,0,35.346,2.993Zm3.663,4.6a1.483,1.483,0,0,1-.217-.705,2.637,2.637,0,0,0,.6.324ZM33.808.842l.773.773a1.479,1.479,0,0,1-1.546,0ZM31.284,3.366a1.479,1.479,0,0,1,0,1.546l-.773-.773Zm5.2,6.746-.773-.773a1.477,1.477,0,0,1,1.546,0Zm3.967-3.395a2.468,2.468,0,0,1-.354-.025h0a1.942,1.942,0,0,1-1.256-.687L38.8,5.95a.338.338,0,0,0-.187-.155l-2.7-.915a.761.761,0,0,1-.553-.9h0a.661.661,0,0,1,.812-.455l3.038.963a.339.339,0,1,0,.2-.647L37,3.076l-.021-.021h0L35.728,1.8,36.8,1.418l.012,0h0l.014-.006a2.2,2.2,0,0,1,1.689-.029A19.645,19.645,0,0,1,40.49,2.383a3.052,3.052,0,0,0,1.578.537V5.651A2.094,2.094,0,0,1,40.451,6.718Zm2.3-4.236h.606V5.447h-.606Zm2.623,2.965H44.031V1.85h1.338Z" transform="translate(-28.684 0)" fill="#0da4de"/>
    </g>
    <g id="payment" transform="translate(1653 1311)">
      <path id="Path_489" data-name="Path 489" d="M226.9,68.208l-.106-.038v-.6a.281.281,0,0,1,.122.064.151.151,0,0,0,.228-.2.583.583,0,0,0-.349-.174v-.107a.151.151,0,1,0-.3,0v.125l-.048.013a.561.561,0,0,0-.384.44.5.5,0,0,0,.163.489,1.282,1.282,0,0,0,.269.156v.768a.53.53,0,0,1-.264-.1.151.151,0,1,0-.166.253.817.817,0,0,0,.429.155v.127a.151.151,0,1,0,.3,0v-.141a.681.681,0,0,0,.512-.547A.591.591,0,0,0,226.9,68.208Zm-.491-.229a.2.2,0,0,1-.052-.194.27.27,0,0,1,.135-.19v.439A.716.716,0,0,1,226.413,67.979Zm.6.855a.376.376,0,0,1-.214.28v-.622l.005,0A.294.294,0,0,1,227.012,68.834Z" transform="translate(-221.593 -65.986)" fill="#0da4de"/>
      <path id="Path_490" data-name="Path 490" d="M61.227,92.454h1.664a.227.227,0,0,0,0-.454H61.227a.227.227,0,0,0,0,.454Z" transform="translate(-59.092 -90.608)" fill="#0da4de"/>
      <path id="Path_491" data-name="Path 491" d="M61.227,152.454h1.664a.227.227,0,1,0,0-.454H61.227a.227.227,0,1,0,0,.454Z" transform="translate(-59.092 -149.7)" fill="#0da4de"/>
      <path id="Path_492" data-name="Path 492" d="M61.227,212.454h1.664a.227.227,0,1,0,0-.454H61.227a.227.227,0,1,0,0,.454Z" transform="translate(-59.092 -208.792)" fill="#0da4de"/>
      <path id="Path_493" data-name="Path 493" d="M64.556,272H61.227a.227.227,0,0,0,0,.454h3.329a.227.227,0,0,0,0-.454Z" transform="translate(-59.092 -267.884)" fill="#0da4de"/>
      <path id="Path_494" data-name="Path 494" d="M64.556,332H61.227a.227.227,0,1,0,0,.454h3.329a.227.227,0,1,0,0-.454Z" transform="translate(-59.092 -326.976)" fill="#0da4de"/>
      <path id="Path_495" data-name="Path 495" d="M64.556,392H61.227a.227.227,0,0,0,0,.454h3.329a.227.227,0,0,0,0-.454Z" transform="translate(-59.092 -386.069)" fill="#0da4de"/>
      <path id="Path_496" data-name="Path 496" d="M8.594,4.6a.227.227,0,0,0-.235.016l-.513.362-.513-.362a.227.227,0,0,0-.262,0L6.6,4.945V.227A.227.227,0,0,0,6.241.041L5.728.4,5.215.041a.227.227,0,0,0-.262,0L4.441.4,3.929.042a.227.227,0,0,0-.262,0L3.155.4,2.644.042a.227.227,0,0,0-.262,0L1.87.4,1.358.042A.227.227,0,0,0,1,.227V6.31A1.439,1.439,0,0,0,2.437,7.747H7.431A1.288,1.288,0,0,0,8.717,6.461V4.8A.227.227,0,0,0,8.594,4.6ZM1.454,6.31V.665l.285.2A.227.227,0,0,0,2,.866L2.513.5l.512.361a.227.227,0,0,0,.262,0L3.8.5,4.31.866a.227.227,0,0,0,.262,0L5.084.5,5.6.866a.227.227,0,0,0,.262,0l.286-.2v5.8a1.28,1.28,0,0,0,.307.832H2.437A.985.985,0,0,1,1.454,6.31Zm6.809.151a.832.832,0,1,1-1.664,0V5.474a.227.227,0,0,0,.091-.038L7.2,5.074l.513.362a.227.227,0,0,0,.262,0l.286-.2Z" fill="#0da4de"/>
    </g>
    <g id="bill" transform="translate(1618.578 1278.389) rotate(-19)">
      <g id="Group_1841" data-name="Group 1841" transform="translate(0.303 0.297)">
        <path id="Path_497" data-name="Path 497" d="M105.349,11.395V19.07l-1.188,5.691H93.467a.6.6,0,0,1-.594-.594V8.127a.6.6,0,0,1,.594-.594h8.02Z" transform="translate(-89.903 -7.533)" fill="#44cbff"/>
        <path id="Path_498" data-name="Path 498" d="M104.458,11.395V19.07l-1.188,5.691h-9.8a.6.6,0,0,1-.594-.594V8.127a.6.6,0,0,1,.594-.594H100.6Z" transform="translate(-89.903 -7.533)" fill="#fff"/>
        <path id="Path_499" data-name="Path 499" d="M8.134,152.6h5.05a.594.594,0,0,1,.594.594v7.129a.594.594,0,0,1-.594.594H8.134a.594.594,0,0,1-.594-.594v-7.129A.594.594,0,0,1,8.134,152.6Z" transform="translate(-7.54 -147.55)" fill="#dbf1fa"/>
        <g id="Group_1839" data-name="Group 1839">
          <path id="Path_500" data-name="Path 500" d="M8.134,152.6h4.159a.594.594,0,0,1,.594.594v7.129a.594.594,0,0,1-.594.594H8.134a.594.594,0,0,1-.594-.594v-7.129A.594.594,0,0,1,8.134,152.6Z" transform="translate(-7.54 -147.55)" fill="#dbf1fa"/>
          <path id="Path_501" data-name="Path 501" d="M340.34,7.533V10.8a.594.594,0,0,0,.594.594H344.2Z" transform="translate(-328.755 -7.533)" fill="#fff"/>
          <path id="Path_502" data-name="Path 502" d="M110.237,255h.891a.3.3,0,0,1,.3.3v.594a.3.3,0,0,1-.3.3h-.891a.3.3,0,0,1-.3-.3V255.3A.3.3,0,0,1,110.237,255Z" transform="translate(-106.375 -246.386)" fill="#dbf1fa"/>
          <path id="Path_503" data-name="Path 503" d="M110.237,323.267h.891a.3.3,0,0,1,.3.3v.594a.3.3,0,0,1-.3.3h-.891a.3.3,0,0,1-.3-.3v-.594A.3.3,0,0,1,110.237,323.267Z" transform="translate(-106.375 -312.276)" fill="#dbf1fa"/>
        </g>
        <path id="Path_504" data-name="Path 504" d="M41.971,186.733h3.267a.3.3,0,0,1,.3.3v.594a.3.3,0,0,1-.3.3H41.971a.3.3,0,0,1-.3-.3v-.594A.3.3,0,0,1,41.971,186.733Z" transform="translate(-40.486 -180.495)" fill="#fff"/>
        <path id="Path_505" data-name="Path 505" d="M337.466,335.987a2.973,2.973,0,0,1-3.155,1.705,3.024,3.024,0,0,1-.781-.235,2.971,2.971,0,1,1,3.936-1.47Z" transform="translate(-320.505 -320.497)" fill="#44cbff"/>
        <path id="Path_506" data-name="Path 506" d="M336.565,336.909a2.965,2.965,0,0,1-2.263,1.705,3.025,3.025,0,0,1-.781-.235,2.768,2.768,0,1,1,3.045-1.47Z" transform="translate(-320.495 -321.419)" fill="#fff"/>
        <g id="Group_1840" data-name="Group 1840" transform="translate(0 0.006)">
          <path id="Path_507" data-name="Path 507" d="M93.764,8.3a.6.6,0,0,1,.594-.594h-.891a.6.6,0,0,0-.594.594v4.456h.891Z" transform="translate(-89.903 -7.704)" fill="#fff"/>
          <path id="Path_508" data-name="Path 508" d="M93.467,395.565h.891a.6.6,0,0,1-.594-.594V391.7h-.891v3.268A.6.6,0,0,0,93.467,395.565Z" transform="translate(-89.903 -378.336)" fill="#fff"/>
          <path id="Path_509" data-name="Path 509" d="M8.134,161.087h.891a.6.6,0,0,1-.594-.594v-7.129a.6.6,0,0,1,.594-.594H8.134a.6.6,0,0,0-.594.594v7.129A.6.6,0,0,0,8.134,161.087Z" transform="translate(-7.54 -147.72)" fill="#fff"/>
        </g>
      </g>
      <g id="Group_1843" data-name="Group 1843" transform="translate(0.006)">
        <path id="Path_510" data-name="Path 510" d="M.6,170.667V177.8H.006v-7.129Z" transform="translate(-0.006 -164.726)" fill="#fff"/>
        <g id="Group_1842" data-name="Group 1842" transform="translate(0)">
          <path id="Path_511" data-name="Path 511" d="M.36,230.993a.313.313,0,0,0,.211-.086.3.3,0,0,0,0-.422l-.045-.036a.226.226,0,0,0-.054-.027.189.189,0,0,0-.054-.018A.434.434,0,0,0,.36,230.4a.312.312,0,0,0-.211.086.306.306,0,0,0,0,.422.307.307,0,0,0,.1.062A.3.3,0,0,0,.36,230.993Z" transform="translate(-0.062 -222.379)" fill="#0da4de"/>
          <path id="Path_512" data-name="Path 512" d="M.9,153.978h5.05a.892.892,0,0,0,.891-.891v-7.129a.892.892,0,0,0-.891-.891H.9a.892.892,0,0,0-.891.891v1.188a.3.3,0,0,0,.594,0v-1.188a.3.3,0,0,1,.3-.3h5.05a.3.3,0,0,1,.3.3v7.129a.3.3,0,0,1-.3.3H.9a.3.3,0,0,1-.3-.3v-3.565a.3.3,0,1,0-.594,0v3.565A.892.892,0,0,0,.9,153.978Z" transform="translate(-0.007 -140.017)" fill="#0da4de"/>
          <path id="Path_513" data-name="Path 513" d="M98.406,4.14a.291.291,0,0,0-.015-.076.282.282,0,0,0-.01-.028.293.293,0,0,0-.058-.087L94.461.087a.293.293,0,0,0-.087-.058l-.028-.01A.292.292,0,0,0,94.27,0c-.006,0-.012,0-.018,0h-8.02a.892.892,0,0,0-.891.891V4.159a.3.3,0,1,0,.594,0V.891a.3.3,0,0,1,.3-.3h7.723v2.97a.892.892,0,0,0,.891.891h2.97v6.96a3.264,3.264,0,0,0-2.766,5.812H86.231a.3.3,0,0,1-.3-.3V14.852a.3.3,0,1,0-.594,0v2.079a.892.892,0,0,0,.891.891H96.921A3.265,3.265,0,0,0,98.41,11.65V4.159C98.41,4.152,98.407,4.146,98.406,4.14Zm-3.561-.278a.3.3,0,0,1-.3-.3V1.014L97.4,3.862Zm4.512,11.8a2.673,2.673,0,1,1-1.322-3.542A2.673,2.673,0,0,1,99.358,15.666Z" transform="translate(-82.37)" fill="#0da4de"/>
          <path id="Path_514" data-name="Path 514" d="M104.485,248.06a.6.6,0,0,0-.594-.594H103a.6.6,0,0,0-.594.594v.594a.6.6,0,0,0,.594.594h.891a.6.6,0,0,0,.594-.594Zm-.594.594H103v-.594h.891Z" transform="translate(-98.842 -238.852)" fill="#0da4de"/>
          <path id="Path_515" data-name="Path 515" d="M103.891,315.733H103a.6.6,0,0,0-.594.594v.594a.6.6,0,0,0,.594.594h.891a.6.6,0,0,0,.594-.594v-.594A.6.6,0,0,0,103.891,315.733Zm0,1.188H103v-.594h.892Z" transform="translate(-98.842 -304.742)" fill="#0da4de"/>
          <path id="Path_516" data-name="Path 516" d="M34.437,248.655h.3v.3a.3.3,0,1,0,.594,0v-.3h.3a.3.3,0,0,0,0-.594h-.3v-.3a.3.3,0,0,0-.594,0v.3h-.3a.3.3,0,0,0,0,.594Z" transform="translate(-32.952 -238.853)" fill="#0da4de"/>
          <path id="Path_517" data-name="Path 517" d="M34.437,333.4h1.188a.3.3,0,1,0,0-.594H34.437a.3.3,0,1,0,0,.594Z" transform="translate(-32.952 -321.216)" fill="#0da4de"/>
          <path id="Path_518" data-name="Path 518" d="M213.637,162.728h6.832a.3.3,0,0,0,0-.594h-6.832a.3.3,0,0,0,0,.594Z" transform="translate(-205.914 -156.49)" fill="#0da4de"/>
          <path id="Path_519" data-name="Path 519" d="M213.637,213.928h6.832a.3.3,0,0,0,0-.594h-6.832a.3.3,0,1,0,0,.594Z" transform="translate(-205.914 -205.908)" fill="#0da4de"/>
          <path id="Path_520" data-name="Path 520" d="M213.637,265.128h6.832a.3.3,0,0,0,0-.594h-6.832a.3.3,0,0,0,0,.594Z" transform="translate(-205.914 -255.326)" fill="#0da4de"/>
          <path id="Path_521" data-name="Path 521" d="M213.637,316.328H217.8a.3.3,0,1,0,0-.594h-4.159a.3.3,0,1,0,0,.594Z" transform="translate(-205.914 -304.743)" fill="#0da4de"/>
          <path id="Path_522" data-name="Path 522" d="M38.6,179.794A.6.6,0,0,0,38,179.2H34.734a.6.6,0,0,0-.594.594v.594a.6.6,0,0,0,.594.594H38a.6.6,0,0,0,.594-.594v-.594Zm-3.862.594v-.594H38v.594Z" transform="translate(-32.952 -172.962)" fill="#0da4de"/>
          <path id="Path_523" data-name="Path 523" d="M378.78,363.548l.039-.086a.3.3,0,0,0-.54-.247l-.039.086a1.252,1.252,0,0,0-.571,0,.914.914,0,0,0-.611,1.339,1.255,1.255,0,0,0,.373.432l-.335.734a.616.616,0,0,1-.1-.137.364.364,0,0,1-.023-.31.3.3,0,0,0-.54-.247.949.949,0,0,0,.033.824,1.254,1.254,0,0,0,.373.432l-.039.086a.3.3,0,1,0,.54.247l.038-.083a1.315,1.315,0,0,0,.279.031,1.2,1.2,0,0,0,.293-.036.914.914,0,0,0,.611-1.339,1.255,1.255,0,0,0-.373-.432l.335-.734a.616.616,0,0,1,.1.137.365.365,0,0,1,.023.31.3.3,0,1,0,.54.247.949.949,0,0,0-.033-.824A1.253,1.253,0,0,0,378.78,363.548Zm-1.192.826a.322.322,0,0,1,.226-.5.611.611,0,0,1,.169-.015l-.3.647a.619.619,0,0,1-.1-.137Zm.443,1.171a.322.322,0,0,1-.226.5.615.615,0,0,1-.169.015l.3-.647a.617.617,0,0,1,.1.137Z" transform="translate(-363.254 -350.404)" fill="#0da4de"/>
        </g>
      </g>
    </g>
    <g id="XMLID_1487_" transform="translate(1590.143 1272.001)">
      <path id="XMLID_1492_" d="M161.26,111.99h-6.6a1.011,1.011,0,0,1,0-2.021h6.6a1.011,1.011,0,1,1,0,2.021Z" transform="translate(-87.928 -105.338)" fill="#dbf1fa"/>
      <path id="XMLID_1491_" d="M81.616,172.456H77.783a5.824,5.824,0,0,1-4.91-8.957l3.528-5.531H83l3.528,5.531A5.824,5.824,0,0,1,81.616,172.456Z" transform="translate(-9.667 -151.317)" fill="#fff"/>
      <path id="XMLID_1489_" d="M151.509,10.336a1.243,1.243,0,0,1,1.757,0l0,0a1.243,1.243,0,0,0,1.754,0l.012-.012a1.243,1.243,0,0,1,1.754,0l0,0a1.243,1.243,0,0,0,1.757,0,1.243,1.243,0,0,1,1.757,0l-1.1,3.844h-6.6Z" transform="translate(-85.877 -9.55)" fill="#fff"/>
      <g id="XMLID_1153_" transform="translate(61.857 -0.001)">
        <path id="XMLID_1329_" d="M77.214,11.956,73.995,6.91a1.431,1.431,0,0,0-.133-2.6L74.837.9A.421.421,0,0,0,74.73.489a1.666,1.666,0,0,0-2.353,0A.816.816,0,0,1,71.8.729a.817.817,0,0,1-.582-.242l0,0a1.667,1.667,0,0,0-2.349,0l-.012.012a.823.823,0,0,1-1.16,0l0,0a1.666,1.666,0,0,0-2.353,0A.421.421,0,0,0,65.227.9L66.2,4.311a1.431,1.431,0,0,0-.135,2.6L62.85,11.956a6.245,6.245,0,0,0,5.265,9.6h3.833a6.245,6.245,0,0,0,5.265-9.6ZM67.092,1.084l0,0a1.667,1.667,0,0,0,2.349,0l.012-.012a.823.823,0,0,1,1.161,0l0,0a1.666,1.666,0,0,0,2.353,0,.823.823,0,0,1,.976-.139L73.015,4.21H67.052L66.116.945a.823.823,0,0,1,.976.139Zm9.595,16.828a5.333,5.333,0,0,1-4.738,2.806H68.115a5.4,5.4,0,0,1-4.555-8.309l3.4-5.336h1.173a.421.421,0,0,0,0-.842h-1.4a.59.59,0,1,1,0-1.179h6.6a.59.59,0,0,1,0,1.179h-1.4a.421.421,0,0,0,0,.842H73.1l3.4,5.336A5.333,5.333,0,0,1,76.687,17.913Z" transform="translate(-61.857 0.001)" fill="#0da4de"/>
        <path id="XMLID_1341_" d="M211.323,241.7c-.106-.037-.214-.076-.321-.117v-1.909a1.728,1.728,0,0,1,.484.226.421.421,0,0,0,.507-.673,2.572,2.572,0,0,0-.991-.419v-.419a.421.421,0,0,0-.842,0v.416a2.171,2.171,0,0,0-.217.053,1.686,1.686,0,0,0-1.156,1.323,1.487,1.487,0,0,0,.487,1.466,4.057,4.057,0,0,0,.886.5V244.6a1.684,1.684,0,0,1-.923-.338.421.421,0,0,0-.461.7,2.486,2.486,0,0,0,1.384.476v.435a.421.421,0,0,0,.842,0v-.479a2.03,2.03,0,0,0,1.548-1.654A1.781,1.781,0,0,0,211.323,241.7Zm-1.53-.715a.656.656,0,0,1-.179-.647.858.858,0,0,1,.545-.664v1.542A2.52,2.52,0,0,1,209.793,240.986Zm1.926,2.614a1.207,1.207,0,0,1-.717.912v-2.032l.041.015A.953.953,0,0,1,211.718,243.6Z" transform="translate(-202.405 -227.948)" fill="#0da4de"/>
        <path id="XMLID_1343_" d="M246.406,148.811a.421.421,0,1,0-.3-.123A.424.424,0,0,0,246.406,148.811Z" transform="translate(-238.231 -141.737)" fill="#0da4de"/>
      </g>
    </g>
  </g>
</svg>
