<svg xmlns="http://www.w3.org/2000/svg" width="88" height="69.92" viewBox="0 0 88 69.92">
  <g id="monitor-loading-progress" transform="translate(-6 -14.83)">
    <path id="Path_425" data-name="Path 425" d="M90,55.24a40,40,0,1,0-76.44,16.5H86.44A39.85,39.85,0,0,0,90,55.24Z" fill="#deebf1"/>
    <path id="Path_467" data-name="Path 467" d="M0,0H78" transform="translate(11 71.74)" fill="none" stroke="#0da4de" stroke-linecap="round" stroke-width="1"/>
    <line id="Line_2" data-name="Line 2" x2="2.5" transform="translate(6.5 71.74)" fill="none" stroke="#0da4de" stroke-linecap="round" stroke-linejoin="round" stroke-width="1"/>
    <line id="Line_3" data-name="Line 3" x2="2.5" transform="translate(91 71.74)" fill="none" stroke="#0da4de" stroke-linecap="round" stroke-linejoin="round" stroke-width="1"/>
    <ellipse id="Ellipse_20" data-name="Ellipse 20" cx="14.85" cy="1.71" rx="14.85" ry="1.71" transform="translate(34.58 81.33)" fill="rgba(219,241,250,0.6)"/>
    <path id="Path_426" data-name="Path 426" d="M72.28,43.1a3.62,3.62,0,0,0-3.63-3.62H31.35a3.62,3.62,0,0,0-3.63,3.62V67.83H72.28Z" fill="#dbf1fa"/>
    <path id="Path_427" data-name="Path 427" d="M57.49,39.48H31.35a3.62,3.62,0,0,0-3.63,3.62V67.83h1.42Z" fill="#fff"/>
    <path id="Path_428" data-name="Path 428" d="M55.4,78.63H44.6l.67-5.4h9.46Z" fill="#fff"/>
    <path id="Path_429" data-name="Path 429" d="M55.4,78.63H44.6l.67-5.4h9.46Z" fill="none" stroke="#0da4de" stroke-linecap="round" stroke-linejoin="round" stroke-width="1"/>
    <path id="Path_430" data-name="Path 430" d="M57.73,81.33H42.27a.84.84,0,0,1-.78-1.17,2.7,2.7,0,0,1,2.43-1.53H56.08a2.7,2.7,0,0,1,2.43,1.53.84.84,0,0,1-.78,1.17Z" fill="#fff" stroke="#0da4de" stroke-linecap="round" stroke-linejoin="round" stroke-width="1"/>
    <path id="Path_431" data-name="Path 431" d="M68.65,73.23a3.62,3.62,0,0,0,3.63-3.62V67.83H27.72v1.78a3.62,3.62,0,0,0,3.63,3.62Z" fill="#fff" stroke="#0da4de" stroke-linecap="round" stroke-linejoin="round" stroke-width="1"/>
    <path id="Path_432" data-name="Path 432" d="M72.28,43.1a3.62,3.62,0,0,0-3.63-3.62H31.35a3.62,3.62,0,0,0-3.63,3.62V67.83H72.28Z" fill="none" stroke="#0da4de" stroke-linecap="round" stroke-linejoin="round" stroke-width="1"/>
    <path id="Path_433" data-name="Path 433" d="M50.6,70.53a.6.6,0,1,1-.6-.6A.6.6,0,0,1,50.6,70.53Z" fill="none" stroke="#0da4de" stroke-linecap="round" stroke-linejoin="round" stroke-width="1"/>
    <path id="Path_434" data-name="Path 434" d="M63.39,58.19A2.41,2.41,0,0,1,61,60.61H39a2.42,2.42,0,0,1,0-4.83H61a2.41,2.41,0,0,1,2.39,2.41Z" fill="#dbf1fa" stroke="#0da4de" stroke-linejoin="round" stroke-width="1"/>
    <path id="Path_435" data-name="Path 435" d="M55.14,55.78H39a2.42,2.42,0,0,0,0,4.83H55.14Z" fill="#fff" stroke="#4550e5" stroke-linejoin="round" stroke-width="1"/>
    <path id="Path_436" data-name="Path 436" d="M55.14,55.78H39a2.42,2.42,0,0,0,0,4.83H55.14Z" fill="none" stroke="#0da4de" stroke-linejoin="round" stroke-width="1"/>
    <path id="Path_437" data-name="Path 437" d="M42.21,23.34a1.22,1.22,0,0,0-1,1.95L49,35.38a1.22,1.22,0,0,0,1.92,0l7.79-10.09a1.22,1.22,0,0,0-1-1.95h-3v-5.6a2.41,2.41,0,0,0-2.41-2.41H47.58a2.41,2.41,0,0,0-2.41,2.41v5.6Z" fill="#fff"/>
    <path id="Path_438" data-name="Path 438" d="M42.21,23.34a1.22,1.22,0,0,0-1,1.95L49,35.38a1.22,1.22,0,0,0,1.92,0l7.79-10.09a1.22,1.22,0,0,0-1-1.95h-3v-5.6a2.41,2.41,0,0,0-2.41-2.41H47.58a2.41,2.41,0,0,0-2.41,2.41v5.6Z" fill="none" stroke="#0da4de" stroke-linejoin="round" stroke-width="1"/>
  </g>
</svg>
