<svg xmlns="http://www.w3.org/2000/svg" width="88" height="70" viewBox="0 0 88 70">
  <g id="Full_Time" transform="translate(-1380.5 -1747)">
    <g id="Post-A-Job" transform="translate(1374.5 1731.757)">
      <path id="Path_425" data-name="Path 425" d="M90,55.24a40,40,0,1,0-76.44,16.5H86.44A39.85,39.85,0,0,0,90,55.24Z" fill="#dbf1fa"/>
      <path id="Path_467" data-name="Path 467" d="M0,0H78" transform="translate(11 71.74)" fill="none" stroke="#0da4de" stroke-linecap="round" stroke-width="1"/>
      <line id="Line_2" data-name="Line 2" x2="2.5" transform="translate(6.5 71.74)" fill="none" stroke="#0da4de" stroke-linecap="round" stroke-linejoin="round" stroke-width="1"/>
      <line id="Line_3" data-name="Line 3" x2="2.5" transform="translate(91 71.74)" fill="none" stroke="#0da4de" stroke-linecap="round" stroke-linejoin="round" stroke-width="1"/>
    </g>
    <g id="XMLID_2603_" transform="translate(1400 1767)">
      <g id="XMLID_1212_" transform="translate(19.802 14.069)">
        <path id="XMLID_1221_" d="M214.107,293.966V295.2l-5.139,1.127a4.823,4.823,0,0,0-3.789,4.711v9.46h23.228v-9.458a4.822,4.822,0,0,0-3.792-4.711l-5.165-1.129v-1.241" transform="translate(-205.179 -279.486)" fill="#a8d2f0"/>
        <path id="XMLID_2604_" d="M301.231,306.568l-2.671,7.144-2.671-7.144Z" transform="translate(-286.961 -290.856)" fill="#fff"/>
        <path id="XMLID_1217_" d="M271.35,146.929h0a5.658,5.658,0,0,0-5.658,5.658v1.362h2.766a6.217,6.217,0,0,0,4.765-2.224h0l3.785,2.224v-1.362A5.658,5.658,0,0,0,271.35,146.929Z" transform="translate(-259.736 -146.929)" fill="#fff"/>
        <path id="XMLID_1216_" d="M272.005,196.773a6.215,6.215,0,0,1-3.546,1.112h-2.766v2.4a5.658,5.658,0,0,0,5.658,5.658h0a5.658,5.658,0,0,0,5.658-5.658v-2.4l-1.892-1.112-1.892-1.112Z" transform="translate(-259.737 -190.865)" fill="#ceefff"/>
      </g>
      <rect id="XMLID_2502_" width="48.608" height="4" transform="translate(1 45.608)" fill="#fff"/>
      <circle id="XMLID_2195_" cx="8.124" cy="8.124" r="8.124" transform="translate(14.984 -4.016)" fill="#a8d2f0"/>
      <path id="XMLID_2533_" d="M0,0H21V15H0Z" transform="translate(1 22.745)" fill="#fff"/>
      <path id="XMLID_1029_" d="M101.937,318.712H98v-9.744A1.968,1.968,0,0,1,99.968,307h0a1.968,1.968,0,0,1,1.968,1.968Z" transform="translate(-88.436 -277.091)" fill="#ceefff"/>
      <path id="XMLID_1028_" d="M76.236,429.543H66v-1.476A2.067,2.067,0,0,1,68.067,426h6.1a2.067,2.067,0,0,1,2.067,2.067Z" transform="translate(-59.504 -384.464)" fill="#ceefff"/>
      <rect id="XMLID_1222_" width="13" height="4" transform="translate(36.608 41.608)" fill="#fff"/>
      <rect id="XMLID_1227_" width="13" height="4" transform="translate(36.608 37.679)" fill="#a8d2f0"/>
      <rect id="XMLID_1229_" width="13" height="4" transform="translate(36.608 33.712)" fill="#fff"/>
      <g id="XMLID_636_">
        <path id="XMLID_1699_" d="M9.109,18.217A9.109,9.109,0,1,0,0,9.109,9.119,9.119,0,0,0,9.109,18.217Zm0-16.249a7.14,7.14,0,1,1-7.14,7.14A7.148,7.148,0,0,1,9.109,1.968Z" transform="translate(14 -5)" fill="#2b5183"/>
        <path id="XMLID_1701_" d="M84.374,41.926a.984.984,0,0,0,1.39-1.394l-1.182-1.178V34.984a.984.984,0,0,0-1.968,0v4.778a.985.985,0,0,0,.289.7Z" transform="translate(-60.55 -35.654)" fill="#2b5183"/>
        <path id="XMLID_1706_" d="M49.023,155.924h-6.01a5.768,5.768,0,0,0-3.483-2.311l-4.293-.936a6.565,6.565,0,0,0,2.915-5.452V143.5a6.59,6.59,0,0,0-13.181,0v3.725a6.565,6.565,0,0,0,2.908,5.448l-4.291.939c-.183.04-.363.089-.541.146V145.7a.975.975,0,0,0-.977-.974H15.43a.974.974,0,1,0,0,1.948h5.664v13.633H14.453v-4.869a2.93,2.93,0,0,0-5.859,0v4.869H1.953V146.674H7.617a.974.974,0,1,0,0-1.948H.977A.975.975,0,0,0,0,145.7v15.58a.975.975,0,0,0,.977.974H8.594v1.85H8.5a3.026,3.026,0,0,0-3.027,3.019v.487H.977a.975.975,0,0,0-.977.974v3.9a.975.975,0,0,0,.977.974H49.023a.975.975,0,0,0,.977-.974V156.9A.975.975,0,0,0,49.023,155.924Zm-5.94,11.685H37.5v-1.948H48.047v1.948Zm4.963-3.9H37.5v-1.948H48.047Zm0-3.9H37.5v-1.948H48.047ZM26.923,143.5a4.638,4.638,0,0,1,9.261-.362l-2.27-1.33a.978.978,0,0,0-1.243.214,5.185,5.185,0,0,1-3.979,1.852H26.923V143.5Zm0,2.321h1.768a7.136,7.136,0,0,0,4.9-1.942l2.6,1.525v1.82a4.637,4.637,0,0,1-9.275,0v-1.4Zm6.167,7.795-1.544,4.118L30,153.609a6.575,6.575,0,0,0,3.092.007Zm-11.02,8.637a.975.975,0,0,0,.977-.974v-5.416a3.8,3.8,0,0,1,.959-.349l4.271-.934,2.354,6.277a.977.977,0,0,0,1.829,0l2.354-6.277,4.3.937a3.808,3.808,0,0,1,1.065.408H36.523a.975.975,0,0,0-.977.974v10.711H21.014v-5.356H22.07Zm-3.01,0v5.356H17.578v-.487a3.026,3.026,0,0,0-3.027-3.019h-.1v-1.85Zm-8.514-6.816a.977.977,0,0,1,1.953,0V164.1H10.547ZM7.422,167.123A1.074,1.074,0,0,1,8.5,166.051h6.055a1.074,1.074,0,0,1,1.074,1.071v.487h-8.2ZM48.047,171.5H1.953v-1.948H48.047Z" transform="translate(0 -123.452)" fill="#2b5183"/>
        <path id="XMLID_1768_" d="M108.288,217.288a.984.984,0,1,0,.7-.288A.992.992,0,0,0,108.288,217.288Z" transform="translate(-97.456 -195.815)" fill="#2b5183"/>
      </g>
    </g>
  </g>
</svg>
