<svg xmlns="http://www.w3.org/2000/svg" width="88" height="69.469" viewBox="0 0 88 69.469">
  <g id="Recurring_Projects" transform="translate(-1493.5 -1747)">
    <g id="Post-A-Job" transform="translate(1487.5 1731.757)">
      <path id="Path_425" data-name="Path 425" d="M90,55.24a40,40,0,1,0-76.44,16.5H86.44A39.85,39.85,0,0,0,90,55.24Z" fill="#dbf1fa"/>
      <path id="Path_467" data-name="Path 467" d="M0,0H78" transform="translate(11 71.74)" fill="none" stroke="#0da4de" stroke-linecap="round" stroke-width="1"/>
      <line id="Line_2" data-name="Line 2" x2="2.5" transform="translate(6.5 71.74)" fill="none" stroke="#0da4de" stroke-linecap="round" stroke-linejoin="round" stroke-width="1"/>
      <line id="Line_3" data-name="Line 3" x2="2.5" transform="translate(91 71.74)" fill="none" stroke="#0da4de" stroke-linecap="round" stroke-linejoin="round" stroke-width="1"/>
    </g>
    <g id="repeat" transform="translate(1513 1751.923)">
      <g id="Group_1813" data-name="Group 1813" transform="translate(0.974 19.05)">
        <path id="Path_385" data-name="Path 385" d="M47.744,264.1a3.92,3.92,0,0,1,3.5,5.67A20.83,20.83,0,0,1,32.56,281.4H19.586v4.218l-9.638-8.374,9.638-8.374v4.7H32.56a13.019,13.019,0,0,0,11.67-7.257A3.928,3.928,0,0,1,47.744,264.1Z" transform="translate(-9.948 -241.092)" fill="#a8d2f0"/>
        <path id="Path_386" data-name="Path 386" d="M106.857,44.761v-4.5H93.883a12.968,12.968,0,0,0-9.208,3.823A13.118,13.118,0,0,0,82.2,47.546a3.9,3.9,0,0,1-3.5,2.176h0a3.92,3.92,0,0,1-3.5-5.67,20.831,20.831,0,0,1,18.68-11.626h12.974V28.014l9.638,8.373Z" transform="translate(-68.443 -28.014)" fill="#fff"/>
      </g>
      <g id="Group_1815" data-name="Group 1815" transform="translate(0 18.077)">
        <g id="Group_1814" data-name="Group 1814" transform="translate(0 0)">
          <path id="Path_387" data-name="Path 387" d="M38.771,254.1a4.88,4.88,0,0,0-4.389,2.747,12.109,12.109,0,0,1-4.364,4.85,11.985,11.985,0,0,1-6.432,1.864h-12v-3.717a.985.985,0,0,0-1.616-.74L.332,267.481a.99.99,0,0,0,0,1.479l9.639,8.374a.985.985,0,0,0,1.616-.74v-3.239h12a21.809,21.809,0,0,0,19.557-12.17,4.9,4.9,0,0,0-4.371-7.083Zm2.622,6.214A19.857,19.857,0,0,1,23.586,271.4H10.61a.978.978,0,0,0-.976.979v2.074l-7.172-6.23,7.172-6.231v2.552a.978.978,0,0,0,.976.979H23.586a14,14,0,0,0,12.546-7.8,2.94,2.94,0,0,1,2.64-1.66,2.907,2.907,0,0,1,2.487,1.386A2.943,2.943,0,0,1,41.393,260.316Z" transform="translate(0 -231.098)" fill="#2b5183"/>
          <path id="Path_388" data-name="Path 388" d="M108.091,26.684,98.452,18.31a.985.985,0,0,0-1.616.74v3.434h-12a21.535,21.535,0,0,0-9.935,2.4.978.978,0,0,0,.891,1.742,19.6,19.6,0,0,1,9.045-2.18H97.812a.978.978,0,0,0,.976-.979V21.193l7.172,6.23-7.172,6.23V31.3a.978.978,0,0,0-.976-.979H84.837a13.9,13.9,0,0,0-9.9,4.111,14.063,14.063,0,0,0-2.661,3.72,2.943,2.943,0,0,1-2.624,1.63,2.939,2.939,0,0,1-2.63-4.24,19.987,19.987,0,0,1,2.413-3.758.977.977,0,1,0-1.514-1.237,21.941,21.941,0,0,0-2.649,4.126,4.887,4.887,0,1,0,8.755,4.344,12.109,12.109,0,0,1,2.291-3.2,11.957,11.957,0,0,1,8.519-3.537h12V35.8a.985.985,0,0,0,1.616.74l9.639-8.373a.99.99,0,0,0,0-1.48Z" transform="translate(-58.423 -18.077)" fill="#2b5183"/>
          <path id="Path_389" data-name="Path 389" d="M126.285,111.905a.978.978,0,1,0,.53-1.278A.988.988,0,0,0,126.285,111.905Z" transform="translate(-113.885 -101.522)" fill="#2b5183"/>
        </g>
      </g>
    </g>
  </g>
</svg>
