<svg xmlns="http://www.w3.org/2000/svg" width="80.001" height="70" viewBox="0 0 80.001 70">
  <g id="Short_Term_Task" transform="translate(-1607.499 -1747)">
    <path id="Path_610" data-name="Path 610" d="M90,55.24a40,40,0,1,0-76.44,16.5H86.44A39.85,39.85,0,0,0,90,55.24Z" transform="translate(1597.5 1731.757)" fill="#dbf1fa"/>
    <g id="to-do-list" transform="translate(1572 1767)">
      <g id="Group_1863" data-name="Group 1863" transform="translate(57.932 0.993)">
        <path id="Path_611" data-name="Path 611" d="M168.629,18.937V14.965a.983.983,0,0,0-.966-.993H160.9a3.864,3.864,0,1,0-7.725,0H146.42a.982.982,0,0,0-.966.993v3.972a.982.982,0,0,0,.966.993h21.244A.983.983,0,0,0,168.629,18.937Z" transform="translate(-138.503 -10)" fill="#fff" fill-rule="evenodd"/>
        <path id="Path_612" data-name="Path 612" d="M82.284,63.9V60H77.405a1.955,1.955,0,0,0-1.951,1.948V101.1a1.955,1.955,0,0,0,1.951,1.948h33.174a1.955,1.955,0,0,0,1.951-1.948V61.948A1.955,1.955,0,0,0,110.579,60H105.7v3.9h2.927V99.153H79.357V63.9Z" transform="translate(-75.454 -55.035)" fill="#a8d2f0" fill-rule="evenodd"/>
        <path id="Path_613" data-name="Path 613" d="M119.337,100.993a.985.985,0,0,1-.971-.993h-2.913v35.945h29.133V100h-2.913a.985.985,0,0,1-.971.993Z" transform="translate(-111.481 -91.903)" fill="#ceefff" fill-rule="evenodd"/>
      </g>
      <g id="Group_1864" data-name="Group 1864" transform="translate(56)">
        <path id="Path_614" data-name="Path 614" d="M92.133,4.883H87.962a1.953,1.953,0,0,0-1.689-.976H80.316a4.884,4.884,0,0,0-9.57,0H64.789a1.953,1.953,0,0,0-1.689.976H58.93A2.933,2.933,0,0,0,56,7.812V47.07A2.933,2.933,0,0,0,58.93,50h33.2a2.933,2.933,0,0,0,2.93-2.93V7.812a2.933,2.933,0,0,0-2.93-2.93Zm-21,4.883H64.789V5.859h6.836a.977.977,0,0,0,.977-.977,2.93,2.93,0,0,1,5.86,0,.977.977,0,0,0,.977.977h6.836V9.766H79.925a.977.977,0,1,0,0,1.953h6.348a1.953,1.953,0,0,0,1.689-.977H89.2v33.4H61.859v-33.4H63.1a1.953,1.953,0,0,0,1.689.977h6.347a.977.977,0,1,0,0-1.953Zm21.973,37.3a.978.978,0,0,1-.977.976H58.93a.978.978,0,0,1-.977-.976V7.812a.978.978,0,0,1,.977-.977h3.906V8.789H60.883a.977.977,0,0,0-.977.977V45.117a.977.977,0,0,0,.977.977h29.3a.977.977,0,0,0,.977-.977V9.766a.977.977,0,0,0-.977-.977H88.227V6.836h3.906a.978.978,0,0,1,.977.977Z" transform="translate(-56)" fill="#2b5183"/>
        <path id="Path_615" data-name="Path 615" d="M246.994,41.987a.993.993,0,0,0,0-1.986h0a.993.993,0,0,0,0,1.986Z" transform="translate(-227.463 -36.029)" fill="#2b5183"/>
        <path id="Path_616" data-name="Path 616" d="M150.265,137.959l-1.946,1.946-.622-.622a.993.993,0,0,0-1.4,1.4l1.324,1.324a.993.993,0,0,0,1.4,0l2.648-2.648a.993.993,0,0,0-1.4-1.4Z" transform="translate(-137.239 -124.247)" fill="#2b5183"/>
        <path id="Path_617" data-name="Path 617" d="M226.993,152.987h11.915a.993.993,0,0,0,0-1.986H226.993a.993.993,0,0,0,0,1.986Z" transform="translate(-209.549 -136.265)" fill="#2b5183"/>
        <path id="Path_618" data-name="Path 618" d="M150.265,197.96l-1.946,1.946-.622-.622a.993.993,0,0,0-1.4,1.4l1.324,1.324a.993.993,0,0,0,1.4,0l2.648-2.648a.993.993,0,1,0-1.4-1.4Z" transform="translate(-137.239 -178.398)" fill="#2b5183"/>
        <path id="Path_619" data-name="Path 619" d="M226.993,212.987h11.915a.993.993,0,0,0,0-1.986H226.993a.993.993,0,0,0,0,1.986Z" transform="translate(-209.549 -190.41)" fill="#2b5183"/>
        <path id="Path_620" data-name="Path 620" d="M150.265,257.958l-1.946,1.946-.622-.622a.993.993,0,0,0-1.4,1.4l1.324,1.324a.993.993,0,0,0,1.4,0l2.648-2.648a.993.993,0,0,0-1.4-1.4Z" transform="translate(-137.239 -232.547)" fill="#2b5183"/>
        <path id="Path_621" data-name="Path 621" d="M226.993,272.987h11.915a.993.993,0,1,0,0-1.986H226.993a.993.993,0,1,0,0,1.986Z" transform="translate(-209.549 -244.554)" fill="#2b5183"/>
        <path id="Path_622" data-name="Path 622" d="M150.265,317.958l-1.946,1.946-.622-.622a.993.993,0,1,0-1.4,1.4l1.324,1.324a.993.993,0,0,0,1.4,0l2.648-2.648a.993.993,0,0,0-1.4-1.4Z" transform="translate(-137.239 -286.697)" fill="#2b5183"/>
        <path id="Path_623" data-name="Path 623" d="M226.993,332.987h11.915a.993.993,0,1,0,0-1.986H226.993a.993.993,0,0,0,0,1.986Z" transform="translate(-209.549 -298.699)" fill="#2b5183"/>
        <path id="Path_624" data-name="Path 624" d="M150.265,377.958,148.32,379.9l-.622-.622a.993.993,0,1,0-1.4,1.4l1.324,1.324a.993.993,0,0,0,1.4,0l2.648-2.648a.993.993,0,1,0-1.4-1.4Z" transform="translate(-137.24 -340.848)" fill="#2b5183"/>
        <path id="Path_625" data-name="Path 625" d="M226.993,392.986h11.915a.993.993,0,0,0,0-1.986H226.993a.993.993,0,0,0,0,1.986Z" transform="translate(-209.549 -352.843)" fill="#2b5183"/>
        <path id="Path_626" data-name="Path 626" d="M246.99,101.986a.993.993,0,0,0,0-1.986h0a.993.993,0,0,0,0,1.986Z" transform="translate(-227.459 -90.241)" fill="#2b5183"/>
      </g>
    </g>
  </g>
</svg>
